%TF.GenerationSoftware,KiCad,Pcbnew,9.0.7*%
%TF.CreationDate,2026-02-02T21:57:32-08:00*%
%TF.ProjectId,IcePi_Zero_PMOD_Breakout,49636550-695f-45a6-9572-6f5f504d4f44,rev?*%
%TF.SameCoordinates,Original*%
%TF.FileFunction,Paste,Top*%
%TF.FilePolarity,Positive*%
%FSLAX46Y46*%
G04 Gerber Fmt 4.6, Leading zero omitted, Abs format (unit mm)*
G04 Created by KiCad (PCBNEW 9.0.7) date 2026-02-02 21:57:32*
%MOMM*%
%LPD*%
G01*
G04 APERTURE LIST*
G04 Aperture macros list*
%AMRoundRect*
0 Rectangle with rounded corners*
0 $1 Rounding radius*
0 $2 $3 $4 $5 $6 $7 $8 $9 X,Y pos of 4 corners*
0 Add a 4 corners polygon primitive as box body*
4,1,4,$2,$3,$4,$5,$6,$7,$8,$9,$2,$3,0*
0 Add four circle primitives for the rounded corners*
1,1,$1+$1,$2,$3*
1,1,$1+$1,$4,$5*
1,1,$1+$1,$6,$7*
1,1,$1+$1,$8,$9*
0 Add four rect primitives between the rounded corners*
20,1,$1+$1,$2,$3,$4,$5,0*
20,1,$1+$1,$4,$5,$6,$7,0*
20,1,$1+$1,$6,$7,$8,$9,0*
20,1,$1+$1,$8,$9,$2,$3,0*%
G04 Aperture macros list end*
%ADD10RoundRect,0.250000X-0.325000X-0.450000X0.325000X-0.450000X0.325000X0.450000X-0.325000X0.450000X0*%
%ADD11RoundRect,0.250000X0.350000X0.450000X-0.350000X0.450000X-0.350000X-0.450000X0.350000X-0.450000X0*%
%ADD12RoundRect,0.157500X0.367500X0.842500X-0.367500X0.842500X-0.367500X-0.842500X0.367500X-0.842500X0*%
%ADD13RoundRect,0.250000X0.475000X-0.337500X0.475000X0.337500X-0.475000X0.337500X-0.475000X-0.337500X0*%
%ADD14RoundRect,0.250000X-0.475000X0.337500X-0.475000X-0.337500X0.475000X-0.337500X0.475000X0.337500X0*%
G04 APERTURE END LIST*
D10*
%TO.C,D1*%
X82875000Y-100900000D03*
X84925000Y-100900000D03*
%TD*%
D11*
%TO.C,R3*%
X88700000Y-105900000D03*
X86700000Y-105900000D03*
%TD*%
D10*
%TO.C,D3*%
X82875000Y-105900000D03*
X84925000Y-105900000D03*
%TD*%
D11*
%TO.C,R1*%
X88700000Y-100900000D03*
X86700000Y-100900000D03*
%TD*%
D12*
%TO.C,SW1*%
X81025000Y-104300000D03*
X76575000Y-104300000D03*
%TD*%
D13*
%TO.C,C5*%
X88000000Y-97750000D03*
X88000000Y-95675000D03*
%TD*%
D10*
%TO.C,D2*%
X82875000Y-103400000D03*
X84925000Y-103400000D03*
%TD*%
D12*
%TO.C,SW3*%
X81025000Y-111500000D03*
X76575000Y-111500000D03*
%TD*%
%TO.C,SW2*%
X81025000Y-107900000D03*
X76575000Y-107900000D03*
%TD*%
D10*
%TO.C,D4*%
X82875000Y-108400000D03*
X84925000Y-108400000D03*
%TD*%
D13*
%TO.C,C2*%
X74000000Y-90750000D03*
X74000000Y-88675000D03*
%TD*%
D11*
%TO.C,R6*%
X88700000Y-113500000D03*
X86700000Y-113500000D03*
%TD*%
D10*
%TO.C,D6*%
X82875000Y-113500000D03*
X84925000Y-113500000D03*
%TD*%
%TO.C,D5*%
X82875000Y-111000000D03*
X84925000Y-111000000D03*
%TD*%
D11*
%TO.C,R2*%
X88700000Y-103400000D03*
X86700000Y-103400000D03*
%TD*%
D14*
%TO.C,C3*%
X74200000Y-117262500D03*
X74200000Y-119337500D03*
%TD*%
D12*
%TO.C,SW4*%
X81025000Y-115100000D03*
X76575000Y-115100000D03*
%TD*%
D11*
%TO.C,R4*%
X88700000Y-108400000D03*
X86700000Y-108400000D03*
%TD*%
D13*
%TO.C,C1*%
X74000000Y-67750000D03*
X74000000Y-65675000D03*
%TD*%
%TO.C,C4*%
X85750000Y-97750000D03*
X85750000Y-95675000D03*
%TD*%
D11*
%TO.C,R5*%
X88700000Y-111000000D03*
X86700000Y-111000000D03*
%TD*%
M02*
