M48
; DRILL file {KiCad 9.0.7} date 2026-02-02T21:57:35-0800
; FORMAT={-:-/ absolute / inch / decimal}
; #@! TF.CreationDate,2026-02-02T21:57:35-08:00
; #@! TF.GenerationSoftware,Kicad,Pcbnew,9.0.7
; #@! TF.FileFunction,Plated,1,4,PTH
FMAT,2
INCH
; #@! TA.AperFunction,Plated,PTH,ViaDrill
T1C0.0118
; #@! TA.AperFunction,Plated,PTH,ComponentDrill
T2C0.0394
; #@! TA.AperFunction,Plated,PTH,ComponentDrill
T3C0.1063
%
G90
G05
T1
X2.6811Y-2.0827
X2.747Y-2.7234
X2.8543Y-2.0866
X2.8573Y-3.2677
X2.875Y-2.9242
X2.876Y-3.3317
X2.8858Y-2.311
X2.9213Y-4.563
X2.9272Y-2.4429
X2.9311Y-3.4026
X2.935Y-3.188
X2.9449Y-4.1841
X2.9449Y-4.4252
X2.9843Y-2.4055
X2.9902Y-2.624
X2.9902Y-3.5335
X3.0049Y-4.6506
X3.0079Y-2.2992
X3.0305Y-3.503
X3.0354Y-2.626
X3.0659Y-3.9921
X3.0659Y-4.185
X3.0669Y-4.3002
X3.0768Y-3.1821
X3.0866Y-2.3425
X3.0896Y-4.1329
X3.0965Y-3.3228
X3.1068Y-2.7741
X3.1073Y-3.4872
X3.1122Y-4.3583
X3.1132Y-2.7146
X3.123Y-2.4134
X3.126Y-4.248
X3.126Y-4.5276
X3.1319Y-3.1722
X3.1339Y-4.4183
X3.1535Y-2.0315
X3.1535Y-4.3012
X3.1654Y-3.4213
X3.1703Y-2.9429
X3.1772Y-3.5157
X3.1781Y-4.4587
X3.1841Y-3.998
X3.19Y-2.7758
X3.2087Y-2.4921
X3.2087Y-3.5433
X3.2106Y-4.0335
X3.2215Y-2.81
X3.2293Y-2.5472
X3.2402Y-3.374
X3.2451Y-2.3661
X3.248Y-3.626
X3.252Y-2.8484
X3.2598Y-2.9577
X3.2598Y-3.9016
X3.2628Y-4.3189
X3.2638Y-4.4183
X3.2667Y-2.5138
X3.2756Y-1.9134
X3.2795Y-3.4331
X3.2825Y-2.4183
X3.2835Y-3.5984
X3.2884Y-3.002
X3.2894Y-2.5778
X3.3022Y-3.9124
X3.3031Y-4.5335
X3.3071Y-4.1093
X3.3278Y-3.5748
X3.3346Y-4.2185
X3.3386Y-4.3179
X3.3396Y-2.6486
X3.3465Y-2.0866
X3.3661Y-3.6299
X3.3671Y-2.9852
X3.3701Y-3.4331
X3.372Y-3.9016
X3.3819Y-3.4843
X3.3848Y-3.0148
X3.3888Y-3.187
X3.4016Y-2.1772
X3.4065Y-3.0404
X3.4094Y-3.3268
X3.4114Y-4.0226
X3.4134Y-3.9252
X3.4213Y-3.6654
X3.4291Y-3.063
X3.4528Y-3.0866
X3.4528Y-4.5305
X3.4646Y-4.0197
X3.4675Y-4.2185
X3.4941Y-2.6811
X3.4941Y-3.9242
X3.4961Y-3.122
X3.4961Y-3.3701
X3.499Y-4.2205
X3.5079Y-3.4961
X3.5157Y-3.8071
X3.5236Y-3.6732
X3.5276Y-2.5354
X3.5276Y-3.1457
X3.5325Y-3.8789
X3.5344Y-1.8957
X3.5394Y-2.8583
X3.5394Y-4.0709
X3.5404Y-4.5226
X3.5433Y-4.1535
X3.5453Y-4.2844
X3.5472Y-2.3297
X3.5472Y-4.3465
X3.5472Y-4.3937
X3.7559Y-4.2205
T2
X2.6961Y-2.1697
X2.6961Y-2.2697
X2.6961Y-2.3697
X2.6961Y-2.4697
X2.6961Y-2.5697
X2.6961Y-2.6697
X2.6961Y-3.0697
X2.6961Y-3.1697
X2.6961Y-3.2697
X2.6961Y-3.3697
X2.6961Y-3.4697
X2.6961Y-3.5697
X2.6961Y-3.9697
X2.6961Y-4.0697
X2.6961Y-4.1697
X2.6961Y-4.2697
X2.6961Y-4.3697
X2.6961Y-4.4697
X2.7961Y-2.1697
X2.7961Y-2.2697
X2.7961Y-2.3697
X2.7961Y-2.4697
X2.7961Y-2.5697
X2.7961Y-2.6697
X2.7961Y-3.0697
X2.7961Y-3.1697
X2.7961Y-3.2697
X2.7961Y-3.3697
X2.7961Y-3.4697
X2.7961Y-3.5697
X2.7961Y-3.9697
X2.7961Y-4.0697
X2.7961Y-4.1697
X2.7961Y-4.2697
X2.7961Y-4.3697
X2.7961Y-4.4697
X3.6014Y-3.9697
X3.6014Y-4.0697
X3.6014Y-4.1697
X3.6014Y-4.2697
X3.6014Y-4.3697
X3.6014Y-4.4697
X3.6023Y-1.678
X3.6023Y-1.778
X3.6023Y-1.878
X3.6023Y-1.978
X3.6023Y-2.078
X3.6023Y-2.178
X3.6023Y-2.278
X3.6023Y-2.378
X3.6023Y-2.478
X3.6023Y-2.578
X3.6023Y-2.678
X3.6023Y-2.778
X3.6023Y-2.878
X3.6023Y-2.978
X3.6023Y-3.078
X3.6023Y-3.178
X3.6023Y-3.278
X3.6023Y-3.378
X3.6023Y-3.478
X3.6023Y-3.578
X3.7014Y-3.9697
X3.7014Y-4.0697
X3.7014Y-4.1697
X3.7014Y-4.2697
X3.7014Y-4.3697
X3.7014Y-4.4697
X3.7023Y-1.678
X3.7023Y-1.778
X3.7023Y-1.878
X3.7023Y-1.978
X3.7023Y-2.078
X3.7023Y-2.178
X3.7023Y-2.278
X3.7023Y-2.378
X3.7023Y-2.478
X3.7023Y-2.578
X3.7023Y-2.678
X3.7023Y-2.778
X3.7023Y-2.878
X3.7023Y-2.978
X3.7023Y-3.078
X3.7023Y-3.178
X3.7023Y-3.278
X3.7023Y-3.378
X3.7023Y-3.478
X3.7023Y-3.578
T3
X2.7461Y-1.4862
X2.7461Y-3.7697
X2.7461Y-4.6752
X3.6516Y-1.4862
X3.6516Y-3.7697
X3.6516Y-4.6752
M30
