%TF.GenerationSoftware,KiCad,Pcbnew,9.0.7*%
%TF.CreationDate,2026-02-02T21:57:32-08:00*%
%TF.ProjectId,IcePi_Zero_PMOD_Breakout,49636550-695f-45a6-9572-6f5f504d4f44,rev?*%
%TF.SameCoordinates,Original*%
%TF.FileFunction,Copper,L3,Inr*%
%TF.FilePolarity,Positive*%
%FSLAX46Y46*%
G04 Gerber Fmt 4.6, Leading zero omitted, Abs format (unit mm)*
G04 Created by KiCad (PCBNEW 9.0.7) date 2026-02-02 21:57:32*
%MOMM*%
%LPD*%
G01*
G04 APERTURE LIST*
%TA.AperFunction,ComponentPad*%
%ADD10C,5.400000*%
%TD*%
%TA.AperFunction,ComponentPad*%
%ADD11R,1.700000X1.700000*%
%TD*%
%TA.AperFunction,ComponentPad*%
%ADD12C,1.700000*%
%TD*%
%TA.AperFunction,ViaPad*%
%ADD13C,0.600000*%
%TD*%
%TA.AperFunction,Conductor*%
%ADD14C,0.300000*%
%TD*%
G04 APERTURE END LIST*
D10*
%TO.N,GND*%
%TO.C,H1*%
X69750000Y-37750000D03*
%TD*%
D11*
%TO.N,/3V3*%
%TO.C,J1*%
X91497500Y-42620000D03*
D12*
%TO.N,/5V0*%
X94037500Y-42620000D03*
%TO.N,/GPIO2*%
X91497500Y-45160000D03*
%TO.N,/5V0*%
X94037500Y-45160000D03*
%TO.N,/GPIO3*%
X91497500Y-47700000D03*
%TO.N,GND*%
X94037500Y-47700000D03*
%TO.N,/GPIO4*%
X91497500Y-50240000D03*
%TO.N,/GPIO14*%
X94037500Y-50240000D03*
%TO.N,GND*%
X91497500Y-52780000D03*
%TO.N,/GPIO15*%
X94037500Y-52780000D03*
%TO.N,/GPIO17*%
X91497500Y-55320000D03*
%TO.N,/GPIO18*%
X94037500Y-55320000D03*
%TO.N,/GPIO27*%
X91497500Y-57860000D03*
%TO.N,GND*%
X94037500Y-57860000D03*
%TO.N,/GPIO22*%
X91497500Y-60400000D03*
%TO.N,/GPIO23*%
X94037500Y-60400000D03*
%TO.N,/3V3*%
X91497500Y-62940000D03*
%TO.N,/GPIO24*%
X94037500Y-62940000D03*
%TO.N,/GPIO10*%
X91497500Y-65480000D03*
%TO.N,GND*%
X94037500Y-65480000D03*
%TO.N,/GPIO9*%
X91497500Y-68020000D03*
%TO.N,/GPIO25*%
X94037500Y-68020000D03*
%TO.N,/GPIO11*%
X91497500Y-70560000D03*
%TO.N,/GPIO8*%
X94037500Y-70560000D03*
%TO.N,GND*%
X91497500Y-73100000D03*
%TO.N,/GPIO7*%
X94037500Y-73100000D03*
%TO.N,/GPIO0*%
X91497500Y-75640000D03*
%TO.N,/GPIO1*%
X94037500Y-75640000D03*
%TO.N,/GPIO5*%
X91497500Y-78180000D03*
%TO.N,GND*%
X94037500Y-78180000D03*
%TO.N,/GPIO6*%
X91497500Y-80720000D03*
%TO.N,/GPIO12*%
X94037500Y-80720000D03*
%TO.N,/GPIO13*%
X91497500Y-83260000D03*
%TO.N,GND*%
X94037500Y-83260000D03*
%TO.N,/GPIO19*%
X91497500Y-85800000D03*
%TO.N,/GPIO16*%
X94037500Y-85800000D03*
%TO.N,/GPIO26*%
X91497500Y-88340000D03*
%TO.N,/GPIO20*%
X94037500Y-88340000D03*
%TO.N,GND*%
X91497500Y-90880000D03*
%TO.N,/GPIO21*%
X94037500Y-90880000D03*
%TD*%
D11*
%TO.N,/GPIO8*%
%TO.C,J3*%
X71020000Y-77970000D03*
D12*
%TO.N,/GPIO12*%
X68480000Y-77970000D03*
%TO.N,/GPIO9*%
X71020000Y-80510000D03*
%TO.N,/GPIO13*%
X68480000Y-80510000D03*
%TO.N,/GPIO10*%
X71020000Y-83050000D03*
%TO.N,/GPIO14*%
X68480000Y-83050000D03*
%TO.N,/GPIO11*%
X71020000Y-85590000D03*
%TO.N,/GPIO15*%
X68480000Y-85590000D03*
%TO.N,GND*%
X71020000Y-88130000D03*
X68480000Y-88130000D03*
%TO.N,/3V3*%
X71020000Y-90670000D03*
X68480000Y-90670000D03*
%TD*%
D10*
%TO.N,GND*%
%TO.C,H5*%
X69750000Y-118750001D03*
%TD*%
D11*
%TO.N,/GPIO16*%
%TO.C,J4*%
X71020000Y-100830000D03*
D12*
%TO.N,/GPIO20*%
X68480000Y-100830000D03*
%TO.N,/GPIO17*%
X71020000Y-103370000D03*
%TO.N,/GPIO21*%
X68480000Y-103370000D03*
%TO.N,/GPIO18*%
X71020000Y-105910000D03*
%TO.N,/GPIO22*%
X68480000Y-105910000D03*
%TO.N,/GPIO19*%
X71020000Y-108450000D03*
%TO.N,/GPIO23*%
X68480000Y-108450000D03*
%TO.N,GND*%
X71020000Y-110990000D03*
X68480000Y-110990000D03*
%TO.N,/3V3*%
X71020000Y-113530000D03*
X68480000Y-113530000D03*
%TD*%
D10*
%TO.N,GND*%
%TO.C,H4*%
X92750000Y-95750000D03*
%TD*%
%TO.N,GND*%
%TO.C,H3*%
X69750000Y-95750000D03*
%TD*%
D11*
%TO.N,GND*%
%TO.C,J5*%
X91475000Y-100830000D03*
D12*
%TO.N,/5V0*%
X94015000Y-100830000D03*
%TO.N,GND*%
X91475000Y-103370000D03*
%TO.N,/3V3*%
X94015000Y-103370000D03*
%TO.N,GND*%
X91475000Y-105910000D03*
%TO.N,/GPIO24*%
X94015000Y-105910000D03*
%TO.N,GND*%
X91475000Y-108450000D03*
%TO.N,/GPIO25*%
X94015000Y-108450000D03*
%TO.N,GND*%
X91475000Y-110990000D03*
%TO.N,/GPIO26*%
X94015000Y-110990000D03*
%TO.N,GND*%
X91475000Y-113530000D03*
%TO.N,/GPIO27*%
X94015000Y-113530000D03*
%TD*%
D10*
%TO.N,GND*%
%TO.C,H2*%
X92750000Y-37750000D03*
%TD*%
D11*
%TO.N,/GPIO0*%
%TO.C,J2*%
X71020000Y-55110000D03*
D12*
%TO.N,/GPIO4*%
X68480000Y-55110000D03*
%TO.N,/GPIO1*%
X71020000Y-57650000D03*
%TO.N,/GPIO5*%
X68480000Y-57650000D03*
%TO.N,/GPIO2*%
X71020000Y-60190000D03*
%TO.N,/GPIO6*%
X68480000Y-60190000D03*
%TO.N,/GPIO3*%
X71020000Y-62730000D03*
%TO.N,/GPIO7*%
X68480000Y-62730000D03*
%TO.N,GND*%
X71020000Y-65270000D03*
X68480000Y-65270000D03*
%TO.N,/3V3*%
X71020000Y-67810000D03*
X68480000Y-67810000D03*
%TD*%
D10*
%TO.N,GND*%
%TO.C,H6*%
X92750000Y-118750001D03*
%TD*%
D13*
%TO.N,/GPIO14*%
X79325000Y-61300000D03*
%TO.N,/GPIO3*%
X74350000Y-62050000D03*
%TO.N,/GPIO18*%
X82500000Y-92100000D03*
X85975000Y-76575000D03*
%TO.N,/GPIO9*%
X81025000Y-70505000D03*
%TO.N,/GPIO27*%
X89100000Y-88800000D03*
X86525000Y-77225000D03*
X82300000Y-85700000D03*
X86900000Y-93100000D03*
%TO.N,/GPIO7*%
X82800000Y-75125000D03*
%TO.N,/GPIO10*%
X81825000Y-71375000D03*
%TO.N,/5V0*%
X88000000Y-102100000D03*
X89300000Y-96700000D03*
X83375000Y-61425000D03*
X81500000Y-63300000D03*
%TO.N,/GPIO24*%
X88800000Y-79300000D03*
X89500000Y-93300000D03*
X89600000Y-64400000D03*
%TO.N,/GPIO8*%
X78912500Y-70462500D03*
%TO.N,/3V3*%
X77900000Y-109225000D03*
X74200000Y-115900000D03*
X75950000Y-89750000D03*
X75950000Y-66650000D03*
X85650000Y-99100000D03*
%TO.N,/GPIO22*%
X83300000Y-87200000D03*
X87100000Y-77800000D03*
%TO.N,/GPIO15*%
X82025000Y-64700000D03*
X78150000Y-80825000D03*
%TO.N,/GPIO21*%
X81500000Y-90000000D03*
%TO.N,/GPIO17*%
X80400000Y-86900000D03*
X85525000Y-75825000D03*
%TO.N,/GPIO20*%
X86600000Y-84500000D03*
%TO.N,/GPIO26*%
X82800000Y-99100000D03*
%TO.N,/GPIO23*%
X83400000Y-91400000D03*
X87700000Y-78400000D03*
%TO.N,/GPIO25*%
X79400000Y-107900000D03*
X85500000Y-92200000D03*
X85900000Y-88500000D03*
X88800000Y-85600000D03*
X89600000Y-79900000D03*
%TO.N,/GPIO16*%
X80700000Y-89300000D03*
X85600000Y-87200000D03*
%TO.N,/GPIO11*%
X82600000Y-72350000D03*
%TO.N,GND*%
X73300000Y-58700000D03*
X78650000Y-84400000D03*
X74550000Y-80975000D03*
X82900000Y-112225000D03*
X74450000Y-86425000D03*
X89725000Y-98525000D03*
X76975000Y-88975000D03*
X83525000Y-76250000D03*
X90100000Y-110400000D03*
X72500000Y-53000000D03*
X78400000Y-59500000D03*
X84525000Y-90800000D03*
X74800000Y-112400000D03*
X83900000Y-115150000D03*
X80875000Y-101550000D03*
X73025000Y-74275000D03*
X78925000Y-88575000D03*
X79050000Y-110700000D03*
X85000000Y-53000000D03*
X80725000Y-113250000D03*
X95400000Y-107200000D03*
X88750000Y-99675000D03*
X79550000Y-80575000D03*
X86075000Y-80950000D03*
X84825000Y-67275000D03*
X72575000Y-83000000D03*
X80100000Y-51600000D03*
X89900000Y-72600000D03*
X68100000Y-52900000D03*
X82975000Y-63850000D03*
X77875000Y-101400000D03*
X76400000Y-58400000D03*
X84800000Y-109675000D03*
X81550000Y-102450000D03*
X79075000Y-68950000D03*
X89900000Y-103400000D03*
X83550000Y-65475000D03*
X90100000Y-59175000D03*
X89775000Y-48150000D03*
X73050000Y-84625000D03*
X89925000Y-114875000D03*
X77875000Y-106300000D03*
X82425000Y-60100000D03*
X80525000Y-74750000D03*
X90000000Y-105500000D03*
X82875000Y-109700000D03*
X75800000Y-61100000D03*
X84000000Y-104375000D03*
X83200000Y-48600000D03*
X86700000Y-99700000D03*
X84700000Y-107150000D03*
X69775000Y-69175000D03*
X77100000Y-66700000D03*
X86400000Y-55300000D03*
X76325000Y-118125000D03*
X74800000Y-106275000D03*
X86650000Y-102175000D03*
X88875000Y-107200000D03*
X88750000Y-68100000D03*
X83875000Y-99375000D03*
%TO.N,Net-(JP1-B)*%
X78475000Y-104975000D03*
%TO.N,Net-(JP2-B)*%
X80100000Y-109250000D03*
%TO.N,Net-(JP3-B)*%
X79600000Y-112225000D03*
%TO.N,Net-(JP4-B)*%
X79400000Y-115000000D03*
%TO.N,Net-(JP5-A)*%
X88075000Y-107150000D03*
%TO.N,Net-(JP6-A)*%
X90050000Y-108825000D03*
%TO.N,Net-(JP7-A)*%
X90100000Y-111600000D03*
%TO.N,Net-(JP8-A)*%
X87700000Y-115075000D03*
%TD*%
D14*
%TO.N,/GPIO1*%
X92752500Y-76925000D02*
X94037500Y-75640000D01*
X71020000Y-57650000D02*
X88672500Y-75302500D01*
X90295000Y-76925000D02*
X92752500Y-76925000D01*
X88672500Y-75302500D02*
X90295000Y-76925000D01*
%TO.N,/GPIO9*%
X71020000Y-80510000D02*
X81025000Y-70505000D01*
%TO.N,/GPIO27*%
X85800000Y-104100000D02*
X85800000Y-110100000D01*
X81400000Y-99700000D02*
X85800000Y-104100000D01*
X81400000Y-98600000D02*
X81400000Y-99700000D01*
X92785000Y-112300000D02*
X94015000Y-113530000D01*
X88000000Y-112300000D02*
X92785000Y-112300000D01*
X86000000Y-85700000D02*
X89100000Y-88800000D01*
X82300000Y-85700000D02*
X86000000Y-85700000D01*
X85800000Y-110100000D02*
X88000000Y-112300000D01*
X86900000Y-93100000D02*
X81400000Y-98600000D01*
%TO.N,/GPIO10*%
X71020000Y-83050000D02*
X81825000Y-72245000D01*
X81825000Y-72245000D02*
X81825000Y-71375000D01*
%TO.N,/GPIO24*%
X92777500Y-64200000D02*
X91500000Y-64200000D01*
X92800000Y-104695000D02*
X94015000Y-105910000D01*
X94037500Y-62940000D02*
X92777500Y-64200000D01*
X90100000Y-102100000D02*
X92000000Y-102100000D01*
X87800000Y-99800000D02*
X90100000Y-102100000D01*
X92800000Y-102900000D02*
X92800000Y-104695000D01*
X92000000Y-102100000D02*
X92800000Y-102900000D01*
X91500000Y-64200000D02*
X89800000Y-64200000D01*
X89800000Y-64200000D02*
X89600000Y-64400000D01*
X87800000Y-95000000D02*
X87800000Y-99800000D01*
X89500000Y-93300000D02*
X87800000Y-95000000D01*
%TO.N,/GPIO8*%
X78912500Y-70462500D02*
X71405000Y-77970000D01*
X71405000Y-77970000D02*
X71020000Y-77970000D01*
%TO.N,/GPIO0*%
X71020000Y-55162500D02*
X91497500Y-75640000D01*
X71020000Y-55110000D02*
X71020000Y-55162500D01*
%TO.N,/GPIO15*%
X68480000Y-85590000D02*
X69765000Y-86875000D01*
X69765000Y-86875000D02*
X72100000Y-86875000D01*
X72100000Y-86875000D02*
X78150000Y-80825000D01*
%TO.N,/GPIO21*%
X81821000Y-89679000D02*
X92836500Y-89679000D01*
X92836500Y-89679000D02*
X94037500Y-90880000D01*
X81500000Y-90000000D02*
X81821000Y-89679000D01*
%TO.N,/GPIO4*%
X91497500Y-50240000D02*
X73350000Y-50240000D01*
X73350000Y-50240000D02*
X68480000Y-55110000D01*
%TO.N,/GPIO26*%
X92700000Y-109675000D02*
X94015000Y-110990000D01*
X92700000Y-107700000D02*
X92700000Y-109675000D01*
X82800000Y-99100000D02*
X82800000Y-99900000D01*
X90100000Y-107200000D02*
X92200000Y-107200000D01*
X92200000Y-107200000D02*
X92700000Y-107700000D01*
X82800000Y-99900000D02*
X90100000Y-107200000D01*
%TO.N,/GPIO25*%
X79400000Y-98300000D02*
X85500000Y-92200000D01*
X88800000Y-85600000D02*
X88800000Y-80700000D01*
X79400000Y-107900000D02*
X79400000Y-98300000D01*
X88800000Y-80700000D02*
X89600000Y-79900000D01*
%TO.N,/GPIO16*%
X84200000Y-88600000D02*
X85600000Y-87200000D01*
X81400000Y-88600000D02*
X84200000Y-88600000D01*
X80700000Y-89300000D02*
X81400000Y-88600000D01*
%TO.N,/GPIO5*%
X69775000Y-58945000D02*
X69775000Y-61000000D01*
X75300000Y-63200000D02*
X90280000Y-78180000D01*
X70225000Y-61450000D02*
X72225000Y-61450000D01*
X72225000Y-61450000D02*
X73975000Y-63200000D01*
X69775000Y-61000000D02*
X70225000Y-61450000D01*
X73975000Y-63200000D02*
X75300000Y-63200000D01*
X90280000Y-78180000D02*
X91497500Y-78180000D01*
X68480000Y-57650000D02*
X69775000Y-58945000D01*
%TO.N,/GPIO11*%
X82600000Y-72350000D02*
X82600000Y-74010000D01*
X82600000Y-74010000D02*
X71020000Y-85590000D01*
%TO.N,GND*%
X90125000Y-107825000D02*
X90750000Y-108450000D01*
X88875000Y-107200000D02*
X89500000Y-107825000D01*
X91475000Y-103370000D02*
X89930000Y-103370000D01*
X91065000Y-105500000D02*
X91475000Y-105910000D01*
X93606529Y-107200000D02*
X95400000Y-107200000D01*
X90885000Y-110400000D02*
X90100000Y-110400000D01*
X89500000Y-107825000D02*
X90125000Y-107825000D01*
X91475000Y-110990000D02*
X90885000Y-110400000D01*
X91475000Y-105910000D02*
X92316529Y-105910000D01*
X89930000Y-103370000D02*
X89900000Y-103400000D01*
X90750000Y-108450000D02*
X91475000Y-108450000D01*
X92316529Y-105910000D02*
X93606529Y-107200000D01*
X90000000Y-105500000D02*
X91065000Y-105500000D01*
%TD*%
%TA.AperFunction,Conductor*%
%TO.N,GND*%
G36*
X70554075Y-111182993D02*
G01*
X70619901Y-111297007D01*
X70712993Y-111390099D01*
X70827007Y-111455925D01*
X70890590Y-111472962D01*
X70258282Y-112105269D01*
X70258282Y-112105270D01*
X70312452Y-112144626D01*
X70312451Y-112144626D01*
X70321495Y-112149234D01*
X70372292Y-112197208D01*
X70389087Y-112265029D01*
X70366550Y-112331164D01*
X70321499Y-112370202D01*
X70312182Y-112374949D01*
X70140213Y-112499890D01*
X69989890Y-112650213D01*
X69864949Y-112822182D01*
X69860484Y-112830946D01*
X69812509Y-112881742D01*
X69744688Y-112898536D01*
X69678553Y-112875998D01*
X69639516Y-112830946D01*
X69635050Y-112822182D01*
X69510109Y-112650213D01*
X69359786Y-112499890D01*
X69187817Y-112374949D01*
X69178504Y-112370204D01*
X69127707Y-112322230D01*
X69110912Y-112254409D01*
X69133449Y-112188274D01*
X69178507Y-112149232D01*
X69187555Y-112144622D01*
X69241716Y-112105270D01*
X69241717Y-112105270D01*
X68609408Y-111472962D01*
X68672993Y-111455925D01*
X68787007Y-111390099D01*
X68880099Y-111297007D01*
X68945925Y-111182993D01*
X68962962Y-111119408D01*
X69595270Y-111751717D01*
X69595270Y-111751716D01*
X69634622Y-111697554D01*
X69639514Y-111687954D01*
X69687488Y-111637157D01*
X69755308Y-111620361D01*
X69821444Y-111642897D01*
X69860486Y-111687954D01*
X69865375Y-111697550D01*
X69904728Y-111751716D01*
X70537037Y-111119408D01*
X70554075Y-111182993D01*
G37*
%TD.AperFunction*%
%TA.AperFunction,Conductor*%
G36*
X69821444Y-109103999D02*
G01*
X69860486Y-109149056D01*
X69864951Y-109157820D01*
X69989890Y-109329786D01*
X70140213Y-109480109D01*
X70312179Y-109605048D01*
X70312181Y-109605049D01*
X70312184Y-109605051D01*
X70321493Y-109609794D01*
X70372290Y-109657766D01*
X70389087Y-109725587D01*
X70366552Y-109791722D01*
X70321505Y-109830760D01*
X70312446Y-109835376D01*
X70312440Y-109835380D01*
X70258282Y-109874727D01*
X70258282Y-109874728D01*
X70890591Y-110507037D01*
X70827007Y-110524075D01*
X70712993Y-110589901D01*
X70619901Y-110682993D01*
X70554075Y-110797007D01*
X70537037Y-110860591D01*
X69904728Y-110228282D01*
X69904727Y-110228282D01*
X69865380Y-110282440D01*
X69860483Y-110292051D01*
X69812506Y-110342845D01*
X69744684Y-110359638D01*
X69678550Y-110337098D01*
X69639516Y-110292048D01*
X69634626Y-110282452D01*
X69595270Y-110228282D01*
X69595269Y-110228282D01*
X68962962Y-110860590D01*
X68945925Y-110797007D01*
X68880099Y-110682993D01*
X68787007Y-110589901D01*
X68672993Y-110524075D01*
X68609409Y-110507037D01*
X69241716Y-109874728D01*
X69187547Y-109835373D01*
X69187547Y-109835372D01*
X69178500Y-109830763D01*
X69127706Y-109782788D01*
X69110912Y-109714966D01*
X69133451Y-109648832D01*
X69178508Y-109609793D01*
X69187816Y-109605051D01*
X69285075Y-109534389D01*
X69359786Y-109480109D01*
X69359788Y-109480106D01*
X69359792Y-109480104D01*
X69510104Y-109329792D01*
X69510106Y-109329788D01*
X69510109Y-109329786D01*
X69635048Y-109157820D01*
X69635049Y-109157819D01*
X69635051Y-109157816D01*
X69639514Y-109149054D01*
X69687488Y-109098259D01*
X69755308Y-109081463D01*
X69821444Y-109103999D01*
G37*
%TD.AperFunction*%
%TA.AperFunction,Conductor*%
G36*
X86655703Y-104676095D02*
G01*
X86662181Y-104682127D01*
X88117873Y-106137819D01*
X88151358Y-106199142D01*
X88146374Y-106268834D01*
X88104502Y-106324767D01*
X88039038Y-106349184D01*
X88030192Y-106349500D01*
X87996155Y-106349500D01*
X87841510Y-106380261D01*
X87841498Y-106380264D01*
X87695827Y-106440602D01*
X87695814Y-106440609D01*
X87564711Y-106528210D01*
X87564707Y-106528213D01*
X87453213Y-106639707D01*
X87453210Y-106639711D01*
X87365609Y-106770814D01*
X87365602Y-106770827D01*
X87305264Y-106916498D01*
X87305261Y-106916510D01*
X87274500Y-107071153D01*
X87274500Y-107228846D01*
X87305261Y-107383489D01*
X87305264Y-107383501D01*
X87365602Y-107529172D01*
X87365609Y-107529185D01*
X87453210Y-107660288D01*
X87453213Y-107660292D01*
X87564707Y-107771786D01*
X87564711Y-107771789D01*
X87695814Y-107859390D01*
X87695827Y-107859397D01*
X87841498Y-107919735D01*
X87841503Y-107919737D01*
X87993644Y-107950000D01*
X87996153Y-107950499D01*
X87996156Y-107950500D01*
X87996158Y-107950500D01*
X88153844Y-107950500D01*
X88153845Y-107950499D01*
X88308497Y-107919737D01*
X88454179Y-107859394D01*
X88585289Y-107771789D01*
X88696789Y-107660289D01*
X88784394Y-107529179D01*
X88844737Y-107383497D01*
X88875500Y-107228842D01*
X88875500Y-107194808D01*
X88895185Y-107127769D01*
X88947989Y-107082014D01*
X89017147Y-107072070D01*
X89080703Y-107101095D01*
X89087181Y-107107127D01*
X89685325Y-107705272D01*
X89685332Y-107705278D01*
X89773320Y-107764069D01*
X89773321Y-107764069D01*
X89791873Y-107776465D01*
X89832349Y-107793231D01*
X89876920Y-107811693D01*
X89931324Y-107855534D01*
X89953389Y-107921828D01*
X89936110Y-107989527D01*
X89884973Y-108037138D01*
X89853661Y-108047871D01*
X89816507Y-108055261D01*
X89816498Y-108055264D01*
X89670827Y-108115602D01*
X89670814Y-108115609D01*
X89539711Y-108203210D01*
X89539707Y-108203213D01*
X89428213Y-108314707D01*
X89428210Y-108314711D01*
X89340609Y-108445814D01*
X89340602Y-108445827D01*
X89280264Y-108591498D01*
X89280261Y-108591510D01*
X89249500Y-108746153D01*
X89249500Y-108903846D01*
X89280261Y-109058489D01*
X89280264Y-109058501D01*
X89340602Y-109204172D01*
X89340609Y-109204185D01*
X89428210Y-109335288D01*
X89428213Y-109335292D01*
X89539707Y-109446786D01*
X89539711Y-109446789D01*
X89670814Y-109534390D01*
X89670827Y-109534397D01*
X89816498Y-109594735D01*
X89816503Y-109594737D01*
X89971153Y-109625499D01*
X89971156Y-109625500D01*
X89971158Y-109625500D01*
X90128844Y-109625500D01*
X90128845Y-109625499D01*
X90283497Y-109594737D01*
X90429179Y-109534394D01*
X90483176Y-109498313D01*
X90503617Y-109491912D01*
X90522104Y-109481090D01*
X90536297Y-109481679D01*
X90549853Y-109477435D01*
X90570509Y-109483101D01*
X90591913Y-109483991D01*
X90612380Y-109494587D01*
X90617233Y-109495919D01*
X90623381Y-109499973D01*
X90792065Y-109618558D01*
X90808574Y-109639291D01*
X90827844Y-109657491D01*
X90830000Y-109666199D01*
X90835588Y-109673217D01*
X90838267Y-109699583D01*
X90844638Y-109725312D01*
X90841744Y-109733803D01*
X90842651Y-109742729D01*
X90830649Y-109766358D01*
X90822100Y-109791447D01*
X90814612Y-109797935D01*
X90811012Y-109805024D01*
X90796890Y-109813291D01*
X90777051Y-109830483D01*
X90767440Y-109835380D01*
X90713282Y-109874727D01*
X90713282Y-109874728D01*
X91345591Y-110507037D01*
X91282007Y-110524075D01*
X91167993Y-110589901D01*
X91074901Y-110682993D01*
X91009075Y-110797007D01*
X90992037Y-110860591D01*
X90359728Y-110228282D01*
X90359727Y-110228282D01*
X90320380Y-110282439D01*
X90223904Y-110471782D01*
X90158242Y-110673872D01*
X90154912Y-110694898D01*
X90124983Y-110758033D01*
X90065671Y-110794964D01*
X90032439Y-110799500D01*
X90021155Y-110799500D01*
X89866510Y-110830261D01*
X89866498Y-110830264D01*
X89720827Y-110890602D01*
X89720814Y-110890609D01*
X89589711Y-110978210D01*
X89589707Y-110978213D01*
X89478213Y-111089707D01*
X89478210Y-111089711D01*
X89390609Y-111220814D01*
X89390602Y-111220827D01*
X89330264Y-111366498D01*
X89330261Y-111366510D01*
X89299500Y-111521153D01*
X89299500Y-111525500D01*
X89279815Y-111592539D01*
X89227011Y-111638294D01*
X89175500Y-111649500D01*
X88320808Y-111649500D01*
X88253769Y-111629815D01*
X88233127Y-111613181D01*
X86486819Y-109866873D01*
X86453334Y-109805550D01*
X86450500Y-109779192D01*
X86450500Y-104769808D01*
X86470185Y-104702769D01*
X86522989Y-104657014D01*
X86592147Y-104647070D01*
X86655703Y-104676095D01*
G37*
%TD.AperFunction*%
%TA.AperFunction,Conductor*%
G36*
X70554075Y-88322993D02*
G01*
X70619901Y-88437007D01*
X70712993Y-88530099D01*
X70827007Y-88595925D01*
X70890590Y-88612962D01*
X70258282Y-89245269D01*
X70258282Y-89245270D01*
X70312452Y-89284626D01*
X70312451Y-89284626D01*
X70321495Y-89289234D01*
X70372292Y-89337208D01*
X70389087Y-89405029D01*
X70366550Y-89471164D01*
X70321499Y-89510202D01*
X70312182Y-89514949D01*
X70140213Y-89639890D01*
X69989890Y-89790213D01*
X69864949Y-89962182D01*
X69860484Y-89970946D01*
X69812509Y-90021742D01*
X69744688Y-90038536D01*
X69678553Y-90015998D01*
X69639516Y-89970946D01*
X69635050Y-89962182D01*
X69510109Y-89790213D01*
X69359786Y-89639890D01*
X69187817Y-89514949D01*
X69178504Y-89510204D01*
X69127707Y-89462230D01*
X69110912Y-89394409D01*
X69133449Y-89328274D01*
X69178507Y-89289232D01*
X69187555Y-89284622D01*
X69241716Y-89245270D01*
X69241717Y-89245270D01*
X68609408Y-88612962D01*
X68672993Y-88595925D01*
X68787007Y-88530099D01*
X68880099Y-88437007D01*
X68945925Y-88322993D01*
X68962962Y-88259408D01*
X69595270Y-88891717D01*
X69595270Y-88891716D01*
X69634622Y-88837554D01*
X69639514Y-88827954D01*
X69687488Y-88777157D01*
X69755308Y-88760361D01*
X69821444Y-88782897D01*
X69860486Y-88827954D01*
X69865375Y-88837550D01*
X69904728Y-88891716D01*
X70537036Y-88259407D01*
X70554075Y-88322993D01*
G37*
%TD.AperFunction*%
%TA.AperFunction,Conductor*%
G36*
X77399215Y-80233243D02*
G01*
X77455148Y-80275115D01*
X77479565Y-80340579D01*
X77464713Y-80408852D01*
X77458984Y-80418314D01*
X77440611Y-80445811D01*
X77440602Y-80445827D01*
X77380264Y-80591498D01*
X77380261Y-80591508D01*
X77366920Y-80658579D01*
X77334535Y-80720490D01*
X77332984Y-80722068D01*
X72570044Y-85485009D01*
X72559067Y-85491002D01*
X72551026Y-85500582D01*
X72528979Y-85507431D01*
X72508721Y-85518494D01*
X72496247Y-85517601D01*
X72484303Y-85521313D01*
X72462055Y-85515156D01*
X72439029Y-85513510D01*
X72429015Y-85506013D01*
X72416964Y-85502679D01*
X72401576Y-85485472D01*
X72383096Y-85471638D01*
X72377603Y-85458666D01*
X72370388Y-85450598D01*
X72360012Y-85417119D01*
X72359917Y-85416895D01*
X72337246Y-85273757D01*
X72336851Y-85272541D01*
X72335891Y-85266533D01*
X72339738Y-85236436D01*
X72341257Y-85206126D01*
X72344217Y-85201409D01*
X72344752Y-85197227D01*
X72353038Y-85187355D01*
X72370655Y-85159289D01*
X77268202Y-80261742D01*
X77329523Y-80228259D01*
X77399215Y-80233243D01*
G37*
%TD.AperFunction*%
%TA.AperFunction,Conductor*%
G36*
X93571575Y-83452993D02*
G01*
X93637401Y-83567007D01*
X93730493Y-83660099D01*
X93844507Y-83725925D01*
X93908090Y-83742962D01*
X93275782Y-84375269D01*
X93275782Y-84375270D01*
X93329952Y-84414626D01*
X93329951Y-84414626D01*
X93338995Y-84419234D01*
X93389792Y-84467208D01*
X93406587Y-84535029D01*
X93384050Y-84601164D01*
X93338999Y-84640202D01*
X93329682Y-84644949D01*
X93157713Y-84769890D01*
X93007390Y-84920213D01*
X92882449Y-85092182D01*
X92877984Y-85100946D01*
X92830009Y-85151742D01*
X92762188Y-85168536D01*
X92696053Y-85145998D01*
X92657016Y-85100946D01*
X92652550Y-85092182D01*
X92527609Y-84920213D01*
X92377286Y-84769890D01*
X92205320Y-84644951D01*
X92204615Y-84644591D01*
X92196554Y-84640485D01*
X92145759Y-84592512D01*
X92128963Y-84524692D01*
X92151499Y-84458556D01*
X92196554Y-84419515D01*
X92205316Y-84415051D01*
X92237804Y-84391447D01*
X92377286Y-84290109D01*
X92377288Y-84290106D01*
X92377292Y-84290104D01*
X92527604Y-84139792D01*
X92527606Y-84139788D01*
X92527609Y-84139786D01*
X92613390Y-84021717D01*
X92652551Y-83967816D01*
X92657293Y-83958508D01*
X92705263Y-83907711D01*
X92773083Y-83890911D01*
X92839219Y-83913445D01*
X92878263Y-83958500D01*
X92882873Y-83967547D01*
X92922228Y-84021716D01*
X93554537Y-83389408D01*
X93571575Y-83452993D01*
G37*
%TD.AperFunction*%
%TA.AperFunction,Conductor*%
G36*
X81868834Y-73223625D02*
G01*
X81924767Y-73265497D01*
X81949184Y-73330961D01*
X81949500Y-73339807D01*
X81949500Y-73689191D01*
X81929815Y-73756230D01*
X81913181Y-73776872D01*
X72582181Y-83107872D01*
X72520858Y-83141357D01*
X72451166Y-83136373D01*
X72395233Y-83094501D01*
X72370816Y-83029037D01*
X72370500Y-83020191D01*
X72370500Y-82943713D01*
X72336484Y-82728945D01*
X72338123Y-82728685D01*
X72341257Y-82666126D01*
X72370655Y-82619289D01*
X81737821Y-73252124D01*
X81799142Y-73218641D01*
X81868834Y-73223625D01*
G37*
%TD.AperFunction*%
%TA.AperFunction,Conductor*%
G36*
X92838944Y-81373999D02*
G01*
X92877986Y-81419056D01*
X92882451Y-81427820D01*
X93007390Y-81599786D01*
X93157713Y-81750109D01*
X93329679Y-81875048D01*
X93329681Y-81875049D01*
X93329684Y-81875051D01*
X93338993Y-81879794D01*
X93389790Y-81927766D01*
X93406587Y-81995587D01*
X93384052Y-82061722D01*
X93339005Y-82100760D01*
X93329946Y-82105376D01*
X93329940Y-82105380D01*
X93275782Y-82144727D01*
X93275782Y-82144728D01*
X93908091Y-82777037D01*
X93844507Y-82794075D01*
X93730493Y-82859901D01*
X93637401Y-82952993D01*
X93571575Y-83067007D01*
X93554537Y-83130591D01*
X92922228Y-82498282D01*
X92922227Y-82498282D01*
X92882880Y-82552440D01*
X92882876Y-82552446D01*
X92878260Y-82561505D01*
X92830281Y-82612297D01*
X92762459Y-82629087D01*
X92696326Y-82606543D01*
X92657294Y-82561493D01*
X92652551Y-82552184D01*
X92652549Y-82552181D01*
X92652548Y-82552179D01*
X92527609Y-82380213D01*
X92377286Y-82229890D01*
X92205320Y-82104951D01*
X92197100Y-82100763D01*
X92196554Y-82100485D01*
X92145759Y-82052512D01*
X92128963Y-81984692D01*
X92151499Y-81918556D01*
X92196554Y-81879515D01*
X92205316Y-81875051D01*
X92237804Y-81851447D01*
X92377286Y-81750109D01*
X92377288Y-81750106D01*
X92377292Y-81750104D01*
X92527604Y-81599792D01*
X92527606Y-81599788D01*
X92527609Y-81599786D01*
X92652548Y-81427820D01*
X92652547Y-81427820D01*
X92652551Y-81427816D01*
X92657014Y-81419054D01*
X92704988Y-81368259D01*
X92772808Y-81351463D01*
X92838944Y-81373999D01*
G37*
%TD.AperFunction*%
%TA.AperFunction,Conductor*%
G36*
X93571575Y-78372993D02*
G01*
X93637401Y-78487007D01*
X93730493Y-78580099D01*
X93844507Y-78645925D01*
X93908090Y-78662962D01*
X93275782Y-79295269D01*
X93275782Y-79295270D01*
X93329952Y-79334626D01*
X93329951Y-79334626D01*
X93338995Y-79339234D01*
X93389792Y-79387208D01*
X93406587Y-79455029D01*
X93384050Y-79521164D01*
X93338999Y-79560202D01*
X93329682Y-79564949D01*
X93157713Y-79689890D01*
X93007390Y-79840213D01*
X92882449Y-80012182D01*
X92877984Y-80020946D01*
X92830009Y-80071742D01*
X92762188Y-80088536D01*
X92696053Y-80065998D01*
X92657016Y-80020946D01*
X92652550Y-80012182D01*
X92527609Y-79840213D01*
X92377286Y-79689890D01*
X92205320Y-79564951D01*
X92204615Y-79564591D01*
X92196554Y-79560485D01*
X92145759Y-79512512D01*
X92128963Y-79444692D01*
X92151499Y-79378556D01*
X92196554Y-79339515D01*
X92205316Y-79335051D01*
X92242959Y-79307702D01*
X92377286Y-79210109D01*
X92377288Y-79210106D01*
X92377292Y-79210104D01*
X92527604Y-79059792D01*
X92527606Y-79059788D01*
X92527609Y-79059786D01*
X92613390Y-78941717D01*
X92652551Y-78887816D01*
X92657293Y-78878508D01*
X92705263Y-78827711D01*
X92773083Y-78810911D01*
X92839219Y-78833445D01*
X92878263Y-78878500D01*
X92882873Y-78887547D01*
X92922228Y-78941716D01*
X93554537Y-78309408D01*
X93571575Y-78372993D01*
G37*
%TD.AperFunction*%
%TA.AperFunction,Conductor*%
G36*
X72575703Y-57638594D02*
G01*
X72582166Y-57644612D01*
X81297341Y-66359786D01*
X90146842Y-75209287D01*
X90180327Y-75270610D01*
X90179821Y-75318755D01*
X90181016Y-75318945D01*
X90147000Y-75533713D01*
X90147000Y-75557692D01*
X90127315Y-75624731D01*
X90074511Y-75670486D01*
X90005353Y-75680430D01*
X89941797Y-75651405D01*
X89935319Y-75645373D01*
X72370657Y-58080711D01*
X72337172Y-58019388D01*
X72337689Y-57971245D01*
X72336484Y-57971055D01*
X72370500Y-57756286D01*
X72370500Y-57732307D01*
X72390185Y-57665268D01*
X72442989Y-57619513D01*
X72512147Y-57609569D01*
X72575703Y-57638594D01*
G37*
%TD.AperFunction*%
%TA.AperFunction,Conductor*%
G36*
X92612770Y-73861717D02*
G01*
X92612770Y-73861716D01*
X92652122Y-73807555D01*
X92656732Y-73798507D01*
X92704705Y-73747709D01*
X92772525Y-73730912D01*
X92838661Y-73753447D01*
X92877704Y-73798504D01*
X92882449Y-73807817D01*
X93007390Y-73979786D01*
X93157713Y-74130109D01*
X93329682Y-74255050D01*
X93338446Y-74259516D01*
X93389242Y-74307491D01*
X93406036Y-74375312D01*
X93383498Y-74441447D01*
X93338446Y-74480484D01*
X93329682Y-74484949D01*
X93157713Y-74609890D01*
X93007390Y-74760213D01*
X92882449Y-74932182D01*
X92877984Y-74940946D01*
X92830009Y-74991742D01*
X92762188Y-75008536D01*
X92696053Y-74985998D01*
X92657016Y-74940946D01*
X92652550Y-74932182D01*
X92527609Y-74760213D01*
X92377286Y-74609890D01*
X92205317Y-74484949D01*
X92196004Y-74480204D01*
X92145207Y-74432230D01*
X92128412Y-74364409D01*
X92150949Y-74298274D01*
X92196007Y-74259232D01*
X92205055Y-74254622D01*
X92259216Y-74215270D01*
X92259217Y-74215270D01*
X91626908Y-73582962D01*
X91690493Y-73565925D01*
X91804507Y-73500099D01*
X91897599Y-73407007D01*
X91963425Y-73292993D01*
X91980462Y-73229408D01*
X92612770Y-73861717D01*
G37*
%TD.AperFunction*%
%TA.AperFunction,Conductor*%
G36*
X90304921Y-50910185D02*
G01*
X90338599Y-50944591D01*
X90339585Y-50943875D01*
X90467390Y-51119786D01*
X90617713Y-51270109D01*
X90789679Y-51395048D01*
X90789681Y-51395049D01*
X90789684Y-51395051D01*
X90798993Y-51399794D01*
X90849790Y-51447766D01*
X90866587Y-51515587D01*
X90844052Y-51581722D01*
X90799005Y-51620760D01*
X90789946Y-51625376D01*
X90789940Y-51625380D01*
X90735782Y-51664727D01*
X90735782Y-51664728D01*
X91368091Y-52297037D01*
X91304507Y-52314075D01*
X91190493Y-52379901D01*
X91097401Y-52472993D01*
X91031575Y-52587007D01*
X91014537Y-52650591D01*
X90382228Y-52018282D01*
X90382227Y-52018282D01*
X90342880Y-52072439D01*
X90246404Y-52261782D01*
X90180742Y-52463869D01*
X90180742Y-52463872D01*
X90147500Y-52673753D01*
X90147500Y-52886246D01*
X90180742Y-53096127D01*
X90180742Y-53096130D01*
X90246404Y-53298217D01*
X90342875Y-53487550D01*
X90382228Y-53541716D01*
X91014537Y-52909408D01*
X91031575Y-52972993D01*
X91097401Y-53087007D01*
X91190493Y-53180099D01*
X91304507Y-53245925D01*
X91368090Y-53262962D01*
X90735782Y-53895269D01*
X90735782Y-53895270D01*
X90789952Y-53934626D01*
X90789951Y-53934626D01*
X90798995Y-53939234D01*
X90849792Y-53987208D01*
X90866587Y-54055029D01*
X90844050Y-54121164D01*
X90798999Y-54160202D01*
X90789682Y-54164949D01*
X90617713Y-54289890D01*
X90467390Y-54440213D01*
X90342451Y-54612179D01*
X90245944Y-54801585D01*
X90180253Y-55003760D01*
X90147000Y-55213713D01*
X90147000Y-55426286D01*
X90179165Y-55629372D01*
X90180254Y-55636243D01*
X90239252Y-55817820D01*
X90245944Y-55838414D01*
X90342451Y-56027820D01*
X90467390Y-56199786D01*
X90617713Y-56350109D01*
X90789682Y-56475050D01*
X90798446Y-56479516D01*
X90849242Y-56527491D01*
X90866036Y-56595312D01*
X90843498Y-56661447D01*
X90798446Y-56700484D01*
X90789682Y-56704949D01*
X90617713Y-56829890D01*
X90467390Y-56980213D01*
X90342451Y-57152179D01*
X90245944Y-57341585D01*
X90180253Y-57543760D01*
X90147000Y-57753713D01*
X90147000Y-57966286D01*
X90180235Y-58176127D01*
X90180254Y-58176243D01*
X90239252Y-58357820D01*
X90245944Y-58378414D01*
X90342451Y-58567820D01*
X90467390Y-58739786D01*
X90617713Y-58890109D01*
X90789682Y-59015050D01*
X90798446Y-59019516D01*
X90849242Y-59067491D01*
X90866036Y-59135312D01*
X90843498Y-59201447D01*
X90798446Y-59240484D01*
X90789682Y-59244949D01*
X90617713Y-59369890D01*
X90467390Y-59520213D01*
X90342451Y-59692179D01*
X90245944Y-59881585D01*
X90180253Y-60083760D01*
X90169323Y-60152769D01*
X90147000Y-60293713D01*
X90147000Y-60506287D01*
X90150798Y-60530264D01*
X90180153Y-60715609D01*
X90180254Y-60716243D01*
X90244740Y-60914711D01*
X90245944Y-60918414D01*
X90342451Y-61107820D01*
X90467390Y-61279786D01*
X90617713Y-61430109D01*
X90789682Y-61555050D01*
X90798446Y-61559516D01*
X90849242Y-61607491D01*
X90866036Y-61675312D01*
X90843498Y-61741447D01*
X90798446Y-61780484D01*
X90789682Y-61784949D01*
X90617713Y-61909890D01*
X90467390Y-62060213D01*
X90342451Y-62232179D01*
X90245944Y-62421585D01*
X90180253Y-62623760D01*
X90147000Y-62833713D01*
X90147000Y-63046286D01*
X90180253Y-63256240D01*
X90222799Y-63387182D01*
X90224794Y-63457023D01*
X90188714Y-63516856D01*
X90126013Y-63547684D01*
X90104868Y-63549500D01*
X89735929Y-63549500D01*
X89610261Y-63574497D01*
X89610251Y-63574500D01*
X89572685Y-63590061D01*
X89525233Y-63599500D01*
X89521155Y-63599500D01*
X89366510Y-63630261D01*
X89366498Y-63630264D01*
X89220827Y-63690602D01*
X89220814Y-63690609D01*
X89089711Y-63778210D01*
X89089707Y-63778213D01*
X88978213Y-63889707D01*
X88978210Y-63889711D01*
X88890609Y-64020814D01*
X88890602Y-64020827D01*
X88830264Y-64166498D01*
X88830261Y-64166510D01*
X88799500Y-64321153D01*
X88799500Y-64478846D01*
X88830261Y-64633489D01*
X88830264Y-64633501D01*
X88890602Y-64779172D01*
X88890609Y-64779185D01*
X88978210Y-64910288D01*
X88978213Y-64910292D01*
X89089707Y-65021786D01*
X89089711Y-65021789D01*
X89220814Y-65109390D01*
X89220827Y-65109397D01*
X89366498Y-65169735D01*
X89366503Y-65169737D01*
X89521153Y-65200499D01*
X89521156Y-65200500D01*
X89521158Y-65200500D01*
X89678844Y-65200500D01*
X89678845Y-65200499D01*
X89833497Y-65169737D01*
X89979179Y-65109394D01*
X89979184Y-65109390D01*
X89984554Y-65106521D01*
X89985297Y-65107912D01*
X90044621Y-65089324D01*
X90112005Y-65107795D01*
X90158706Y-65159764D01*
X90169897Y-65228732D01*
X90169333Y-65232701D01*
X90147000Y-65373712D01*
X90147000Y-65586286D01*
X90180235Y-65796127D01*
X90180254Y-65796243D01*
X90239164Y-65977550D01*
X90245944Y-65998414D01*
X90342451Y-66187820D01*
X90467390Y-66359786D01*
X90617713Y-66510109D01*
X90789682Y-66635050D01*
X90798446Y-66639516D01*
X90849242Y-66687491D01*
X90866036Y-66755312D01*
X90843498Y-66821447D01*
X90798446Y-66860484D01*
X90789682Y-66864949D01*
X90617713Y-66989890D01*
X90467390Y-67140213D01*
X90342451Y-67312179D01*
X90245944Y-67501585D01*
X90180253Y-67703760D01*
X90147000Y-67913713D01*
X90147000Y-68126286D01*
X90179013Y-68328412D01*
X90180254Y-68336243D01*
X90239252Y-68517820D01*
X90245944Y-68538414D01*
X90342451Y-68727820D01*
X90467390Y-68899786D01*
X90617713Y-69050109D01*
X90789682Y-69175050D01*
X90798446Y-69179516D01*
X90849242Y-69227491D01*
X90866036Y-69295312D01*
X90843498Y-69361447D01*
X90798446Y-69400484D01*
X90789682Y-69404949D01*
X90617713Y-69529890D01*
X90467390Y-69680213D01*
X90342451Y-69852179D01*
X90245944Y-70041585D01*
X90180253Y-70243760D01*
X90147000Y-70453713D01*
X90147000Y-70666286D01*
X90180253Y-70876239D01*
X90245944Y-71078414D01*
X90342451Y-71267820D01*
X90467390Y-71439786D01*
X90617713Y-71590109D01*
X90789679Y-71715048D01*
X90789681Y-71715049D01*
X90789684Y-71715051D01*
X90798993Y-71719794D01*
X90849790Y-71767766D01*
X90866587Y-71835587D01*
X90844052Y-71901722D01*
X90799005Y-71940760D01*
X90789946Y-71945376D01*
X90789940Y-71945380D01*
X90735782Y-71984727D01*
X90735782Y-71984728D01*
X91368091Y-72617037D01*
X91304507Y-72634075D01*
X91190493Y-72699901D01*
X91097401Y-72792993D01*
X91031575Y-72907007D01*
X91014537Y-72970591D01*
X90382228Y-72338282D01*
X90382227Y-72338282D01*
X90342880Y-72392439D01*
X90246404Y-72581782D01*
X90180742Y-72783869D01*
X90180742Y-72783872D01*
X90147500Y-72993753D01*
X90147500Y-73070693D01*
X90127815Y-73137732D01*
X90075011Y-73183487D01*
X90005853Y-73193431D01*
X89942297Y-73164406D01*
X89935819Y-73158374D01*
X82380733Y-65603288D01*
X82347248Y-65541965D01*
X82352232Y-65472273D01*
X82394104Y-65416340D01*
X82399523Y-65412505D01*
X82535289Y-65321789D01*
X82646786Y-65210292D01*
X82646789Y-65210289D01*
X82734394Y-65079179D01*
X82794737Y-64933497D01*
X82825500Y-64778842D01*
X82825500Y-64621158D01*
X82825500Y-64621155D01*
X82825499Y-64621153D01*
X82815731Y-64572048D01*
X82794737Y-64466503D01*
X82752581Y-64364728D01*
X82734397Y-64320827D01*
X82734390Y-64320814D01*
X82646789Y-64189711D01*
X82646786Y-64189707D01*
X82535292Y-64078213D01*
X82535288Y-64078210D01*
X82404185Y-63990609D01*
X82404172Y-63990602D01*
X82258501Y-63930264D01*
X82258495Y-63930262D01*
X82249077Y-63928389D01*
X82187167Y-63896001D01*
X82152595Y-63835285D01*
X82156337Y-63765515D01*
X82170171Y-63737880D01*
X82209389Y-63679187D01*
X82209390Y-63679184D01*
X82209394Y-63679179D01*
X82269737Y-63533497D01*
X82300500Y-63378842D01*
X82300500Y-63221158D01*
X82300500Y-63221155D01*
X82300499Y-63221153D01*
X82269738Y-63066510D01*
X82269737Y-63066503D01*
X82261345Y-63046243D01*
X82209397Y-62920827D01*
X82209390Y-62920814D01*
X82121789Y-62789711D01*
X82121786Y-62789707D01*
X82010292Y-62678213D01*
X82010288Y-62678210D01*
X81879185Y-62590609D01*
X81879172Y-62590602D01*
X81733501Y-62530264D01*
X81733489Y-62530261D01*
X81578845Y-62499500D01*
X81578842Y-62499500D01*
X81421158Y-62499500D01*
X81421155Y-62499500D01*
X81266510Y-62530261D01*
X81266498Y-62530264D01*
X81120827Y-62590602D01*
X81120814Y-62590609D01*
X80989711Y-62678210D01*
X80989707Y-62678213D01*
X80878213Y-62789707D01*
X80878210Y-62789711D01*
X80790609Y-62920814D01*
X80790602Y-62920827D01*
X80730264Y-63066498D01*
X80730261Y-63066510D01*
X80699500Y-63221153D01*
X80699500Y-63378846D01*
X80730261Y-63533489D01*
X80730264Y-63533501D01*
X80788205Y-63673385D01*
X80795674Y-63742855D01*
X80764398Y-63805334D01*
X80704309Y-63840985D01*
X80634484Y-63838491D01*
X80585963Y-63808518D01*
X79075563Y-62298117D01*
X79042078Y-62236794D01*
X79047062Y-62167102D01*
X79088934Y-62111169D01*
X79154398Y-62086752D01*
X79187432Y-62088818D01*
X79231313Y-62097547D01*
X79246157Y-62100500D01*
X79246158Y-62100500D01*
X79403844Y-62100500D01*
X79403845Y-62100499D01*
X79558497Y-62069737D01*
X79704179Y-62009394D01*
X79835289Y-61921789D01*
X79946789Y-61810289D01*
X80034394Y-61679179D01*
X80094737Y-61533497D01*
X80125500Y-61378842D01*
X80125500Y-61346153D01*
X82574500Y-61346153D01*
X82574500Y-61503846D01*
X82605261Y-61658489D01*
X82605264Y-61658501D01*
X82665602Y-61804172D01*
X82665609Y-61804185D01*
X82753210Y-61935288D01*
X82753213Y-61935292D01*
X82864707Y-62046786D01*
X82864711Y-62046789D01*
X82995814Y-62134390D01*
X82995827Y-62134397D01*
X83141498Y-62194735D01*
X83141503Y-62194737D01*
X83296153Y-62225499D01*
X83296156Y-62225500D01*
X83296158Y-62225500D01*
X83453844Y-62225500D01*
X83453845Y-62225499D01*
X83608497Y-62194737D01*
X83754179Y-62134394D01*
X83885289Y-62046789D01*
X83996789Y-61935289D01*
X84084394Y-61804179D01*
X84144737Y-61658497D01*
X84175500Y-61503842D01*
X84175500Y-61346158D01*
X84175500Y-61346155D01*
X84175499Y-61346153D01*
X84162298Y-61279786D01*
X84144737Y-61191503D01*
X84110073Y-61107816D01*
X84084397Y-61045827D01*
X84084390Y-61045814D01*
X83996789Y-60914711D01*
X83996786Y-60914707D01*
X83885292Y-60803213D01*
X83885288Y-60803210D01*
X83754185Y-60715609D01*
X83754172Y-60715602D01*
X83608501Y-60655264D01*
X83608489Y-60655261D01*
X83453845Y-60624500D01*
X83453842Y-60624500D01*
X83296158Y-60624500D01*
X83296155Y-60624500D01*
X83141510Y-60655261D01*
X83141498Y-60655264D01*
X82995827Y-60715602D01*
X82995814Y-60715609D01*
X82864711Y-60803210D01*
X82864707Y-60803213D01*
X82753213Y-60914707D01*
X82753210Y-60914711D01*
X82665609Y-61045814D01*
X82665602Y-61045827D01*
X82605264Y-61191498D01*
X82605261Y-61191510D01*
X82574500Y-61346153D01*
X80125500Y-61346153D01*
X80125500Y-61221158D01*
X80125500Y-61221155D01*
X80125499Y-61221153D01*
X80119600Y-61191498D01*
X80094737Y-61066503D01*
X80086170Y-61045821D01*
X80034397Y-60920827D01*
X80034390Y-60920814D01*
X79946789Y-60789711D01*
X79946786Y-60789707D01*
X79835292Y-60678213D01*
X79835288Y-60678210D01*
X79704185Y-60590609D01*
X79704172Y-60590602D01*
X79558501Y-60530264D01*
X79558489Y-60530261D01*
X79403845Y-60499500D01*
X79403842Y-60499500D01*
X79246158Y-60499500D01*
X79246155Y-60499500D01*
X79091510Y-60530261D01*
X79091498Y-60530264D01*
X78945827Y-60590602D01*
X78945814Y-60590609D01*
X78814711Y-60678210D01*
X78814707Y-60678213D01*
X78703213Y-60789707D01*
X78703210Y-60789711D01*
X78615609Y-60920814D01*
X78615602Y-60920827D01*
X78555264Y-61066498D01*
X78555261Y-61066510D01*
X78524500Y-61221153D01*
X78524500Y-61378846D01*
X78536180Y-61437564D01*
X78529953Y-61507155D01*
X78487090Y-61562332D01*
X78421200Y-61585577D01*
X78353203Y-61569509D01*
X78326882Y-61549436D01*
X72406818Y-55629372D01*
X72373333Y-55568049D01*
X72370499Y-55541691D01*
X72370499Y-54212129D01*
X72370498Y-54212123D01*
X72364091Y-54152516D01*
X72313797Y-54017671D01*
X72313793Y-54017664D01*
X72227547Y-53902455D01*
X72227544Y-53902452D01*
X72112335Y-53816206D01*
X72112328Y-53816202D01*
X71977482Y-53765908D01*
X71977483Y-53765908D01*
X71917883Y-53759501D01*
X71917881Y-53759500D01*
X71917873Y-53759500D01*
X71917865Y-53759500D01*
X71049807Y-53759500D01*
X70982768Y-53739815D01*
X70937013Y-53687011D01*
X70927069Y-53617853D01*
X70956094Y-53554297D01*
X70962126Y-53547819D01*
X71928745Y-52581200D01*
X72195871Y-52314075D01*
X73583127Y-50926819D01*
X73644450Y-50893334D01*
X73670808Y-50890500D01*
X90237882Y-50890500D01*
X90304921Y-50910185D01*
G37*
%TD.AperFunction*%
%TA.AperFunction,Conductor*%
G36*
X92838944Y-71213999D02*
G01*
X92877986Y-71259056D01*
X92882451Y-71267820D01*
X93007390Y-71439786D01*
X93157713Y-71590109D01*
X93329682Y-71715050D01*
X93338446Y-71719516D01*
X93389242Y-71767491D01*
X93406036Y-71835312D01*
X93383498Y-71901447D01*
X93338446Y-71940484D01*
X93329682Y-71944949D01*
X93157713Y-72069890D01*
X93007390Y-72220213D01*
X92882449Y-72392182D01*
X92877702Y-72401499D01*
X92829727Y-72452293D01*
X92761905Y-72469087D01*
X92695771Y-72446548D01*
X92656734Y-72401495D01*
X92652126Y-72392452D01*
X92612770Y-72338282D01*
X92612769Y-72338282D01*
X91980462Y-72970590D01*
X91963425Y-72907007D01*
X91897599Y-72792993D01*
X91804507Y-72699901D01*
X91690493Y-72634075D01*
X91626909Y-72617037D01*
X92259216Y-71984728D01*
X92205047Y-71945373D01*
X92205047Y-71945372D01*
X92196000Y-71940763D01*
X92145206Y-71892788D01*
X92128412Y-71824966D01*
X92150951Y-71758832D01*
X92196008Y-71719793D01*
X92205316Y-71715051D01*
X92284507Y-71657515D01*
X92377286Y-71590109D01*
X92377288Y-71590106D01*
X92377292Y-71590104D01*
X92527604Y-71439792D01*
X92527606Y-71439788D01*
X92527609Y-71439786D01*
X92652548Y-71267820D01*
X92652547Y-71267820D01*
X92652551Y-71267816D01*
X92657014Y-71259054D01*
X92704988Y-71208259D01*
X92772808Y-71191463D01*
X92838944Y-71213999D01*
G37*
%TD.AperFunction*%
%TA.AperFunction,Conductor*%
G36*
X93571575Y-65672993D02*
G01*
X93637401Y-65787007D01*
X93730493Y-65880099D01*
X93844507Y-65945925D01*
X93908090Y-65962962D01*
X93275782Y-66595269D01*
X93275782Y-66595270D01*
X93329952Y-66634626D01*
X93329951Y-66634626D01*
X93338995Y-66639234D01*
X93389792Y-66687208D01*
X93406587Y-66755029D01*
X93384050Y-66821164D01*
X93338999Y-66860202D01*
X93329682Y-66864949D01*
X93157713Y-66989890D01*
X93007390Y-67140213D01*
X92882449Y-67312182D01*
X92877984Y-67320946D01*
X92830009Y-67371742D01*
X92762188Y-67388536D01*
X92696053Y-67365998D01*
X92657016Y-67320946D01*
X92652550Y-67312182D01*
X92527609Y-67140213D01*
X92377286Y-66989890D01*
X92205320Y-66864951D01*
X92204615Y-66864591D01*
X92196554Y-66860485D01*
X92145759Y-66812512D01*
X92128963Y-66744692D01*
X92151499Y-66678556D01*
X92196554Y-66639515D01*
X92205316Y-66635051D01*
X92293265Y-66571153D01*
X92377286Y-66510109D01*
X92377288Y-66510106D01*
X92377292Y-66510104D01*
X92527604Y-66359792D01*
X92527606Y-66359788D01*
X92527609Y-66359786D01*
X92613390Y-66241717D01*
X92652551Y-66187816D01*
X92657293Y-66178508D01*
X92705263Y-66127711D01*
X92773083Y-66110911D01*
X92839219Y-66133445D01*
X92878263Y-66178500D01*
X92882873Y-66187547D01*
X92922228Y-66241716D01*
X93554537Y-65609408D01*
X93571575Y-65672993D01*
G37*
%TD.AperFunction*%
%TA.AperFunction,Conductor*%
G36*
X70554075Y-65462993D02*
G01*
X70619901Y-65577007D01*
X70712993Y-65670099D01*
X70827007Y-65735925D01*
X70890590Y-65752962D01*
X70258282Y-66385269D01*
X70258282Y-66385270D01*
X70312452Y-66424626D01*
X70312451Y-66424626D01*
X70321495Y-66429234D01*
X70372292Y-66477208D01*
X70389087Y-66545029D01*
X70366550Y-66611164D01*
X70321499Y-66650202D01*
X70312182Y-66654949D01*
X70140213Y-66779890D01*
X69989890Y-66930213D01*
X69864949Y-67102182D01*
X69860484Y-67110946D01*
X69812509Y-67161742D01*
X69744688Y-67178536D01*
X69678553Y-67155998D01*
X69639516Y-67110946D01*
X69635050Y-67102182D01*
X69510109Y-66930213D01*
X69359786Y-66779890D01*
X69187817Y-66654949D01*
X69178504Y-66650204D01*
X69127707Y-66602230D01*
X69110912Y-66534409D01*
X69133449Y-66468274D01*
X69178507Y-66429232D01*
X69187555Y-66424622D01*
X69241716Y-66385270D01*
X69241717Y-66385270D01*
X68609408Y-65752962D01*
X68672993Y-65735925D01*
X68787007Y-65670099D01*
X68880099Y-65577007D01*
X68945925Y-65462993D01*
X68962962Y-65399408D01*
X69595270Y-66031717D01*
X69595270Y-66031716D01*
X69634622Y-65977554D01*
X69639514Y-65967954D01*
X69687488Y-65917157D01*
X69755308Y-65900361D01*
X69821444Y-65922897D01*
X69860486Y-65967954D01*
X69865375Y-65977550D01*
X69904728Y-66031716D01*
X70537037Y-65399408D01*
X70554075Y-65462993D01*
G37*
%TD.AperFunction*%
%TA.AperFunction,Conductor*%
G36*
X69821444Y-63383999D02*
G01*
X69860486Y-63429056D01*
X69864951Y-63437820D01*
X69989890Y-63609786D01*
X70140213Y-63760109D01*
X70312179Y-63885048D01*
X70312181Y-63885049D01*
X70312184Y-63885051D01*
X70321493Y-63889794D01*
X70372290Y-63937766D01*
X70389087Y-64005587D01*
X70366552Y-64071722D01*
X70321505Y-64110760D01*
X70312446Y-64115376D01*
X70312440Y-64115380D01*
X70258282Y-64154727D01*
X70258282Y-64154728D01*
X70890591Y-64787037D01*
X70827007Y-64804075D01*
X70712993Y-64869901D01*
X70619901Y-64962993D01*
X70554075Y-65077007D01*
X70537037Y-65140591D01*
X69904728Y-64508282D01*
X69904727Y-64508282D01*
X69865380Y-64562440D01*
X69860483Y-64572051D01*
X69812506Y-64622845D01*
X69744684Y-64639638D01*
X69678550Y-64617098D01*
X69639516Y-64572048D01*
X69634626Y-64562452D01*
X69595270Y-64508282D01*
X69595269Y-64508282D01*
X68962962Y-65140590D01*
X68945925Y-65077007D01*
X68880099Y-64962993D01*
X68787007Y-64869901D01*
X68672993Y-64804075D01*
X68609409Y-64787037D01*
X69241716Y-64154728D01*
X69187547Y-64115373D01*
X69187547Y-64115372D01*
X69178500Y-64110763D01*
X69127706Y-64062788D01*
X69110912Y-63994966D01*
X69133451Y-63928832D01*
X69178508Y-63889793D01*
X69187816Y-63885051D01*
X69269780Y-63825501D01*
X69359786Y-63760109D01*
X69359788Y-63760106D01*
X69359792Y-63760104D01*
X69510104Y-63609792D01*
X69510106Y-63609788D01*
X69510109Y-63609786D01*
X69635048Y-63437820D01*
X69635047Y-63437820D01*
X69635051Y-63437816D01*
X69639514Y-63429054D01*
X69687488Y-63378259D01*
X69755308Y-63361463D01*
X69821444Y-63383999D01*
G37*
%TD.AperFunction*%
%TA.AperFunction,Conductor*%
G36*
X93571575Y-58052993D02*
G01*
X93637401Y-58167007D01*
X93730493Y-58260099D01*
X93844507Y-58325925D01*
X93908090Y-58342962D01*
X93275782Y-58975269D01*
X93275782Y-58975270D01*
X93329952Y-59014626D01*
X93329951Y-59014626D01*
X93338995Y-59019234D01*
X93389792Y-59067208D01*
X93406587Y-59135029D01*
X93384050Y-59201164D01*
X93338999Y-59240202D01*
X93329682Y-59244949D01*
X93157713Y-59369890D01*
X93007390Y-59520213D01*
X92882449Y-59692182D01*
X92877984Y-59700946D01*
X92830009Y-59751742D01*
X92762188Y-59768536D01*
X92696053Y-59745998D01*
X92657016Y-59700946D01*
X92652550Y-59692182D01*
X92527609Y-59520213D01*
X92377286Y-59369890D01*
X92205320Y-59244951D01*
X92204615Y-59244591D01*
X92196554Y-59240485D01*
X92145759Y-59192512D01*
X92128963Y-59124692D01*
X92151499Y-59058556D01*
X92196554Y-59019515D01*
X92205316Y-59015051D01*
X92310759Y-58938443D01*
X92377286Y-58890109D01*
X92377288Y-58890106D01*
X92377292Y-58890104D01*
X92527604Y-58739792D01*
X92527606Y-58739788D01*
X92527609Y-58739786D01*
X92613390Y-58621717D01*
X92652551Y-58567816D01*
X92657293Y-58558508D01*
X92705263Y-58507711D01*
X92773083Y-58490911D01*
X92839219Y-58513445D01*
X92878263Y-58558500D01*
X92882873Y-58567547D01*
X92922228Y-58621716D01*
X93554537Y-57989408D01*
X93571575Y-58052993D01*
G37*
%TD.AperFunction*%
%TA.AperFunction,Conductor*%
G36*
X92838944Y-55973999D02*
G01*
X92877986Y-56019056D01*
X92882451Y-56027820D01*
X93007390Y-56199786D01*
X93157713Y-56350109D01*
X93329679Y-56475048D01*
X93329681Y-56475049D01*
X93329684Y-56475051D01*
X93338993Y-56479794D01*
X93389790Y-56527766D01*
X93406587Y-56595587D01*
X93384052Y-56661722D01*
X93339005Y-56700760D01*
X93329946Y-56705376D01*
X93329940Y-56705380D01*
X93275782Y-56744727D01*
X93275782Y-56744728D01*
X93908091Y-57377037D01*
X93844507Y-57394075D01*
X93730493Y-57459901D01*
X93637401Y-57552993D01*
X93571575Y-57667007D01*
X93554537Y-57730591D01*
X92922228Y-57098282D01*
X92922227Y-57098282D01*
X92882880Y-57152440D01*
X92882876Y-57152446D01*
X92878260Y-57161505D01*
X92830281Y-57212297D01*
X92762459Y-57229087D01*
X92696326Y-57206543D01*
X92657294Y-57161493D01*
X92652551Y-57152184D01*
X92652549Y-57152181D01*
X92652548Y-57152179D01*
X92527609Y-56980213D01*
X92377286Y-56829890D01*
X92205320Y-56704951D01*
X92197100Y-56700763D01*
X92196554Y-56700485D01*
X92145759Y-56652512D01*
X92128963Y-56584692D01*
X92151499Y-56518556D01*
X92196554Y-56479515D01*
X92205316Y-56475051D01*
X92237804Y-56451447D01*
X92377286Y-56350109D01*
X92377288Y-56350106D01*
X92377292Y-56350104D01*
X92527604Y-56199792D01*
X92527606Y-56199788D01*
X92527609Y-56199786D01*
X92652548Y-56027820D01*
X92652547Y-56027820D01*
X92652551Y-56027816D01*
X92657014Y-56019054D01*
X92704988Y-55968259D01*
X92772808Y-55951463D01*
X92838944Y-55973999D01*
G37*
%TD.AperFunction*%
%TA.AperFunction,Conductor*%
G36*
X92612770Y-53541717D02*
G01*
X92612770Y-53541716D01*
X92652122Y-53487555D01*
X92656732Y-53478507D01*
X92704705Y-53427709D01*
X92772525Y-53410912D01*
X92838661Y-53433447D01*
X92877704Y-53478504D01*
X92882449Y-53487817D01*
X93007390Y-53659786D01*
X93157713Y-53810109D01*
X93329682Y-53935050D01*
X93338446Y-53939516D01*
X93389242Y-53987491D01*
X93406036Y-54055312D01*
X93383498Y-54121447D01*
X93338446Y-54160484D01*
X93329682Y-54164949D01*
X93157713Y-54289890D01*
X93007390Y-54440213D01*
X92882449Y-54612182D01*
X92877984Y-54620946D01*
X92830009Y-54671742D01*
X92762188Y-54688536D01*
X92696053Y-54665998D01*
X92657016Y-54620946D01*
X92652550Y-54612182D01*
X92527609Y-54440213D01*
X92377286Y-54289890D01*
X92205317Y-54164949D01*
X92196004Y-54160204D01*
X92145207Y-54112230D01*
X92128412Y-54044409D01*
X92150949Y-53978274D01*
X92196007Y-53939232D01*
X92205055Y-53934622D01*
X92259216Y-53895270D01*
X92259217Y-53895270D01*
X91626908Y-53262962D01*
X91690493Y-53245925D01*
X91804507Y-53180099D01*
X91897599Y-53087007D01*
X91963425Y-52972993D01*
X91980462Y-52909408D01*
X92612770Y-53541717D01*
G37*
%TD.AperFunction*%
%TA.AperFunction,Conductor*%
G36*
X92838944Y-50893999D02*
G01*
X92877986Y-50939056D01*
X92882451Y-50947820D01*
X93007390Y-51119786D01*
X93157713Y-51270109D01*
X93329682Y-51395050D01*
X93338446Y-51399516D01*
X93389242Y-51447491D01*
X93406036Y-51515312D01*
X93383498Y-51581447D01*
X93338446Y-51620484D01*
X93329682Y-51624949D01*
X93157713Y-51749890D01*
X93007390Y-51900213D01*
X92882449Y-52072182D01*
X92877702Y-52081499D01*
X92829727Y-52132293D01*
X92761905Y-52149087D01*
X92695771Y-52126548D01*
X92656734Y-52081495D01*
X92652126Y-52072452D01*
X92612770Y-52018282D01*
X92612769Y-52018282D01*
X91980462Y-52650590D01*
X91963425Y-52587007D01*
X91897599Y-52472993D01*
X91804507Y-52379901D01*
X91690493Y-52314075D01*
X91626909Y-52297037D01*
X92259216Y-51664728D01*
X92205047Y-51625373D01*
X92205047Y-51625372D01*
X92196000Y-51620763D01*
X92145206Y-51572788D01*
X92128412Y-51504966D01*
X92150951Y-51438832D01*
X92196008Y-51399793D01*
X92205316Y-51395051D01*
X92284507Y-51337515D01*
X92377286Y-51270109D01*
X92377288Y-51270106D01*
X92377292Y-51270104D01*
X92527604Y-51119792D01*
X92527606Y-51119788D01*
X92527609Y-51119786D01*
X92652548Y-50947820D01*
X92652547Y-50947820D01*
X92652551Y-50947816D01*
X92657014Y-50939054D01*
X92704988Y-50888259D01*
X92772808Y-50871463D01*
X92838944Y-50893999D01*
G37*
%TD.AperFunction*%
%TA.AperFunction,Conductor*%
G36*
X93571575Y-47892993D02*
G01*
X93637401Y-48007007D01*
X93730493Y-48100099D01*
X93844507Y-48165925D01*
X93908090Y-48182962D01*
X93275782Y-48815269D01*
X93275782Y-48815270D01*
X93329952Y-48854626D01*
X93329951Y-48854626D01*
X93338995Y-48859234D01*
X93389792Y-48907208D01*
X93406587Y-48975029D01*
X93384050Y-49041164D01*
X93338999Y-49080202D01*
X93329682Y-49084949D01*
X93157713Y-49209890D01*
X93007390Y-49360213D01*
X92882449Y-49532182D01*
X92877984Y-49540946D01*
X92830009Y-49591742D01*
X92762188Y-49608536D01*
X92696053Y-49585998D01*
X92657016Y-49540946D01*
X92652550Y-49532182D01*
X92527609Y-49360213D01*
X92377286Y-49209890D01*
X92205320Y-49084951D01*
X92204615Y-49084591D01*
X92196554Y-49080485D01*
X92145759Y-49032512D01*
X92128963Y-48964692D01*
X92151499Y-48898556D01*
X92196554Y-48859515D01*
X92205316Y-48855051D01*
X92260072Y-48815269D01*
X92377286Y-48730109D01*
X92377288Y-48730106D01*
X92377292Y-48730104D01*
X92527604Y-48579792D01*
X92527606Y-48579788D01*
X92527609Y-48579786D01*
X92613390Y-48461717D01*
X92652551Y-48407816D01*
X92657293Y-48398508D01*
X92705263Y-48347711D01*
X92773083Y-48330911D01*
X92839219Y-48353445D01*
X92878263Y-48398500D01*
X92882873Y-48407547D01*
X92922228Y-48461716D01*
X93554537Y-47829408D01*
X93571575Y-47892993D01*
G37*
%TD.AperFunction*%
%TA.AperFunction,Conductor*%
G36*
X92838944Y-45813999D02*
G01*
X92877986Y-45859056D01*
X92882451Y-45867820D01*
X93007390Y-46039786D01*
X93157713Y-46190109D01*
X93329679Y-46315048D01*
X93329681Y-46315049D01*
X93329684Y-46315051D01*
X93338993Y-46319794D01*
X93389790Y-46367766D01*
X93406587Y-46435587D01*
X93384052Y-46501722D01*
X93339005Y-46540760D01*
X93329946Y-46545376D01*
X93329940Y-46545380D01*
X93275782Y-46584727D01*
X93275782Y-46584728D01*
X93908091Y-47217037D01*
X93844507Y-47234075D01*
X93730493Y-47299901D01*
X93637401Y-47392993D01*
X93571575Y-47507007D01*
X93554537Y-47570591D01*
X92922228Y-46938282D01*
X92922227Y-46938282D01*
X92882880Y-46992440D01*
X92882876Y-46992446D01*
X92878260Y-47001505D01*
X92830281Y-47052297D01*
X92762459Y-47069087D01*
X92696326Y-47046543D01*
X92657294Y-47001493D01*
X92652551Y-46992184D01*
X92652549Y-46992181D01*
X92652548Y-46992179D01*
X92527609Y-46820213D01*
X92377286Y-46669890D01*
X92205320Y-46544951D01*
X92197100Y-46540763D01*
X92196554Y-46540485D01*
X92145759Y-46492512D01*
X92128963Y-46424692D01*
X92151499Y-46358556D01*
X92196554Y-46319515D01*
X92205316Y-46315051D01*
X92227289Y-46299086D01*
X92377286Y-46190109D01*
X92377288Y-46190106D01*
X92377292Y-46190104D01*
X92527604Y-46039792D01*
X92527606Y-46039788D01*
X92527609Y-46039786D01*
X92652548Y-45867820D01*
X92652547Y-45867820D01*
X92652551Y-45867816D01*
X92657014Y-45859054D01*
X92704988Y-45808259D01*
X92772808Y-45791463D01*
X92838944Y-45813999D01*
G37*
%TD.AperFunction*%
%TA.AperFunction,Conductor*%
G36*
X93253736Y-34750726D02*
G01*
X93543796Y-34768271D01*
X93558659Y-34770076D01*
X93840798Y-34821780D01*
X93855335Y-34825363D01*
X94129172Y-34910695D01*
X94143163Y-34916000D01*
X94404743Y-35033727D01*
X94417989Y-35040680D01*
X94663465Y-35189075D01*
X94675776Y-35197573D01*
X94901573Y-35374473D01*
X94912781Y-35384403D01*
X95115596Y-35587218D01*
X95125526Y-35598426D01*
X95245481Y-35751538D01*
X95302422Y-35824217D01*
X95310928Y-35836540D01*
X95459316Y-36082004D01*
X95466275Y-36095263D01*
X95583997Y-36356831D01*
X95589306Y-36370832D01*
X95674635Y-36644663D01*
X95678219Y-36659201D01*
X95729923Y-36941340D01*
X95731728Y-36956205D01*
X95749274Y-37246263D01*
X95749500Y-37253750D01*
X95749500Y-119246250D01*
X95749274Y-119253737D01*
X95731728Y-119543795D01*
X95729923Y-119558660D01*
X95678219Y-119840798D01*
X95674635Y-119855336D01*
X95589304Y-120129175D01*
X95583994Y-120143177D01*
X95466277Y-120404731D01*
X95459319Y-120417989D01*
X95310928Y-120663459D01*
X95302422Y-120675782D01*
X95125525Y-120901573D01*
X95115595Y-120912781D01*
X94912781Y-121115596D01*
X94901573Y-121125526D01*
X94675782Y-121302422D01*
X94663458Y-121310928D01*
X94417987Y-121459319D01*
X94404730Y-121466277D01*
X94143176Y-121583994D01*
X94129174Y-121589304D01*
X93855335Y-121674635D01*
X93840797Y-121678219D01*
X93558659Y-121729923D01*
X93543794Y-121731728D01*
X93350701Y-121743408D01*
X93253712Y-121749275D01*
X93246240Y-121749501D01*
X69253751Y-121749501D01*
X69246264Y-121749275D01*
X68956205Y-121731729D01*
X68941340Y-121729924D01*
X68659201Y-121678220D01*
X68644663Y-121674636D01*
X68370832Y-121589307D01*
X68356831Y-121583998D01*
X68095263Y-121466276D01*
X68082004Y-121459317D01*
X67836537Y-121310927D01*
X67824217Y-121302423D01*
X67598426Y-121125527D01*
X67587218Y-121115597D01*
X67384403Y-120912782D01*
X67374473Y-120901574D01*
X67374472Y-120901573D01*
X67197572Y-120675777D01*
X67189074Y-120663466D01*
X67040678Y-120417989D01*
X67033726Y-120404744D01*
X66915999Y-120143164D01*
X66910692Y-120129168D01*
X66825363Y-119855336D01*
X66821779Y-119840798D01*
X66770075Y-119558660D01*
X66768270Y-119543795D01*
X66750726Y-119253753D01*
X66750500Y-119246266D01*
X66750500Y-115821153D01*
X73399500Y-115821153D01*
X73399500Y-115978846D01*
X73430261Y-116133489D01*
X73430264Y-116133501D01*
X73490602Y-116279172D01*
X73490609Y-116279185D01*
X73578210Y-116410288D01*
X73578213Y-116410292D01*
X73689707Y-116521786D01*
X73689711Y-116521789D01*
X73820814Y-116609390D01*
X73820827Y-116609397D01*
X73966498Y-116669735D01*
X73966503Y-116669737D01*
X74121153Y-116700499D01*
X74121156Y-116700500D01*
X74121158Y-116700500D01*
X74278844Y-116700500D01*
X74278845Y-116700499D01*
X74433497Y-116669737D01*
X74579179Y-116609394D01*
X74710289Y-116521789D01*
X74821789Y-116410289D01*
X74909394Y-116279179D01*
X74969737Y-116133497D01*
X75000500Y-115978842D01*
X75000500Y-115821158D01*
X75000500Y-115821155D01*
X75000499Y-115821153D01*
X74978269Y-115709397D01*
X74969737Y-115666503D01*
X74936099Y-115585292D01*
X74909397Y-115520827D01*
X74909390Y-115520814D01*
X74821789Y-115389711D01*
X74821786Y-115389707D01*
X74710292Y-115278213D01*
X74710288Y-115278210D01*
X74579185Y-115190609D01*
X74579172Y-115190602D01*
X74433501Y-115130264D01*
X74433489Y-115130261D01*
X74278845Y-115099500D01*
X74278842Y-115099500D01*
X74121158Y-115099500D01*
X74121155Y-115099500D01*
X73966510Y-115130261D01*
X73966498Y-115130264D01*
X73820827Y-115190602D01*
X73820814Y-115190609D01*
X73689711Y-115278210D01*
X73689707Y-115278213D01*
X73578213Y-115389707D01*
X73578210Y-115389711D01*
X73490609Y-115520814D01*
X73490602Y-115520827D01*
X73430264Y-115666498D01*
X73430261Y-115666510D01*
X73399500Y-115821153D01*
X66750500Y-115821153D01*
X66750500Y-114921153D01*
X78599500Y-114921153D01*
X78599500Y-115078846D01*
X78630261Y-115233489D01*
X78630264Y-115233501D01*
X78690602Y-115379172D01*
X78690609Y-115379185D01*
X78778210Y-115510288D01*
X78778213Y-115510292D01*
X78889707Y-115621786D01*
X78889711Y-115621789D01*
X79020814Y-115709390D01*
X79020827Y-115709397D01*
X79166498Y-115769735D01*
X79166503Y-115769737D01*
X79321153Y-115800499D01*
X79321156Y-115800500D01*
X79321158Y-115800500D01*
X79478844Y-115800500D01*
X79478845Y-115800499D01*
X79633497Y-115769737D01*
X79779179Y-115709394D01*
X79910289Y-115621789D01*
X80021789Y-115510289D01*
X80109394Y-115379179D01*
X80169737Y-115233497D01*
X80200500Y-115078842D01*
X80200500Y-114996153D01*
X86899500Y-114996153D01*
X86899500Y-115153846D01*
X86930261Y-115308489D01*
X86930264Y-115308501D01*
X86990602Y-115454172D01*
X86990609Y-115454185D01*
X87078210Y-115585288D01*
X87078213Y-115585292D01*
X87189707Y-115696786D01*
X87189711Y-115696789D01*
X87320814Y-115784390D01*
X87320827Y-115784397D01*
X87466498Y-115844735D01*
X87466503Y-115844737D01*
X87621153Y-115875499D01*
X87621156Y-115875500D01*
X87621158Y-115875500D01*
X87778844Y-115875500D01*
X87778845Y-115875499D01*
X87933497Y-115844737D01*
X88079179Y-115784394D01*
X88210289Y-115696789D01*
X88321789Y-115585289D01*
X88409394Y-115454179D01*
X88469737Y-115308497D01*
X88500500Y-115153842D01*
X88500500Y-114996158D01*
X88500500Y-114996155D01*
X88500499Y-114996153D01*
X88477494Y-114880500D01*
X88469737Y-114841503D01*
X88469735Y-114841498D01*
X88409397Y-114695827D01*
X88409391Y-114695816D01*
X88390071Y-114666901D01*
X88390070Y-114666900D01*
X88321789Y-114564711D01*
X88321786Y-114564707D01*
X88210292Y-114453213D01*
X88210288Y-114453210D01*
X88079185Y-114365609D01*
X88079172Y-114365602D01*
X87933501Y-114305264D01*
X87933489Y-114305261D01*
X87778845Y-114274500D01*
X87778842Y-114274500D01*
X87621158Y-114274500D01*
X87621155Y-114274500D01*
X87466510Y-114305261D01*
X87466498Y-114305264D01*
X87320827Y-114365602D01*
X87320814Y-114365609D01*
X87189711Y-114453210D01*
X87189707Y-114453213D01*
X87078213Y-114564707D01*
X87078210Y-114564711D01*
X86990609Y-114695814D01*
X86990602Y-114695827D01*
X86930264Y-114841498D01*
X86930261Y-114841510D01*
X86899500Y-114996153D01*
X80200500Y-114996153D01*
X80200500Y-114921158D01*
X80200500Y-114921155D01*
X80200499Y-114921153D01*
X80169737Y-114766503D01*
X80169735Y-114766498D01*
X80109397Y-114620827D01*
X80109390Y-114620814D01*
X80021789Y-114489711D01*
X80021786Y-114489707D01*
X79910292Y-114378213D01*
X79910288Y-114378210D01*
X79779185Y-114290609D01*
X79779172Y-114290602D01*
X79633501Y-114230264D01*
X79633489Y-114230261D01*
X79478845Y-114199500D01*
X79478842Y-114199500D01*
X79321158Y-114199500D01*
X79321155Y-114199500D01*
X79166510Y-114230261D01*
X79166498Y-114230264D01*
X79020827Y-114290602D01*
X79020814Y-114290609D01*
X78889711Y-114378210D01*
X78889707Y-114378213D01*
X78778213Y-114489707D01*
X78778210Y-114489711D01*
X78690609Y-114620814D01*
X78690602Y-114620827D01*
X78630264Y-114766498D01*
X78630261Y-114766510D01*
X78599500Y-114921153D01*
X66750500Y-114921153D01*
X66750500Y-100723713D01*
X67129500Y-100723713D01*
X67129500Y-100936286D01*
X67153581Y-101088331D01*
X67162754Y-101146243D01*
X67222546Y-101330264D01*
X67228444Y-101348414D01*
X67324951Y-101537820D01*
X67449890Y-101709786D01*
X67600213Y-101860109D01*
X67772182Y-101985050D01*
X67780946Y-101989516D01*
X67831742Y-102037491D01*
X67848536Y-102105312D01*
X67825998Y-102171447D01*
X67780946Y-102210484D01*
X67772182Y-102214949D01*
X67600213Y-102339890D01*
X67449890Y-102490213D01*
X67324951Y-102662179D01*
X67228444Y-102851585D01*
X67162753Y-103053760D01*
X67129500Y-103263713D01*
X67129500Y-103476286D01*
X67162753Y-103686239D01*
X67228444Y-103888414D01*
X67324951Y-104077820D01*
X67449890Y-104249786D01*
X67600213Y-104400109D01*
X67772182Y-104525050D01*
X67780946Y-104529516D01*
X67831742Y-104577491D01*
X67848536Y-104645312D01*
X67825998Y-104711447D01*
X67780946Y-104750484D01*
X67772182Y-104754949D01*
X67600213Y-104879890D01*
X67449890Y-105030213D01*
X67324951Y-105202179D01*
X67228444Y-105391585D01*
X67162753Y-105593760D01*
X67129500Y-105803713D01*
X67129500Y-106016286D01*
X67158461Y-106199142D01*
X67162754Y-106226243D01*
X67212798Y-106380263D01*
X67228444Y-106428414D01*
X67324951Y-106617820D01*
X67449890Y-106789786D01*
X67600213Y-106940109D01*
X67772182Y-107065050D01*
X67780946Y-107069516D01*
X67831742Y-107117491D01*
X67848536Y-107185312D01*
X67825998Y-107251447D01*
X67780946Y-107290484D01*
X67772182Y-107294949D01*
X67600213Y-107419890D01*
X67449890Y-107570213D01*
X67324951Y-107742179D01*
X67228444Y-107931585D01*
X67162753Y-108133760D01*
X67129500Y-108343713D01*
X67129500Y-108556286D01*
X67158551Y-108739711D01*
X67162754Y-108766243D01*
X67196731Y-108870814D01*
X67228444Y-108968414D01*
X67324951Y-109157820D01*
X67449890Y-109329786D01*
X67600213Y-109480109D01*
X67772179Y-109605048D01*
X67772181Y-109605049D01*
X67772184Y-109605051D01*
X67781493Y-109609794D01*
X67832290Y-109657766D01*
X67849087Y-109725587D01*
X67826552Y-109791722D01*
X67781505Y-109830760D01*
X67772446Y-109835376D01*
X67772440Y-109835380D01*
X67718282Y-109874727D01*
X67718282Y-109874728D01*
X68350591Y-110507037D01*
X68287007Y-110524075D01*
X68172993Y-110589901D01*
X68079901Y-110682993D01*
X68014075Y-110797007D01*
X67997037Y-110860591D01*
X67364728Y-110228282D01*
X67364727Y-110228282D01*
X67325380Y-110282439D01*
X67228904Y-110471782D01*
X67163242Y-110673869D01*
X67163242Y-110673872D01*
X67130000Y-110883753D01*
X67130000Y-111096246D01*
X67163242Y-111306127D01*
X67163242Y-111306130D01*
X67228904Y-111508217D01*
X67325375Y-111697550D01*
X67364728Y-111751716D01*
X67997037Y-111119408D01*
X68014075Y-111182993D01*
X68079901Y-111297007D01*
X68172993Y-111390099D01*
X68287007Y-111455925D01*
X68350590Y-111472962D01*
X67718282Y-112105269D01*
X67718282Y-112105270D01*
X67772452Y-112144626D01*
X67772451Y-112144626D01*
X67781495Y-112149234D01*
X67832292Y-112197208D01*
X67849087Y-112265029D01*
X67826550Y-112331164D01*
X67781499Y-112370202D01*
X67772182Y-112374949D01*
X67600213Y-112499890D01*
X67449890Y-112650213D01*
X67324951Y-112822179D01*
X67228444Y-113011585D01*
X67162753Y-113213760D01*
X67129500Y-113423713D01*
X67129500Y-113636286D01*
X67162753Y-113846239D01*
X67228444Y-114048414D01*
X67324951Y-114237820D01*
X67449890Y-114409786D01*
X67600213Y-114560109D01*
X67772179Y-114685048D01*
X67772181Y-114685049D01*
X67772184Y-114685051D01*
X67961588Y-114781557D01*
X68163757Y-114847246D01*
X68373713Y-114880500D01*
X68373714Y-114880500D01*
X68586286Y-114880500D01*
X68586287Y-114880500D01*
X68796243Y-114847246D01*
X68998412Y-114781557D01*
X69187816Y-114685051D01*
X69242572Y-114645269D01*
X69359786Y-114560109D01*
X69359788Y-114560106D01*
X69359792Y-114560104D01*
X69510104Y-114409792D01*
X69510106Y-114409788D01*
X69510109Y-114409786D01*
X69635048Y-114237820D01*
X69635050Y-114237817D01*
X69635051Y-114237816D01*
X69639514Y-114229054D01*
X69687488Y-114178259D01*
X69755308Y-114161463D01*
X69821444Y-114183999D01*
X69860486Y-114229056D01*
X69864951Y-114237820D01*
X69989890Y-114409786D01*
X70140213Y-114560109D01*
X70312179Y-114685048D01*
X70312181Y-114685049D01*
X70312184Y-114685051D01*
X70501588Y-114781557D01*
X70703757Y-114847246D01*
X70913713Y-114880500D01*
X70913714Y-114880500D01*
X71126286Y-114880500D01*
X71126287Y-114880500D01*
X71336243Y-114847246D01*
X71538412Y-114781557D01*
X71727816Y-114685051D01*
X71782572Y-114645269D01*
X71899786Y-114560109D01*
X71899788Y-114560106D01*
X71899792Y-114560104D01*
X72050104Y-114409792D01*
X72050106Y-114409788D01*
X72050109Y-114409786D01*
X72175048Y-114237820D01*
X72175050Y-114237817D01*
X72175051Y-114237816D01*
X72271557Y-114048412D01*
X72337246Y-113846243D01*
X72370500Y-113636287D01*
X72370500Y-113423713D01*
X72337246Y-113213757D01*
X72271557Y-113011588D01*
X72175051Y-112822184D01*
X72175049Y-112822181D01*
X72175048Y-112822179D01*
X72050109Y-112650213D01*
X71899786Y-112499890D01*
X71727817Y-112374949D01*
X71718504Y-112370204D01*
X71667707Y-112322230D01*
X71650912Y-112254409D01*
X71673449Y-112188274D01*
X71690319Y-112168948D01*
X71714811Y-112146153D01*
X78799500Y-112146153D01*
X78799500Y-112303846D01*
X78830261Y-112458489D01*
X78830264Y-112458501D01*
X78890602Y-112604172D01*
X78890609Y-112604185D01*
X78978210Y-112735288D01*
X78978213Y-112735292D01*
X79089707Y-112846786D01*
X79089711Y-112846789D01*
X79220814Y-112934390D01*
X79220827Y-112934397D01*
X79366498Y-112994735D01*
X79366503Y-112994737D01*
X79521153Y-113025499D01*
X79521156Y-113025500D01*
X79521158Y-113025500D01*
X79678844Y-113025500D01*
X79678845Y-113025499D01*
X79833497Y-112994737D01*
X79979179Y-112934394D01*
X80110289Y-112846789D01*
X80221789Y-112735289D01*
X80309394Y-112604179D01*
X80369737Y-112458497D01*
X80400500Y-112303842D01*
X80400500Y-112146158D01*
X80400500Y-112146155D01*
X80400499Y-112146153D01*
X80369738Y-111991510D01*
X80369737Y-111991503D01*
X80319321Y-111869786D01*
X80309397Y-111845827D01*
X80309390Y-111845814D01*
X80221789Y-111714711D01*
X80221786Y-111714707D01*
X80110292Y-111603213D01*
X80110288Y-111603210D01*
X79979185Y-111515609D01*
X79979172Y-111515602D01*
X79833501Y-111455264D01*
X79833489Y-111455261D01*
X79678845Y-111424500D01*
X79678842Y-111424500D01*
X79521158Y-111424500D01*
X79521155Y-111424500D01*
X79366510Y-111455261D01*
X79366498Y-111455264D01*
X79220827Y-111515602D01*
X79220814Y-111515609D01*
X79089711Y-111603210D01*
X79089707Y-111603213D01*
X78978213Y-111714707D01*
X78978210Y-111714711D01*
X78890609Y-111845814D01*
X78890602Y-111845827D01*
X78830264Y-111991498D01*
X78830261Y-111991510D01*
X78799500Y-112146153D01*
X71714811Y-112146153D01*
X71770640Y-112094193D01*
X71149408Y-111472962D01*
X71212993Y-111455925D01*
X71327007Y-111390099D01*
X71420099Y-111297007D01*
X71485925Y-111182993D01*
X71502962Y-111119408D01*
X72135270Y-111751717D01*
X72135270Y-111751716D01*
X72174622Y-111697554D01*
X72271095Y-111508217D01*
X72336757Y-111306130D01*
X72336757Y-111306127D01*
X72370000Y-111096246D01*
X72370000Y-110883753D01*
X72336757Y-110673872D01*
X72336757Y-110673869D01*
X72271095Y-110471782D01*
X72174624Y-110282449D01*
X72135270Y-110228282D01*
X72135269Y-110228282D01*
X71502962Y-110860590D01*
X71485925Y-110797007D01*
X71420099Y-110682993D01*
X71327007Y-110589901D01*
X71212993Y-110524075D01*
X71149409Y-110507037D01*
X71781716Y-109874728D01*
X71727547Y-109835373D01*
X71727547Y-109835372D01*
X71718500Y-109830763D01*
X71667706Y-109782788D01*
X71650912Y-109714966D01*
X71673451Y-109648832D01*
X71718508Y-109609793D01*
X71727816Y-109605051D01*
X71825075Y-109534389D01*
X71899786Y-109480109D01*
X71899788Y-109480106D01*
X71899792Y-109480104D01*
X72050104Y-109329792D01*
X72050106Y-109329788D01*
X72050109Y-109329786D01*
X72141362Y-109204185D01*
X72175051Y-109157816D01*
X72180994Y-109146153D01*
X77099500Y-109146153D01*
X77099500Y-109303846D01*
X77130261Y-109458489D01*
X77130264Y-109458501D01*
X77190602Y-109604172D01*
X77190609Y-109604185D01*
X77278210Y-109735288D01*
X77278213Y-109735292D01*
X77389707Y-109846786D01*
X77389711Y-109846789D01*
X77520814Y-109934390D01*
X77520827Y-109934397D01*
X77666498Y-109994735D01*
X77666503Y-109994737D01*
X77792176Y-110019735D01*
X77821153Y-110025499D01*
X77821156Y-110025500D01*
X77821158Y-110025500D01*
X77978844Y-110025500D01*
X77978845Y-110025499D01*
X78133497Y-109994737D01*
X78279179Y-109934394D01*
X78410289Y-109846789D01*
X78521789Y-109735289D01*
X78609394Y-109604179D01*
X78669737Y-109458497D01*
X78700500Y-109303842D01*
X78700500Y-109146158D01*
X78700500Y-109146155D01*
X78700499Y-109146153D01*
X78669738Y-108991510D01*
X78669737Y-108991503D01*
X78660173Y-108968414D01*
X78609397Y-108845827D01*
X78609390Y-108845814D01*
X78521789Y-108714711D01*
X78521786Y-108714707D01*
X78410292Y-108603213D01*
X78410288Y-108603210D01*
X78279185Y-108515609D01*
X78279172Y-108515602D01*
X78133501Y-108455264D01*
X78133489Y-108455261D01*
X77978845Y-108424500D01*
X77978842Y-108424500D01*
X77821158Y-108424500D01*
X77821155Y-108424500D01*
X77666510Y-108455261D01*
X77666498Y-108455264D01*
X77520827Y-108515602D01*
X77520814Y-108515609D01*
X77389711Y-108603210D01*
X77389707Y-108603213D01*
X77278213Y-108714707D01*
X77278210Y-108714711D01*
X77190609Y-108845814D01*
X77190602Y-108845827D01*
X77130264Y-108991498D01*
X77130261Y-108991510D01*
X77099500Y-109146153D01*
X72180994Y-109146153D01*
X72271557Y-108968412D01*
X72337246Y-108766243D01*
X72370500Y-108556287D01*
X72370500Y-108343713D01*
X72337246Y-108133757D01*
X72271557Y-107931588D01*
X72175051Y-107742184D01*
X72175049Y-107742181D01*
X72175048Y-107742179D01*
X72050109Y-107570213D01*
X71899786Y-107419890D01*
X71727820Y-107294951D01*
X71727115Y-107294591D01*
X71719054Y-107290485D01*
X71668259Y-107242512D01*
X71651463Y-107174692D01*
X71673999Y-107108556D01*
X71719054Y-107069515D01*
X71727816Y-107065051D01*
X71749789Y-107049086D01*
X71899786Y-106940109D01*
X71899788Y-106940106D01*
X71899792Y-106940104D01*
X72050104Y-106789792D01*
X72050106Y-106789788D01*
X72050109Y-106789786D01*
X72175048Y-106617820D01*
X72175047Y-106617820D01*
X72175051Y-106617816D01*
X72271557Y-106428412D01*
X72337246Y-106226243D01*
X72370500Y-106016287D01*
X72370500Y-105803713D01*
X72337246Y-105593757D01*
X72271557Y-105391588D01*
X72175051Y-105202184D01*
X72175049Y-105202181D01*
X72175048Y-105202179D01*
X72050109Y-105030213D01*
X71916049Y-104896153D01*
X77674500Y-104896153D01*
X77674500Y-105053846D01*
X77705261Y-105208489D01*
X77705264Y-105208501D01*
X77765602Y-105354172D01*
X77765609Y-105354185D01*
X77853210Y-105485288D01*
X77853213Y-105485292D01*
X77964707Y-105596786D01*
X77964711Y-105596789D01*
X78095814Y-105684390D01*
X78095827Y-105684397D01*
X78241498Y-105744735D01*
X78241503Y-105744737D01*
X78379990Y-105772284D01*
X78396153Y-105775499D01*
X78396156Y-105775500D01*
X78396158Y-105775500D01*
X78553843Y-105775500D01*
X78570010Y-105772284D01*
X78601308Y-105766058D01*
X78670898Y-105772284D01*
X78726076Y-105815147D01*
X78749322Y-105881036D01*
X78749500Y-105887675D01*
X78749500Y-107395064D01*
X78729815Y-107462103D01*
X78728603Y-107463954D01*
X78690608Y-107520817D01*
X78690602Y-107520828D01*
X78630264Y-107666498D01*
X78630261Y-107666510D01*
X78599500Y-107821153D01*
X78599500Y-107978846D01*
X78630261Y-108133489D01*
X78630264Y-108133501D01*
X78690602Y-108279172D01*
X78690609Y-108279185D01*
X78778210Y-108410288D01*
X78778213Y-108410292D01*
X78889707Y-108521786D01*
X78889711Y-108521789D01*
X79020814Y-108609390D01*
X79020827Y-108609397D01*
X79166498Y-108669735D01*
X79166503Y-108669737D01*
X79302306Y-108696750D01*
X79364217Y-108729134D01*
X79398791Y-108789850D01*
X79395052Y-108859620D01*
X79392677Y-108865818D01*
X79330263Y-109016503D01*
X79330261Y-109016510D01*
X79299500Y-109171153D01*
X79299500Y-109328846D01*
X79330261Y-109483489D01*
X79330264Y-109483501D01*
X79390602Y-109629172D01*
X79390609Y-109629185D01*
X79478210Y-109760288D01*
X79478213Y-109760292D01*
X79589707Y-109871786D01*
X79589711Y-109871789D01*
X79720814Y-109959390D01*
X79720827Y-109959397D01*
X79866498Y-110019735D01*
X79866503Y-110019737D01*
X80021153Y-110050499D01*
X80021156Y-110050500D01*
X80021158Y-110050500D01*
X80178844Y-110050500D01*
X80178845Y-110050499D01*
X80333497Y-110019737D01*
X80479179Y-109959394D01*
X80610289Y-109871789D01*
X80721789Y-109760289D01*
X80809394Y-109629179D01*
X80869737Y-109483497D01*
X80900500Y-109328842D01*
X80900500Y-109171158D01*
X80900500Y-109171155D01*
X80900499Y-109171153D01*
X80895527Y-109146158D01*
X80869737Y-109016503D01*
X80826306Y-108911650D01*
X80809397Y-108870827D01*
X80809390Y-108870814D01*
X80721789Y-108739711D01*
X80721786Y-108739707D01*
X80610292Y-108628213D01*
X80610288Y-108628210D01*
X80479185Y-108540609D01*
X80479172Y-108540602D01*
X80333501Y-108480264D01*
X80333491Y-108480261D01*
X80197692Y-108453249D01*
X80135782Y-108420864D01*
X80101207Y-108360148D01*
X80104947Y-108290379D01*
X80107323Y-108284180D01*
X80143273Y-108197384D01*
X80169737Y-108133497D01*
X80200500Y-107978842D01*
X80200500Y-107821158D01*
X80200500Y-107821155D01*
X80200499Y-107821153D01*
X80184791Y-107742184D01*
X80169737Y-107666503D01*
X80129851Y-107570208D01*
X80109397Y-107520828D01*
X80109396Y-107520827D01*
X80109394Y-107520821D01*
X80071396Y-107463953D01*
X80050520Y-107397276D01*
X80050500Y-107395064D01*
X80050500Y-98620807D01*
X80070185Y-98553768D01*
X80086814Y-98533131D01*
X85602931Y-93017013D01*
X85615188Y-93009644D01*
X85622366Y-93001165D01*
X85644211Y-92992196D01*
X85654298Y-92986132D01*
X85660277Y-92984300D01*
X85733497Y-92969737D01*
X85806313Y-92939575D01*
X85811971Y-92937843D01*
X85841215Y-92937503D01*
X85870299Y-92934377D01*
X85875746Y-92937103D01*
X85881836Y-92937033D01*
X85906619Y-92952557D01*
X85932779Y-92965652D01*
X85935887Y-92970891D01*
X85941048Y-92974124D01*
X85953504Y-93000582D01*
X85968431Y-93025741D01*
X85968213Y-93031828D01*
X85970808Y-93037339D01*
X85966980Y-93066340D01*
X85965937Y-93095566D01*
X85962359Y-93101356D01*
X85961667Y-93106608D01*
X85952226Y-93117761D01*
X85935964Y-93144088D01*
X80894722Y-98185331D01*
X80894718Y-98185336D01*
X80860914Y-98235930D01*
X80860914Y-98235931D01*
X80823534Y-98291874D01*
X80774499Y-98410255D01*
X80774497Y-98410261D01*
X80749500Y-98535928D01*
X80749500Y-98535931D01*
X80749500Y-99764069D01*
X80763795Y-99835931D01*
X80771093Y-99872620D01*
X80774499Y-99889744D01*
X80823534Y-100008125D01*
X80894726Y-100114673D01*
X80894727Y-100114674D01*
X85113181Y-104333127D01*
X85146666Y-104394450D01*
X85149500Y-104420808D01*
X85149500Y-110164069D01*
X85159206Y-110212860D01*
X85159206Y-110212863D01*
X85173048Y-110282452D01*
X85174499Y-110289744D01*
X85223535Y-110408127D01*
X85278240Y-110490000D01*
X85294726Y-110514673D01*
X87585325Y-112805272D01*
X87585332Y-112805278D01*
X87653015Y-112850502D01*
X87653016Y-112850502D01*
X87691866Y-112876461D01*
X87691872Y-112876464D01*
X87691873Y-112876465D01*
X87810256Y-112925501D01*
X87810260Y-112925501D01*
X87810261Y-112925502D01*
X87935928Y-112950500D01*
X87935931Y-112950500D01*
X90073146Y-112950500D01*
X90140185Y-112970185D01*
X90185940Y-113022989D01*
X90195884Y-113092147D01*
X90191077Y-113112819D01*
X90158241Y-113213873D01*
X90125000Y-113423753D01*
X90125000Y-113636246D01*
X90158242Y-113846127D01*
X90158242Y-113846130D01*
X90223904Y-114048217D01*
X90320375Y-114237550D01*
X90359728Y-114291716D01*
X90992036Y-113659407D01*
X91009075Y-113722993D01*
X91074901Y-113837007D01*
X91167993Y-113930099D01*
X91282007Y-113995925D01*
X91345590Y-114012962D01*
X90713282Y-114645269D01*
X90713282Y-114645270D01*
X90767449Y-114684624D01*
X90956782Y-114781095D01*
X91158870Y-114846757D01*
X91368754Y-114880000D01*
X91581246Y-114880000D01*
X91791127Y-114846757D01*
X91791130Y-114846757D01*
X91993217Y-114781095D01*
X92182554Y-114684622D01*
X92236716Y-114645270D01*
X92236717Y-114645270D01*
X91604408Y-114012962D01*
X91667993Y-113995925D01*
X91782007Y-113930099D01*
X91875099Y-113837007D01*
X91940925Y-113722993D01*
X91957962Y-113659409D01*
X92590270Y-114291717D01*
X92590270Y-114291716D01*
X92629622Y-114237555D01*
X92634232Y-114228507D01*
X92682205Y-114177709D01*
X92750025Y-114160912D01*
X92816161Y-114183447D01*
X92855204Y-114228504D01*
X92859949Y-114237817D01*
X92984890Y-114409786D01*
X93135213Y-114560109D01*
X93307179Y-114685048D01*
X93307181Y-114685049D01*
X93307184Y-114685051D01*
X93496588Y-114781557D01*
X93698757Y-114847246D01*
X93908713Y-114880500D01*
X93908714Y-114880500D01*
X94121286Y-114880500D01*
X94121287Y-114880500D01*
X94331243Y-114847246D01*
X94533412Y-114781557D01*
X94722816Y-114685051D01*
X94777572Y-114645269D01*
X94894786Y-114560109D01*
X94894788Y-114560106D01*
X94894792Y-114560104D01*
X95045104Y-114409792D01*
X95045106Y-114409788D01*
X95045109Y-114409786D01*
X95170048Y-114237820D01*
X95170050Y-114237817D01*
X95170051Y-114237816D01*
X95266557Y-114048412D01*
X95332246Y-113846243D01*
X95365500Y-113636287D01*
X95365500Y-113423713D01*
X95332246Y-113213757D01*
X95266557Y-113011588D01*
X95170051Y-112822184D01*
X95170049Y-112822181D01*
X95170048Y-112822179D01*
X95045109Y-112650213D01*
X94894786Y-112499890D01*
X94722820Y-112374951D01*
X94722115Y-112374591D01*
X94714054Y-112370485D01*
X94663259Y-112322512D01*
X94646463Y-112254692D01*
X94668999Y-112188556D01*
X94714054Y-112149515D01*
X94722816Y-112145051D01*
X94792817Y-112094193D01*
X94894786Y-112020109D01*
X94894788Y-112020106D01*
X94894792Y-112020104D01*
X95045104Y-111869792D01*
X95045106Y-111869788D01*
X95045109Y-111869786D01*
X95170048Y-111697820D01*
X95170047Y-111697820D01*
X95170051Y-111697816D01*
X95266557Y-111508412D01*
X95332246Y-111306243D01*
X95365500Y-111096287D01*
X95365500Y-110883713D01*
X95332246Y-110673757D01*
X95266557Y-110471588D01*
X95170051Y-110282184D01*
X95170049Y-110282181D01*
X95170048Y-110282179D01*
X95045109Y-110110213D01*
X94894786Y-109959890D01*
X94722820Y-109834951D01*
X94714600Y-109830763D01*
X94714054Y-109830485D01*
X94663259Y-109782512D01*
X94646463Y-109714692D01*
X94668999Y-109648556D01*
X94714054Y-109609515D01*
X94722816Y-109605051D01*
X94820068Y-109534394D01*
X94894786Y-109480109D01*
X94894788Y-109480106D01*
X94894792Y-109480104D01*
X95045104Y-109329792D01*
X95045106Y-109329788D01*
X95045109Y-109329786D01*
X95170048Y-109157820D01*
X95170049Y-109157819D01*
X95170051Y-109157816D01*
X95266557Y-108968412D01*
X95332246Y-108766243D01*
X95365500Y-108556287D01*
X95365500Y-108343713D01*
X95332246Y-108133757D01*
X95266557Y-107931588D01*
X95170051Y-107742184D01*
X95170049Y-107742181D01*
X95170048Y-107742179D01*
X95045109Y-107570213D01*
X94894786Y-107419890D01*
X94722820Y-107294951D01*
X94722115Y-107294591D01*
X94714054Y-107290485D01*
X94663259Y-107242512D01*
X94646463Y-107174692D01*
X94668999Y-107108556D01*
X94714054Y-107069515D01*
X94722816Y-107065051D01*
X94744789Y-107049086D01*
X94894786Y-106940109D01*
X94894788Y-106940106D01*
X94894792Y-106940104D01*
X95045104Y-106789792D01*
X95045106Y-106789788D01*
X95045109Y-106789786D01*
X95170048Y-106617820D01*
X95170047Y-106617820D01*
X95170051Y-106617816D01*
X95266557Y-106428412D01*
X95332246Y-106226243D01*
X95365500Y-106016287D01*
X95365500Y-105803713D01*
X95332246Y-105593757D01*
X95266557Y-105391588D01*
X95170051Y-105202184D01*
X95170049Y-105202181D01*
X95170048Y-105202179D01*
X95045109Y-105030213D01*
X94894786Y-104879890D01*
X94722820Y-104754951D01*
X94722115Y-104754591D01*
X94714054Y-104750485D01*
X94663259Y-104702512D01*
X94646463Y-104634692D01*
X94668999Y-104568556D01*
X94714054Y-104529515D01*
X94722816Y-104525051D01*
X94797974Y-104470446D01*
X94894786Y-104400109D01*
X94894788Y-104400106D01*
X94894792Y-104400104D01*
X95045104Y-104249792D01*
X95045106Y-104249788D01*
X95045109Y-104249786D01*
X95170048Y-104077820D01*
X95170047Y-104077820D01*
X95170051Y-104077816D01*
X95266557Y-103888412D01*
X95332246Y-103686243D01*
X95365500Y-103476287D01*
X95365500Y-103263713D01*
X95332246Y-103053757D01*
X95266557Y-102851588D01*
X95170051Y-102662184D01*
X95170049Y-102662181D01*
X95170048Y-102662179D01*
X95045109Y-102490213D01*
X94894786Y-102339890D01*
X94722820Y-102214951D01*
X94722115Y-102214591D01*
X94714054Y-102210485D01*
X94663259Y-102162512D01*
X94646463Y-102094692D01*
X94668999Y-102028556D01*
X94714054Y-101989515D01*
X94722816Y-101985051D01*
X94789940Y-101936283D01*
X94894786Y-101860109D01*
X94894788Y-101860106D01*
X94894792Y-101860104D01*
X95045104Y-101709792D01*
X95045106Y-101709788D01*
X95045109Y-101709786D01*
X95170048Y-101537820D01*
X95170047Y-101537820D01*
X95170051Y-101537816D01*
X95266557Y-101348412D01*
X95332246Y-101146243D01*
X95365500Y-100936287D01*
X95365500Y-100723713D01*
X95332246Y-100513757D01*
X95266557Y-100311588D01*
X95170051Y-100122184D01*
X95170049Y-100122181D01*
X95170048Y-100122179D01*
X95045109Y-99950213D01*
X94894786Y-99799890D01*
X94722820Y-99674951D01*
X94533414Y-99578444D01*
X94533413Y-99578443D01*
X94533412Y-99578443D01*
X94331243Y-99512754D01*
X94331241Y-99512753D01*
X94331240Y-99512753D01*
X94169957Y-99487208D01*
X94121287Y-99479500D01*
X93908713Y-99479500D01*
X93860042Y-99487208D01*
X93698760Y-99512753D01*
X93496585Y-99578444D01*
X93307179Y-99674951D01*
X93135215Y-99799889D01*
X93021285Y-99913819D01*
X92959962Y-99947303D01*
X92890270Y-99942319D01*
X92834337Y-99900447D01*
X92817422Y-99869470D01*
X92768354Y-99737913D01*
X92768350Y-99737906D01*
X92682190Y-99622812D01*
X92682187Y-99622809D01*
X92567093Y-99536649D01*
X92567086Y-99536645D01*
X92432379Y-99486403D01*
X92432372Y-99486401D01*
X92372844Y-99480000D01*
X91725000Y-99480000D01*
X91725000Y-100396988D01*
X91667993Y-100364075D01*
X91540826Y-100330000D01*
X91409174Y-100330000D01*
X91282007Y-100364075D01*
X91225000Y-100396988D01*
X91225000Y-99480000D01*
X90577155Y-99480000D01*
X90517627Y-99486401D01*
X90517620Y-99486403D01*
X90382913Y-99536645D01*
X90382906Y-99536649D01*
X90267812Y-99622809D01*
X90267809Y-99622812D01*
X90181649Y-99737906D01*
X90181645Y-99737913D01*
X90131403Y-99872620D01*
X90131401Y-99872627D01*
X90125000Y-99932155D01*
X90125000Y-100580000D01*
X91041988Y-100580000D01*
X91009075Y-100637007D01*
X90975000Y-100764174D01*
X90975000Y-100895826D01*
X91009075Y-101022993D01*
X91041988Y-101080000D01*
X90104088Y-101080000D01*
X90088831Y-101088331D01*
X90019139Y-101083347D01*
X89974792Y-101054846D01*
X88486819Y-99566873D01*
X88453334Y-99505550D01*
X88450500Y-99479192D01*
X88450500Y-97278269D01*
X88470185Y-97211230D01*
X88522989Y-97165475D01*
X88592147Y-97155531D01*
X88655703Y-97184556D01*
X88674292Y-97205626D01*
X88674347Y-97205581D01*
X88675609Y-97207119D01*
X88677603Y-97209379D01*
X88678212Y-97210291D01*
X88789707Y-97321786D01*
X88789711Y-97321789D01*
X88920814Y-97409390D01*
X88920827Y-97409397D01*
X89066498Y-97469735D01*
X89066503Y-97469737D01*
X89221153Y-97500499D01*
X89221156Y-97500500D01*
X89221158Y-97500500D01*
X89378844Y-97500500D01*
X89378845Y-97500499D01*
X89533497Y-97469737D01*
X89679179Y-97409394D01*
X89810289Y-97321789D01*
X89921789Y-97210289D01*
X90009394Y-97079179D01*
X90069737Y-96933497D01*
X90100500Y-96778842D01*
X90100500Y-96621158D01*
X90100500Y-96621155D01*
X90100499Y-96621153D01*
X90069738Y-96466510D01*
X90069737Y-96466503D01*
X90069735Y-96466498D01*
X90009397Y-96320827D01*
X90009390Y-96320814D01*
X89921789Y-96189711D01*
X89921786Y-96189707D01*
X89810292Y-96078213D01*
X89810288Y-96078210D01*
X89679185Y-95990609D01*
X89679172Y-95990602D01*
X89533501Y-95930264D01*
X89533489Y-95930261D01*
X89378845Y-95899500D01*
X89378842Y-95899500D01*
X89221158Y-95899500D01*
X89221155Y-95899500D01*
X89066510Y-95930261D01*
X89066498Y-95930264D01*
X88920827Y-95990602D01*
X88920814Y-95990609D01*
X88789711Y-96078210D01*
X88789707Y-96078213D01*
X88678213Y-96189707D01*
X88678206Y-96189716D01*
X88677597Y-96190628D01*
X88677155Y-96190997D01*
X88674347Y-96194419D01*
X88673697Y-96193886D01*
X88623982Y-96235429D01*
X88554656Y-96244132D01*
X88491631Y-96213973D01*
X88454916Y-96154527D01*
X88450500Y-96121730D01*
X88450500Y-95320807D01*
X88470185Y-95253768D01*
X88486814Y-95233130D01*
X89602931Y-94117013D01*
X89664252Y-94083530D01*
X89666317Y-94083099D01*
X89733497Y-94069737D01*
X89879179Y-94009394D01*
X90010289Y-93921789D01*
X90121789Y-93810289D01*
X90209394Y-93679179D01*
X90269737Y-93533497D01*
X90300500Y-93378842D01*
X90300500Y-93221158D01*
X90300500Y-93221155D01*
X90300499Y-93221153D01*
X90295394Y-93195490D01*
X90269737Y-93066503D01*
X90269735Y-93066498D01*
X90209397Y-92920827D01*
X90209390Y-92920814D01*
X90121789Y-92789711D01*
X90121786Y-92789707D01*
X90010292Y-92678213D01*
X90010288Y-92678210D01*
X89879185Y-92590609D01*
X89879172Y-92590602D01*
X89733501Y-92530264D01*
X89733489Y-92530261D01*
X89578845Y-92499500D01*
X89578842Y-92499500D01*
X89421158Y-92499500D01*
X89421155Y-92499500D01*
X89266510Y-92530261D01*
X89266498Y-92530264D01*
X89120827Y-92590602D01*
X89120814Y-92590609D01*
X88989711Y-92678210D01*
X88989707Y-92678213D01*
X88878213Y-92789707D01*
X88878210Y-92789711D01*
X88790609Y-92920814D01*
X88790602Y-92920827D01*
X88730264Y-93066498D01*
X88730261Y-93066508D01*
X88716920Y-93133579D01*
X88684535Y-93195490D01*
X88682984Y-93197068D01*
X87294726Y-94585326D01*
X87223534Y-94691874D01*
X87174499Y-94810255D01*
X87174497Y-94810261D01*
X87149500Y-94935928D01*
X87149500Y-99864071D01*
X87165274Y-99943368D01*
X87165274Y-99943369D01*
X87174497Y-99989736D01*
X87174499Y-99989744D01*
X87182113Y-100008127D01*
X87223535Y-100108127D01*
X87294723Y-100214669D01*
X87294726Y-100214673D01*
X87294727Y-100214674D01*
X88167873Y-101087819D01*
X88201358Y-101149142D01*
X88196374Y-101218833D01*
X88154502Y-101274767D01*
X88089038Y-101299184D01*
X88080192Y-101299500D01*
X87921155Y-101299500D01*
X87766510Y-101330261D01*
X87766498Y-101330264D01*
X87620827Y-101390602D01*
X87620814Y-101390609D01*
X87489711Y-101478210D01*
X87489707Y-101478213D01*
X87378213Y-101589707D01*
X87378210Y-101589711D01*
X87290609Y-101720814D01*
X87290602Y-101720827D01*
X87230264Y-101866498D01*
X87230261Y-101866510D01*
X87199500Y-102021153D01*
X87199500Y-102178846D01*
X87230261Y-102333489D01*
X87230264Y-102333501D01*
X87290602Y-102479172D01*
X87290609Y-102479185D01*
X87378210Y-102610288D01*
X87378213Y-102610292D01*
X87489707Y-102721786D01*
X87489711Y-102721789D01*
X87620814Y-102809390D01*
X87620827Y-102809397D01*
X87722687Y-102851588D01*
X87766503Y-102869737D01*
X87879165Y-102892147D01*
X87921153Y-102900499D01*
X87921156Y-102900500D01*
X87921158Y-102900500D01*
X88078844Y-102900500D01*
X88078845Y-102900499D01*
X88233497Y-102869737D01*
X88379179Y-102809394D01*
X88510289Y-102721789D01*
X88621789Y-102610289D01*
X88709394Y-102479179D01*
X88769737Y-102333497D01*
X88800500Y-102178842D01*
X88800500Y-102021158D01*
X88800500Y-102019807D01*
X88820185Y-101952768D01*
X88872989Y-101907013D01*
X88942147Y-101897069D01*
X89005703Y-101926094D01*
X89012177Y-101932122D01*
X89594724Y-102514669D01*
X89685331Y-102605276D01*
X89685332Y-102605277D01*
X89791866Y-102676461D01*
X89791872Y-102676464D01*
X89791873Y-102676465D01*
X89910256Y-102725501D01*
X89910260Y-102725501D01*
X89910261Y-102725502D01*
X90035928Y-102750500D01*
X90035931Y-102750500D01*
X90086142Y-102750500D01*
X90153181Y-102770185D01*
X90198936Y-102822989D01*
X90208880Y-102892147D01*
X90204073Y-102912818D01*
X90158242Y-103053869D01*
X90158242Y-103053872D01*
X90125000Y-103263753D01*
X90125000Y-103476246D01*
X90158242Y-103686127D01*
X90158242Y-103686130D01*
X90223904Y-103888217D01*
X90320375Y-104077550D01*
X90359728Y-104131716D01*
X90992036Y-103499407D01*
X91009075Y-103562993D01*
X91074901Y-103677007D01*
X91167993Y-103770099D01*
X91282007Y-103835925D01*
X91345589Y-103852962D01*
X90713282Y-104485269D01*
X90713282Y-104485270D01*
X90767452Y-104524626D01*
X90777048Y-104529516D01*
X90827844Y-104577491D01*
X90844638Y-104645312D01*
X90822100Y-104711447D01*
X90777051Y-104750483D01*
X90767440Y-104755380D01*
X90713282Y-104794727D01*
X90713282Y-104794728D01*
X91345591Y-105427037D01*
X91282007Y-105444075D01*
X91167993Y-105509901D01*
X91074901Y-105602993D01*
X91009075Y-105717007D01*
X90992037Y-105780591D01*
X90359728Y-105148282D01*
X90359727Y-105148282D01*
X90320380Y-105202439D01*
X90223904Y-105391782D01*
X90158242Y-105593869D01*
X90158242Y-105593872D01*
X90125000Y-105803753D01*
X90125000Y-106005692D01*
X90105315Y-106072731D01*
X90052511Y-106118486D01*
X89983353Y-106128430D01*
X89919797Y-106099405D01*
X89913319Y-106093373D01*
X83497130Y-99677184D01*
X83463645Y-99615861D01*
X83468629Y-99546169D01*
X83481710Y-99520611D01*
X83486960Y-99512754D01*
X83509394Y-99479179D01*
X83569737Y-99333497D01*
X83600500Y-99178842D01*
X83600500Y-99021158D01*
X83600500Y-99021155D01*
X83600499Y-99021153D01*
X84849500Y-99021153D01*
X84849500Y-99178846D01*
X84880261Y-99333489D01*
X84880264Y-99333501D01*
X84940602Y-99479172D01*
X84940609Y-99479185D01*
X85028210Y-99610288D01*
X85028213Y-99610292D01*
X85139707Y-99721786D01*
X85139711Y-99721789D01*
X85270814Y-99809390D01*
X85270827Y-99809397D01*
X85334887Y-99835931D01*
X85416503Y-99869737D01*
X85570892Y-99900447D01*
X85571153Y-99900499D01*
X85571156Y-99900500D01*
X85571158Y-99900500D01*
X85728844Y-99900500D01*
X85728845Y-99900499D01*
X85883497Y-99869737D01*
X86029179Y-99809394D01*
X86160289Y-99721789D01*
X86271789Y-99610289D01*
X86359394Y-99479179D01*
X86419737Y-99333497D01*
X86450500Y-99178842D01*
X86450500Y-99021158D01*
X86450500Y-99021155D01*
X86450499Y-99021153D01*
X86419738Y-98866510D01*
X86419737Y-98866503D01*
X86419735Y-98866498D01*
X86359397Y-98720827D01*
X86359390Y-98720814D01*
X86271789Y-98589711D01*
X86271786Y-98589707D01*
X86160292Y-98478213D01*
X86160288Y-98478210D01*
X86029185Y-98390609D01*
X86029172Y-98390602D01*
X85883501Y-98330264D01*
X85883489Y-98330261D01*
X85728845Y-98299500D01*
X85728842Y-98299500D01*
X85571158Y-98299500D01*
X85571155Y-98299500D01*
X85416510Y-98330261D01*
X85416498Y-98330264D01*
X85270827Y-98390602D01*
X85270814Y-98390609D01*
X85139711Y-98478210D01*
X85139707Y-98478213D01*
X85028213Y-98589707D01*
X85028210Y-98589711D01*
X84940609Y-98720814D01*
X84940602Y-98720827D01*
X84880264Y-98866498D01*
X84880261Y-98866510D01*
X84849500Y-99021153D01*
X83600499Y-99021153D01*
X83569738Y-98866510D01*
X83569737Y-98866503D01*
X83569735Y-98866498D01*
X83509397Y-98720827D01*
X83509390Y-98720814D01*
X83421789Y-98589711D01*
X83421786Y-98589707D01*
X83310292Y-98478213D01*
X83310288Y-98478210D01*
X83179185Y-98390609D01*
X83179172Y-98390602D01*
X83033501Y-98330264D01*
X83033489Y-98330261D01*
X82890845Y-98301887D01*
X82828934Y-98269502D01*
X82794360Y-98208786D01*
X82798099Y-98139017D01*
X82827353Y-98092591D01*
X87002931Y-93917013D01*
X87064252Y-93883530D01*
X87066317Y-93883099D01*
X87133497Y-93869737D01*
X87279179Y-93809394D01*
X87410289Y-93721789D01*
X87521789Y-93610289D01*
X87609394Y-93479179D01*
X87669737Y-93333497D01*
X87700500Y-93178842D01*
X87700500Y-93021158D01*
X87700500Y-93021155D01*
X87700499Y-93021153D01*
X87686854Y-92952557D01*
X87669737Y-92866503D01*
X87637929Y-92789711D01*
X87609397Y-92720827D01*
X87609390Y-92720814D01*
X87521789Y-92589711D01*
X87521786Y-92589707D01*
X87410292Y-92478213D01*
X87410288Y-92478210D01*
X87279185Y-92390609D01*
X87279172Y-92390602D01*
X87133501Y-92330264D01*
X87133489Y-92330261D01*
X86978845Y-92299500D01*
X86978842Y-92299500D01*
X86821158Y-92299500D01*
X86821155Y-92299500D01*
X86666510Y-92330261D01*
X86666498Y-92330264D01*
X86520827Y-92390602D01*
X86520816Y-92390608D01*
X86490000Y-92411199D01*
X86423322Y-92432076D01*
X86355942Y-92413591D01*
X86309252Y-92361611D01*
X86298077Y-92292641D01*
X86299494Y-92283898D01*
X86300500Y-92278841D01*
X86300500Y-92121155D01*
X86270871Y-91972203D01*
X86270870Y-91972201D01*
X86269737Y-91966503D01*
X86244089Y-91904582D01*
X86209397Y-91820827D01*
X86209390Y-91820814D01*
X86121789Y-91689711D01*
X86121786Y-91689707D01*
X86010292Y-91578213D01*
X86010288Y-91578210D01*
X85879185Y-91490609D01*
X85879172Y-91490602D01*
X85733501Y-91430264D01*
X85733489Y-91430261D01*
X85578845Y-91399500D01*
X85578842Y-91399500D01*
X85421158Y-91399500D01*
X85421155Y-91399500D01*
X85266510Y-91430261D01*
X85266498Y-91430264D01*
X85120827Y-91490602D01*
X85120814Y-91490609D01*
X84989711Y-91578210D01*
X84989707Y-91578213D01*
X84878213Y-91689707D01*
X84878210Y-91689711D01*
X84790609Y-91820814D01*
X84790602Y-91820827D01*
X84730264Y-91966498D01*
X84730261Y-91966508D01*
X84716920Y-92033579D01*
X84684535Y-92095490D01*
X84682984Y-92097068D01*
X78894726Y-97885326D01*
X78835145Y-97974498D01*
X78823533Y-97991876D01*
X78774499Y-98110255D01*
X78774497Y-98110261D01*
X78749500Y-98235928D01*
X78749500Y-104062324D01*
X78729815Y-104129363D01*
X78677011Y-104175118D01*
X78607853Y-104185062D01*
X78601309Y-104183941D01*
X78553846Y-104174500D01*
X78553842Y-104174500D01*
X78396158Y-104174500D01*
X78396155Y-104174500D01*
X78241510Y-104205261D01*
X78241498Y-104205264D01*
X78095827Y-104265602D01*
X78095814Y-104265609D01*
X77964711Y-104353210D01*
X77964707Y-104353213D01*
X77853213Y-104464707D01*
X77853210Y-104464711D01*
X77765609Y-104595814D01*
X77765602Y-104595827D01*
X77705264Y-104741498D01*
X77705261Y-104741510D01*
X77674500Y-104896153D01*
X71916049Y-104896153D01*
X71899786Y-104879890D01*
X71727820Y-104754951D01*
X71727115Y-104754591D01*
X71719054Y-104750485D01*
X71668259Y-104702512D01*
X71651463Y-104634692D01*
X71673999Y-104568556D01*
X71719054Y-104529515D01*
X71727816Y-104525051D01*
X71802974Y-104470446D01*
X71899786Y-104400109D01*
X71899788Y-104400106D01*
X71899792Y-104400104D01*
X72050104Y-104249792D01*
X72050106Y-104249788D01*
X72050109Y-104249786D01*
X72175048Y-104077820D01*
X72175047Y-104077820D01*
X72175051Y-104077816D01*
X72271557Y-103888412D01*
X72337246Y-103686243D01*
X72370500Y-103476287D01*
X72370500Y-103263713D01*
X72337246Y-103053757D01*
X72271557Y-102851588D01*
X72175051Y-102662184D01*
X72175049Y-102662181D01*
X72175048Y-102662179D01*
X72050109Y-102490213D01*
X71936569Y-102376673D01*
X71903084Y-102315350D01*
X71908068Y-102245658D01*
X71949940Y-102189725D01*
X71980915Y-102172810D01*
X72112331Y-102123796D01*
X72227546Y-102037546D01*
X72313796Y-101922331D01*
X72364091Y-101787483D01*
X72370500Y-101727873D01*
X72370499Y-99932128D01*
X72364091Y-99872517D01*
X72363053Y-99869735D01*
X72313797Y-99737671D01*
X72313793Y-99737664D01*
X72227547Y-99622455D01*
X72227544Y-99622452D01*
X72112335Y-99536206D01*
X72112328Y-99536202D01*
X71977482Y-99485908D01*
X71977483Y-99485908D01*
X71917883Y-99479501D01*
X71917881Y-99479500D01*
X71917873Y-99479500D01*
X71917864Y-99479500D01*
X70122129Y-99479500D01*
X70122123Y-99479501D01*
X70062516Y-99485908D01*
X69927671Y-99536202D01*
X69927664Y-99536206D01*
X69812455Y-99622452D01*
X69812452Y-99622455D01*
X69726206Y-99737664D01*
X69726203Y-99737669D01*
X69677189Y-99869083D01*
X69635317Y-99925016D01*
X69569853Y-99949433D01*
X69501580Y-99934581D01*
X69473326Y-99913430D01*
X69359786Y-99799890D01*
X69187820Y-99674951D01*
X68998414Y-99578444D01*
X68998413Y-99578443D01*
X68998412Y-99578443D01*
X68796243Y-99512754D01*
X68796241Y-99512753D01*
X68796240Y-99512753D01*
X68634957Y-99487208D01*
X68586287Y-99479500D01*
X68373713Y-99479500D01*
X68325042Y-99487208D01*
X68163760Y-99512753D01*
X67961585Y-99578444D01*
X67772179Y-99674951D01*
X67600213Y-99799890D01*
X67449890Y-99950213D01*
X67324951Y-100122179D01*
X67228444Y-100311585D01*
X67162753Y-100513760D01*
X67129500Y-100723713D01*
X66750500Y-100723713D01*
X66750500Y-92021153D01*
X81699500Y-92021153D01*
X81699500Y-92178846D01*
X81730261Y-92333489D01*
X81730264Y-92333501D01*
X81790602Y-92479172D01*
X81790609Y-92479185D01*
X81878210Y-92610288D01*
X81878213Y-92610292D01*
X81989707Y-92721786D01*
X81989711Y-92721789D01*
X82120814Y-92809390D01*
X82120827Y-92809397D01*
X82258683Y-92866498D01*
X82266503Y-92869737D01*
X82421153Y-92900499D01*
X82421156Y-92900500D01*
X82421158Y-92900500D01*
X82578844Y-92900500D01*
X82578845Y-92900499D01*
X82733497Y-92869737D01*
X82879179Y-92809394D01*
X83010289Y-92721789D01*
X83121789Y-92610289D01*
X83209394Y-92479179D01*
X83269737Y-92333497D01*
X83269739Y-92333489D01*
X83276339Y-92300309D01*
X83308724Y-92238398D01*
X83369439Y-92203824D01*
X83397956Y-92200500D01*
X83478844Y-92200500D01*
X83478845Y-92200499D01*
X83633497Y-92169737D01*
X83779179Y-92109394D01*
X83910289Y-92021789D01*
X84021789Y-91910289D01*
X84109394Y-91779179D01*
X84169737Y-91633497D01*
X84200500Y-91478842D01*
X84200500Y-91321158D01*
X84200500Y-91321155D01*
X84200499Y-91321153D01*
X84183074Y-91233554D01*
X84169737Y-91166503D01*
X84155301Y-91131650D01*
X84109397Y-91020827D01*
X84109390Y-91020814D01*
X84021789Y-90889711D01*
X84021786Y-90889707D01*
X83910292Y-90778213D01*
X83910288Y-90778210D01*
X83779185Y-90690609D01*
X83779172Y-90690602D01*
X83633501Y-90630264D01*
X83633489Y-90630261D01*
X83478845Y-90599500D01*
X83478842Y-90599500D01*
X83321158Y-90599500D01*
X83321155Y-90599500D01*
X83166510Y-90630261D01*
X83166498Y-90630264D01*
X83020827Y-90690602D01*
X83020814Y-90690609D01*
X82889711Y-90778210D01*
X82889707Y-90778213D01*
X82778213Y-90889707D01*
X82778210Y-90889711D01*
X82690609Y-91020814D01*
X82690602Y-91020827D01*
X82630264Y-91166498D01*
X82630261Y-91166510D01*
X82623661Y-91199691D01*
X82591276Y-91261602D01*
X82530561Y-91296176D01*
X82502044Y-91299500D01*
X82421155Y-91299500D01*
X82266510Y-91330261D01*
X82266498Y-91330264D01*
X82120827Y-91390602D01*
X82120814Y-91390609D01*
X81989711Y-91478210D01*
X81989707Y-91478213D01*
X81878213Y-91589707D01*
X81878210Y-91589711D01*
X81790609Y-91720814D01*
X81790602Y-91720827D01*
X81730264Y-91866498D01*
X81730261Y-91866510D01*
X81699500Y-92021153D01*
X66750500Y-92021153D01*
X66750500Y-55003713D01*
X67129500Y-55003713D01*
X67129500Y-55216287D01*
X67162754Y-55426243D01*
X67162768Y-55426287D01*
X67228444Y-55628414D01*
X67324951Y-55817820D01*
X67449890Y-55989786D01*
X67600213Y-56140109D01*
X67772182Y-56265050D01*
X67780946Y-56269516D01*
X67831742Y-56317491D01*
X67848536Y-56385312D01*
X67825998Y-56451447D01*
X67780946Y-56490484D01*
X67772182Y-56494949D01*
X67600213Y-56619890D01*
X67449890Y-56770213D01*
X67324951Y-56942179D01*
X67228444Y-57131585D01*
X67162753Y-57333760D01*
X67129500Y-57543713D01*
X67129500Y-57756286D01*
X67156352Y-57925826D01*
X67162754Y-57966243D01*
X67227986Y-58167007D01*
X67228444Y-58168414D01*
X67324951Y-58357820D01*
X67449890Y-58529786D01*
X67600213Y-58680109D01*
X67772182Y-58805050D01*
X67780946Y-58809516D01*
X67831742Y-58857491D01*
X67848536Y-58925312D01*
X67825998Y-58991447D01*
X67780946Y-59030484D01*
X67772182Y-59034949D01*
X67600213Y-59159890D01*
X67449890Y-59310213D01*
X67324951Y-59482179D01*
X67228444Y-59671585D01*
X67162753Y-59873760D01*
X67129500Y-60083713D01*
X67129500Y-60296287D01*
X67162754Y-60506243D01*
X67212058Y-60657985D01*
X67228444Y-60708414D01*
X67324951Y-60897820D01*
X67449890Y-61069786D01*
X67600213Y-61220109D01*
X67772182Y-61345050D01*
X67780946Y-61349516D01*
X67831742Y-61397491D01*
X67848536Y-61465312D01*
X67825998Y-61531447D01*
X67780946Y-61570484D01*
X67772182Y-61574949D01*
X67600213Y-61699890D01*
X67449890Y-61850213D01*
X67324951Y-62022179D01*
X67228444Y-62211585D01*
X67162753Y-62413760D01*
X67144301Y-62530261D01*
X67129500Y-62623713D01*
X67129500Y-62836287D01*
X67162754Y-63046243D01*
X67169335Y-63066498D01*
X67228444Y-63248414D01*
X67324951Y-63437820D01*
X67449890Y-63609786D01*
X67600213Y-63760109D01*
X67772179Y-63885048D01*
X67772181Y-63885049D01*
X67772184Y-63885051D01*
X67781493Y-63889794D01*
X67832290Y-63937766D01*
X67849087Y-64005587D01*
X67826552Y-64071722D01*
X67781505Y-64110760D01*
X67772446Y-64115376D01*
X67772440Y-64115380D01*
X67718282Y-64154727D01*
X67718282Y-64154728D01*
X68350591Y-64787037D01*
X68287007Y-64804075D01*
X68172993Y-64869901D01*
X68079901Y-64962993D01*
X68014075Y-65077007D01*
X67997037Y-65140591D01*
X67364728Y-64508282D01*
X67364727Y-64508282D01*
X67325380Y-64562439D01*
X67228904Y-64751782D01*
X67163242Y-64953869D01*
X67163242Y-64953872D01*
X67130000Y-65163753D01*
X67130000Y-65376246D01*
X67163242Y-65586127D01*
X67163242Y-65586130D01*
X67228904Y-65788217D01*
X67325375Y-65977550D01*
X67364728Y-66031716D01*
X67997037Y-65399408D01*
X68014075Y-65462993D01*
X68079901Y-65577007D01*
X68172993Y-65670099D01*
X68287007Y-65735925D01*
X68350590Y-65752962D01*
X67718282Y-66385269D01*
X67718282Y-66385270D01*
X67772452Y-66424626D01*
X67772451Y-66424626D01*
X67781495Y-66429234D01*
X67832292Y-66477208D01*
X67849087Y-66545029D01*
X67826550Y-66611164D01*
X67781499Y-66650202D01*
X67772182Y-66654949D01*
X67600213Y-66779890D01*
X67449890Y-66930213D01*
X67324951Y-67102179D01*
X67228444Y-67291585D01*
X67162753Y-67493760D01*
X67129500Y-67703713D01*
X67129500Y-67916287D01*
X67162754Y-68126243D01*
X67162768Y-68126287D01*
X67228444Y-68328414D01*
X67324951Y-68517820D01*
X67449890Y-68689786D01*
X67600213Y-68840109D01*
X67772179Y-68965048D01*
X67772181Y-68965049D01*
X67772184Y-68965051D01*
X67961588Y-69061557D01*
X68163757Y-69127246D01*
X68373713Y-69160500D01*
X68373714Y-69160500D01*
X68586286Y-69160500D01*
X68586287Y-69160500D01*
X68796243Y-69127246D01*
X68998412Y-69061557D01*
X69187816Y-68965051D01*
X69277638Y-68899792D01*
X69359786Y-68840109D01*
X69359788Y-68840106D01*
X69359792Y-68840104D01*
X69510104Y-68689792D01*
X69510106Y-68689788D01*
X69510109Y-68689786D01*
X69635048Y-68517820D01*
X69635047Y-68517820D01*
X69635051Y-68517816D01*
X69639514Y-68509054D01*
X69687488Y-68458259D01*
X69755308Y-68441463D01*
X69821444Y-68463999D01*
X69860486Y-68509056D01*
X69864951Y-68517820D01*
X69989890Y-68689786D01*
X70140213Y-68840109D01*
X70312179Y-68965048D01*
X70312181Y-68965049D01*
X70312184Y-68965051D01*
X70501588Y-69061557D01*
X70703757Y-69127246D01*
X70913713Y-69160500D01*
X70913714Y-69160500D01*
X71126286Y-69160500D01*
X71126287Y-69160500D01*
X71336243Y-69127246D01*
X71538412Y-69061557D01*
X71727816Y-68965051D01*
X71817638Y-68899792D01*
X71899786Y-68840109D01*
X71899788Y-68840106D01*
X71899792Y-68840104D01*
X72050104Y-68689792D01*
X72050106Y-68689788D01*
X72050109Y-68689786D01*
X72175048Y-68517820D01*
X72175047Y-68517820D01*
X72175051Y-68517816D01*
X72271557Y-68328412D01*
X72337246Y-68126243D01*
X72370500Y-67916287D01*
X72370500Y-67703713D01*
X72337246Y-67493757D01*
X72271557Y-67291588D01*
X72175051Y-67102184D01*
X72175049Y-67102181D01*
X72175048Y-67102179D01*
X72050109Y-66930213D01*
X71899790Y-66779894D01*
X71899785Y-66779890D01*
X71745517Y-66667808D01*
X71745502Y-66667798D01*
X71727816Y-66654949D01*
X71713500Y-66647654D01*
X71708741Y-66644659D01*
X71689187Y-66622516D01*
X71667707Y-66602230D01*
X71666317Y-66596618D01*
X71662492Y-66592287D01*
X71659250Y-66571153D01*
X75149500Y-66571153D01*
X75149500Y-66728846D01*
X75180261Y-66883489D01*
X75180264Y-66883501D01*
X75240602Y-67029172D01*
X75240609Y-67029185D01*
X75328210Y-67160288D01*
X75328213Y-67160292D01*
X75439707Y-67271786D01*
X75439711Y-67271789D01*
X75570814Y-67359390D01*
X75570827Y-67359397D01*
X75716498Y-67419735D01*
X75716503Y-67419737D01*
X75871153Y-67450499D01*
X75871156Y-67450500D01*
X75871158Y-67450500D01*
X76028844Y-67450500D01*
X76028845Y-67450499D01*
X76183497Y-67419737D01*
X76299368Y-67371742D01*
X76329172Y-67359397D01*
X76329172Y-67359396D01*
X76329179Y-67359394D01*
X76460289Y-67271789D01*
X76571789Y-67160289D01*
X76659394Y-67029179D01*
X76719737Y-66883497D01*
X76750500Y-66728842D01*
X76750500Y-66571158D01*
X76750500Y-66571155D01*
X76750499Y-66571153D01*
X76740965Y-66523225D01*
X76719737Y-66416503D01*
X76696244Y-66359786D01*
X76659397Y-66270827D01*
X76659390Y-66270814D01*
X76571789Y-66139711D01*
X76571786Y-66139707D01*
X76460292Y-66028213D01*
X76460288Y-66028210D01*
X76329185Y-65940609D01*
X76329172Y-65940602D01*
X76183501Y-65880264D01*
X76183489Y-65880261D01*
X76028845Y-65849500D01*
X76028842Y-65849500D01*
X75871158Y-65849500D01*
X75871155Y-65849500D01*
X75716510Y-65880261D01*
X75716498Y-65880264D01*
X75570827Y-65940602D01*
X75570814Y-65940609D01*
X75439711Y-66028210D01*
X75439707Y-66028213D01*
X75328213Y-66139707D01*
X75328210Y-66139711D01*
X75240609Y-66270814D01*
X75240602Y-66270827D01*
X75180264Y-66416498D01*
X75180261Y-66416510D01*
X75149500Y-66571153D01*
X71659250Y-66571153D01*
X71658013Y-66563085D01*
X71650912Y-66534409D01*
X71652776Y-66528938D01*
X71651900Y-66523225D01*
X71663919Y-66496238D01*
X71673449Y-66468274D01*
X71678213Y-66464145D01*
X71680327Y-66459400D01*
X71694173Y-66450316D01*
X71718507Y-66429232D01*
X71727555Y-66424622D01*
X71781716Y-66385270D01*
X71781717Y-66385270D01*
X71149408Y-65752962D01*
X71212993Y-65735925D01*
X71327007Y-65670099D01*
X71420099Y-65577007D01*
X71485925Y-65462993D01*
X71502962Y-65399408D01*
X72135270Y-66031717D01*
X72135270Y-66031716D01*
X72174622Y-65977554D01*
X72271095Y-65788217D01*
X72336757Y-65586130D01*
X72336757Y-65586127D01*
X72370000Y-65376246D01*
X72370000Y-65163753D01*
X72336757Y-64953872D01*
X72336757Y-64953869D01*
X72271095Y-64751782D01*
X72174624Y-64562449D01*
X72135270Y-64508282D01*
X72135269Y-64508282D01*
X71502962Y-65140590D01*
X71485925Y-65077007D01*
X71420099Y-64962993D01*
X71327007Y-64869901D01*
X71212993Y-64804075D01*
X71149409Y-64787037D01*
X71781716Y-64154728D01*
X71727547Y-64115373D01*
X71727547Y-64115372D01*
X71718500Y-64110763D01*
X71667706Y-64062788D01*
X71650912Y-63994966D01*
X71673451Y-63928832D01*
X71718508Y-63889793D01*
X71727816Y-63885051D01*
X71809780Y-63825501D01*
X71899786Y-63760109D01*
X71899788Y-63760106D01*
X71899792Y-63760104D01*
X72050104Y-63609792D01*
X72050106Y-63609788D01*
X72050109Y-63609786D01*
X72175048Y-63437820D01*
X72175047Y-63437820D01*
X72175051Y-63437816D01*
X72271557Y-63248412D01*
X72337246Y-63046243D01*
X72370500Y-62836287D01*
X72370500Y-62814808D01*
X72390185Y-62747769D01*
X72442989Y-62702014D01*
X72512147Y-62692070D01*
X72575703Y-62721095D01*
X72582181Y-62727127D01*
X73560325Y-63705272D01*
X73560332Y-63705278D01*
X73642387Y-63760105D01*
X73642388Y-63760105D01*
X73666867Y-63776461D01*
X73666875Y-63776466D01*
X73671088Y-63778211D01*
X73785256Y-63825501D01*
X73785260Y-63825501D01*
X73785261Y-63825502D01*
X73910928Y-63850500D01*
X73910931Y-63850500D01*
X74979192Y-63850500D01*
X75046231Y-63870185D01*
X75066873Y-63886819D01*
X77959950Y-66779896D01*
X80747829Y-69567774D01*
X80781314Y-69629097D01*
X80776330Y-69698789D01*
X80734458Y-69754722D01*
X80707600Y-69770016D01*
X80645827Y-69795602D01*
X80645814Y-69795609D01*
X80514711Y-69883210D01*
X80514707Y-69883213D01*
X80403213Y-69994707D01*
X80403210Y-69994711D01*
X80315609Y-70125814D01*
X80315602Y-70125827D01*
X80255264Y-70271498D01*
X80255261Y-70271508D01*
X80241920Y-70338579D01*
X80209535Y-70400490D01*
X80207984Y-70402068D01*
X79913722Y-70696330D01*
X79852399Y-70729815D01*
X79782707Y-70724831D01*
X79726774Y-70682959D01*
X79702357Y-70617495D01*
X79704424Y-70584457D01*
X79713000Y-70541344D01*
X79713000Y-70383655D01*
X79712999Y-70383653D01*
X79685172Y-70243760D01*
X79682237Y-70229003D01*
X79682235Y-70228998D01*
X79621897Y-70083327D01*
X79621890Y-70083314D01*
X79534289Y-69952211D01*
X79534286Y-69952207D01*
X79422792Y-69840713D01*
X79422788Y-69840710D01*
X79291685Y-69753109D01*
X79291672Y-69753102D01*
X79146001Y-69692764D01*
X79145989Y-69692761D01*
X78991345Y-69662000D01*
X78991342Y-69662000D01*
X78833658Y-69662000D01*
X78833655Y-69662000D01*
X78679010Y-69692761D01*
X78678998Y-69692764D01*
X78533327Y-69753102D01*
X78533314Y-69753109D01*
X78402211Y-69840710D01*
X78402207Y-69840713D01*
X78290713Y-69952207D01*
X78290710Y-69952211D01*
X78203109Y-70083314D01*
X78203102Y-70083327D01*
X78142764Y-70228998D01*
X78142761Y-70229008D01*
X78129420Y-70296079D01*
X78097035Y-70357990D01*
X78095484Y-70359568D01*
X71871871Y-76583181D01*
X71810548Y-76616666D01*
X71784190Y-76619500D01*
X70122129Y-76619500D01*
X70122123Y-76619501D01*
X70062516Y-76625908D01*
X69927671Y-76676202D01*
X69927664Y-76676206D01*
X69812455Y-76762452D01*
X69812452Y-76762455D01*
X69726206Y-76877664D01*
X69726203Y-76877669D01*
X69677189Y-77009083D01*
X69635317Y-77065016D01*
X69569853Y-77089433D01*
X69501580Y-77074581D01*
X69473326Y-77053430D01*
X69359786Y-76939890D01*
X69187820Y-76814951D01*
X68998414Y-76718444D01*
X68998413Y-76718443D01*
X68998412Y-76718443D01*
X68796243Y-76652754D01*
X68796241Y-76652753D01*
X68796240Y-76652753D01*
X68634957Y-76627208D01*
X68586287Y-76619500D01*
X68373713Y-76619500D01*
X68325042Y-76627208D01*
X68163760Y-76652753D01*
X67961585Y-76718444D01*
X67772179Y-76814951D01*
X67600213Y-76939890D01*
X67449890Y-77090213D01*
X67324951Y-77262179D01*
X67228444Y-77451585D01*
X67162753Y-77653760D01*
X67129500Y-77863713D01*
X67129500Y-78076286D01*
X67156352Y-78245826D01*
X67162754Y-78286243D01*
X67227986Y-78487007D01*
X67228444Y-78488414D01*
X67324951Y-78677820D01*
X67449890Y-78849786D01*
X67600213Y-79000109D01*
X67772182Y-79125050D01*
X67780946Y-79129516D01*
X67831742Y-79177491D01*
X67848536Y-79245312D01*
X67825998Y-79311447D01*
X67780946Y-79350484D01*
X67772182Y-79354949D01*
X67600213Y-79479890D01*
X67449890Y-79630213D01*
X67324951Y-79802179D01*
X67228444Y-79991585D01*
X67162753Y-80193760D01*
X67129500Y-80403713D01*
X67129500Y-80616286D01*
X67160225Y-80810279D01*
X67162754Y-80826243D01*
X67187968Y-80903844D01*
X67228444Y-81028414D01*
X67324951Y-81217820D01*
X67449890Y-81389786D01*
X67600213Y-81540109D01*
X67772182Y-81665050D01*
X67780946Y-81669516D01*
X67831742Y-81717491D01*
X67848536Y-81785312D01*
X67825998Y-81851447D01*
X67780946Y-81890484D01*
X67772182Y-81894949D01*
X67600213Y-82019890D01*
X67449890Y-82170213D01*
X67324951Y-82342179D01*
X67228444Y-82531585D01*
X67162753Y-82733760D01*
X67129500Y-82943713D01*
X67129500Y-83156286D01*
X67160225Y-83350279D01*
X67162754Y-83366243D01*
X67227986Y-83567007D01*
X67228444Y-83568414D01*
X67324951Y-83757820D01*
X67449890Y-83929786D01*
X67600213Y-84080109D01*
X67772182Y-84205050D01*
X67780946Y-84209516D01*
X67831742Y-84257491D01*
X67848536Y-84325312D01*
X67825998Y-84391447D01*
X67780946Y-84430484D01*
X67772182Y-84434949D01*
X67600213Y-84559890D01*
X67449890Y-84710213D01*
X67324951Y-84882179D01*
X67228444Y-85071585D01*
X67162753Y-85273760D01*
X67129500Y-85483713D01*
X67129500Y-85696286D01*
X67142575Y-85778842D01*
X67162754Y-85906243D01*
X67225547Y-86099500D01*
X67228444Y-86108414D01*
X67324951Y-86297820D01*
X67449890Y-86469786D01*
X67600213Y-86620109D01*
X67772179Y-86745048D01*
X67772181Y-86745049D01*
X67772184Y-86745051D01*
X67781493Y-86749794D01*
X67832290Y-86797766D01*
X67849087Y-86865587D01*
X67826552Y-86931722D01*
X67781505Y-86970760D01*
X67772446Y-86975376D01*
X67772440Y-86975380D01*
X67718282Y-87014727D01*
X67718282Y-87014728D01*
X68350591Y-87647037D01*
X68287007Y-87664075D01*
X68172993Y-87729901D01*
X68079901Y-87822993D01*
X68014075Y-87937007D01*
X67997037Y-88000591D01*
X67364728Y-87368282D01*
X67364727Y-87368282D01*
X67325380Y-87422439D01*
X67228904Y-87611782D01*
X67163242Y-87813869D01*
X67163242Y-87813872D01*
X67130000Y-88023753D01*
X67130000Y-88236246D01*
X67163242Y-88446127D01*
X67163242Y-88446130D01*
X67228904Y-88648217D01*
X67325375Y-88837550D01*
X67364728Y-88891716D01*
X67997037Y-88259408D01*
X68014075Y-88322993D01*
X68079901Y-88437007D01*
X68172993Y-88530099D01*
X68287007Y-88595925D01*
X68350590Y-88612962D01*
X67718282Y-89245269D01*
X67718282Y-89245270D01*
X67772452Y-89284626D01*
X67772451Y-89284626D01*
X67781495Y-89289234D01*
X67832292Y-89337208D01*
X67849087Y-89405029D01*
X67826550Y-89471164D01*
X67781499Y-89510202D01*
X67772182Y-89514949D01*
X67600213Y-89639890D01*
X67449890Y-89790213D01*
X67324951Y-89962179D01*
X67228444Y-90151585D01*
X67162753Y-90353760D01*
X67129500Y-90563713D01*
X67129500Y-90776286D01*
X67156352Y-90945826D01*
X67162754Y-90986243D01*
X67227986Y-91187007D01*
X67228444Y-91188414D01*
X67324951Y-91377820D01*
X67449890Y-91549786D01*
X67600213Y-91700109D01*
X67772179Y-91825048D01*
X67772181Y-91825049D01*
X67772184Y-91825051D01*
X67961588Y-91921557D01*
X68163757Y-91987246D01*
X68373713Y-92020500D01*
X68373714Y-92020500D01*
X68586286Y-92020500D01*
X68586287Y-92020500D01*
X68796243Y-91987246D01*
X68998412Y-91921557D01*
X69187816Y-91825051D01*
X69250954Y-91779179D01*
X69359786Y-91700109D01*
X69359788Y-91700106D01*
X69359792Y-91700104D01*
X69510104Y-91549792D01*
X69510106Y-91549788D01*
X69510109Y-91549786D01*
X69635048Y-91377820D01*
X69635047Y-91377820D01*
X69635051Y-91377816D01*
X69639514Y-91369054D01*
X69687488Y-91318259D01*
X69755308Y-91301463D01*
X69821444Y-91323999D01*
X69860486Y-91369056D01*
X69864951Y-91377820D01*
X69989890Y-91549786D01*
X70140213Y-91700109D01*
X70312179Y-91825048D01*
X70312181Y-91825049D01*
X70312184Y-91825051D01*
X70501588Y-91921557D01*
X70703757Y-91987246D01*
X70913713Y-92020500D01*
X70913714Y-92020500D01*
X71126286Y-92020500D01*
X71126287Y-92020500D01*
X71336243Y-91987246D01*
X71538412Y-91921557D01*
X71560890Y-91910104D01*
X71571728Y-91904582D01*
X71571730Y-91904581D01*
X71601103Y-91889613D01*
X71727816Y-91825051D01*
X71824371Y-91754899D01*
X71899786Y-91700109D01*
X71899788Y-91700106D01*
X71899792Y-91700104D01*
X72050104Y-91549792D01*
X72050106Y-91549788D01*
X72050109Y-91549786D01*
X72175048Y-91377820D01*
X72175047Y-91377820D01*
X72175051Y-91377816D01*
X72271557Y-91188412D01*
X72337246Y-90986243D01*
X72370500Y-90776287D01*
X72370500Y-90563713D01*
X72337246Y-90353757D01*
X72271557Y-90151588D01*
X72175051Y-89962184D01*
X72175049Y-89962181D01*
X72175048Y-89962179D01*
X72050109Y-89790213D01*
X71931049Y-89671153D01*
X75149500Y-89671153D01*
X75149500Y-89828846D01*
X75180261Y-89983489D01*
X75180264Y-89983501D01*
X75240602Y-90129172D01*
X75240609Y-90129185D01*
X75328210Y-90260288D01*
X75328213Y-90260292D01*
X75439707Y-90371786D01*
X75439711Y-90371789D01*
X75570814Y-90459390D01*
X75570827Y-90459397D01*
X75716498Y-90519735D01*
X75716503Y-90519737D01*
X75871153Y-90550499D01*
X75871156Y-90550500D01*
X75871158Y-90550500D01*
X76028844Y-90550500D01*
X76028845Y-90550499D01*
X76183497Y-90519737D01*
X76329179Y-90459394D01*
X76460289Y-90371789D01*
X76571789Y-90260289D01*
X76659394Y-90129179D01*
X76719737Y-89983497D01*
X76750500Y-89828842D01*
X76750500Y-89671158D01*
X76750500Y-89671155D01*
X76750499Y-89671153D01*
X76719737Y-89516503D01*
X76679120Y-89418443D01*
X76659397Y-89370827D01*
X76659390Y-89370814D01*
X76571789Y-89239711D01*
X76571786Y-89239707D01*
X76460292Y-89128213D01*
X76460288Y-89128210D01*
X76329185Y-89040609D01*
X76329172Y-89040602D01*
X76183501Y-88980264D01*
X76183489Y-88980261D01*
X76028845Y-88949500D01*
X76028842Y-88949500D01*
X75871158Y-88949500D01*
X75871155Y-88949500D01*
X75716510Y-88980261D01*
X75716498Y-88980264D01*
X75570827Y-89040602D01*
X75570814Y-89040609D01*
X75439711Y-89128210D01*
X75439707Y-89128213D01*
X75328213Y-89239707D01*
X75328210Y-89239711D01*
X75240609Y-89370814D01*
X75240602Y-89370827D01*
X75180264Y-89516498D01*
X75180261Y-89516510D01*
X75149500Y-89671153D01*
X71931049Y-89671153D01*
X71899786Y-89639890D01*
X71727817Y-89514949D01*
X71718504Y-89510204D01*
X71667707Y-89462230D01*
X71650912Y-89394409D01*
X71673449Y-89328274D01*
X71718507Y-89289232D01*
X71727555Y-89284622D01*
X71781716Y-89245270D01*
X71781717Y-89245270D01*
X71149408Y-88612962D01*
X71212993Y-88595925D01*
X71327007Y-88530099D01*
X71420099Y-88437007D01*
X71485925Y-88322993D01*
X71502962Y-88259409D01*
X72135270Y-88891717D01*
X72135270Y-88891716D01*
X72174622Y-88837554D01*
X72271095Y-88648217D01*
X72336757Y-88446130D01*
X72336757Y-88446127D01*
X72370000Y-88236246D01*
X72370000Y-88023753D01*
X72336758Y-87813873D01*
X72276859Y-87629525D01*
X72275874Y-87595067D01*
X72274645Y-87560527D01*
X72274876Y-87560136D01*
X72274864Y-87559683D01*
X72292689Y-87530121D01*
X72310304Y-87500442D01*
X72310766Y-87500145D01*
X72310944Y-87499850D01*
X72339297Y-87480316D01*
X72343247Y-87478339D01*
X72408127Y-87451465D01*
X72435018Y-87433497D01*
X72441475Y-87429182D01*
X72441478Y-87429181D01*
X72478541Y-87404416D01*
X72514669Y-87380277D01*
X72830254Y-87064692D01*
X73073794Y-86821153D01*
X79599500Y-86821153D01*
X79599500Y-86978846D01*
X79630261Y-87133489D01*
X79630264Y-87133501D01*
X79690602Y-87279172D01*
X79690609Y-87279185D01*
X79778210Y-87410288D01*
X79778213Y-87410292D01*
X79889707Y-87521786D01*
X79889711Y-87521789D01*
X80020814Y-87609390D01*
X80020827Y-87609397D01*
X80165810Y-87669450D01*
X80166503Y-87669737D01*
X80277129Y-87691742D01*
X80321153Y-87700499D01*
X80321156Y-87700500D01*
X80321158Y-87700500D01*
X80478844Y-87700500D01*
X80478845Y-87700499D01*
X80633497Y-87669737D01*
X80779179Y-87609394D01*
X80910289Y-87521789D01*
X81021789Y-87410289D01*
X81109394Y-87279179D01*
X81169737Y-87133497D01*
X81200500Y-86978842D01*
X81200500Y-86821158D01*
X81200500Y-86821155D01*
X81200499Y-86821153D01*
X81195847Y-86797766D01*
X81169737Y-86666503D01*
X81150518Y-86620104D01*
X81109397Y-86520827D01*
X81109390Y-86520814D01*
X81021789Y-86389711D01*
X81021786Y-86389707D01*
X80910292Y-86278213D01*
X80910288Y-86278210D01*
X80779185Y-86190609D01*
X80779172Y-86190602D01*
X80633501Y-86130264D01*
X80633489Y-86130261D01*
X80478845Y-86099500D01*
X80478842Y-86099500D01*
X80321158Y-86099500D01*
X80321155Y-86099500D01*
X80166510Y-86130261D01*
X80166498Y-86130264D01*
X80020827Y-86190602D01*
X80020814Y-86190609D01*
X79889711Y-86278210D01*
X79889707Y-86278213D01*
X79778213Y-86389707D01*
X79778210Y-86389711D01*
X79690609Y-86520814D01*
X79690602Y-86520827D01*
X79630264Y-86666498D01*
X79630261Y-86666510D01*
X79599500Y-86821153D01*
X73073794Y-86821153D01*
X73167562Y-86727385D01*
X77396663Y-82498282D01*
X78252931Y-81642013D01*
X78314252Y-81608530D01*
X78316317Y-81608099D01*
X78383497Y-81594737D01*
X78529179Y-81534394D01*
X78660289Y-81446789D01*
X78771789Y-81335289D01*
X78859394Y-81204179D01*
X78919737Y-81058497D01*
X78950500Y-80903842D01*
X78950500Y-80746158D01*
X78950500Y-80746155D01*
X78950499Y-80746153D01*
X78939412Y-80690417D01*
X78919737Y-80591503D01*
X78909949Y-80567872D01*
X78859397Y-80445827D01*
X78859390Y-80445814D01*
X78771789Y-80314711D01*
X78771786Y-80314707D01*
X78660292Y-80203213D01*
X78660288Y-80203210D01*
X78529185Y-80115609D01*
X78529172Y-80115602D01*
X78383501Y-80055264D01*
X78383489Y-80055261D01*
X78228845Y-80024500D01*
X78228842Y-80024500D01*
X78071158Y-80024500D01*
X78071155Y-80024500D01*
X77916510Y-80055261D01*
X77916498Y-80055264D01*
X77770827Y-80115602D01*
X77770811Y-80115611D01*
X77743314Y-80133984D01*
X77676637Y-80154861D01*
X77609257Y-80136376D01*
X77562567Y-80084396D01*
X77551392Y-80015426D01*
X77579279Y-79951363D01*
X77586733Y-79943211D01*
X81957796Y-75572148D01*
X82019117Y-75538665D01*
X82088809Y-75543649D01*
X82144742Y-75585521D01*
X82148577Y-75590939D01*
X82178213Y-75635292D01*
X82289707Y-75746786D01*
X82289711Y-75746789D01*
X82420814Y-75834390D01*
X82420827Y-75834397D01*
X82525852Y-75877899D01*
X82566503Y-75894737D01*
X82721153Y-75925499D01*
X82721156Y-75925500D01*
X82721158Y-75925500D01*
X82878844Y-75925500D01*
X82878845Y-75925499D01*
X83033497Y-75894737D01*
X83179179Y-75834394D01*
X83310289Y-75746789D01*
X83421789Y-75635289D01*
X83509394Y-75504179D01*
X83569737Y-75358497D01*
X83600500Y-75203842D01*
X83600500Y-75046158D01*
X83600500Y-75046155D01*
X83600499Y-75046153D01*
X83577829Y-74932184D01*
X83569737Y-74891503D01*
X83569735Y-74891498D01*
X83509397Y-74745827D01*
X83509390Y-74745814D01*
X83421789Y-74614711D01*
X83421786Y-74614707D01*
X83310292Y-74503213D01*
X83310288Y-74503210D01*
X83230042Y-74449591D01*
X83185237Y-74395979D01*
X83176530Y-74326654D01*
X83184370Y-74299041D01*
X83225501Y-74199744D01*
X83250500Y-74074069D01*
X83250500Y-72854935D01*
X83270185Y-72787896D01*
X83271366Y-72786090D01*
X83309394Y-72729179D01*
X83369737Y-72583497D01*
X83389817Y-72482551D01*
X83422202Y-72420640D01*
X83482918Y-72386066D01*
X83552687Y-72389805D01*
X83599115Y-72419061D01*
X86193732Y-75013678D01*
X87988544Y-76808489D01*
X89774724Y-78594669D01*
X89825980Y-78645925D01*
X89865332Y-78685277D01*
X89971866Y-78756461D01*
X89971872Y-78756464D01*
X89971873Y-78756465D01*
X90090256Y-78805501D01*
X90090260Y-78805501D01*
X90090261Y-78805502D01*
X90215928Y-78830500D01*
X90215931Y-78830500D01*
X90237882Y-78830500D01*
X90304921Y-78850185D01*
X90338599Y-78884591D01*
X90339585Y-78883875D01*
X90467390Y-79059786D01*
X90617713Y-79210109D01*
X90789682Y-79335050D01*
X90798446Y-79339516D01*
X90849242Y-79387491D01*
X90866036Y-79455312D01*
X90843498Y-79521447D01*
X90798446Y-79560484D01*
X90789682Y-79564949D01*
X90617713Y-79689890D01*
X90578798Y-79728805D01*
X90517475Y-79762290D01*
X90447783Y-79757304D01*
X90391850Y-79715432D01*
X90372497Y-79672034D01*
X90371506Y-79672335D01*
X90369735Y-79666498D01*
X90309397Y-79520827D01*
X90309390Y-79520814D01*
X90221789Y-79389711D01*
X90221786Y-79389707D01*
X90110292Y-79278213D01*
X90110288Y-79278210D01*
X89979185Y-79190609D01*
X89979172Y-79190602D01*
X89833501Y-79130264D01*
X89833489Y-79130261D01*
X89678845Y-79099500D01*
X89678842Y-79099500D01*
X89666259Y-79099500D01*
X89599220Y-79079815D01*
X89553465Y-79027011D01*
X89551698Y-79022952D01*
X89509397Y-78920827D01*
X89509390Y-78920814D01*
X89421789Y-78789711D01*
X89421786Y-78789707D01*
X89310292Y-78678213D01*
X89310288Y-78678210D01*
X89179185Y-78590609D01*
X89179172Y-78590602D01*
X89033501Y-78530264D01*
X89033489Y-78530261D01*
X88878845Y-78499500D01*
X88878842Y-78499500D01*
X88721158Y-78499500D01*
X88721155Y-78499500D01*
X88648691Y-78513914D01*
X88579100Y-78507687D01*
X88523922Y-78464824D01*
X88500678Y-78398934D01*
X88500500Y-78392297D01*
X88500500Y-78321155D01*
X88500499Y-78321153D01*
X88493564Y-78286287D01*
X88469737Y-78166503D01*
X88432369Y-78076287D01*
X88409397Y-78020827D01*
X88409390Y-78020814D01*
X88321789Y-77889711D01*
X88321786Y-77889707D01*
X88210292Y-77778213D01*
X88210288Y-77778210D01*
X88079185Y-77690609D01*
X88079172Y-77690602D01*
X87935864Y-77631243D01*
X87881460Y-77587402D01*
X87868761Y-77564147D01*
X87809394Y-77420821D01*
X87809392Y-77420818D01*
X87809390Y-77420814D01*
X87721789Y-77289711D01*
X87721786Y-77289707D01*
X87610292Y-77178213D01*
X87610288Y-77178210D01*
X87479185Y-77090609D01*
X87479172Y-77090602D01*
X87353543Y-77038566D01*
X87299139Y-76994725D01*
X87286434Y-76971457D01*
X87234397Y-76845827D01*
X87234390Y-76845814D01*
X87146789Y-76714711D01*
X87146786Y-76714707D01*
X87035292Y-76603213D01*
X87035288Y-76603210D01*
X86904185Y-76515609D01*
X86904176Y-76515604D01*
X86829394Y-76484629D01*
X86774991Y-76440788D01*
X86755231Y-76394262D01*
X86744737Y-76341503D01*
X86720599Y-76283230D01*
X86684397Y-76195827D01*
X86684390Y-76195814D01*
X86596789Y-76064711D01*
X86596786Y-76064707D01*
X86485289Y-75953210D01*
X86380609Y-75883266D01*
X86335804Y-75829654D01*
X86325500Y-75780164D01*
X86325500Y-75746155D01*
X86325499Y-75746153D01*
X86303447Y-75635292D01*
X86294737Y-75591503D01*
X86280732Y-75557692D01*
X86234397Y-75445827D01*
X86234390Y-75445814D01*
X86152322Y-75322992D01*
X86146789Y-75314711D01*
X86035289Y-75203211D01*
X86027007Y-75197677D01*
X86027006Y-75197676D01*
X85904185Y-75115609D01*
X85904172Y-75115602D01*
X85758501Y-75055264D01*
X85758489Y-75055261D01*
X85603845Y-75024500D01*
X85603842Y-75024500D01*
X85446158Y-75024500D01*
X85446155Y-75024500D01*
X85291510Y-75055261D01*
X85291498Y-75055264D01*
X85145827Y-75115602D01*
X85145814Y-75115609D01*
X85014711Y-75203210D01*
X85014707Y-75203213D01*
X84903213Y-75314707D01*
X84903210Y-75314711D01*
X84815609Y-75445814D01*
X84815602Y-75445827D01*
X84755264Y-75591498D01*
X84755261Y-75591510D01*
X84724500Y-75746153D01*
X84724500Y-75903846D01*
X84755261Y-76058489D01*
X84755264Y-76058501D01*
X84815602Y-76204172D01*
X84815609Y-76204185D01*
X84903210Y-76335288D01*
X84903213Y-76335292D01*
X85014710Y-76446789D01*
X85119391Y-76516734D01*
X85164196Y-76570346D01*
X85174500Y-76619836D01*
X85174500Y-76653846D01*
X85205261Y-76808489D01*
X85205264Y-76808501D01*
X85265602Y-76954172D01*
X85265609Y-76954185D01*
X85353210Y-77085288D01*
X85353213Y-77085292D01*
X85464710Y-77196789D01*
X85562574Y-77262179D01*
X85595821Y-77284394D01*
X85670605Y-77315370D01*
X85725006Y-77359209D01*
X85744768Y-77405738D01*
X85755261Y-77458491D01*
X85755264Y-77458501D01*
X85815602Y-77604172D01*
X85815609Y-77604185D01*
X85903210Y-77735288D01*
X85903213Y-77735292D01*
X86014707Y-77846786D01*
X86014711Y-77846789D01*
X86145814Y-77934390D01*
X86145827Y-77934397D01*
X86271457Y-77986434D01*
X86325861Y-78030275D01*
X86338566Y-78053543D01*
X86390602Y-78179172D01*
X86390609Y-78179185D01*
X86478210Y-78310288D01*
X86478213Y-78310292D01*
X86589707Y-78421786D01*
X86589711Y-78421789D01*
X86720814Y-78509390D01*
X86720818Y-78509392D01*
X86720821Y-78509394D01*
X86864138Y-78568757D01*
X86918537Y-78612595D01*
X86931243Y-78635864D01*
X86990602Y-78779172D01*
X86990609Y-78779185D01*
X87078210Y-78910288D01*
X87078213Y-78910292D01*
X87189707Y-79021786D01*
X87189711Y-79021789D01*
X87320814Y-79109390D01*
X87320827Y-79109397D01*
X87383424Y-79135325D01*
X87466503Y-79169737D01*
X87621153Y-79200499D01*
X87621156Y-79200500D01*
X87621158Y-79200500D01*
X87778843Y-79200500D01*
X87794564Y-79197372D01*
X87851309Y-79186085D01*
X87920899Y-79192312D01*
X87976077Y-79235174D01*
X87999322Y-79301063D01*
X87999500Y-79307702D01*
X87999500Y-79378846D01*
X88030261Y-79533489D01*
X88030264Y-79533501D01*
X88090602Y-79679172D01*
X88090609Y-79679185D01*
X88178210Y-79810288D01*
X88178213Y-79810292D01*
X88289707Y-79921786D01*
X88289711Y-79921789D01*
X88385012Y-79985468D01*
X88429817Y-80039080D01*
X88438524Y-80108405D01*
X88408369Y-80171433D01*
X88403803Y-80176251D01*
X88294723Y-80285331D01*
X88223534Y-80391874D01*
X88174499Y-80510255D01*
X88174497Y-80510261D01*
X88149500Y-80635928D01*
X88149500Y-85095064D01*
X88129815Y-85162103D01*
X88128603Y-85163954D01*
X88090608Y-85220817D01*
X88090602Y-85220828D01*
X88030264Y-85366498D01*
X88030261Y-85366510D01*
X87999500Y-85521153D01*
X87999500Y-85678846D01*
X88030261Y-85833489D01*
X88030264Y-85833501D01*
X88090602Y-85979172D01*
X88090609Y-85979185D01*
X88178210Y-86110288D01*
X88178213Y-86110292D01*
X88289707Y-86221786D01*
X88289711Y-86221789D01*
X88420814Y-86309390D01*
X88420827Y-86309397D01*
X88520060Y-86350500D01*
X88566503Y-86369737D01*
X88716131Y-86399500D01*
X88721153Y-86400499D01*
X88721156Y-86400500D01*
X88721158Y-86400500D01*
X88878844Y-86400500D01*
X88878845Y-86400499D01*
X89033497Y-86369737D01*
X89157403Y-86318414D01*
X89179172Y-86309397D01*
X89179172Y-86309396D01*
X89179179Y-86309394D01*
X89310289Y-86221789D01*
X89421789Y-86110289D01*
X89509394Y-85979179D01*
X89569737Y-85833497D01*
X89600500Y-85678842D01*
X89600500Y-85521158D01*
X89600500Y-85521155D01*
X89600499Y-85521153D01*
X89598979Y-85513510D01*
X89569737Y-85366503D01*
X89509394Y-85220821D01*
X89471396Y-85163953D01*
X89450520Y-85097276D01*
X89450500Y-85095064D01*
X89450500Y-81020807D01*
X89470185Y-80953768D01*
X89486815Y-80933130D01*
X89702931Y-80717013D01*
X89713565Y-80710390D01*
X89719148Y-80703359D01*
X89737495Y-80695487D01*
X89750592Y-80687331D01*
X89758361Y-80684681D01*
X89833497Y-80669737D01*
X89979179Y-80609394D01*
X89979189Y-80609387D01*
X89982982Y-80608094D01*
X90014071Y-80606756D01*
X90045017Y-80603429D01*
X90048687Y-80605266D01*
X90052788Y-80605090D01*
X90079661Y-80620771D01*
X90107496Y-80634704D01*
X90109591Y-80638235D01*
X90113135Y-80640303D01*
X90127266Y-80668026D01*
X90143148Y-80694793D01*
X90143879Y-80700616D01*
X90144866Y-80702552D01*
X90144536Y-80705845D01*
X90147000Y-80725459D01*
X90147000Y-80826286D01*
X90179013Y-81028412D01*
X90180254Y-81036243D01*
X90239252Y-81217820D01*
X90245944Y-81238414D01*
X90342451Y-81427820D01*
X90467390Y-81599786D01*
X90617713Y-81750109D01*
X90789682Y-81875050D01*
X90798446Y-81879516D01*
X90849242Y-81927491D01*
X90866036Y-81995312D01*
X90843498Y-82061447D01*
X90798446Y-82100484D01*
X90789682Y-82104949D01*
X90617713Y-82229890D01*
X90467390Y-82380213D01*
X90342451Y-82552179D01*
X90245944Y-82741585D01*
X90180253Y-82943760D01*
X90147000Y-83153713D01*
X90147000Y-83366286D01*
X90180235Y-83576127D01*
X90180254Y-83576243D01*
X90239252Y-83757820D01*
X90245944Y-83778414D01*
X90342451Y-83967820D01*
X90467390Y-84139786D01*
X90617713Y-84290109D01*
X90789682Y-84415050D01*
X90798446Y-84419516D01*
X90849242Y-84467491D01*
X90866036Y-84535312D01*
X90843498Y-84601447D01*
X90798446Y-84640484D01*
X90789682Y-84644949D01*
X90617713Y-84769890D01*
X90467390Y-84920213D01*
X90342451Y-85092179D01*
X90245944Y-85281585D01*
X90180253Y-85483760D01*
X90147000Y-85693713D01*
X90147000Y-85906286D01*
X90179310Y-86110288D01*
X90180254Y-86116243D01*
X90239252Y-86297820D01*
X90245944Y-86318414D01*
X90342451Y-86507820D01*
X90467390Y-86679786D01*
X90617713Y-86830109D01*
X90789682Y-86955050D01*
X90798446Y-86959516D01*
X90849242Y-87007491D01*
X90866036Y-87075312D01*
X90843498Y-87141447D01*
X90798446Y-87180484D01*
X90789682Y-87184949D01*
X90617713Y-87309890D01*
X90467390Y-87460213D01*
X90342451Y-87632179D01*
X90245944Y-87821585D01*
X90245943Y-87821587D01*
X90245943Y-87821588D01*
X90230592Y-87868834D01*
X90180253Y-88023760D01*
X90147000Y-88233713D01*
X90147000Y-88446286D01*
X90178982Y-88648217D01*
X90180254Y-88656243D01*
X90245499Y-88857047D01*
X90247449Y-88863046D01*
X90246071Y-88863493D01*
X90248886Y-88889678D01*
X90253555Y-88922147D01*
X90252601Y-88924234D01*
X90252847Y-88926516D01*
X90238159Y-88955859D01*
X90224530Y-88985703D01*
X90222599Y-88986943D01*
X90221573Y-88988995D01*
X90193355Y-89005737D01*
X90165752Y-89023477D01*
X90162723Y-89023912D01*
X90161484Y-89024648D01*
X90130817Y-89028500D01*
X90021826Y-89028500D01*
X89954787Y-89008815D01*
X89909032Y-88956011D01*
X89899088Y-88886853D01*
X89900208Y-88880310D01*
X89900500Y-88878841D01*
X89900500Y-88721155D01*
X89900499Y-88721153D01*
X89891957Y-88678210D01*
X89869737Y-88566503D01*
X89869735Y-88566498D01*
X89809397Y-88420827D01*
X89809390Y-88420814D01*
X89721789Y-88289711D01*
X89721786Y-88289707D01*
X89610292Y-88178213D01*
X89610288Y-88178210D01*
X89479185Y-88090609D01*
X89479172Y-88090602D01*
X89333501Y-88030264D01*
X89333489Y-88030261D01*
X89266420Y-88016920D01*
X89204509Y-87984535D01*
X89202930Y-87982984D01*
X86710765Y-85490819D01*
X86677280Y-85429496D01*
X86682264Y-85359804D01*
X86724136Y-85303871D01*
X86774252Y-85281521D01*
X86833497Y-85269737D01*
X86979179Y-85209394D01*
X87110289Y-85121789D01*
X87221789Y-85010289D01*
X87309394Y-84879179D01*
X87309863Y-84878048D01*
X87354660Y-84769896D01*
X87369737Y-84733497D01*
X87400500Y-84578842D01*
X87400500Y-84421158D01*
X87400500Y-84421155D01*
X87400499Y-84421153D01*
X87379322Y-84314692D01*
X87369737Y-84266503D01*
X87362303Y-84248556D01*
X87309397Y-84120827D01*
X87309390Y-84120814D01*
X87221789Y-83989711D01*
X87221786Y-83989707D01*
X87110292Y-83878213D01*
X87110288Y-83878210D01*
X86979185Y-83790609D01*
X86979172Y-83790602D01*
X86833501Y-83730264D01*
X86833489Y-83730261D01*
X86678845Y-83699500D01*
X86678842Y-83699500D01*
X86521158Y-83699500D01*
X86521155Y-83699500D01*
X86366510Y-83730261D01*
X86366498Y-83730264D01*
X86220827Y-83790602D01*
X86220814Y-83790609D01*
X86089711Y-83878210D01*
X86089707Y-83878213D01*
X85978213Y-83989707D01*
X85978210Y-83989711D01*
X85890609Y-84120814D01*
X85890602Y-84120827D01*
X85830264Y-84266498D01*
X85830261Y-84266510D01*
X85799500Y-84421153D01*
X85799500Y-84578846D01*
X85830261Y-84733489D01*
X85830264Y-84733501D01*
X85890137Y-84878048D01*
X85897606Y-84947517D01*
X85866331Y-85009996D01*
X85806241Y-85045648D01*
X85775576Y-85049500D01*
X82804935Y-85049500D01*
X82737896Y-85029815D01*
X82736090Y-85028633D01*
X82679179Y-84990606D01*
X82679172Y-84990602D01*
X82533501Y-84930264D01*
X82533489Y-84930261D01*
X82378845Y-84899500D01*
X82378842Y-84899500D01*
X82221158Y-84899500D01*
X82221155Y-84899500D01*
X82066510Y-84930261D01*
X82066498Y-84930264D01*
X81920827Y-84990602D01*
X81920814Y-84990609D01*
X81789711Y-85078210D01*
X81789707Y-85078213D01*
X81678213Y-85189707D01*
X81678210Y-85189711D01*
X81590609Y-85320814D01*
X81590602Y-85320827D01*
X81530264Y-85466498D01*
X81530261Y-85466510D01*
X81499500Y-85621153D01*
X81499500Y-85778846D01*
X81530261Y-85933489D01*
X81530264Y-85933501D01*
X81590602Y-86079172D01*
X81590609Y-86079185D01*
X81678210Y-86210288D01*
X81678213Y-86210292D01*
X81789707Y-86321786D01*
X81789711Y-86321789D01*
X81920814Y-86409390D01*
X81920827Y-86409397D01*
X82030118Y-86454666D01*
X82066503Y-86469737D01*
X82171418Y-86490606D01*
X82221153Y-86500499D01*
X82221156Y-86500500D01*
X82221158Y-86500500D01*
X82378844Y-86500500D01*
X82378845Y-86500499D01*
X82533497Y-86469737D01*
X82580121Y-86450424D01*
X82649588Y-86442956D01*
X82712067Y-86474231D01*
X82747720Y-86534319D01*
X82745227Y-86604144D01*
X82715254Y-86652666D01*
X82678214Y-86689706D01*
X82678210Y-86689711D01*
X82590609Y-86820814D01*
X82590602Y-86820827D01*
X82530264Y-86966498D01*
X82530261Y-86966510D01*
X82499500Y-87121153D01*
X82499500Y-87278846D01*
X82530261Y-87433489D01*
X82530264Y-87433501D01*
X82590602Y-87579172D01*
X82590609Y-87579185D01*
X82678210Y-87710288D01*
X82678213Y-87710292D01*
X82705740Y-87737819D01*
X82739225Y-87799142D01*
X82734241Y-87868834D01*
X82692369Y-87924767D01*
X82626905Y-87949184D01*
X82618059Y-87949500D01*
X81335929Y-87949500D01*
X81234196Y-87969737D01*
X81216199Y-87973316D01*
X81210255Y-87974499D01*
X81091870Y-88023535D01*
X80985331Y-88094722D01*
X80985324Y-88094728D01*
X80597068Y-88482984D01*
X80535745Y-88516469D01*
X80533579Y-88516920D01*
X80466508Y-88530261D01*
X80466498Y-88530264D01*
X80320827Y-88590602D01*
X80320814Y-88590609D01*
X80189711Y-88678210D01*
X80189707Y-88678213D01*
X80078213Y-88789707D01*
X80078210Y-88789711D01*
X79990609Y-88920814D01*
X79990602Y-88920827D01*
X79930264Y-89066498D01*
X79930261Y-89066510D01*
X79899500Y-89221153D01*
X79899500Y-89378846D01*
X79930261Y-89533489D01*
X79930264Y-89533501D01*
X79990602Y-89679172D01*
X79990609Y-89679185D01*
X80078210Y-89810288D01*
X80078213Y-89810292D01*
X80189707Y-89921786D01*
X80189711Y-89921789D01*
X80320814Y-90009390D01*
X80320827Y-90009397D01*
X80466498Y-90069735D01*
X80466503Y-90069737D01*
X80466507Y-90069737D01*
X80466508Y-90069738D01*
X80625951Y-90101454D01*
X80687862Y-90133839D01*
X80722436Y-90194555D01*
X80723376Y-90198878D01*
X80730261Y-90233492D01*
X80730264Y-90233501D01*
X80790602Y-90379172D01*
X80790609Y-90379185D01*
X80878210Y-90510288D01*
X80878213Y-90510292D01*
X80989707Y-90621786D01*
X80989711Y-90621789D01*
X81120814Y-90709390D01*
X81120827Y-90709397D01*
X81248797Y-90762403D01*
X81266503Y-90769737D01*
X81421153Y-90800499D01*
X81421156Y-90800500D01*
X81421158Y-90800500D01*
X81578844Y-90800500D01*
X81578845Y-90800499D01*
X81733497Y-90769737D01*
X81879179Y-90709394D01*
X82010289Y-90621789D01*
X82121789Y-90510289D01*
X82205766Y-90384609D01*
X82259378Y-90339804D01*
X82308868Y-90329500D01*
X90086223Y-90329500D01*
X90153262Y-90349185D01*
X90199017Y-90401989D01*
X90208961Y-90471147D01*
X90204154Y-90491818D01*
X90180742Y-90563869D01*
X90180742Y-90563872D01*
X90147500Y-90773753D01*
X90147500Y-90986246D01*
X90180742Y-91196127D01*
X90180742Y-91196130D01*
X90246404Y-91398217D01*
X90342875Y-91587550D01*
X90382228Y-91641716D01*
X91014536Y-91009407D01*
X91031575Y-91072993D01*
X91097401Y-91187007D01*
X91190493Y-91280099D01*
X91304507Y-91345925D01*
X91368090Y-91362962D01*
X90735782Y-91995269D01*
X90735782Y-91995270D01*
X90789949Y-92034624D01*
X90979282Y-92131095D01*
X91181370Y-92196757D01*
X91391254Y-92230000D01*
X91603746Y-92230000D01*
X91813627Y-92196757D01*
X91813630Y-92196757D01*
X92015717Y-92131095D01*
X92205054Y-92034622D01*
X92259216Y-91995270D01*
X92259217Y-91995270D01*
X91626908Y-91362962D01*
X91690493Y-91345925D01*
X91804507Y-91280099D01*
X91897599Y-91187007D01*
X91963425Y-91072993D01*
X91980462Y-91009409D01*
X92612770Y-91641717D01*
X92612770Y-91641716D01*
X92652122Y-91587555D01*
X92656732Y-91578507D01*
X92704705Y-91527709D01*
X92772525Y-91510912D01*
X92838661Y-91533447D01*
X92877704Y-91578504D01*
X92882449Y-91587817D01*
X93007390Y-91759786D01*
X93157713Y-91910109D01*
X93329679Y-92035048D01*
X93329681Y-92035049D01*
X93329684Y-92035051D01*
X93519088Y-92131557D01*
X93721257Y-92197246D01*
X93931213Y-92230500D01*
X93931214Y-92230500D01*
X94143786Y-92230500D01*
X94143787Y-92230500D01*
X94353743Y-92197246D01*
X94555912Y-92131557D01*
X94745316Y-92035051D01*
X94800072Y-91995269D01*
X94917286Y-91910109D01*
X94917288Y-91910106D01*
X94917292Y-91910104D01*
X95067604Y-91759792D01*
X95067606Y-91759788D01*
X95067609Y-91759786D01*
X95192548Y-91587820D01*
X95192550Y-91587817D01*
X95192551Y-91587816D01*
X95289057Y-91398412D01*
X95354746Y-91196243D01*
X95388000Y-90986287D01*
X95388000Y-90773713D01*
X95354746Y-90563757D01*
X95289057Y-90361588D01*
X95192551Y-90172184D01*
X95192549Y-90172181D01*
X95192548Y-90172179D01*
X95067609Y-90000213D01*
X94917286Y-89849890D01*
X94745320Y-89724951D01*
X94744615Y-89724591D01*
X94736554Y-89720485D01*
X94685759Y-89672512D01*
X94668963Y-89604692D01*
X94691499Y-89538556D01*
X94736554Y-89499515D01*
X94745316Y-89495051D01*
X94905260Y-89378846D01*
X94917286Y-89370109D01*
X94917288Y-89370106D01*
X94917292Y-89370104D01*
X95067604Y-89219792D01*
X95067606Y-89219788D01*
X95067609Y-89219786D01*
X95192548Y-89047820D01*
X95192547Y-89047820D01*
X95192551Y-89047816D01*
X95289057Y-88858412D01*
X95354746Y-88656243D01*
X95388000Y-88446287D01*
X95388000Y-88233713D01*
X95354746Y-88023757D01*
X95289057Y-87821588D01*
X95192551Y-87632184D01*
X95192549Y-87632181D01*
X95192548Y-87632179D01*
X95067609Y-87460213D01*
X94917286Y-87309890D01*
X94745320Y-87184951D01*
X94744615Y-87184591D01*
X94736554Y-87180485D01*
X94685759Y-87132512D01*
X94668963Y-87064692D01*
X94691499Y-86998556D01*
X94736554Y-86959515D01*
X94745316Y-86955051D01*
X94777426Y-86931722D01*
X94917286Y-86830109D01*
X94917288Y-86830106D01*
X94917292Y-86830104D01*
X95067604Y-86679792D01*
X95067606Y-86679788D01*
X95067609Y-86679786D01*
X95192548Y-86507820D01*
X95192547Y-86507820D01*
X95192551Y-86507816D01*
X95289057Y-86318412D01*
X95354746Y-86116243D01*
X95388000Y-85906287D01*
X95388000Y-85693713D01*
X95354746Y-85483757D01*
X95289057Y-85281588D01*
X95192551Y-85092184D01*
X95192549Y-85092181D01*
X95192548Y-85092179D01*
X95067609Y-84920213D01*
X94917286Y-84769890D01*
X94745317Y-84644949D01*
X94736004Y-84640204D01*
X94685207Y-84592230D01*
X94668412Y-84524409D01*
X94690949Y-84458274D01*
X94736007Y-84419232D01*
X94745055Y-84414622D01*
X94799216Y-84375270D01*
X94799217Y-84375270D01*
X94166908Y-83742962D01*
X94230493Y-83725925D01*
X94344507Y-83660099D01*
X94437599Y-83567007D01*
X94503425Y-83452993D01*
X94520462Y-83389409D01*
X95152770Y-84021717D01*
X95152770Y-84021716D01*
X95192122Y-83967554D01*
X95288595Y-83778217D01*
X95354257Y-83576130D01*
X95354257Y-83576127D01*
X95387500Y-83366246D01*
X95387500Y-83153753D01*
X95354257Y-82943872D01*
X95354257Y-82943869D01*
X95288595Y-82741782D01*
X95192124Y-82552449D01*
X95152770Y-82498282D01*
X95152769Y-82498282D01*
X94520462Y-83130590D01*
X94503425Y-83067007D01*
X94437599Y-82952993D01*
X94344507Y-82859901D01*
X94230493Y-82794075D01*
X94166909Y-82777037D01*
X94799216Y-82144728D01*
X94745047Y-82105373D01*
X94745047Y-82105372D01*
X94736000Y-82100763D01*
X94685206Y-82052788D01*
X94668412Y-81984966D01*
X94690951Y-81918832D01*
X94736008Y-81879793D01*
X94745316Y-81875051D01*
X94868832Y-81785312D01*
X94917286Y-81750109D01*
X94917288Y-81750106D01*
X94917292Y-81750104D01*
X95067604Y-81599792D01*
X95067606Y-81599788D01*
X95067609Y-81599786D01*
X95192548Y-81427820D01*
X95192547Y-81427820D01*
X95192551Y-81427816D01*
X95289057Y-81238412D01*
X95354746Y-81036243D01*
X95388000Y-80826287D01*
X95388000Y-80613713D01*
X95354746Y-80403757D01*
X95289057Y-80201588D01*
X95192551Y-80012184D01*
X95192549Y-80012181D01*
X95192548Y-80012179D01*
X95067609Y-79840213D01*
X94917286Y-79689890D01*
X94745317Y-79564949D01*
X94736004Y-79560204D01*
X94685207Y-79512230D01*
X94668412Y-79444409D01*
X94690949Y-79378274D01*
X94736007Y-79339232D01*
X94745055Y-79334622D01*
X94799216Y-79295270D01*
X94799217Y-79295270D01*
X94166908Y-78662962D01*
X94230493Y-78645925D01*
X94344507Y-78580099D01*
X94437599Y-78487007D01*
X94503425Y-78372993D01*
X94520462Y-78309409D01*
X95152770Y-78941717D01*
X95152770Y-78941716D01*
X95192122Y-78887554D01*
X95288595Y-78698217D01*
X95354257Y-78496130D01*
X95354257Y-78496127D01*
X95387500Y-78286246D01*
X95387500Y-78073753D01*
X95354257Y-77863872D01*
X95354257Y-77863869D01*
X95288595Y-77661782D01*
X95192124Y-77472449D01*
X95152770Y-77418282D01*
X95152769Y-77418282D01*
X94520462Y-78050590D01*
X94503425Y-77987007D01*
X94437599Y-77872993D01*
X94344507Y-77779901D01*
X94230493Y-77714075D01*
X94166908Y-77697037D01*
X94799216Y-77064728D01*
X94745047Y-77025373D01*
X94745047Y-77025372D01*
X94736000Y-77020763D01*
X94685206Y-76972788D01*
X94668412Y-76904966D01*
X94690951Y-76838832D01*
X94736008Y-76799793D01*
X94745316Y-76795051D01*
X94850759Y-76718443D01*
X94917286Y-76670109D01*
X94917288Y-76670106D01*
X94917292Y-76670104D01*
X95067604Y-76519792D01*
X95067606Y-76519788D01*
X95067609Y-76519786D01*
X95192548Y-76347820D01*
X95192547Y-76347820D01*
X95192551Y-76347816D01*
X95289057Y-76158412D01*
X95354746Y-75956243D01*
X95388000Y-75746287D01*
X95388000Y-75533713D01*
X95354746Y-75323757D01*
X95289057Y-75121588D01*
X95192551Y-74932184D01*
X95192549Y-74932181D01*
X95192548Y-74932179D01*
X95067609Y-74760213D01*
X94917286Y-74609890D01*
X94745320Y-74484951D01*
X94744615Y-74484591D01*
X94736554Y-74480485D01*
X94685759Y-74432512D01*
X94668963Y-74364692D01*
X94691499Y-74298556D01*
X94736554Y-74259515D01*
X94745316Y-74255051D01*
X94821440Y-74199744D01*
X94917286Y-74130109D01*
X94917288Y-74130106D01*
X94917292Y-74130104D01*
X95067604Y-73979792D01*
X95067606Y-73979788D01*
X95067609Y-73979786D01*
X95192548Y-73807820D01*
X95192550Y-73807817D01*
X95192551Y-73807816D01*
X95289057Y-73618412D01*
X95354746Y-73416243D01*
X95388000Y-73206287D01*
X95388000Y-72993713D01*
X95354746Y-72783757D01*
X95289057Y-72581588D01*
X95192551Y-72392184D01*
X95192549Y-72392181D01*
X95192548Y-72392179D01*
X95067609Y-72220213D01*
X94917286Y-72069890D01*
X94745320Y-71944951D01*
X94737100Y-71940763D01*
X94736554Y-71940485D01*
X94685759Y-71892512D01*
X94668963Y-71824692D01*
X94691499Y-71758556D01*
X94736554Y-71719515D01*
X94745316Y-71715051D01*
X94767289Y-71699086D01*
X94917286Y-71590109D01*
X94917288Y-71590106D01*
X94917292Y-71590104D01*
X95067604Y-71439792D01*
X95067606Y-71439788D01*
X95067609Y-71439786D01*
X95192548Y-71267820D01*
X95192547Y-71267820D01*
X95192551Y-71267816D01*
X95289057Y-71078412D01*
X95354746Y-70876243D01*
X95388000Y-70666287D01*
X95388000Y-70453713D01*
X95354746Y-70243757D01*
X95289057Y-70041588D01*
X95192551Y-69852184D01*
X95192549Y-69852181D01*
X95192548Y-69852179D01*
X95067609Y-69680213D01*
X94917286Y-69529890D01*
X94745320Y-69404951D01*
X94744615Y-69404591D01*
X94736554Y-69400485D01*
X94685759Y-69352512D01*
X94668963Y-69284692D01*
X94691499Y-69218556D01*
X94736554Y-69179515D01*
X94745316Y-69175051D01*
X94767289Y-69159086D01*
X94917286Y-69050109D01*
X94917288Y-69050106D01*
X94917292Y-69050104D01*
X95067604Y-68899792D01*
X95067606Y-68899788D01*
X95067609Y-68899786D01*
X95192548Y-68727820D01*
X95192547Y-68727820D01*
X95192551Y-68727816D01*
X95289057Y-68538412D01*
X95354746Y-68336243D01*
X95388000Y-68126287D01*
X95388000Y-67913713D01*
X95354746Y-67703757D01*
X95289057Y-67501588D01*
X95192551Y-67312184D01*
X95192549Y-67312181D01*
X95192548Y-67312179D01*
X95067609Y-67140213D01*
X94917286Y-66989890D01*
X94745317Y-66864949D01*
X94736004Y-66860204D01*
X94685207Y-66812230D01*
X94668412Y-66744409D01*
X94690949Y-66678274D01*
X94736007Y-66639232D01*
X94745055Y-66634622D01*
X94799216Y-66595270D01*
X94799217Y-66595270D01*
X94166908Y-65962962D01*
X94230493Y-65945925D01*
X94344507Y-65880099D01*
X94437599Y-65787007D01*
X94503425Y-65672993D01*
X94520462Y-65609409D01*
X95152770Y-66241717D01*
X95152770Y-66241716D01*
X95192122Y-66187554D01*
X95288595Y-65998217D01*
X95354257Y-65796130D01*
X95354257Y-65796127D01*
X95387500Y-65586246D01*
X95387500Y-65373753D01*
X95354257Y-65163872D01*
X95354257Y-65163869D01*
X95288595Y-64961782D01*
X95192124Y-64772449D01*
X95152770Y-64718282D01*
X95152769Y-64718282D01*
X94520462Y-65350590D01*
X94503425Y-65287007D01*
X94437599Y-65172993D01*
X94344507Y-65079901D01*
X94230493Y-65014075D01*
X94166908Y-64997037D01*
X94799216Y-64364728D01*
X94745047Y-64325373D01*
X94745047Y-64325372D01*
X94736000Y-64320763D01*
X94685206Y-64272788D01*
X94668412Y-64204966D01*
X94690951Y-64138832D01*
X94736008Y-64099793D01*
X94745316Y-64095051D01*
X94824507Y-64037515D01*
X94917286Y-63970109D01*
X94917288Y-63970106D01*
X94917292Y-63970104D01*
X95067604Y-63819792D01*
X95067606Y-63819788D01*
X95067609Y-63819786D01*
X95192548Y-63647820D01*
X95192547Y-63647820D01*
X95192551Y-63647816D01*
X95289057Y-63458412D01*
X95354746Y-63256243D01*
X95388000Y-63046287D01*
X95388000Y-62833713D01*
X95354746Y-62623757D01*
X95289057Y-62421588D01*
X95192551Y-62232184D01*
X95192549Y-62232181D01*
X95192548Y-62232179D01*
X95067609Y-62060213D01*
X94917286Y-61909890D01*
X94745320Y-61784951D01*
X94744615Y-61784591D01*
X94736554Y-61780485D01*
X94685759Y-61732512D01*
X94668963Y-61664692D01*
X94691499Y-61598556D01*
X94736554Y-61559515D01*
X94745316Y-61555051D01*
X94850759Y-61478443D01*
X94917286Y-61430109D01*
X94917288Y-61430106D01*
X94917292Y-61430104D01*
X95067604Y-61279792D01*
X95067606Y-61279788D01*
X95067609Y-61279786D01*
X95192548Y-61107820D01*
X95192547Y-61107820D01*
X95192551Y-61107816D01*
X95289057Y-60918412D01*
X95354746Y-60716243D01*
X95388000Y-60506287D01*
X95388000Y-60293713D01*
X95354746Y-60083757D01*
X95289057Y-59881588D01*
X95192551Y-59692184D01*
X95192549Y-59692181D01*
X95192548Y-59692179D01*
X95067609Y-59520213D01*
X94917286Y-59369890D01*
X94745317Y-59244949D01*
X94736004Y-59240204D01*
X94685207Y-59192230D01*
X94668412Y-59124409D01*
X94690949Y-59058274D01*
X94736007Y-59019232D01*
X94745055Y-59014622D01*
X94799216Y-58975270D01*
X94799217Y-58975270D01*
X94166908Y-58342962D01*
X94230493Y-58325925D01*
X94344507Y-58260099D01*
X94437599Y-58167007D01*
X94503425Y-58052993D01*
X94520462Y-57989409D01*
X95152770Y-58621717D01*
X95152770Y-58621716D01*
X95192122Y-58567554D01*
X95288595Y-58378217D01*
X95354257Y-58176130D01*
X95354257Y-58176127D01*
X95387500Y-57966246D01*
X95387500Y-57753753D01*
X95354257Y-57543872D01*
X95354257Y-57543869D01*
X95288595Y-57341782D01*
X95192124Y-57152449D01*
X95152770Y-57098282D01*
X95152769Y-57098282D01*
X94520462Y-57730590D01*
X94503425Y-57667007D01*
X94437599Y-57552993D01*
X94344507Y-57459901D01*
X94230493Y-57394075D01*
X94166909Y-57377037D01*
X94799216Y-56744728D01*
X94745047Y-56705373D01*
X94745047Y-56705372D01*
X94736000Y-56700763D01*
X94685206Y-56652788D01*
X94668412Y-56584966D01*
X94690951Y-56518832D01*
X94736008Y-56479793D01*
X94745316Y-56475051D01*
X94824507Y-56417515D01*
X94917286Y-56350109D01*
X94917288Y-56350106D01*
X94917292Y-56350104D01*
X95067604Y-56199792D01*
X95067606Y-56199788D01*
X95067609Y-56199786D01*
X95192548Y-56027820D01*
X95192547Y-56027820D01*
X95192551Y-56027816D01*
X95289057Y-55838412D01*
X95354746Y-55636243D01*
X95388000Y-55426287D01*
X95388000Y-55213713D01*
X95354746Y-55003757D01*
X95289057Y-54801588D01*
X95192551Y-54612184D01*
X95192549Y-54612181D01*
X95192548Y-54612179D01*
X95067609Y-54440213D01*
X94917286Y-54289890D01*
X94745320Y-54164951D01*
X94744615Y-54164591D01*
X94736554Y-54160485D01*
X94685759Y-54112512D01*
X94668963Y-54044692D01*
X94691499Y-53978556D01*
X94736554Y-53939515D01*
X94745316Y-53935051D01*
X94800072Y-53895269D01*
X94917286Y-53810109D01*
X94917288Y-53810106D01*
X94917292Y-53810104D01*
X95067604Y-53659792D01*
X95067606Y-53659788D01*
X95067609Y-53659786D01*
X95192548Y-53487820D01*
X95192550Y-53487817D01*
X95192551Y-53487816D01*
X95289057Y-53298412D01*
X95354746Y-53096243D01*
X95388000Y-52886287D01*
X95388000Y-52673713D01*
X95354746Y-52463757D01*
X95289057Y-52261588D01*
X95192551Y-52072184D01*
X95192549Y-52072181D01*
X95192548Y-52072179D01*
X95067609Y-51900213D01*
X94917286Y-51749890D01*
X94745320Y-51624951D01*
X94737100Y-51620763D01*
X94736554Y-51620485D01*
X94685759Y-51572512D01*
X94668963Y-51504692D01*
X94691499Y-51438556D01*
X94736554Y-51399515D01*
X94745316Y-51395051D01*
X94767289Y-51379086D01*
X94917286Y-51270109D01*
X94917288Y-51270106D01*
X94917292Y-51270104D01*
X95067604Y-51119792D01*
X95067606Y-51119788D01*
X95067609Y-51119786D01*
X95192548Y-50947820D01*
X95192547Y-50947820D01*
X95192551Y-50947816D01*
X95289057Y-50758412D01*
X95354746Y-50556243D01*
X95388000Y-50346287D01*
X95388000Y-50133713D01*
X95354746Y-49923757D01*
X95289057Y-49721588D01*
X95192551Y-49532184D01*
X95192549Y-49532181D01*
X95192548Y-49532179D01*
X95067609Y-49360213D01*
X94917286Y-49209890D01*
X94745317Y-49084949D01*
X94736004Y-49080204D01*
X94685207Y-49032230D01*
X94668412Y-48964409D01*
X94690949Y-48898274D01*
X94736007Y-48859232D01*
X94745055Y-48854622D01*
X94799216Y-48815270D01*
X94799217Y-48815270D01*
X94166908Y-48182962D01*
X94230493Y-48165925D01*
X94344507Y-48100099D01*
X94437599Y-48007007D01*
X94503425Y-47892993D01*
X94520462Y-47829409D01*
X95152770Y-48461717D01*
X95152770Y-48461716D01*
X95192122Y-48407554D01*
X95288595Y-48218217D01*
X95354257Y-48016130D01*
X95354257Y-48016127D01*
X95387500Y-47806246D01*
X95387500Y-47593753D01*
X95354257Y-47383872D01*
X95354257Y-47383869D01*
X95288595Y-47181782D01*
X95192124Y-46992449D01*
X95152770Y-46938282D01*
X95152769Y-46938282D01*
X94520462Y-47570590D01*
X94503425Y-47507007D01*
X94437599Y-47392993D01*
X94344507Y-47299901D01*
X94230493Y-47234075D01*
X94166909Y-47217037D01*
X94799216Y-46584728D01*
X94745047Y-46545373D01*
X94745047Y-46545372D01*
X94736000Y-46540763D01*
X94685206Y-46492788D01*
X94668412Y-46424966D01*
X94690951Y-46358832D01*
X94736008Y-46319793D01*
X94745316Y-46315051D01*
X94824507Y-46257515D01*
X94917286Y-46190109D01*
X94917288Y-46190106D01*
X94917292Y-46190104D01*
X95067604Y-46039792D01*
X95067606Y-46039788D01*
X95067609Y-46039786D01*
X95192548Y-45867820D01*
X95192547Y-45867820D01*
X95192551Y-45867816D01*
X95289057Y-45678412D01*
X95354746Y-45476243D01*
X95388000Y-45266287D01*
X95388000Y-45053713D01*
X95354746Y-44843757D01*
X95289057Y-44641588D01*
X95192551Y-44452184D01*
X95192549Y-44452181D01*
X95192548Y-44452179D01*
X95067609Y-44280213D01*
X94917286Y-44129890D01*
X94745320Y-44004951D01*
X94744615Y-44004591D01*
X94736554Y-44000485D01*
X94685759Y-43952512D01*
X94668963Y-43884692D01*
X94691499Y-43818556D01*
X94736554Y-43779515D01*
X94745316Y-43775051D01*
X94831638Y-43712335D01*
X94917286Y-43650109D01*
X94917288Y-43650106D01*
X94917292Y-43650104D01*
X95067604Y-43499792D01*
X95067606Y-43499788D01*
X95067609Y-43499786D01*
X95192548Y-43327820D01*
X95192547Y-43327820D01*
X95192551Y-43327816D01*
X95289057Y-43138412D01*
X95354746Y-42936243D01*
X95388000Y-42726287D01*
X95388000Y-42513713D01*
X95354746Y-42303757D01*
X95289057Y-42101588D01*
X95192551Y-41912184D01*
X95192549Y-41912181D01*
X95192548Y-41912179D01*
X95067609Y-41740213D01*
X94917286Y-41589890D01*
X94745320Y-41464951D01*
X94555914Y-41368444D01*
X94555913Y-41368443D01*
X94555912Y-41368443D01*
X94353743Y-41302754D01*
X94353741Y-41302753D01*
X94353740Y-41302753D01*
X94192457Y-41277208D01*
X94143787Y-41269500D01*
X93931213Y-41269500D01*
X93882542Y-41277208D01*
X93721260Y-41302753D01*
X93519085Y-41368444D01*
X93329679Y-41464951D01*
X93157715Y-41589889D01*
X93044173Y-41703431D01*
X92982850Y-41736915D01*
X92913158Y-41731931D01*
X92857225Y-41690059D01*
X92840310Y-41659082D01*
X92791297Y-41527671D01*
X92791293Y-41527664D01*
X92705047Y-41412455D01*
X92705044Y-41412452D01*
X92589835Y-41326206D01*
X92589828Y-41326202D01*
X92454982Y-41275908D01*
X92454983Y-41275908D01*
X92395383Y-41269501D01*
X92395381Y-41269500D01*
X92395373Y-41269500D01*
X92395364Y-41269500D01*
X90599629Y-41269500D01*
X90599623Y-41269501D01*
X90540016Y-41275908D01*
X90405171Y-41326202D01*
X90405164Y-41326206D01*
X90289955Y-41412452D01*
X90289952Y-41412455D01*
X90203706Y-41527664D01*
X90203702Y-41527671D01*
X90153408Y-41662517D01*
X90147001Y-41722116D01*
X90147000Y-41722135D01*
X90147000Y-43517870D01*
X90147001Y-43517876D01*
X90153408Y-43577483D01*
X90203702Y-43712328D01*
X90203706Y-43712335D01*
X90289952Y-43827544D01*
X90289955Y-43827547D01*
X90405164Y-43913793D01*
X90405171Y-43913797D01*
X90536582Y-43962810D01*
X90592516Y-44004681D01*
X90616933Y-44070145D01*
X90602082Y-44138418D01*
X90580931Y-44166673D01*
X90467389Y-44280215D01*
X90342451Y-44452179D01*
X90245944Y-44641585D01*
X90180253Y-44843760D01*
X90147000Y-45053713D01*
X90147000Y-45266286D01*
X90180253Y-45476239D01*
X90245944Y-45678414D01*
X90342451Y-45867820D01*
X90467390Y-46039786D01*
X90617713Y-46190109D01*
X90789682Y-46315050D01*
X90798446Y-46319516D01*
X90849242Y-46367491D01*
X90866036Y-46435312D01*
X90843498Y-46501447D01*
X90798446Y-46540484D01*
X90789682Y-46544949D01*
X90617713Y-46669890D01*
X90467390Y-46820213D01*
X90342451Y-46992179D01*
X90245944Y-47181585D01*
X90180253Y-47383760D01*
X90147000Y-47593713D01*
X90147000Y-47806286D01*
X90180253Y-48016239D01*
X90245944Y-48218414D01*
X90342451Y-48407820D01*
X90467390Y-48579786D01*
X90617713Y-48730109D01*
X90789682Y-48855050D01*
X90798446Y-48859516D01*
X90849242Y-48907491D01*
X90866036Y-48975312D01*
X90843498Y-49041447D01*
X90798446Y-49080484D01*
X90789682Y-49084949D01*
X90617713Y-49209890D01*
X90467390Y-49360213D01*
X90339585Y-49536125D01*
X90338240Y-49535148D01*
X90291795Y-49577166D01*
X90237882Y-49589500D01*
X73285929Y-49589500D01*
X73160261Y-49614497D01*
X73160255Y-49614499D01*
X73041874Y-49663534D01*
X72935326Y-49734726D01*
X68910710Y-53759342D01*
X68849387Y-53792827D01*
X68801245Y-53792315D01*
X68801055Y-53793516D01*
X68696111Y-53776894D01*
X68586287Y-53759500D01*
X68373713Y-53759500D01*
X68325042Y-53767208D01*
X68163760Y-53792753D01*
X67961585Y-53858444D01*
X67772179Y-53954951D01*
X67600213Y-54079890D01*
X67449890Y-54230213D01*
X67324951Y-54402179D01*
X67228444Y-54591585D01*
X67162753Y-54793760D01*
X67129500Y-55003713D01*
X66750500Y-55003713D01*
X66750500Y-37253750D01*
X66750726Y-37246263D01*
X66768271Y-36956205D01*
X66770076Y-36941340D01*
X66821780Y-36659201D01*
X66825364Y-36644663D01*
X66902096Y-36398422D01*
X66910696Y-36370822D01*
X66915998Y-36356841D01*
X67033731Y-36095249D01*
X67040676Y-36082016D01*
X67189080Y-35836526D01*
X67197567Y-35824230D01*
X67374480Y-35598417D01*
X67384395Y-35587226D01*
X67587226Y-35384395D01*
X67598417Y-35374480D01*
X67824230Y-35197567D01*
X67836526Y-35189080D01*
X68082016Y-35040676D01*
X68095249Y-35033731D01*
X68356841Y-34915998D01*
X68370822Y-34910696D01*
X68644668Y-34825362D01*
X68659197Y-34821780D01*
X68941344Y-34770075D01*
X68956201Y-34768271D01*
X69246264Y-34750726D01*
X69253751Y-34750500D01*
X69315892Y-34750500D01*
X93184108Y-34750500D01*
X93246249Y-34750500D01*
X93253736Y-34750726D01*
G37*
%TD.AperFunction*%
%TD*%
M02*
