%TF.GenerationSoftware,KiCad,Pcbnew,9.0.7*%
%TF.CreationDate,2026-02-02T21:57:32-08:00*%
%TF.ProjectId,IcePi_Zero_PMOD_Breakout,49636550-695f-45a6-9572-6f5f504d4f44,rev?*%
%TF.SameCoordinates,Original*%
%TF.FileFunction,Copper,L1,Top*%
%TF.FilePolarity,Positive*%
%FSLAX46Y46*%
G04 Gerber Fmt 4.6, Leading zero omitted, Abs format (unit mm)*
G04 Created by KiCad (PCBNEW 9.0.7) date 2026-02-02 21:57:32*
%MOMM*%
%LPD*%
G01*
G04 APERTURE LIST*
G04 Aperture macros list*
%AMRoundRect*
0 Rectangle with rounded corners*
0 $1 Rounding radius*
0 $2 $3 $4 $5 $6 $7 $8 $9 X,Y pos of 4 corners*
0 Add a 4 corners polygon primitive as box body*
4,1,4,$2,$3,$4,$5,$6,$7,$8,$9,$2,$3,0*
0 Add four circle primitives for the rounded corners*
1,1,$1+$1,$2,$3*
1,1,$1+$1,$4,$5*
1,1,$1+$1,$6,$7*
1,1,$1+$1,$8,$9*
0 Add four rect primitives between the rounded corners*
20,1,$1+$1,$2,$3,$4,$5,0*
20,1,$1+$1,$4,$5,$6,$7,0*
20,1,$1+$1,$6,$7,$8,$9,0*
20,1,$1+$1,$8,$9,$2,$3,0*%
G04 Aperture macros list end*
%TA.AperFunction,ComponentPad*%
%ADD10C,5.400000*%
%TD*%
%TA.AperFunction,ComponentPad*%
%ADD11R,1.700000X1.700000*%
%TD*%
%TA.AperFunction,ComponentPad*%
%ADD12C,1.700000*%
%TD*%
%TA.AperFunction,SMDPad,CuDef*%
%ADD13RoundRect,0.250000X-0.325000X-0.450000X0.325000X-0.450000X0.325000X0.450000X-0.325000X0.450000X0*%
%TD*%
%TA.AperFunction,SMDPad,CuDef*%
%ADD14RoundRect,0.250000X0.350000X0.450000X-0.350000X0.450000X-0.350000X-0.450000X0.350000X-0.450000X0*%
%TD*%
%TA.AperFunction,SMDPad,CuDef*%
%ADD15RoundRect,0.157500X0.367500X0.842500X-0.367500X0.842500X-0.367500X-0.842500X0.367500X-0.842500X0*%
%TD*%
%TA.AperFunction,SMDPad,CuDef*%
%ADD16RoundRect,0.250000X0.475000X-0.337500X0.475000X0.337500X-0.475000X0.337500X-0.475000X-0.337500X0*%
%TD*%
%TA.AperFunction,SMDPad,CuDef*%
%ADD17RoundRect,0.250000X-0.475000X0.337500X-0.475000X-0.337500X0.475000X-0.337500X0.475000X0.337500X0*%
%TD*%
%TA.AperFunction,ViaPad*%
%ADD18C,0.600000*%
%TD*%
%TA.AperFunction,Conductor*%
%ADD19C,0.300000*%
%TD*%
%TA.AperFunction,Conductor*%
%ADD20C,0.500000*%
%TD*%
%TA.AperFunction,Conductor*%
%ADD21C,0.200000*%
%TD*%
G04 APERTURE END LIST*
D10*
%TO.P,H1,1,1*%
%TO.N,GND*%
X69750000Y-37750000D03*
%TD*%
D11*
%TO.P,J1,1,Pin_1*%
%TO.N,/3V3*%
X91497500Y-42620000D03*
D12*
%TO.P,J1,2,Pin_2*%
%TO.N,/5V0*%
X94037500Y-42620000D03*
%TO.P,J1,3,Pin_3*%
%TO.N,/GPIO2*%
X91497500Y-45160000D03*
%TO.P,J1,4,Pin_4*%
%TO.N,/5V0*%
X94037500Y-45160000D03*
%TO.P,J1,5,Pin_5*%
%TO.N,/GPIO3*%
X91497500Y-47700000D03*
%TO.P,J1,6,Pin_6*%
%TO.N,GND*%
X94037500Y-47700000D03*
%TO.P,J1,7,Pin_7*%
%TO.N,/GPIO4*%
X91497500Y-50240000D03*
%TO.P,J1,8,Pin_8*%
%TO.N,/GPIO14*%
X94037500Y-50240000D03*
%TO.P,J1,9,Pin_9*%
%TO.N,GND*%
X91497500Y-52780000D03*
%TO.P,J1,10,Pin_10*%
%TO.N,/GPIO15*%
X94037500Y-52780000D03*
%TO.P,J1,11,Pin_11*%
%TO.N,/GPIO17*%
X91497500Y-55320000D03*
%TO.P,J1,12,Pin_12*%
%TO.N,/GPIO18*%
X94037500Y-55320000D03*
%TO.P,J1,13,Pin_13*%
%TO.N,/GPIO27*%
X91497500Y-57860000D03*
%TO.P,J1,14,Pin_14*%
%TO.N,GND*%
X94037500Y-57860000D03*
%TO.P,J1,15,Pin_15*%
%TO.N,/GPIO22*%
X91497500Y-60400000D03*
%TO.P,J1,16,Pin_16*%
%TO.N,/GPIO23*%
X94037500Y-60400000D03*
%TO.P,J1,17,Pin_17*%
%TO.N,/3V3*%
X91497500Y-62940000D03*
%TO.P,J1,18,Pin_18*%
%TO.N,/GPIO24*%
X94037500Y-62940000D03*
%TO.P,J1,19,Pin_19*%
%TO.N,/GPIO10*%
X91497500Y-65480000D03*
%TO.P,J1,20,Pin_20*%
%TO.N,GND*%
X94037500Y-65480000D03*
%TO.P,J1,21,Pin_21*%
%TO.N,/GPIO9*%
X91497500Y-68020000D03*
%TO.P,J1,22,Pin_22*%
%TO.N,/GPIO25*%
X94037500Y-68020000D03*
%TO.P,J1,23,Pin_23*%
%TO.N,/GPIO11*%
X91497500Y-70560000D03*
%TO.P,J1,24,Pin_24*%
%TO.N,/GPIO8*%
X94037500Y-70560000D03*
%TO.P,J1,25,Pin_25*%
%TO.N,GND*%
X91497500Y-73100000D03*
%TO.P,J1,26,Pin_26*%
%TO.N,/GPIO7*%
X94037500Y-73100000D03*
%TO.P,J1,27,Pin_27*%
%TO.N,/GPIO0*%
X91497500Y-75640000D03*
%TO.P,J1,28,Pin_28*%
%TO.N,/GPIO1*%
X94037500Y-75640000D03*
%TO.P,J1,29,Pin_29*%
%TO.N,/GPIO5*%
X91497500Y-78180000D03*
%TO.P,J1,30,Pin_30*%
%TO.N,GND*%
X94037500Y-78180000D03*
%TO.P,J1,31,Pin_31*%
%TO.N,/GPIO6*%
X91497500Y-80720000D03*
%TO.P,J1,32,Pin_32*%
%TO.N,/GPIO12*%
X94037500Y-80720000D03*
%TO.P,J1,33,Pin_33*%
%TO.N,/GPIO13*%
X91497500Y-83260000D03*
%TO.P,J1,34,Pin_34*%
%TO.N,GND*%
X94037500Y-83260000D03*
%TO.P,J1,35,Pin_35*%
%TO.N,/GPIO19*%
X91497500Y-85800000D03*
%TO.P,J1,36,Pin_36*%
%TO.N,/GPIO16*%
X94037500Y-85800000D03*
%TO.P,J1,37,Pin_37*%
%TO.N,/GPIO26*%
X91497500Y-88340000D03*
%TO.P,J1,38,Pin_38*%
%TO.N,/GPIO20*%
X94037500Y-88340000D03*
%TO.P,J1,39,Pin_39*%
%TO.N,GND*%
X91497500Y-90880000D03*
%TO.P,J1,40,Pin_40*%
%TO.N,/GPIO21*%
X94037500Y-90880000D03*
%TD*%
D13*
%TO.P,D1,1,K*%
%TO.N,GND*%
X82875000Y-100900000D03*
%TO.P,D1,2,A*%
%TO.N,Net-(D1-A)*%
X84925000Y-100900000D03*
%TD*%
D14*
%TO.P,R3,1*%
%TO.N,Net-(JP5-A)*%
X88700000Y-105900000D03*
%TO.P,R3,2*%
%TO.N,Net-(D3-A)*%
X86700000Y-105900000D03*
%TD*%
D13*
%TO.P,D3,1,K*%
%TO.N,GND*%
X82875000Y-105900000D03*
%TO.P,D3,2,A*%
%TO.N,Net-(D3-A)*%
X84925000Y-105900000D03*
%TD*%
D14*
%TO.P,R1,1*%
%TO.N,/5V0*%
X88700000Y-100900000D03*
%TO.P,R1,2*%
%TO.N,Net-(D1-A)*%
X86700000Y-100900000D03*
%TD*%
D15*
%TO.P,SW1,1,1*%
%TO.N,Net-(JP1-B)*%
X81025000Y-104300000D03*
%TO.P,SW1,2,2*%
%TO.N,/3V3*%
X76575000Y-104300000D03*
%TD*%
D16*
%TO.P,C5,1*%
%TO.N,/5V0*%
X88000000Y-97750000D03*
%TO.P,C5,2*%
%TO.N,GND*%
X88000000Y-95675000D03*
%TD*%
D13*
%TO.P,D2,1,K*%
%TO.N,GND*%
X82875000Y-103400000D03*
%TO.P,D2,2,A*%
%TO.N,Net-(D2-A)*%
X84925000Y-103400000D03*
%TD*%
D11*
%TO.P,J3,1,Pin_1*%
%TO.N,/GPIO8*%
X71020000Y-77970000D03*
D12*
%TO.P,J3,2,Pin_2*%
%TO.N,/GPIO12*%
X68480000Y-77970000D03*
%TO.P,J3,3,Pin_3*%
%TO.N,/GPIO9*%
X71020000Y-80510000D03*
%TO.P,J3,4,Pin_4*%
%TO.N,/GPIO13*%
X68480000Y-80510000D03*
%TO.P,J3,5,Pin_5*%
%TO.N,/GPIO10*%
X71020000Y-83050000D03*
%TO.P,J3,6,Pin_6*%
%TO.N,/GPIO14*%
X68480000Y-83050000D03*
%TO.P,J3,7,Pin_7*%
%TO.N,/GPIO11*%
X71020000Y-85590000D03*
%TO.P,J3,8,Pin_8*%
%TO.N,/GPIO15*%
X68480000Y-85590000D03*
%TO.P,J3,9,Pin_9*%
%TO.N,GND*%
X71020000Y-88130000D03*
%TO.P,J3,10,Pin_10*%
X68480000Y-88130000D03*
%TO.P,J3,11,Pin_11*%
%TO.N,/3V3*%
X71020000Y-90670000D03*
%TO.P,J3,12,Pin_12*%
X68480000Y-90670000D03*
%TD*%
D15*
%TO.P,SW3,1,1*%
%TO.N,Net-(JP3-B)*%
X81025000Y-111500000D03*
%TO.P,SW3,2,2*%
%TO.N,/3V3*%
X76575000Y-111500000D03*
%TD*%
D10*
%TO.P,H5,1,1*%
%TO.N,GND*%
X69750000Y-118750001D03*
%TD*%
D15*
%TO.P,SW2,1,1*%
%TO.N,Net-(JP2-B)*%
X81025000Y-107900000D03*
%TO.P,SW2,2,2*%
%TO.N,/3V3*%
X76575000Y-107900000D03*
%TD*%
D13*
%TO.P,D4,1,K*%
%TO.N,GND*%
X82875000Y-108400000D03*
%TO.P,D4,2,A*%
%TO.N,Net-(D4-A)*%
X84925000Y-108400000D03*
%TD*%
D16*
%TO.P,C2,1*%
%TO.N,/3V3*%
X74000000Y-90750000D03*
%TO.P,C2,2*%
%TO.N,GND*%
X74000000Y-88675000D03*
%TD*%
D14*
%TO.P,R6,1*%
%TO.N,Net-(JP8-A)*%
X88700000Y-113500000D03*
%TO.P,R6,2*%
%TO.N,Net-(D6-A)*%
X86700000Y-113500000D03*
%TD*%
D13*
%TO.P,D6,1,K*%
%TO.N,GND*%
X82875000Y-113500000D03*
%TO.P,D6,2,A*%
%TO.N,Net-(D6-A)*%
X84925000Y-113500000D03*
%TD*%
D11*
%TO.P,J4,1,Pin_1*%
%TO.N,/GPIO16*%
X71020000Y-100830000D03*
D12*
%TO.P,J4,2,Pin_2*%
%TO.N,/GPIO20*%
X68480000Y-100830000D03*
%TO.P,J4,3,Pin_3*%
%TO.N,/GPIO17*%
X71020000Y-103370000D03*
%TO.P,J4,4,Pin_4*%
%TO.N,/GPIO21*%
X68480000Y-103370000D03*
%TO.P,J4,5,Pin_5*%
%TO.N,/GPIO18*%
X71020000Y-105910000D03*
%TO.P,J4,6,Pin_6*%
%TO.N,/GPIO22*%
X68480000Y-105910000D03*
%TO.P,J4,7,Pin_7*%
%TO.N,/GPIO19*%
X71020000Y-108450000D03*
%TO.P,J4,8,Pin_8*%
%TO.N,/GPIO23*%
X68480000Y-108450000D03*
%TO.P,J4,9,Pin_9*%
%TO.N,GND*%
X71020000Y-110990000D03*
%TO.P,J4,10,Pin_10*%
X68480000Y-110990000D03*
%TO.P,J4,11,Pin_11*%
%TO.N,/3V3*%
X71020000Y-113530000D03*
%TO.P,J4,12,Pin_12*%
X68480000Y-113530000D03*
%TD*%
D10*
%TO.P,H4,1,1*%
%TO.N,GND*%
X92750000Y-95750000D03*
%TD*%
%TO.P,H3,1,1*%
%TO.N,GND*%
X69750000Y-95750000D03*
%TD*%
D13*
%TO.P,D5,1,K*%
%TO.N,GND*%
X82875000Y-111000000D03*
%TO.P,D5,2,A*%
%TO.N,Net-(D5-A)*%
X84925000Y-111000000D03*
%TD*%
D14*
%TO.P,R2,1*%
%TO.N,/3V3*%
X88700000Y-103400000D03*
%TO.P,R2,2*%
%TO.N,Net-(D2-A)*%
X86700000Y-103400000D03*
%TD*%
D17*
%TO.P,C3,1*%
%TO.N,/3V3*%
X74200000Y-117262500D03*
%TO.P,C3,2*%
%TO.N,GND*%
X74200000Y-119337500D03*
%TD*%
D15*
%TO.P,SW4,1,1*%
%TO.N,Net-(JP4-B)*%
X81025000Y-115100000D03*
%TO.P,SW4,2,2*%
%TO.N,/3V3*%
X76575000Y-115100000D03*
%TD*%
D11*
%TO.P,J5,1,Pin_1*%
%TO.N,GND*%
X91475000Y-100830000D03*
D12*
%TO.P,J5,2,Pin_2*%
%TO.N,/5V0*%
X94015000Y-100830000D03*
%TO.P,J5,3,Pin_3*%
%TO.N,GND*%
X91475000Y-103370000D03*
%TO.P,J5,4,Pin_4*%
%TO.N,/3V3*%
X94015000Y-103370000D03*
%TO.P,J5,5,Pin_5*%
%TO.N,GND*%
X91475000Y-105910000D03*
%TO.P,J5,6,Pin_6*%
%TO.N,/GPIO24*%
X94015000Y-105910000D03*
%TO.P,J5,7,Pin_7*%
%TO.N,GND*%
X91475000Y-108450000D03*
%TO.P,J5,8,Pin_8*%
%TO.N,/GPIO25*%
X94015000Y-108450000D03*
%TO.P,J5,9,Pin_9*%
%TO.N,GND*%
X91475000Y-110990000D03*
%TO.P,J5,10,Pin_10*%
%TO.N,/GPIO26*%
X94015000Y-110990000D03*
%TO.P,J5,11,Pin_11*%
%TO.N,GND*%
X91475000Y-113530000D03*
%TO.P,J5,12,Pin_12*%
%TO.N,/GPIO27*%
X94015000Y-113530000D03*
%TD*%
D14*
%TO.P,R4,1*%
%TO.N,Net-(JP6-A)*%
X88700000Y-108400000D03*
%TO.P,R4,2*%
%TO.N,Net-(D4-A)*%
X86700000Y-108400000D03*
%TD*%
D16*
%TO.P,C1,1*%
%TO.N,/3V3*%
X74000000Y-67750000D03*
%TO.P,C1,2*%
%TO.N,GND*%
X74000000Y-65675000D03*
%TD*%
%TO.P,C4,1*%
%TO.N,/3V3*%
X85750000Y-97750000D03*
%TO.P,C4,2*%
%TO.N,GND*%
X85750000Y-95675000D03*
%TD*%
D10*
%TO.P,H2,1,1*%
%TO.N,GND*%
X92750000Y-37750000D03*
%TD*%
D14*
%TO.P,R5,1*%
%TO.N,Net-(JP7-A)*%
X88700000Y-111000000D03*
%TO.P,R5,2*%
%TO.N,Net-(D5-A)*%
X86700000Y-111000000D03*
%TD*%
D11*
%TO.P,J2,1,Pin_1*%
%TO.N,/GPIO0*%
X71020000Y-55110000D03*
D12*
%TO.P,J2,2,Pin_2*%
%TO.N,/GPIO4*%
X68480000Y-55110000D03*
%TO.P,J2,3,Pin_3*%
%TO.N,/GPIO1*%
X71020000Y-57650000D03*
%TO.P,J2,4,Pin_4*%
%TO.N,/GPIO5*%
X68480000Y-57650000D03*
%TO.P,J2,5,Pin_5*%
%TO.N,/GPIO2*%
X71020000Y-60190000D03*
%TO.P,J2,6,Pin_6*%
%TO.N,/GPIO6*%
X68480000Y-60190000D03*
%TO.P,J2,7,Pin_7*%
%TO.N,/GPIO3*%
X71020000Y-62730000D03*
%TO.P,J2,8,Pin_8*%
%TO.N,/GPIO7*%
X68480000Y-62730000D03*
%TO.P,J2,9,Pin_9*%
%TO.N,GND*%
X71020000Y-65270000D03*
%TO.P,J2,10,Pin_10*%
X68480000Y-65270000D03*
%TO.P,J2,11,Pin_11*%
%TO.N,/3V3*%
X71020000Y-67810000D03*
%TO.P,J2,12,Pin_12*%
X68480000Y-67810000D03*
%TD*%
D10*
%TO.P,H6,1,1*%
%TO.N,GND*%
X92750000Y-118750001D03*
%TD*%
D18*
%TO.N,/GPIO14*%
X79325000Y-61300000D03*
%TO.N,/GPIO3*%
X74350000Y-62050000D03*
%TO.N,/GPIO18*%
X82500000Y-92100000D03*
X85975000Y-76575000D03*
%TO.N,/GPIO9*%
X81025000Y-70505000D03*
%TO.N,/GPIO27*%
X89100000Y-88800000D03*
X86525000Y-77225000D03*
X82300000Y-85700000D03*
X86900000Y-93100000D03*
%TO.N,/GPIO7*%
X82800000Y-75125000D03*
%TO.N,/GPIO10*%
X81825000Y-71375000D03*
%TO.N,/5V0*%
X88000000Y-102100000D03*
X89300000Y-96700000D03*
X83375000Y-61425000D03*
X81500000Y-63300000D03*
%TO.N,/GPIO24*%
X88800000Y-79300000D03*
X89500000Y-93300000D03*
X89600000Y-64400000D03*
%TO.N,/GPIO8*%
X78912500Y-70462500D03*
%TO.N,/3V3*%
X77900000Y-109225000D03*
X74200000Y-115900000D03*
X75950000Y-89750000D03*
X75950000Y-66650000D03*
X85650000Y-99100000D03*
%TO.N,/GPIO22*%
X83300000Y-87200000D03*
X87100000Y-77800000D03*
%TO.N,/GPIO15*%
X82025000Y-64700000D03*
X78150000Y-80825000D03*
%TO.N,/GPIO21*%
X81500000Y-90000000D03*
%TO.N,/GPIO17*%
X80400000Y-86900000D03*
X85525000Y-75825000D03*
%TO.N,/GPIO20*%
X86600000Y-84500000D03*
%TO.N,/GPIO26*%
X82800000Y-99100000D03*
%TO.N,/GPIO23*%
X83400000Y-91400000D03*
X87700000Y-78400000D03*
%TO.N,/GPIO25*%
X79400000Y-107900000D03*
X85500000Y-92200000D03*
X85900000Y-88500000D03*
X88800000Y-85600000D03*
X89600000Y-79900000D03*
%TO.N,/GPIO16*%
X80700000Y-89300000D03*
X85600000Y-87200000D03*
%TO.N,/GPIO11*%
X82600000Y-72350000D03*
%TO.N,GND*%
X73300000Y-58700000D03*
X78650000Y-84400000D03*
X74550000Y-80975000D03*
X82900000Y-112225000D03*
X74450000Y-86425000D03*
X89725000Y-98525000D03*
X76975000Y-88975000D03*
X83525000Y-76250000D03*
X90100000Y-110400000D03*
X72500000Y-53000000D03*
X78400000Y-59500000D03*
X84525000Y-90800000D03*
X74800000Y-112400000D03*
X83900000Y-115150000D03*
X80875000Y-101550000D03*
X73025000Y-74275000D03*
X78925000Y-88575000D03*
X79050000Y-110700000D03*
X85000000Y-53000000D03*
X80725000Y-113250000D03*
X95400000Y-107200000D03*
X88750000Y-99675000D03*
X79550000Y-80575000D03*
X86075000Y-80950000D03*
X84825000Y-67275000D03*
X72575000Y-83000000D03*
X80100000Y-51600000D03*
X89900000Y-72600000D03*
X68100000Y-52900000D03*
X82975000Y-63850000D03*
X77875000Y-101400000D03*
X76400000Y-58400000D03*
X84800000Y-109675000D03*
X81550000Y-102450000D03*
X79075000Y-68950000D03*
X89900000Y-103400000D03*
X83550000Y-65475000D03*
X90100000Y-59175000D03*
X89775000Y-48150000D03*
X73050000Y-84625000D03*
X89925000Y-114875000D03*
X77875000Y-106300000D03*
X82425000Y-60100000D03*
X80525000Y-74750000D03*
X90000000Y-105500000D03*
X82875000Y-109700000D03*
X75800000Y-61100000D03*
X84000000Y-104375000D03*
X83200000Y-48600000D03*
X86700000Y-99700000D03*
X84700000Y-107150000D03*
X69775000Y-69175000D03*
X77100000Y-66700000D03*
X86400000Y-55300000D03*
X76325000Y-118125000D03*
X74800000Y-106275000D03*
X86650000Y-102175000D03*
X88875000Y-107200000D03*
X88750000Y-68100000D03*
X83875000Y-99375000D03*
%TO.N,Net-(JP1-B)*%
X78475000Y-104975000D03*
%TO.N,Net-(JP2-B)*%
X80100000Y-109250000D03*
%TO.N,Net-(JP3-B)*%
X79600000Y-112225000D03*
%TO.N,Net-(JP4-B)*%
X79400000Y-115000000D03*
%TO.N,Net-(JP5-A)*%
X88075000Y-107150000D03*
%TO.N,Net-(JP6-A)*%
X90050000Y-108825000D03*
%TO.N,Net-(JP7-A)*%
X90100000Y-111600000D03*
%TO.N,Net-(JP8-A)*%
X87700000Y-115075000D03*
%TD*%
D19*
%TO.N,/GPIO14*%
X94037500Y-50240000D02*
X92836500Y-51441000D01*
X89184000Y-51441000D02*
X79325000Y-61300000D01*
X92836500Y-51441000D02*
X89184000Y-51441000D01*
%TO.N,/GPIO3*%
X91497500Y-47700000D02*
X77147500Y-62050000D01*
X77147500Y-62050000D02*
X74350000Y-62050000D01*
%TO.N,/GPIO18*%
X86175000Y-76375000D02*
X86175000Y-59250000D01*
X85975000Y-76575000D02*
X86175000Y-76375000D01*
X92757500Y-56600000D02*
X94037500Y-55320000D01*
X74400000Y-102700000D02*
X74400000Y-100200000D01*
X88825000Y-56600000D02*
X92757500Y-56600000D01*
X71020000Y-105910000D02*
X71190000Y-105910000D01*
X86175000Y-59250000D02*
X88825000Y-56600000D01*
X74400000Y-100200000D02*
X82500000Y-92100000D01*
X71190000Y-105910000D02*
X74400000Y-102700000D01*
%TO.N,/GPIO27*%
X86525000Y-77225000D02*
X86825000Y-76925000D01*
X86900000Y-91000000D02*
X86900000Y-93100000D01*
X86825000Y-59775000D02*
X88740000Y-57860000D01*
X86825000Y-76925000D02*
X86825000Y-59775000D01*
X89100000Y-88800000D02*
X86900000Y-91000000D01*
X88740000Y-57860000D02*
X91497500Y-57860000D01*
%TO.N,/GPIO7*%
X83975000Y-69725000D02*
X78275000Y-64025000D01*
X83975000Y-73950000D02*
X83975000Y-69725000D01*
X69775000Y-64025000D02*
X68480000Y-62730000D01*
X78275000Y-64025000D02*
X69775000Y-64025000D01*
X82800000Y-75125000D02*
X83975000Y-73950000D01*
%TO.N,/5V0*%
X83375000Y-61425000D02*
X81500000Y-63300000D01*
D20*
X93000000Y-99250000D02*
X94015000Y-100265000D01*
D19*
X88700000Y-100900000D02*
X88700000Y-101400000D01*
D20*
X88250000Y-97750000D02*
X89300000Y-96700000D01*
X90050000Y-97750000D02*
X91550000Y-99250000D01*
X94015000Y-100265000D02*
X94015000Y-100830000D01*
X88000000Y-97750000D02*
X88250000Y-97750000D01*
D19*
X88700000Y-101400000D02*
X88000000Y-102100000D01*
D20*
X88000000Y-97750000D02*
X90050000Y-97750000D01*
X91550000Y-99250000D02*
X93000000Y-99250000D01*
D19*
%TO.N,/GPIO24*%
X88800000Y-72000000D02*
X88800000Y-79300000D01*
X89600000Y-71200000D02*
X89000000Y-71800000D01*
X89000000Y-71800000D02*
X88800000Y-72000000D01*
X89600000Y-64400000D02*
X89600000Y-71200000D01*
D20*
%TO.N,/3V3*%
X68560000Y-90750000D02*
X68480000Y-90670000D01*
D19*
X71020000Y-113530000D02*
X71020000Y-114082500D01*
X89800000Y-102300000D02*
X89800000Y-101800000D01*
X88700000Y-103400000D02*
X89800000Y-102300000D01*
X89200000Y-99000000D02*
X89800000Y-99600000D01*
D20*
X74200000Y-115900000D02*
X74200000Y-117262500D01*
X75950000Y-89750000D02*
X75000000Y-89750000D01*
X75950000Y-66650000D02*
X74790000Y-67810000D01*
D19*
X87000000Y-99000000D02*
X85750000Y-97750000D01*
X89800000Y-99600000D02*
X89800000Y-101800000D01*
D20*
X71020000Y-114082500D02*
X74200000Y-117262500D01*
X75000000Y-89750000D02*
X74000000Y-90750000D01*
D19*
X87000000Y-99000000D02*
X89200000Y-99000000D01*
D20*
X74000000Y-90750000D02*
X68560000Y-90750000D01*
D19*
X94015000Y-103370000D02*
X92745000Y-102100000D01*
D20*
X71020000Y-113530000D02*
X68480000Y-113530000D01*
D19*
X85650000Y-99100000D02*
X85650000Y-97850000D01*
D20*
X74790000Y-67810000D02*
X68480000Y-67810000D01*
D19*
X92745000Y-102100000D02*
X90100000Y-102100000D01*
D20*
X76575000Y-115100000D02*
X76575000Y-104300000D01*
D19*
X90100000Y-102100000D02*
X89800000Y-101800000D01*
X85650000Y-97850000D02*
X85750000Y-97750000D01*
D20*
X77900000Y-109225000D02*
X76575000Y-107900000D01*
D19*
%TO.N,/GPIO22*%
X83300000Y-90300000D02*
X73800000Y-99800000D01*
X73800000Y-102400000D02*
X71600000Y-104600000D01*
X69790000Y-104600000D02*
X68480000Y-105910000D01*
X87400000Y-77500000D02*
X87400000Y-61550000D01*
X83300000Y-87200000D02*
X83300000Y-90300000D01*
X71600000Y-104600000D02*
X69790000Y-104600000D01*
X87100000Y-77800000D02*
X87400000Y-77500000D01*
X87400000Y-61550000D02*
X88550000Y-60400000D01*
X73800000Y-99800000D02*
X73800000Y-102400000D01*
X88550000Y-60400000D02*
X91497500Y-60400000D01*
%TO.N,/GPIO6*%
X78348750Y-63073750D02*
X84575000Y-69300000D01*
X84575000Y-69300000D02*
X84575000Y-77950000D01*
X73851250Y-63073750D02*
X78348750Y-63073750D01*
X72202500Y-61425000D02*
X73851250Y-63073750D01*
X69715000Y-61425000D02*
X72202500Y-61425000D01*
X68480000Y-60190000D02*
X69715000Y-61425000D01*
X84575000Y-77950000D02*
X87345000Y-80720000D01*
X87345000Y-80720000D02*
X91497500Y-80720000D01*
%TO.N,/GPIO15*%
X84475000Y-63700000D02*
X83475000Y-64700000D01*
X84475000Y-58275000D02*
X84475000Y-63700000D01*
X92792500Y-54025000D02*
X91300000Y-54025000D01*
X88725000Y-54025000D02*
X84475000Y-58275000D01*
X83475000Y-64700000D02*
X82025000Y-64700000D01*
X91300000Y-54025000D02*
X88725000Y-54025000D01*
X94037500Y-52780000D02*
X92792500Y-54025000D01*
%TO.N,/GPIO13*%
X72975000Y-81775000D02*
X74475000Y-83275000D01*
X69745000Y-81775000D02*
X72975000Y-81775000D01*
X68480000Y-80510000D02*
X69745000Y-81775000D01*
X74475000Y-83275000D02*
X91482500Y-83275000D01*
X91482500Y-83275000D02*
X91497500Y-83260000D01*
%TO.N,/GPIO21*%
X81500000Y-90300000D02*
X81500000Y-90000000D01*
X68480000Y-103370000D02*
X69750000Y-102100000D01*
X72600000Y-101800000D02*
X72600000Y-99200000D01*
X81100000Y-90700000D02*
X81500000Y-90300000D01*
X72600000Y-99200000D02*
X81100000Y-90700000D01*
X69750000Y-102100000D02*
X70700000Y-102100000D01*
X72300000Y-102100000D02*
X72600000Y-101800000D01*
X70700000Y-102100000D02*
X72300000Y-102100000D01*
%TO.N,/GPIO2*%
X76467500Y-60190000D02*
X71020000Y-60190000D01*
X91497500Y-45160000D02*
X76467500Y-60190000D01*
%TO.N,/GPIO17*%
X71830000Y-103370000D02*
X71020000Y-103370000D01*
X73200000Y-102000000D02*
X71830000Y-103370000D01*
X80400000Y-86900000D02*
X80400000Y-87000000D01*
X73200000Y-99500000D02*
X73200000Y-102000000D01*
X82300000Y-88900000D02*
X82300000Y-90400000D01*
X80400000Y-87000000D02*
X82300000Y-88900000D01*
X85525000Y-58850000D02*
X89055000Y-55320000D01*
X82300000Y-90400000D02*
X73200000Y-99500000D01*
X89055000Y-55320000D02*
X91497500Y-55320000D01*
X85525000Y-75825000D02*
X85525000Y-58850000D01*
%TO.N,/GPIO20*%
X70100000Y-99200000D02*
X70900000Y-99200000D01*
X79800000Y-88400000D02*
X78800000Y-87400000D01*
X78800000Y-86000000D02*
X80300000Y-84500000D01*
X68480000Y-100820000D02*
X70100000Y-99200000D01*
X70900000Y-99200000D02*
X79800000Y-90300000D01*
X78800000Y-87400000D02*
X78800000Y-86000000D01*
X79800000Y-90300000D02*
X79800000Y-88400000D01*
X68480000Y-100830000D02*
X68480000Y-100820000D01*
X80300000Y-84500000D02*
X86600000Y-84500000D01*
%TO.N,/GPIO26*%
X82800000Y-95600000D02*
X82800000Y-99100000D01*
X86900000Y-94200000D02*
X84200000Y-94200000D01*
X88000000Y-94000000D02*
X87800000Y-94200000D01*
X84200000Y-94200000D02*
X83300000Y-95100000D01*
X91497500Y-88340000D02*
X88000000Y-91837500D01*
X83300000Y-95100000D02*
X82800000Y-95600000D01*
X87800000Y-94200000D02*
X86900000Y-94200000D01*
X88000000Y-91837500D02*
X88000000Y-94000000D01*
%TO.N,/GPIO23*%
X75000000Y-103628471D02*
X75000000Y-100650000D01*
X75000000Y-100650000D02*
X83000000Y-92650000D01*
X92750000Y-61675000D02*
X94025000Y-60400000D01*
X94025000Y-60400000D02*
X94037500Y-60400000D01*
X71428471Y-107200000D02*
X75000000Y-103628471D01*
X88050000Y-64100000D02*
X90475000Y-61675000D01*
X90475000Y-61675000D02*
X92750000Y-61675000D01*
X87700000Y-78400000D02*
X88050000Y-78050000D01*
X68480000Y-108450000D02*
X69730000Y-107200000D01*
X83400000Y-92250000D02*
X83400000Y-91400000D01*
X83000000Y-92650000D02*
X83400000Y-92250000D01*
X88050000Y-78050000D02*
X88050000Y-64100000D01*
X69730000Y-107200000D02*
X71428471Y-107200000D01*
%TO.N,/GPIO25*%
X85900000Y-88500000D02*
X88800000Y-85600000D01*
X89600000Y-79900000D02*
X89600000Y-75300000D01*
X92000000Y-74400000D02*
X92800000Y-73600000D01*
X92800000Y-73600000D02*
X92800000Y-69257500D01*
X89600000Y-75300000D02*
X90500000Y-74400000D01*
X92800000Y-69257500D02*
X94037500Y-68020000D01*
X90500000Y-74400000D02*
X92000000Y-74400000D01*
%TO.N,/GPIO12*%
X71471000Y-79171000D02*
X69681000Y-79171000D01*
X94037500Y-80720000D02*
X92836500Y-81921000D01*
X69681000Y-79171000D02*
X68480000Y-77970000D01*
X92836500Y-81921000D02*
X74221000Y-81921000D01*
X74221000Y-81921000D02*
X71471000Y-79171000D01*
%TO.N,/GPIO16*%
X71020000Y-100830000D02*
X71020000Y-99880000D01*
X88300000Y-84500000D02*
X85600000Y-87200000D01*
X80700000Y-90200000D02*
X80700000Y-89300000D01*
X92737500Y-84500000D02*
X88300000Y-84500000D01*
X71020000Y-99880000D02*
X80700000Y-90200000D01*
X94037500Y-85800000D02*
X92737500Y-84500000D01*
%TO.N,/GPIO19*%
X75600000Y-101000000D02*
X90800000Y-85800000D01*
X90800000Y-85800000D02*
X91497500Y-85800000D01*
X75600000Y-103870000D02*
X75600000Y-101000000D01*
X71020000Y-108450000D02*
X75600000Y-103870000D01*
%TO.N,GND*%
X90885000Y-110400000D02*
X91475000Y-110990000D01*
D21*
X82900000Y-109675000D02*
X82875000Y-109700000D01*
D20*
X81925000Y-102450000D02*
X82875000Y-103400000D01*
D19*
X94037500Y-57860000D02*
X92722500Y-59175000D01*
D21*
X84125000Y-107150000D02*
X82875000Y-105900000D01*
D19*
X92722500Y-59175000D02*
X90100000Y-59175000D01*
D21*
X90170000Y-112225000D02*
X91475000Y-113530000D01*
D19*
X90185000Y-107200000D02*
X91475000Y-105910000D01*
X89930000Y-103370000D02*
X89900000Y-103400000D01*
X79849000Y-109901000D02*
X79050000Y-110700000D01*
X90130000Y-114875000D02*
X91475000Y-113530000D01*
X88875000Y-107200000D02*
X90185000Y-107200000D01*
D21*
X84800000Y-109675000D02*
X89375000Y-109675000D01*
D20*
X82875000Y-105900000D02*
X82875000Y-108400000D01*
D19*
X80899000Y-109901000D02*
X79849000Y-109901000D01*
X81100000Y-109700000D02*
X80899000Y-109901000D01*
D21*
X89375000Y-109675000D02*
X90100000Y-110400000D01*
D19*
X89925000Y-114875000D02*
X90130000Y-114875000D01*
X81100000Y-109700000D02*
X81575000Y-109700000D01*
D21*
X84700000Y-107150000D02*
X84125000Y-107150000D01*
X82900000Y-112225000D02*
X90170000Y-112225000D01*
D19*
X81575000Y-109700000D02*
X82875000Y-111000000D01*
D20*
X81550000Y-102450000D02*
X81925000Y-102450000D01*
D19*
X90100000Y-110400000D02*
X90885000Y-110400000D01*
D20*
X81400000Y-113300000D02*
X82675000Y-113300000D01*
D19*
X91475000Y-103370000D02*
X89930000Y-103370000D01*
D21*
X84800000Y-109675000D02*
X82900000Y-109675000D01*
D20*
X82675000Y-113300000D02*
X82875000Y-113500000D01*
D19*
%TO.N,Net-(D1-A)*%
X84925000Y-100900000D02*
X86700000Y-100900000D01*
%TO.N,Net-(D2-A)*%
X86700000Y-103400000D02*
X84925000Y-103400000D01*
%TO.N,Net-(D3-A)*%
X86700000Y-105900000D02*
X84925000Y-105900000D01*
%TO.N,Net-(D4-A)*%
X86700000Y-108400000D02*
X84925000Y-108400000D01*
%TO.N,Net-(D5-A)*%
X86700000Y-111000000D02*
X84925000Y-111000000D01*
%TO.N,Net-(D6-A)*%
X84925000Y-113500000D02*
X86700000Y-113500000D01*
%TO.N,Net-(JP1-B)*%
X78475000Y-104975000D02*
X79150000Y-104300000D01*
X79150000Y-104300000D02*
X81025000Y-104300000D01*
D21*
%TO.N,Net-(JP2-B)*%
X80100000Y-108825000D02*
X81025000Y-107900000D01*
D19*
X81025000Y-108181870D02*
X81025000Y-107900000D01*
D21*
X80100000Y-109250000D02*
X80100000Y-108825000D01*
D19*
%TO.N,Net-(JP3-B)*%
X79600000Y-112225000D02*
X80300000Y-112225000D01*
X80300000Y-112225000D02*
X81025000Y-111500000D01*
%TO.N,Net-(JP4-B)*%
X79400000Y-115000000D02*
X80925000Y-115000000D01*
X80925000Y-115000000D02*
X81025000Y-115100000D01*
%TO.N,Net-(JP5-A)*%
X88075000Y-107150000D02*
X88075000Y-106525000D01*
X88075000Y-106525000D02*
X88700000Y-105900000D01*
%TO.N,Net-(JP6-A)*%
X89125000Y-108825000D02*
X88700000Y-108400000D01*
X90050000Y-108825000D02*
X89125000Y-108825000D01*
%TO.N,Net-(JP7-A)*%
X89300000Y-111600000D02*
X88700000Y-111000000D01*
X90100000Y-111600000D02*
X89300000Y-111600000D01*
%TO.N,Net-(JP8-A)*%
X87700000Y-115075000D02*
X87700000Y-114500000D01*
X87700000Y-114500000D02*
X88700000Y-113500000D01*
%TD*%
%TA.AperFunction,Conductor*%
%TO.N,GND*%
G36*
X92590270Y-111751717D02*
G01*
X92590270Y-111751716D01*
X92629622Y-111697555D01*
X92634232Y-111688507D01*
X92682205Y-111637709D01*
X92750025Y-111620912D01*
X92816161Y-111643447D01*
X92855204Y-111688504D01*
X92859949Y-111697817D01*
X92984890Y-111869786D01*
X93135213Y-112020109D01*
X93307182Y-112145050D01*
X93315946Y-112149516D01*
X93366742Y-112197491D01*
X93383536Y-112265312D01*
X93360998Y-112331447D01*
X93315946Y-112370484D01*
X93307182Y-112374949D01*
X93135213Y-112499890D01*
X92984890Y-112650213D01*
X92859949Y-112822182D01*
X92855202Y-112831499D01*
X92807227Y-112882293D01*
X92739405Y-112899087D01*
X92673271Y-112876548D01*
X92634234Y-112831495D01*
X92629626Y-112822452D01*
X92590270Y-112768282D01*
X92590269Y-112768282D01*
X91957962Y-113400590D01*
X91940925Y-113337007D01*
X91875099Y-113222993D01*
X91782007Y-113129901D01*
X91667993Y-113064075D01*
X91604409Y-113047037D01*
X92236716Y-112414728D01*
X92182550Y-112375375D01*
X92172954Y-112370486D01*
X92122157Y-112322512D01*
X92105361Y-112254692D01*
X92127897Y-112188556D01*
X92172954Y-112149514D01*
X92182554Y-112144622D01*
X92236716Y-112105270D01*
X92236717Y-112105270D01*
X91604408Y-111472962D01*
X91667993Y-111455925D01*
X91782007Y-111390099D01*
X91875099Y-111297007D01*
X91940925Y-111182993D01*
X91957962Y-111119408D01*
X92590270Y-111751717D01*
G37*
%TD.AperFunction*%
%TA.AperFunction,Conductor*%
G36*
X70554075Y-111182993D02*
G01*
X70619901Y-111297007D01*
X70712993Y-111390099D01*
X70827007Y-111455925D01*
X70890590Y-111472962D01*
X70258282Y-112105269D01*
X70258282Y-112105270D01*
X70312452Y-112144626D01*
X70312451Y-112144626D01*
X70321495Y-112149234D01*
X70372292Y-112197208D01*
X70389087Y-112265029D01*
X70366550Y-112331164D01*
X70321499Y-112370202D01*
X70312182Y-112374949D01*
X70140213Y-112499890D01*
X69989892Y-112650211D01*
X69933097Y-112728385D01*
X69928765Y-112731725D01*
X69926492Y-112736703D01*
X69901389Y-112752835D01*
X69877767Y-112771051D01*
X69871095Y-112772303D01*
X69867714Y-112774477D01*
X69832779Y-112779500D01*
X69667221Y-112779500D01*
X69600182Y-112759815D01*
X69566903Y-112728385D01*
X69510107Y-112650211D01*
X69359786Y-112499890D01*
X69187817Y-112374949D01*
X69178504Y-112370204D01*
X69127707Y-112322230D01*
X69110912Y-112254409D01*
X69133449Y-112188274D01*
X69178507Y-112149232D01*
X69187555Y-112144622D01*
X69241716Y-112105270D01*
X69241717Y-112105270D01*
X68609408Y-111472962D01*
X68672993Y-111455925D01*
X68787007Y-111390099D01*
X68880099Y-111297007D01*
X68945925Y-111182993D01*
X68962962Y-111119408D01*
X69595270Y-111751717D01*
X69595270Y-111751716D01*
X69634622Y-111697554D01*
X69639514Y-111687954D01*
X69687488Y-111637157D01*
X69755308Y-111620361D01*
X69821444Y-111642897D01*
X69860486Y-111687954D01*
X69865375Y-111697550D01*
X69904728Y-111751716D01*
X70537037Y-111119408D01*
X70554075Y-111182993D01*
G37*
%TD.AperFunction*%
%TA.AperFunction,Conductor*%
G36*
X83979156Y-111885236D02*
G01*
X84005243Y-111915341D01*
X84007288Y-111918656D01*
X84131344Y-112042712D01*
X84280666Y-112134814D01*
X84280667Y-112134814D01*
X84280670Y-112134816D01*
X84286677Y-112137617D01*
X84339117Y-112183788D01*
X84358271Y-112250981D01*
X84338057Y-112317862D01*
X84286677Y-112362383D01*
X84280670Y-112365183D01*
X84131342Y-112457289D01*
X84007288Y-112581343D01*
X84007283Y-112581349D01*
X84005241Y-112584661D01*
X84003247Y-112586453D01*
X84002807Y-112587011D01*
X84002711Y-112586935D01*
X83953291Y-112631383D01*
X83884328Y-112642602D01*
X83820247Y-112614755D01*
X83794168Y-112584656D01*
X83792319Y-112581659D01*
X83792316Y-112581655D01*
X83668345Y-112457684D01*
X83519124Y-112365643D01*
X83512579Y-112362592D01*
X83513894Y-112359771D01*
X83467915Y-112327947D01*
X83441083Y-112263435D01*
X83453388Y-112194657D01*
X83500924Y-112143451D01*
X83512855Y-112138001D01*
X83512579Y-112137408D01*
X83519124Y-112134356D01*
X83668345Y-112042315D01*
X83792318Y-111918342D01*
X83794165Y-111915348D01*
X83795969Y-111913724D01*
X83796798Y-111912677D01*
X83796976Y-111912818D01*
X83846110Y-111868621D01*
X83915073Y-111857396D01*
X83979156Y-111885236D01*
G37*
%TD.AperFunction*%
%TA.AperFunction,Conductor*%
G36*
X87743334Y-111920548D02*
G01*
X87787681Y-111949049D01*
X87881344Y-112042712D01*
X88030666Y-112134814D01*
X88030667Y-112134814D01*
X88030670Y-112134816D01*
X88036677Y-112137617D01*
X88089117Y-112183788D01*
X88108271Y-112250981D01*
X88088057Y-112317862D01*
X88036677Y-112362383D01*
X88030670Y-112365183D01*
X87881342Y-112457289D01*
X87787681Y-112550951D01*
X87726358Y-112584436D01*
X87656666Y-112579452D01*
X87612319Y-112550951D01*
X87518657Y-112457289D01*
X87518656Y-112457288D01*
X87369334Y-112365186D01*
X87369330Y-112365184D01*
X87363325Y-112362385D01*
X87310884Y-112316215D01*
X87291728Y-112249023D01*
X87311940Y-112182141D01*
X87363325Y-112137615D01*
X87369322Y-112134817D01*
X87369334Y-112134814D01*
X87518656Y-112042712D01*
X87612319Y-111949049D01*
X87673642Y-111915564D01*
X87743334Y-111920548D01*
G37*
%TD.AperFunction*%
%TA.AperFunction,Conductor*%
G36*
X85856522Y-112026103D02*
G01*
X85876915Y-112039209D01*
X85881339Y-112042707D01*
X85881344Y-112042712D01*
X86030666Y-112134814D01*
X86030667Y-112134814D01*
X86030670Y-112134816D01*
X86036677Y-112137617D01*
X86043990Y-112144056D01*
X86053289Y-112146980D01*
X86069786Y-112166768D01*
X86089117Y-112183788D01*
X86091788Y-112193159D01*
X86098030Y-112200646D01*
X86101210Y-112226211D01*
X86108271Y-112250981D01*
X86105451Y-112260308D01*
X86106655Y-112269981D01*
X86095508Y-112293207D01*
X86088057Y-112317862D01*
X86079836Y-112325863D01*
X86076425Y-112332973D01*
X86060201Y-112344977D01*
X86049316Y-112355573D01*
X86037257Y-112363001D01*
X86030666Y-112365186D01*
X85881344Y-112457288D01*
X85876738Y-112461893D01*
X85865041Y-112469100D01*
X85838054Y-112476468D01*
X85812113Y-112486934D01*
X85804810Y-112485546D01*
X85797639Y-112487505D01*
X85770949Y-112479112D01*
X85743471Y-112473892D01*
X85733052Y-112467196D01*
X85730986Y-112466547D01*
X85729767Y-112465085D01*
X85723091Y-112460795D01*
X85718657Y-112457289D01*
X85718656Y-112457288D01*
X85569334Y-112365186D01*
X85569330Y-112365184D01*
X85563325Y-112362385D01*
X85510884Y-112316215D01*
X85491728Y-112249023D01*
X85511940Y-112182141D01*
X85563325Y-112137615D01*
X85569322Y-112134817D01*
X85569334Y-112134814D01*
X85718656Y-112042712D01*
X85718664Y-112042703D01*
X85723085Y-112039209D01*
X85787879Y-112013066D01*
X85856522Y-112026103D01*
G37*
%TD.AperFunction*%
%TA.AperFunction,Conductor*%
G36*
X69821444Y-109103999D02*
G01*
X69860486Y-109149056D01*
X69864951Y-109157820D01*
X69989890Y-109329786D01*
X70140213Y-109480109D01*
X70312179Y-109605048D01*
X70312181Y-109605049D01*
X70312184Y-109605051D01*
X70321493Y-109609794D01*
X70372290Y-109657766D01*
X70389087Y-109725587D01*
X70366552Y-109791722D01*
X70321505Y-109830760D01*
X70312446Y-109835376D01*
X70312440Y-109835380D01*
X70258282Y-109874727D01*
X70258282Y-109874728D01*
X70890591Y-110507037D01*
X70827007Y-110524075D01*
X70712993Y-110589901D01*
X70619901Y-110682993D01*
X70554075Y-110797007D01*
X70537037Y-110860591D01*
X69904728Y-110228282D01*
X69904727Y-110228282D01*
X69865380Y-110282440D01*
X69860483Y-110292051D01*
X69812506Y-110342845D01*
X69744684Y-110359638D01*
X69678550Y-110337098D01*
X69639516Y-110292048D01*
X69634626Y-110282452D01*
X69595270Y-110228282D01*
X69595269Y-110228282D01*
X68962962Y-110860590D01*
X68945925Y-110797007D01*
X68880099Y-110682993D01*
X68787007Y-110589901D01*
X68672993Y-110524075D01*
X68609409Y-110507037D01*
X69241716Y-109874728D01*
X69187547Y-109835373D01*
X69187547Y-109835372D01*
X69178500Y-109830763D01*
X69127706Y-109782788D01*
X69110912Y-109714966D01*
X69133451Y-109648832D01*
X69178508Y-109609793D01*
X69187816Y-109605051D01*
X69284490Y-109534814D01*
X69359786Y-109480109D01*
X69359788Y-109480106D01*
X69359792Y-109480104D01*
X69510104Y-109329792D01*
X69510106Y-109329788D01*
X69510109Y-109329786D01*
X69635048Y-109157820D01*
X69635050Y-109157817D01*
X69635051Y-109157816D01*
X69639514Y-109149054D01*
X69687488Y-109098259D01*
X69755308Y-109081463D01*
X69821444Y-109103999D01*
G37*
%TD.AperFunction*%
%TA.AperFunction,Conductor*%
G36*
X89612104Y-109495185D02*
G01*
X89613909Y-109496366D01*
X89670821Y-109534394D01*
X89670823Y-109534395D01*
X89670827Y-109534397D01*
X89816498Y-109594735D01*
X89816503Y-109594737D01*
X89953889Y-109622065D01*
X89971153Y-109625499D01*
X89971156Y-109625500D01*
X89971158Y-109625500D01*
X90128844Y-109625500D01*
X90128845Y-109625499D01*
X90283497Y-109594737D01*
X90429179Y-109534394D01*
X90483176Y-109498313D01*
X90503617Y-109491912D01*
X90522104Y-109481090D01*
X90536297Y-109481679D01*
X90549853Y-109477435D01*
X90570509Y-109483101D01*
X90591913Y-109483991D01*
X90612380Y-109494587D01*
X90617233Y-109495919D01*
X90623381Y-109499973D01*
X90792065Y-109618558D01*
X90808574Y-109639291D01*
X90827844Y-109657491D01*
X90830000Y-109666199D01*
X90835588Y-109673217D01*
X90838267Y-109699583D01*
X90844638Y-109725312D01*
X90841744Y-109733803D01*
X90842651Y-109742729D01*
X90830649Y-109766358D01*
X90822100Y-109791447D01*
X90814612Y-109797935D01*
X90811012Y-109805024D01*
X90796890Y-109813291D01*
X90777051Y-109830483D01*
X90767440Y-109835380D01*
X90713282Y-109874727D01*
X90713282Y-109874728D01*
X91345591Y-110507037D01*
X91282007Y-110524075D01*
X91167993Y-110589901D01*
X91074901Y-110682993D01*
X91009075Y-110797007D01*
X90992037Y-110860591D01*
X90359728Y-110228282D01*
X90359727Y-110228282D01*
X90320380Y-110282439D01*
X90223904Y-110471782D01*
X90158242Y-110673872D01*
X90154912Y-110694898D01*
X90124983Y-110758033D01*
X90065671Y-110794964D01*
X90051506Y-110798025D01*
X90042027Y-110799500D01*
X90021158Y-110799500D01*
X89946155Y-110814419D01*
X89943566Y-110814822D01*
X89911412Y-110810578D01*
X89879098Y-110807687D01*
X89876968Y-110806032D01*
X89874297Y-110805680D01*
X89849547Y-110784731D01*
X89823921Y-110764824D01*
X89823023Y-110762281D01*
X89820967Y-110760540D01*
X89811468Y-110729526D01*
X89800677Y-110698934D01*
X89800540Y-110693841D01*
X89800507Y-110693732D01*
X89800534Y-110693632D01*
X89800499Y-110692297D01*
X89800499Y-110499998D01*
X89800498Y-110499981D01*
X89789999Y-110397203D01*
X89789998Y-110397200D01*
X89777551Y-110359638D01*
X89734814Y-110230666D01*
X89642712Y-110081344D01*
X89518656Y-109957288D01*
X89384803Y-109874727D01*
X89369336Y-109865187D01*
X89369331Y-109865185D01*
X89367066Y-109864434D01*
X89226046Y-109817705D01*
X89168603Y-109777933D01*
X89141780Y-109713417D01*
X89154095Y-109644642D01*
X89201638Y-109593442D01*
X89226045Y-109582295D01*
X89369334Y-109534814D01*
X89425821Y-109499973D01*
X89435568Y-109493961D01*
X89452125Y-109489265D01*
X89465729Y-109480523D01*
X89500664Y-109475500D01*
X89545065Y-109475500D01*
X89612104Y-109495185D01*
G37*
%TD.AperFunction*%
%TA.AperFunction,Conductor*%
G36*
X92590270Y-109211717D02*
G01*
X92590270Y-109211716D01*
X92629622Y-109157555D01*
X92634232Y-109148507D01*
X92682205Y-109097709D01*
X92750025Y-109080912D01*
X92816161Y-109103447D01*
X92855204Y-109148504D01*
X92859949Y-109157817D01*
X92984890Y-109329786D01*
X93135213Y-109480109D01*
X93307182Y-109605050D01*
X93315946Y-109609516D01*
X93366742Y-109657491D01*
X93383536Y-109725312D01*
X93360998Y-109791447D01*
X93315946Y-109830484D01*
X93307182Y-109834949D01*
X93135213Y-109959890D01*
X92984890Y-110110213D01*
X92859949Y-110282182D01*
X92855202Y-110291499D01*
X92807227Y-110342293D01*
X92739405Y-110359087D01*
X92673271Y-110336548D01*
X92634234Y-110291495D01*
X92629626Y-110282452D01*
X92590270Y-110228282D01*
X92590269Y-110228282D01*
X91957962Y-110860590D01*
X91940925Y-110797007D01*
X91875099Y-110682993D01*
X91782007Y-110589901D01*
X91667993Y-110524075D01*
X91604409Y-110507037D01*
X92236716Y-109874728D01*
X92182550Y-109835375D01*
X92172954Y-109830486D01*
X92122157Y-109782512D01*
X92105361Y-109714692D01*
X92127897Y-109648556D01*
X92172954Y-109609514D01*
X92182554Y-109604622D01*
X92236716Y-109565270D01*
X92236717Y-109565270D01*
X91604408Y-108932962D01*
X91667993Y-108915925D01*
X91782007Y-108850099D01*
X91875099Y-108757007D01*
X91940925Y-108642993D01*
X91957962Y-108579408D01*
X92590270Y-109211717D01*
G37*
%TD.AperFunction*%
%TA.AperFunction,Conductor*%
G36*
X83917258Y-109258345D02*
G01*
X83919622Y-109258050D01*
X83949133Y-109272193D01*
X83979156Y-109285236D01*
X83981149Y-109287536D01*
X83982630Y-109288246D01*
X84005243Y-109315340D01*
X84007288Y-109318656D01*
X84131344Y-109442712D01*
X84280666Y-109534814D01*
X84423953Y-109582294D01*
X84481396Y-109622065D01*
X84508219Y-109686581D01*
X84495904Y-109755357D01*
X84448361Y-109806557D01*
X84423952Y-109817705D01*
X84280666Y-109865186D01*
X84280663Y-109865187D01*
X84131342Y-109957289D01*
X84007288Y-110081343D01*
X84007283Y-110081349D01*
X84005241Y-110084661D01*
X84003247Y-110086453D01*
X84002807Y-110087011D01*
X84002711Y-110086935D01*
X83953291Y-110131383D01*
X83884328Y-110142602D01*
X83820247Y-110114755D01*
X83794168Y-110084656D01*
X83792319Y-110081659D01*
X83792316Y-110081655D01*
X83668345Y-109957684D01*
X83519124Y-109865643D01*
X83519119Y-109865641D01*
X83374460Y-109817706D01*
X83317015Y-109777933D01*
X83290192Y-109713417D01*
X83302507Y-109644642D01*
X83350050Y-109593442D01*
X83374460Y-109582294D01*
X83519119Y-109534358D01*
X83519124Y-109534356D01*
X83668345Y-109442315D01*
X83792318Y-109318342D01*
X83794165Y-109315348D01*
X83795935Y-109313755D01*
X83796649Y-109311481D01*
X83821787Y-109290499D01*
X83846110Y-109268621D01*
X83848460Y-109268238D01*
X83850291Y-109266711D01*
X83882777Y-109262652D01*
X83915073Y-109257396D01*
X83917258Y-109258345D01*
G37*
%TD.AperFunction*%
%TA.AperFunction,Conductor*%
G36*
X87743334Y-109320548D02*
G01*
X87787681Y-109349049D01*
X87881344Y-109442712D01*
X88030666Y-109534814D01*
X88173953Y-109582294D01*
X88231396Y-109622065D01*
X88258219Y-109686581D01*
X88245904Y-109755357D01*
X88198361Y-109806557D01*
X88173952Y-109817705D01*
X88030666Y-109865186D01*
X88030663Y-109865187D01*
X87881342Y-109957289D01*
X87787681Y-110050951D01*
X87726358Y-110084436D01*
X87656666Y-110079452D01*
X87612319Y-110050951D01*
X87518657Y-109957289D01*
X87518656Y-109957288D01*
X87384803Y-109874727D01*
X87369336Y-109865187D01*
X87369331Y-109865185D01*
X87367066Y-109864434D01*
X87226046Y-109817705D01*
X87168603Y-109777933D01*
X87141780Y-109713417D01*
X87154095Y-109644642D01*
X87201638Y-109593442D01*
X87226045Y-109582295D01*
X87369334Y-109534814D01*
X87518656Y-109442712D01*
X87612319Y-109349049D01*
X87673642Y-109315564D01*
X87743334Y-109320548D01*
G37*
%TD.AperFunction*%
%TA.AperFunction,Conductor*%
G36*
X85856522Y-109426103D02*
G01*
X85876915Y-109439209D01*
X85881339Y-109442707D01*
X85881344Y-109442712D01*
X86030666Y-109534814D01*
X86173953Y-109582294D01*
X86231396Y-109622065D01*
X86258219Y-109686581D01*
X86245904Y-109755357D01*
X86198361Y-109806557D01*
X86173952Y-109817705D01*
X86030666Y-109865186D01*
X86030663Y-109865187D01*
X85881342Y-109957289D01*
X85876909Y-109960795D01*
X85812113Y-109986934D01*
X85743471Y-109973892D01*
X85723091Y-109960795D01*
X85718657Y-109957289D01*
X85718656Y-109957288D01*
X85584803Y-109874727D01*
X85569336Y-109865187D01*
X85569331Y-109865185D01*
X85567066Y-109864434D01*
X85426046Y-109817705D01*
X85368603Y-109777933D01*
X85341780Y-109713417D01*
X85354095Y-109644642D01*
X85401638Y-109593442D01*
X85426045Y-109582295D01*
X85569334Y-109534814D01*
X85718656Y-109442712D01*
X85718664Y-109442703D01*
X85723085Y-109439209D01*
X85787879Y-109413066D01*
X85856522Y-109426103D01*
G37*
%TD.AperFunction*%
%TA.AperFunction,Conductor*%
G36*
X90055567Y-103066892D02*
G01*
X90111500Y-103108764D01*
X90135917Y-103174228D01*
X90134706Y-103202472D01*
X90125000Y-103263753D01*
X90125000Y-103476246D01*
X90158242Y-103686127D01*
X90158242Y-103686130D01*
X90223904Y-103888217D01*
X90320375Y-104077550D01*
X90359728Y-104131716D01*
X90992036Y-103499407D01*
X91009075Y-103562993D01*
X91074901Y-103677007D01*
X91167993Y-103770099D01*
X91282007Y-103835925D01*
X91345591Y-103852962D01*
X90744971Y-104453581D01*
X90823711Y-104570895D01*
X90824920Y-104574729D01*
X90827844Y-104577491D01*
X90835343Y-104607778D01*
X90844727Y-104637529D01*
X90843671Y-104641408D01*
X90844638Y-104645312D01*
X90834573Y-104674844D01*
X90826383Y-104704947D01*
X90823397Y-104707640D01*
X90822100Y-104711447D01*
X90777051Y-104750483D01*
X90767440Y-104755380D01*
X90713282Y-104794727D01*
X90713282Y-104794728D01*
X91345591Y-105427037D01*
X91282007Y-105444075D01*
X91167993Y-105509901D01*
X91074901Y-105602993D01*
X91009075Y-105717007D01*
X90992037Y-105780591D01*
X90359728Y-105148282D01*
X90359727Y-105148282D01*
X90320380Y-105202439D01*
X90223904Y-105391782D01*
X90158242Y-105593869D01*
X90158242Y-105593872D01*
X90125000Y-105803753D01*
X90125000Y-106016246D01*
X90158242Y-106226127D01*
X90158242Y-106226130D01*
X90223904Y-106428217D01*
X90320375Y-106617550D01*
X90359728Y-106671716D01*
X90992037Y-106039408D01*
X91009075Y-106102993D01*
X91074901Y-106217007D01*
X91167993Y-106310099D01*
X91282007Y-106375925D01*
X91345591Y-106392962D01*
X90744971Y-106993581D01*
X90823711Y-107110895D01*
X90824920Y-107114729D01*
X90827844Y-107117491D01*
X90835343Y-107147778D01*
X90844727Y-107177529D01*
X90843671Y-107181408D01*
X90844638Y-107185312D01*
X90834573Y-107214844D01*
X90826383Y-107244947D01*
X90823397Y-107247640D01*
X90822100Y-107251447D01*
X90777051Y-107290483D01*
X90767440Y-107295380D01*
X90713282Y-107334727D01*
X90713282Y-107334728D01*
X91345591Y-107967037D01*
X91282007Y-107984075D01*
X91167993Y-108049901D01*
X91074901Y-108142993D01*
X91009075Y-108257007D01*
X90992037Y-108320591D01*
X90359728Y-107688282D01*
X90359727Y-107688282D01*
X90320380Y-107742439D01*
X90223904Y-107931785D01*
X90223903Y-107931786D01*
X90221617Y-107938823D01*
X90208962Y-107957328D01*
X90200435Y-107978063D01*
X90189622Y-107985610D01*
X90182178Y-107996497D01*
X90161526Y-108005223D01*
X90143143Y-108018056D01*
X90123603Y-108021247D01*
X90117818Y-108023692D01*
X90108425Y-108024409D01*
X90106045Y-108024500D01*
X89971158Y-108024500D01*
X89939062Y-108030884D01*
X89929236Y-108031260D01*
X89904504Y-108025014D01*
X89879097Y-108022740D01*
X89871196Y-108016602D01*
X89861494Y-108014152D01*
X89844063Y-107995524D01*
X89823920Y-107979876D01*
X89820591Y-107970439D01*
X89813755Y-107963134D01*
X89809162Y-107938042D01*
X89800677Y-107913986D01*
X89800499Y-107907351D01*
X89800499Y-107899998D01*
X89800498Y-107899981D01*
X89789999Y-107797203D01*
X89789998Y-107797200D01*
X89753906Y-107688282D01*
X89734814Y-107630666D01*
X89642712Y-107481344D01*
X89518656Y-107357288D01*
X89369334Y-107265186D01*
X89369330Y-107265184D01*
X89363325Y-107262385D01*
X89310884Y-107216215D01*
X89291728Y-107149023D01*
X89311940Y-107082141D01*
X89363325Y-107037615D01*
X89369322Y-107034817D01*
X89369334Y-107034814D01*
X89518656Y-106942712D01*
X89642712Y-106818656D01*
X89734814Y-106669334D01*
X89789999Y-106502797D01*
X89800500Y-106400009D01*
X89800499Y-105399992D01*
X89799660Y-105391782D01*
X89789999Y-105297203D01*
X89789998Y-105297200D01*
X89760757Y-105208957D01*
X89734814Y-105130666D01*
X89642712Y-104981344D01*
X89518656Y-104857288D01*
X89369334Y-104765186D01*
X89369330Y-104765184D01*
X89363325Y-104762385D01*
X89310884Y-104716215D01*
X89291728Y-104649023D01*
X89311940Y-104582141D01*
X89363325Y-104537615D01*
X89369322Y-104534817D01*
X89369334Y-104534814D01*
X89518656Y-104442712D01*
X89642712Y-104318656D01*
X89734814Y-104169334D01*
X89789999Y-104002797D01*
X89800500Y-103900009D01*
X89800499Y-103270807D01*
X89820183Y-103203769D01*
X89836818Y-103183127D01*
X89924552Y-103095393D01*
X89985875Y-103061908D01*
X90055567Y-103066892D01*
G37*
%TD.AperFunction*%
%TA.AperFunction,Conductor*%
G36*
X92590270Y-106671717D02*
G01*
X92590270Y-106671716D01*
X92629622Y-106617555D01*
X92634232Y-106608507D01*
X92682205Y-106557709D01*
X92750025Y-106540912D01*
X92816161Y-106563447D01*
X92855204Y-106608504D01*
X92859949Y-106617817D01*
X92984890Y-106789786D01*
X93135213Y-106940109D01*
X93307182Y-107065050D01*
X93315946Y-107069516D01*
X93366742Y-107117491D01*
X93383536Y-107185312D01*
X93360998Y-107251447D01*
X93315946Y-107290484D01*
X93307182Y-107294949D01*
X93135213Y-107419890D01*
X92984890Y-107570213D01*
X92859949Y-107742182D01*
X92855202Y-107751499D01*
X92807227Y-107802293D01*
X92739405Y-107819087D01*
X92673271Y-107796548D01*
X92634234Y-107751495D01*
X92629626Y-107742452D01*
X92590270Y-107688282D01*
X92590269Y-107688282D01*
X91957962Y-108320590D01*
X91940925Y-108257007D01*
X91875099Y-108142993D01*
X91782007Y-108049901D01*
X91667993Y-107984075D01*
X91604409Y-107967037D01*
X92236716Y-107334728D01*
X92182550Y-107295375D01*
X92172954Y-107290486D01*
X92122157Y-107242512D01*
X92105361Y-107174692D01*
X92127897Y-107108556D01*
X92172954Y-107069514D01*
X92182554Y-107064622D01*
X92236716Y-107025270D01*
X92236717Y-107025270D01*
X91604408Y-106392962D01*
X91667993Y-106375925D01*
X91782007Y-106310099D01*
X91875099Y-106217007D01*
X91940925Y-106102993D01*
X91957962Y-106039408D01*
X92590270Y-106671717D01*
G37*
%TD.AperFunction*%
%TA.AperFunction,Conductor*%
G36*
X83917258Y-106758345D02*
G01*
X83919622Y-106758050D01*
X83949133Y-106772193D01*
X83979156Y-106785236D01*
X83981149Y-106787536D01*
X83982630Y-106788246D01*
X84005243Y-106815340D01*
X84007288Y-106818656D01*
X84131344Y-106942712D01*
X84280666Y-107034814D01*
X84280667Y-107034814D01*
X84280670Y-107034816D01*
X84286677Y-107037617D01*
X84339117Y-107083788D01*
X84358271Y-107150981D01*
X84338057Y-107217862D01*
X84286677Y-107262383D01*
X84280670Y-107265183D01*
X84131342Y-107357289D01*
X84007288Y-107481343D01*
X84007283Y-107481349D01*
X84005241Y-107484661D01*
X84003247Y-107486453D01*
X84002807Y-107487011D01*
X84002711Y-107486935D01*
X83953291Y-107531383D01*
X83884328Y-107542602D01*
X83820247Y-107514755D01*
X83794168Y-107484656D01*
X83792319Y-107481659D01*
X83792316Y-107481655D01*
X83668345Y-107357684D01*
X83519124Y-107265643D01*
X83512579Y-107262592D01*
X83513894Y-107259771D01*
X83467915Y-107227947D01*
X83441083Y-107163435D01*
X83453388Y-107094657D01*
X83500924Y-107043451D01*
X83512855Y-107038001D01*
X83512579Y-107037408D01*
X83519124Y-107034356D01*
X83668345Y-106942315D01*
X83792318Y-106818342D01*
X83794165Y-106815348D01*
X83795935Y-106813755D01*
X83796649Y-106811481D01*
X83821787Y-106790499D01*
X83846110Y-106768621D01*
X83848460Y-106768238D01*
X83850291Y-106766711D01*
X83882777Y-106762652D01*
X83915073Y-106757396D01*
X83917258Y-106758345D01*
G37*
%TD.AperFunction*%
%TA.AperFunction,Conductor*%
G36*
X92590270Y-104131717D02*
G01*
X92590270Y-104131716D01*
X92629622Y-104077555D01*
X92634232Y-104068507D01*
X92682205Y-104017709D01*
X92750025Y-104000912D01*
X92816161Y-104023447D01*
X92855204Y-104068504D01*
X92859949Y-104077817D01*
X92984890Y-104249786D01*
X93135213Y-104400109D01*
X93307182Y-104525050D01*
X93315946Y-104529516D01*
X93366742Y-104577491D01*
X93383536Y-104645312D01*
X93360998Y-104711447D01*
X93315946Y-104750484D01*
X93307182Y-104754949D01*
X93135213Y-104879890D01*
X92984890Y-105030213D01*
X92859949Y-105202182D01*
X92855202Y-105211499D01*
X92807227Y-105262293D01*
X92739405Y-105279087D01*
X92673271Y-105256548D01*
X92634234Y-105211495D01*
X92629626Y-105202452D01*
X92590270Y-105148282D01*
X92590269Y-105148282D01*
X91957962Y-105780590D01*
X91940925Y-105717007D01*
X91875099Y-105602993D01*
X91782007Y-105509901D01*
X91667993Y-105444075D01*
X91604409Y-105427037D01*
X92236716Y-104794728D01*
X92182550Y-104755375D01*
X92172954Y-104750486D01*
X92122157Y-104702512D01*
X92105361Y-104634692D01*
X92127897Y-104568556D01*
X92172954Y-104529514D01*
X92182554Y-104524622D01*
X92236716Y-104485270D01*
X92236717Y-104485270D01*
X91604408Y-103852962D01*
X91667993Y-103835925D01*
X91782007Y-103770099D01*
X91875099Y-103677007D01*
X91940925Y-103562993D01*
X91957962Y-103499409D01*
X92590270Y-104131717D01*
G37*
%TD.AperFunction*%
%TA.AperFunction,Conductor*%
G36*
X83917258Y-104258345D02*
G01*
X83919622Y-104258050D01*
X83949133Y-104272193D01*
X83979156Y-104285236D01*
X83981149Y-104287536D01*
X83982630Y-104288246D01*
X84005243Y-104315340D01*
X84007288Y-104318656D01*
X84131344Y-104442712D01*
X84280666Y-104534814D01*
X84280667Y-104534814D01*
X84280670Y-104534816D01*
X84286677Y-104537617D01*
X84339117Y-104583788D01*
X84358271Y-104650981D01*
X84338057Y-104717862D01*
X84286677Y-104762383D01*
X84280670Y-104765183D01*
X84131342Y-104857289D01*
X84007288Y-104981343D01*
X84007283Y-104981349D01*
X84005241Y-104984661D01*
X84003247Y-104986453D01*
X84002807Y-104987011D01*
X84002711Y-104986935D01*
X83953291Y-105031383D01*
X83884328Y-105042602D01*
X83820247Y-105014755D01*
X83794168Y-104984656D01*
X83792319Y-104981659D01*
X83792316Y-104981655D01*
X83668345Y-104857684D01*
X83519124Y-104765643D01*
X83512579Y-104762592D01*
X83513894Y-104759771D01*
X83467915Y-104727947D01*
X83441083Y-104663435D01*
X83453388Y-104594657D01*
X83500924Y-104543451D01*
X83512855Y-104538001D01*
X83512579Y-104537408D01*
X83519124Y-104534356D01*
X83668345Y-104442315D01*
X83792318Y-104318342D01*
X83794165Y-104315348D01*
X83795935Y-104313755D01*
X83796649Y-104311481D01*
X83821787Y-104290499D01*
X83846110Y-104268621D01*
X83848460Y-104268238D01*
X83850291Y-104266711D01*
X83882777Y-104262652D01*
X83915073Y-104257396D01*
X83917258Y-104258345D01*
G37*
%TD.AperFunction*%
%TA.AperFunction,Conductor*%
G36*
X86162104Y-85170185D02*
G01*
X86163909Y-85171366D01*
X86220821Y-85209394D01*
X86220823Y-85209395D01*
X86220827Y-85209397D01*
X86367452Y-85270130D01*
X86421856Y-85313970D01*
X86443921Y-85380264D01*
X86426642Y-85447964D01*
X86407681Y-85472372D01*
X85497068Y-86382984D01*
X85435745Y-86416469D01*
X85433579Y-86416920D01*
X85366508Y-86430261D01*
X85366498Y-86430264D01*
X85220827Y-86490602D01*
X85220814Y-86490609D01*
X85089711Y-86578210D01*
X85089707Y-86578213D01*
X84978213Y-86689707D01*
X84978210Y-86689711D01*
X84890609Y-86820814D01*
X84890602Y-86820827D01*
X84830264Y-86966498D01*
X84830261Y-86966510D01*
X84799500Y-87121153D01*
X84799500Y-87278846D01*
X84830261Y-87433489D01*
X84830264Y-87433501D01*
X84890602Y-87579172D01*
X84890609Y-87579185D01*
X84978210Y-87710288D01*
X84978213Y-87710292D01*
X85089707Y-87821786D01*
X85089715Y-87821792D01*
X85194495Y-87891804D01*
X85239301Y-87945416D01*
X85248008Y-88014741D01*
X85228708Y-88063796D01*
X85190608Y-88120816D01*
X85190602Y-88120827D01*
X85130264Y-88266498D01*
X85130261Y-88266510D01*
X85099500Y-88421153D01*
X85099500Y-88578846D01*
X85130261Y-88733489D01*
X85130264Y-88733501D01*
X85190602Y-88879172D01*
X85190609Y-88879185D01*
X85278210Y-89010288D01*
X85278213Y-89010292D01*
X85389707Y-89121786D01*
X85389711Y-89121789D01*
X85520814Y-89209390D01*
X85520827Y-89209397D01*
X85666498Y-89269735D01*
X85666503Y-89269737D01*
X85821153Y-89300499D01*
X85821156Y-89300500D01*
X85821158Y-89300500D01*
X85978844Y-89300500D01*
X86078132Y-89280750D01*
X86147724Y-89286977D01*
X86202901Y-89329840D01*
X86226146Y-89395729D01*
X86210078Y-89463726D01*
X86190005Y-89490048D01*
X84390819Y-91289234D01*
X84329496Y-91322719D01*
X84259804Y-91317735D01*
X84203871Y-91275863D01*
X84181521Y-91225744D01*
X84175630Y-91196130D01*
X84169737Y-91166503D01*
X84157730Y-91137516D01*
X84109397Y-91020827D01*
X84109390Y-91020814D01*
X84021789Y-90889711D01*
X84021786Y-90889707D01*
X83910292Y-90778213D01*
X83905581Y-90774347D01*
X83906565Y-90773147D01*
X83866633Y-90725365D01*
X83857927Y-90656040D01*
X83865108Y-90630052D01*
X83869949Y-90617877D01*
X83876465Y-90608127D01*
X83925501Y-90489744D01*
X83925501Y-90489743D01*
X83950500Y-90364069D01*
X83950500Y-87704935D01*
X83970185Y-87637896D01*
X83971366Y-87636090D01*
X84009394Y-87579179D01*
X84069737Y-87433497D01*
X84100500Y-87278842D01*
X84100500Y-87121158D01*
X84100500Y-87121155D01*
X84100499Y-87121153D01*
X84098307Y-87110131D01*
X84069737Y-86966503D01*
X84066842Y-86959514D01*
X84009397Y-86820827D01*
X84009390Y-86820814D01*
X83921789Y-86689711D01*
X83921786Y-86689707D01*
X83810292Y-86578213D01*
X83810288Y-86578210D01*
X83679185Y-86490609D01*
X83679172Y-86490602D01*
X83533501Y-86430264D01*
X83533489Y-86430261D01*
X83378845Y-86399500D01*
X83378842Y-86399500D01*
X83221158Y-86399500D01*
X83221155Y-86399500D01*
X83066510Y-86430261D01*
X83066502Y-86430263D01*
X83019878Y-86449575D01*
X82950408Y-86457042D01*
X82887930Y-86425766D01*
X82852278Y-86365677D01*
X82854773Y-86295852D01*
X82884747Y-86247331D01*
X82921786Y-86210292D01*
X82921789Y-86210289D01*
X83009394Y-86079179D01*
X83069737Y-85933497D01*
X83100500Y-85778842D01*
X83100500Y-85621158D01*
X83100500Y-85621155D01*
X83100499Y-85621153D01*
X83069737Y-85466503D01*
X83028314Y-85366498D01*
X83009863Y-85321952D01*
X83002394Y-85252483D01*
X83033669Y-85190004D01*
X83093759Y-85154352D01*
X83124424Y-85150500D01*
X86095065Y-85150500D01*
X86162104Y-85170185D01*
G37*
%TD.AperFunction*%
%TA.AperFunction,Conductor*%
G36*
X92838944Y-88993999D02*
G01*
X92877984Y-89039054D01*
X92878777Y-89040609D01*
X92882451Y-89047820D01*
X93007390Y-89219786D01*
X93157713Y-89370109D01*
X93329682Y-89495050D01*
X93338446Y-89499516D01*
X93389242Y-89547491D01*
X93406036Y-89615312D01*
X93383498Y-89681447D01*
X93338446Y-89720484D01*
X93329682Y-89724949D01*
X93157713Y-89849890D01*
X93007390Y-90000213D01*
X92882449Y-90172182D01*
X92877702Y-90181499D01*
X92829727Y-90232293D01*
X92761905Y-90249087D01*
X92695771Y-90226548D01*
X92656734Y-90181495D01*
X92652126Y-90172452D01*
X92612770Y-90118282D01*
X92612769Y-90118282D01*
X91980462Y-90750590D01*
X91963425Y-90687007D01*
X91897599Y-90572993D01*
X91804507Y-90479901D01*
X91690493Y-90414075D01*
X91626908Y-90397037D01*
X92259216Y-89764728D01*
X92205047Y-89725373D01*
X92205047Y-89725372D01*
X92196000Y-89720763D01*
X92145206Y-89672788D01*
X92128412Y-89604966D01*
X92150951Y-89538832D01*
X92196008Y-89499793D01*
X92205316Y-89495051D01*
X92329222Y-89405029D01*
X92377286Y-89370109D01*
X92377288Y-89370106D01*
X92377292Y-89370104D01*
X92527604Y-89219792D01*
X92527606Y-89219788D01*
X92527609Y-89219786D01*
X92652548Y-89047820D01*
X92652547Y-89047820D01*
X92652551Y-89047816D01*
X92657014Y-89039054D01*
X92704988Y-88988259D01*
X92772808Y-88971463D01*
X92838944Y-88993999D01*
G37*
%TD.AperFunction*%
%TA.AperFunction,Conductor*%
G36*
X70554075Y-88322993D02*
G01*
X70619901Y-88437007D01*
X70712993Y-88530099D01*
X70827007Y-88595925D01*
X70890590Y-88612962D01*
X70258282Y-89245269D01*
X70258282Y-89245270D01*
X70312452Y-89284626D01*
X70312451Y-89284626D01*
X70321495Y-89289234D01*
X70372292Y-89337208D01*
X70389087Y-89405029D01*
X70366550Y-89471164D01*
X70321499Y-89510202D01*
X70312182Y-89514949D01*
X70140213Y-89639890D01*
X69989896Y-89790207D01*
X69961824Y-89828846D01*
X69874973Y-89948385D01*
X69870641Y-89951726D01*
X69868369Y-89956703D01*
X69843272Y-89972831D01*
X69819645Y-89991051D01*
X69812971Y-89992304D01*
X69809591Y-89994477D01*
X69774656Y-89999500D01*
X69725344Y-89999500D01*
X69658305Y-89979815D01*
X69625026Y-89948386D01*
X69510104Y-89790208D01*
X69359792Y-89639896D01*
X69359786Y-89639890D01*
X69187817Y-89514949D01*
X69178504Y-89510204D01*
X69127707Y-89462230D01*
X69110912Y-89394409D01*
X69133449Y-89328274D01*
X69178507Y-89289232D01*
X69187555Y-89284622D01*
X69241716Y-89245270D01*
X69241717Y-89245270D01*
X68609408Y-88612962D01*
X68672993Y-88595925D01*
X68787007Y-88530099D01*
X68880099Y-88437007D01*
X68945925Y-88322993D01*
X68962962Y-88259408D01*
X69595270Y-88891717D01*
X69595270Y-88891716D01*
X69634622Y-88837554D01*
X69639514Y-88827954D01*
X69687488Y-88777157D01*
X69755308Y-88760361D01*
X69821444Y-88782897D01*
X69860486Y-88827954D01*
X69865375Y-88837550D01*
X69904728Y-88891716D01*
X70537037Y-88259408D01*
X70554075Y-88322993D01*
G37*
%TD.AperFunction*%
%TA.AperFunction,Conductor*%
G36*
X69821444Y-86243999D02*
G01*
X69860486Y-86289056D01*
X69864951Y-86297820D01*
X69989890Y-86469786D01*
X70140213Y-86620109D01*
X70312179Y-86745048D01*
X70312181Y-86745049D01*
X70312184Y-86745051D01*
X70321493Y-86749794D01*
X70372290Y-86797766D01*
X70389087Y-86865587D01*
X70366552Y-86931722D01*
X70321505Y-86970760D01*
X70312446Y-86975376D01*
X70312440Y-86975380D01*
X70258282Y-87014727D01*
X70258282Y-87014728D01*
X70890591Y-87647037D01*
X70827007Y-87664075D01*
X70712993Y-87729901D01*
X70619901Y-87822993D01*
X70554075Y-87937007D01*
X70537037Y-88000591D01*
X69904728Y-87368282D01*
X69904727Y-87368282D01*
X69865380Y-87422440D01*
X69860483Y-87432051D01*
X69812506Y-87482845D01*
X69744684Y-87499638D01*
X69678550Y-87477098D01*
X69639516Y-87432048D01*
X69634626Y-87422452D01*
X69595270Y-87368282D01*
X69595269Y-87368282D01*
X68962962Y-88000590D01*
X68945925Y-87937007D01*
X68880099Y-87822993D01*
X68787007Y-87729901D01*
X68672993Y-87664075D01*
X68609409Y-87647037D01*
X69241716Y-87014728D01*
X69187547Y-86975373D01*
X69187547Y-86975372D01*
X69178500Y-86970763D01*
X69127706Y-86922788D01*
X69110912Y-86854966D01*
X69133451Y-86788832D01*
X69178508Y-86749793D01*
X69187816Y-86745051D01*
X69314974Y-86652666D01*
X69359786Y-86620109D01*
X69359788Y-86620106D01*
X69359792Y-86620104D01*
X69510104Y-86469792D01*
X69510106Y-86469788D01*
X69510109Y-86469786D01*
X69635048Y-86297820D01*
X69635047Y-86297820D01*
X69635051Y-86297816D01*
X69639514Y-86289054D01*
X69687488Y-86238259D01*
X69755308Y-86221463D01*
X69821444Y-86243999D01*
G37*
%TD.AperFunction*%
%TA.AperFunction,Conductor*%
G36*
X93571575Y-78372993D02*
G01*
X93637401Y-78487007D01*
X93730493Y-78580099D01*
X93844507Y-78645925D01*
X93908090Y-78662962D01*
X93275782Y-79295269D01*
X93275782Y-79295270D01*
X93329952Y-79334626D01*
X93329951Y-79334626D01*
X93338995Y-79339234D01*
X93389792Y-79387208D01*
X93406587Y-79455029D01*
X93384050Y-79521164D01*
X93338999Y-79560202D01*
X93329682Y-79564949D01*
X93157713Y-79689890D01*
X93007390Y-79840213D01*
X92882449Y-80012182D01*
X92877984Y-80020946D01*
X92830009Y-80071742D01*
X92762188Y-80088536D01*
X92696053Y-80065998D01*
X92657016Y-80020946D01*
X92652550Y-80012182D01*
X92527609Y-79840213D01*
X92377286Y-79689890D01*
X92205320Y-79564951D01*
X92204615Y-79564591D01*
X92196554Y-79560485D01*
X92145759Y-79512512D01*
X92128963Y-79444692D01*
X92151499Y-79378556D01*
X92196554Y-79339515D01*
X92205316Y-79335051D01*
X92310759Y-79258443D01*
X92377286Y-79210109D01*
X92377288Y-79210106D01*
X92377292Y-79210104D01*
X92527604Y-79059792D01*
X92527606Y-79059788D01*
X92527609Y-79059786D01*
X92613390Y-78941717D01*
X92652551Y-78887816D01*
X92657293Y-78878508D01*
X92705263Y-78827711D01*
X92773083Y-78810911D01*
X92839219Y-78833445D01*
X92878263Y-78878500D01*
X92882873Y-78887547D01*
X92922228Y-78941716D01*
X93554537Y-78309408D01*
X93571575Y-78372993D01*
G37*
%TD.AperFunction*%
%TA.AperFunction,Conductor*%
G36*
X92838944Y-76293999D02*
G01*
X92877986Y-76339056D01*
X92882451Y-76347820D01*
X93007390Y-76519786D01*
X93157713Y-76670109D01*
X93329679Y-76795048D01*
X93329681Y-76795049D01*
X93329684Y-76795051D01*
X93338993Y-76799794D01*
X93389790Y-76847766D01*
X93406587Y-76915587D01*
X93384052Y-76981722D01*
X93339005Y-77020760D01*
X93329946Y-77025376D01*
X93329940Y-77025380D01*
X93275782Y-77064727D01*
X93275782Y-77064728D01*
X93908091Y-77697037D01*
X93844507Y-77714075D01*
X93730493Y-77779901D01*
X93637401Y-77872993D01*
X93571575Y-77987007D01*
X93554537Y-78050591D01*
X92922228Y-77418282D01*
X92922227Y-77418282D01*
X92882880Y-77472440D01*
X92882876Y-77472446D01*
X92878260Y-77481505D01*
X92830281Y-77532297D01*
X92762459Y-77549087D01*
X92696326Y-77526543D01*
X92657294Y-77481493D01*
X92652551Y-77472184D01*
X92652549Y-77472181D01*
X92652548Y-77472179D01*
X92527609Y-77300213D01*
X92377286Y-77149890D01*
X92205320Y-77024951D01*
X92197100Y-77020763D01*
X92196554Y-77020485D01*
X92145759Y-76972512D01*
X92128963Y-76904692D01*
X92151499Y-76838556D01*
X92196554Y-76799515D01*
X92205316Y-76795051D01*
X92250185Y-76762452D01*
X92377286Y-76670109D01*
X92377288Y-76670106D01*
X92377292Y-76670104D01*
X92527604Y-76519792D01*
X92527606Y-76519788D01*
X92527609Y-76519786D01*
X92652548Y-76347820D01*
X92652547Y-76347820D01*
X92652551Y-76347816D01*
X92657014Y-76339054D01*
X92704988Y-76288259D01*
X92772808Y-76271463D01*
X92838944Y-76293999D01*
G37*
%TD.AperFunction*%
%TA.AperFunction,Conductor*%
G36*
X90393230Y-71354944D02*
G01*
X90430276Y-71388702D01*
X90467390Y-71439785D01*
X90467394Y-71439790D01*
X90617713Y-71590109D01*
X90789679Y-71715048D01*
X90789681Y-71715049D01*
X90789684Y-71715051D01*
X90798993Y-71719794D01*
X90849790Y-71767766D01*
X90866587Y-71835587D01*
X90844052Y-71901722D01*
X90799005Y-71940760D01*
X90789946Y-71945376D01*
X90789940Y-71945380D01*
X90735782Y-71984727D01*
X90735782Y-71984728D01*
X91368091Y-72617037D01*
X91304507Y-72634075D01*
X91190493Y-72699901D01*
X91097401Y-72792993D01*
X91031575Y-72907007D01*
X91014537Y-72970591D01*
X90382228Y-72338282D01*
X90382227Y-72338282D01*
X90342880Y-72392439D01*
X90246404Y-72581782D01*
X90180742Y-72783869D01*
X90180742Y-72783872D01*
X90147500Y-72993753D01*
X90147500Y-73206246D01*
X90180742Y-73416127D01*
X90180742Y-73416130D01*
X90246404Y-73618217D01*
X90262385Y-73649582D01*
X90275280Y-73718251D01*
X90249003Y-73782991D01*
X90199358Y-73820433D01*
X90191883Y-73823529D01*
X90191866Y-73823538D01*
X90085331Y-73894723D01*
X90085327Y-73894726D01*
X89662181Y-74317873D01*
X89600858Y-74351358D01*
X89531166Y-74346374D01*
X89475233Y-74304502D01*
X89450816Y-74239038D01*
X89450500Y-74230192D01*
X89450500Y-72320808D01*
X89459143Y-72291372D01*
X89465666Y-72261384D01*
X89469422Y-72256366D01*
X89470185Y-72253769D01*
X89486811Y-72233134D01*
X89505277Y-72214669D01*
X89505277Y-72214668D01*
X90105276Y-71614669D01*
X90176465Y-71508127D01*
X90215399Y-71414132D01*
X90259237Y-71359732D01*
X90325531Y-71337666D01*
X90393230Y-71354944D01*
G37*
%TD.AperFunction*%
%TA.AperFunction,Conductor*%
G36*
X88905703Y-64809725D02*
G01*
X88927608Y-64834557D01*
X88928611Y-64836057D01*
X88949481Y-64902737D01*
X88949500Y-64904935D01*
X88949500Y-70879192D01*
X88940855Y-70908632D01*
X88934332Y-70938619D01*
X88930577Y-70943634D01*
X88929815Y-70946231D01*
X88913181Y-70966873D01*
X88912181Y-70967873D01*
X88850858Y-71001358D01*
X88781166Y-70996374D01*
X88725233Y-70954502D01*
X88700816Y-70889038D01*
X88700500Y-70880192D01*
X88700500Y-64903438D01*
X88720185Y-64836399D01*
X88772989Y-64790644D01*
X88842147Y-64780700D01*
X88905703Y-64809725D01*
G37*
%TD.AperFunction*%
%TA.AperFunction,Conductor*%
G36*
X84793833Y-64403626D02*
G01*
X84849767Y-64445498D01*
X84874184Y-64510962D01*
X84874500Y-64519808D01*
X84874500Y-68380192D01*
X84854815Y-68447231D01*
X84802011Y-68492986D01*
X84732853Y-68502930D01*
X84669297Y-68473905D01*
X84662819Y-68467873D01*
X81907127Y-65712181D01*
X81873642Y-65650858D01*
X81878626Y-65581166D01*
X81920498Y-65525233D01*
X81985962Y-65500816D01*
X81994808Y-65500500D01*
X82103844Y-65500500D01*
X82103845Y-65500499D01*
X82258497Y-65469737D01*
X82404179Y-65409394D01*
X82461044Y-65371397D01*
X82527721Y-65350520D01*
X82529935Y-65350500D01*
X83539071Y-65350500D01*
X83623615Y-65333682D01*
X83664744Y-65325501D01*
X83783127Y-65276465D01*
X83889669Y-65205277D01*
X84662819Y-64432127D01*
X84724142Y-64398642D01*
X84793833Y-64403626D01*
G37*
%TD.AperFunction*%
%TA.AperFunction,Conductor*%
G36*
X93571575Y-65672993D02*
G01*
X93637401Y-65787007D01*
X93730493Y-65880099D01*
X93844507Y-65945925D01*
X93908090Y-65962962D01*
X93275782Y-66595269D01*
X93275782Y-66595270D01*
X93329952Y-66634626D01*
X93329951Y-66634626D01*
X93338995Y-66639234D01*
X93389792Y-66687208D01*
X93406587Y-66755029D01*
X93384050Y-66821164D01*
X93338999Y-66860202D01*
X93329682Y-66864949D01*
X93157713Y-66989890D01*
X93007390Y-67140213D01*
X92882449Y-67312182D01*
X92877984Y-67320946D01*
X92830009Y-67371742D01*
X92762188Y-67388536D01*
X92696053Y-67365998D01*
X92657016Y-67320946D01*
X92652550Y-67312182D01*
X92527609Y-67140213D01*
X92377286Y-66989890D01*
X92205320Y-66864951D01*
X92204615Y-66864591D01*
X92196554Y-66860485D01*
X92145759Y-66812512D01*
X92128963Y-66744692D01*
X92151499Y-66678556D01*
X92196554Y-66639515D01*
X92205316Y-66635051D01*
X92343839Y-66534409D01*
X92377286Y-66510109D01*
X92377288Y-66510106D01*
X92377292Y-66510104D01*
X92527604Y-66359792D01*
X92527606Y-66359788D01*
X92527609Y-66359786D01*
X92613390Y-66241717D01*
X92652551Y-66187816D01*
X92657293Y-66178508D01*
X92705263Y-66127711D01*
X92773083Y-66110911D01*
X92839219Y-66133445D01*
X92878263Y-66178500D01*
X92882873Y-66187547D01*
X92922228Y-66241716D01*
X93554537Y-65609408D01*
X93571575Y-65672993D01*
G37*
%TD.AperFunction*%
%TA.AperFunction,Conductor*%
G36*
X70554075Y-65462993D02*
G01*
X70619901Y-65577007D01*
X70712993Y-65670099D01*
X70827007Y-65735925D01*
X70890590Y-65752962D01*
X70258282Y-66385269D01*
X70258282Y-66385270D01*
X70312452Y-66424626D01*
X70312451Y-66424626D01*
X70321495Y-66429234D01*
X70372292Y-66477208D01*
X70389087Y-66545029D01*
X70366550Y-66611164D01*
X70321499Y-66650202D01*
X70312182Y-66654949D01*
X70140213Y-66779890D01*
X69989892Y-66930211D01*
X69933097Y-67008385D01*
X69928765Y-67011725D01*
X69926492Y-67016703D01*
X69901389Y-67032835D01*
X69877767Y-67051051D01*
X69871095Y-67052303D01*
X69867714Y-67054477D01*
X69832779Y-67059500D01*
X69667221Y-67059500D01*
X69600182Y-67039815D01*
X69566903Y-67008385D01*
X69510107Y-66930211D01*
X69359786Y-66779890D01*
X69187817Y-66654949D01*
X69178504Y-66650204D01*
X69127707Y-66602230D01*
X69110912Y-66534409D01*
X69133449Y-66468274D01*
X69178507Y-66429232D01*
X69187555Y-66424622D01*
X69241716Y-66385270D01*
X69241717Y-66385270D01*
X68609408Y-65752962D01*
X68672993Y-65735925D01*
X68787007Y-65670099D01*
X68880099Y-65577007D01*
X68945925Y-65462993D01*
X68962962Y-65399408D01*
X69595270Y-66031717D01*
X69595270Y-66031716D01*
X69634622Y-65977554D01*
X69639514Y-65967954D01*
X69687488Y-65917157D01*
X69755308Y-65900361D01*
X69821444Y-65922897D01*
X69860486Y-65967954D01*
X69865375Y-65977550D01*
X69904728Y-66031716D01*
X70537036Y-65399407D01*
X70554075Y-65462993D01*
G37*
%TD.AperFunction*%
%TA.AperFunction,Conductor*%
G36*
X92838944Y-63593999D02*
G01*
X92877986Y-63639056D01*
X92882451Y-63647820D01*
X93007390Y-63819786D01*
X93157713Y-63970109D01*
X93329679Y-64095048D01*
X93329681Y-64095049D01*
X93329684Y-64095051D01*
X93338993Y-64099794D01*
X93389790Y-64147766D01*
X93406587Y-64215587D01*
X93384052Y-64281722D01*
X93339005Y-64320760D01*
X93329946Y-64325376D01*
X93329940Y-64325380D01*
X93275782Y-64364727D01*
X93275782Y-64364728D01*
X93908091Y-64997037D01*
X93844507Y-65014075D01*
X93730493Y-65079901D01*
X93637401Y-65172993D01*
X93571575Y-65287007D01*
X93554537Y-65350591D01*
X92922228Y-64718282D01*
X92922227Y-64718282D01*
X92882880Y-64772440D01*
X92882876Y-64772446D01*
X92878260Y-64781505D01*
X92830281Y-64832297D01*
X92762459Y-64849087D01*
X92696326Y-64826543D01*
X92657294Y-64781493D01*
X92652551Y-64772184D01*
X92652549Y-64772181D01*
X92652548Y-64772179D01*
X92527609Y-64600213D01*
X92377286Y-64449890D01*
X92205320Y-64324951D01*
X92204615Y-64324591D01*
X92196554Y-64320485D01*
X92145759Y-64272512D01*
X92128963Y-64204692D01*
X92151499Y-64138556D01*
X92196554Y-64099515D01*
X92205316Y-64095051D01*
X92268012Y-64049500D01*
X92377286Y-63970109D01*
X92377288Y-63970106D01*
X92377292Y-63970104D01*
X92527604Y-63819792D01*
X92527606Y-63819788D01*
X92527609Y-63819786D01*
X92652548Y-63647820D01*
X92652547Y-63647820D01*
X92652551Y-63647816D01*
X92657014Y-63639054D01*
X92704988Y-63588259D01*
X92772808Y-63571463D01*
X92838944Y-63593999D01*
G37*
%TD.AperFunction*%
%TA.AperFunction,Conductor*%
G36*
X83815348Y-57832111D02*
G01*
X83871281Y-57873983D01*
X83895698Y-57939447D01*
X83886575Y-57995745D01*
X83849500Y-58085251D01*
X83849497Y-58085261D01*
X83824500Y-58210928D01*
X83824500Y-60559155D01*
X83804815Y-60626194D01*
X83752011Y-60671949D01*
X83682853Y-60681893D01*
X83653048Y-60673716D01*
X83608501Y-60655264D01*
X83608489Y-60655261D01*
X83453845Y-60624500D01*
X83453842Y-60624500D01*
X83296158Y-60624500D01*
X83296155Y-60624500D01*
X83141510Y-60655261D01*
X83141498Y-60655264D01*
X82995827Y-60715602D01*
X82995814Y-60715609D01*
X82864711Y-60803210D01*
X82864707Y-60803213D01*
X82753213Y-60914707D01*
X82753210Y-60914711D01*
X82665609Y-61045814D01*
X82665602Y-61045827D01*
X82605264Y-61191498D01*
X82605261Y-61191508D01*
X82591920Y-61258579D01*
X82559535Y-61320490D01*
X82557984Y-61322068D01*
X81397068Y-62482984D01*
X81335745Y-62516469D01*
X81333579Y-62516920D01*
X81266508Y-62530261D01*
X81266498Y-62530264D01*
X81120827Y-62590602D01*
X81120814Y-62590609D01*
X80989711Y-62678210D01*
X80989707Y-62678213D01*
X80878213Y-62789707D01*
X80878210Y-62789711D01*
X80790609Y-62920814D01*
X80790602Y-62920827D01*
X80730264Y-63066498D01*
X80730261Y-63066510D01*
X80699500Y-63221153D01*
X80699500Y-63378846D01*
X80730261Y-63533489D01*
X80730264Y-63533501D01*
X80790602Y-63679172D01*
X80790609Y-63679185D01*
X80878210Y-63810288D01*
X80878213Y-63810292D01*
X80989707Y-63921786D01*
X80989711Y-63921789D01*
X81120814Y-64009390D01*
X81120827Y-64009397D01*
X81217646Y-64049500D01*
X81266503Y-64069737D01*
X81275917Y-64071609D01*
X81337828Y-64103993D01*
X81372403Y-64164708D01*
X81368664Y-64234478D01*
X81354830Y-64262117D01*
X81315608Y-64320816D01*
X81315602Y-64320827D01*
X81255264Y-64466498D01*
X81255261Y-64466510D01*
X81224500Y-64621153D01*
X81224500Y-64730191D01*
X81204815Y-64797230D01*
X81152011Y-64842985D01*
X81082853Y-64852929D01*
X81019297Y-64823904D01*
X81012819Y-64817872D01*
X78763423Y-62568476D01*
X78706234Y-62530264D01*
X78656877Y-62497285D01*
X78644359Y-62492100D01*
X78538494Y-62448249D01*
X78538488Y-62448247D01*
X78412821Y-62423250D01*
X78412819Y-62423250D01*
X77993558Y-62423250D01*
X77926519Y-62403565D01*
X77880764Y-62350761D01*
X77870820Y-62281603D01*
X77899845Y-62218047D01*
X77905877Y-62211569D01*
X78030040Y-62087406D01*
X78437735Y-61679709D01*
X78499056Y-61646226D01*
X78568747Y-61651210D01*
X78624681Y-61693081D01*
X78628516Y-61698501D01*
X78703210Y-61810288D01*
X78703213Y-61810292D01*
X78814707Y-61921786D01*
X78814711Y-61921789D01*
X78945814Y-62009390D01*
X78945827Y-62009397D01*
X79068510Y-62060213D01*
X79091503Y-62069737D01*
X79246153Y-62100499D01*
X79246156Y-62100500D01*
X79246158Y-62100500D01*
X79403844Y-62100500D01*
X79403845Y-62100499D01*
X79558497Y-62069737D01*
X79704179Y-62009394D01*
X79835289Y-61921789D01*
X79946789Y-61810289D01*
X80034394Y-61679179D01*
X80094737Y-61533497D01*
X80108079Y-61466416D01*
X80140463Y-61404509D01*
X80141959Y-61402985D01*
X83684333Y-57860611D01*
X83745656Y-57827127D01*
X83815348Y-57832111D01*
G37*
%TD.AperFunction*%
%TA.AperFunction,Conductor*%
G36*
X83728905Y-62172012D02*
G01*
X83736049Y-62172049D01*
X83759734Y-62187444D01*
X83784996Y-62200089D01*
X83788641Y-62206232D01*
X83794631Y-62210126D01*
X83806233Y-62235882D01*
X83820648Y-62260178D01*
X83821990Y-62270863D01*
X83823327Y-62273831D01*
X83822803Y-62277340D01*
X83824500Y-62290844D01*
X83824500Y-63379192D01*
X83804815Y-63446231D01*
X83788181Y-63466873D01*
X83241873Y-64013181D01*
X83180550Y-64046666D01*
X83154192Y-64049500D01*
X82529935Y-64049500D01*
X82462896Y-64029815D01*
X82461090Y-64028633D01*
X82404179Y-63990606D01*
X82404172Y-63990602D01*
X82258501Y-63930264D01*
X82258495Y-63930262D01*
X82249077Y-63928389D01*
X82187167Y-63896001D01*
X82152595Y-63835285D01*
X82156337Y-63765515D01*
X82170171Y-63737880D01*
X82209389Y-63679187D01*
X82209390Y-63679184D01*
X82209394Y-63679179D01*
X82269737Y-63533497D01*
X82283079Y-63466416D01*
X82315463Y-63404509D01*
X82316959Y-63402985D01*
X83477931Y-62242013D01*
X83490987Y-62234312D01*
X83499110Y-62225036D01*
X83522836Y-62215526D01*
X83531290Y-62210540D01*
X83536295Y-62209098D01*
X83608497Y-62194737D01*
X83659492Y-62173614D01*
X83666180Y-62171688D01*
X83694427Y-62171833D01*
X83722516Y-62168814D01*
X83728905Y-62172012D01*
G37*
%TD.AperFunction*%
%TA.AperFunction,Conductor*%
G36*
X90052898Y-47612664D02*
G01*
X90066334Y-47613625D01*
X90084060Y-47626895D01*
X90104203Y-47636094D01*
X90111485Y-47647425D01*
X90122267Y-47655497D01*
X90130004Y-47676242D01*
X90141977Y-47694872D01*
X90145128Y-47716790D01*
X90146684Y-47720961D01*
X90147000Y-47729807D01*
X90147000Y-47806286D01*
X90181016Y-48021055D01*
X90179377Y-48021314D01*
X90176238Y-48083883D01*
X90146842Y-48130710D01*
X76914373Y-61363181D01*
X76853050Y-61396666D01*
X76826692Y-61399500D01*
X74854935Y-61399500D01*
X74787896Y-61379815D01*
X74786090Y-61378633D01*
X74729179Y-61340606D01*
X74729172Y-61340602D01*
X74583501Y-61280264D01*
X74583489Y-61280261D01*
X74428845Y-61249500D01*
X74428842Y-61249500D01*
X74271158Y-61249500D01*
X74271155Y-61249500D01*
X74116510Y-61280261D01*
X74116498Y-61280264D01*
X73970827Y-61340602D01*
X73970814Y-61340609D01*
X73839711Y-61428210D01*
X73839707Y-61428213D01*
X73728213Y-61539707D01*
X73728210Y-61539711D01*
X73640609Y-61670814D01*
X73640603Y-61670826D01*
X73631856Y-61691943D01*
X73588014Y-61746346D01*
X73521719Y-61768409D01*
X73454020Y-61751129D01*
X73429615Y-61732169D01*
X72749628Y-61052181D01*
X72716143Y-60990858D01*
X72721127Y-60921166D01*
X72762999Y-60865233D01*
X72828463Y-60840816D01*
X72837309Y-60840500D01*
X76531571Y-60840500D01*
X76616115Y-60823682D01*
X76657244Y-60815501D01*
X76775627Y-60766465D01*
X76882169Y-60695277D01*
X89935319Y-47642125D01*
X89954755Y-47631513D01*
X89971489Y-47617013D01*
X89984820Y-47615096D01*
X89996642Y-47608641D01*
X90018728Y-47610220D01*
X90040647Y-47607069D01*
X90052898Y-47612664D01*
G37*
%TD.AperFunction*%
%TA.AperFunction,Conductor*%
G36*
X90304921Y-58530185D02*
G01*
X90338599Y-58564591D01*
X90339585Y-58563875D01*
X90467390Y-58739786D01*
X90617713Y-58890109D01*
X90789682Y-59015050D01*
X90798446Y-59019516D01*
X90849242Y-59067491D01*
X90866036Y-59135312D01*
X90843498Y-59201447D01*
X90798446Y-59240484D01*
X90789682Y-59244949D01*
X90617713Y-59369890D01*
X90467390Y-59520213D01*
X90339585Y-59696125D01*
X90338240Y-59695148D01*
X90291795Y-59737166D01*
X90237882Y-59749500D01*
X88485929Y-59749500D01*
X88360261Y-59774497D01*
X88360251Y-59774500D01*
X88311220Y-59794810D01*
X88241881Y-59823530D01*
X88241863Y-59823540D01*
X88135332Y-59894721D01*
X88135325Y-59894727D01*
X87687181Y-60342872D01*
X87667744Y-60353484D01*
X87651011Y-60367985D01*
X87637679Y-60369901D01*
X87625858Y-60376357D01*
X87603771Y-60374777D01*
X87581853Y-60377929D01*
X87569601Y-60372333D01*
X87556166Y-60371373D01*
X87538439Y-60358102D01*
X87518297Y-60348904D01*
X87511014Y-60337572D01*
X87500233Y-60329501D01*
X87492495Y-60308755D01*
X87480523Y-60290126D01*
X87477371Y-60268207D01*
X87475816Y-60264037D01*
X87475500Y-60255191D01*
X87475500Y-60095808D01*
X87495185Y-60028769D01*
X87511819Y-60008127D01*
X88973127Y-58546819D01*
X89034450Y-58513334D01*
X89060808Y-58510500D01*
X90237882Y-58510500D01*
X90304921Y-58530185D01*
G37*
%TD.AperFunction*%
%TA.AperFunction,Conductor*%
G36*
X93571575Y-58052993D02*
G01*
X93637401Y-58167007D01*
X93730493Y-58260099D01*
X93844507Y-58325925D01*
X93908090Y-58342962D01*
X93275782Y-58975269D01*
X93275782Y-58975270D01*
X93329952Y-59014626D01*
X93329951Y-59014626D01*
X93338995Y-59019234D01*
X93389792Y-59067208D01*
X93406587Y-59135029D01*
X93384050Y-59201164D01*
X93338999Y-59240202D01*
X93329682Y-59244949D01*
X93157713Y-59369890D01*
X93007390Y-59520213D01*
X92882449Y-59692182D01*
X92877984Y-59700946D01*
X92830009Y-59751742D01*
X92762188Y-59768536D01*
X92696053Y-59745998D01*
X92657016Y-59700946D01*
X92652550Y-59692182D01*
X92527609Y-59520213D01*
X92377286Y-59369890D01*
X92205320Y-59244951D01*
X92204615Y-59244591D01*
X92196554Y-59240485D01*
X92145759Y-59192512D01*
X92128963Y-59124692D01*
X92151499Y-59058556D01*
X92196554Y-59019515D01*
X92205316Y-59015051D01*
X92237804Y-58991447D01*
X92377286Y-58890109D01*
X92377288Y-58890106D01*
X92377292Y-58890104D01*
X92527604Y-58739792D01*
X92527606Y-58739788D01*
X92527609Y-58739786D01*
X92613390Y-58621717D01*
X92652551Y-58567816D01*
X92657293Y-58558508D01*
X92705263Y-58507711D01*
X92773083Y-58490911D01*
X92839219Y-58513445D01*
X92878263Y-58558500D01*
X92882873Y-58567547D01*
X92922228Y-58621716D01*
X93554537Y-57989408D01*
X93571575Y-58052993D01*
G37*
%TD.AperFunction*%
%TA.AperFunction,Conductor*%
G36*
X93571575Y-47892993D02*
G01*
X93637401Y-48007007D01*
X93730493Y-48100099D01*
X93844507Y-48165925D01*
X93908090Y-48182962D01*
X93275782Y-48815269D01*
X93275782Y-48815270D01*
X93329952Y-48854626D01*
X93329951Y-48854626D01*
X93338995Y-48859234D01*
X93389792Y-48907208D01*
X93406587Y-48975029D01*
X93384050Y-49041164D01*
X93338999Y-49080202D01*
X93329682Y-49084949D01*
X93157713Y-49209890D01*
X93007390Y-49360213D01*
X92882449Y-49532182D01*
X92877984Y-49540946D01*
X92830009Y-49591742D01*
X92762188Y-49608536D01*
X92696053Y-49585998D01*
X92657016Y-49540946D01*
X92652550Y-49532182D01*
X92527609Y-49360213D01*
X92377286Y-49209890D01*
X92205320Y-49084951D01*
X92204615Y-49084591D01*
X92196554Y-49080485D01*
X92145759Y-49032512D01*
X92128963Y-48964692D01*
X92151499Y-48898556D01*
X92196554Y-48859515D01*
X92205316Y-48855051D01*
X92260072Y-48815269D01*
X92377286Y-48730109D01*
X92377288Y-48730106D01*
X92377292Y-48730104D01*
X92527604Y-48579792D01*
X92527606Y-48579788D01*
X92527609Y-48579786D01*
X92613390Y-48461717D01*
X92652551Y-48407816D01*
X92657293Y-48398508D01*
X92705263Y-48347711D01*
X92773083Y-48330911D01*
X92839219Y-48353445D01*
X92878263Y-48398500D01*
X92882873Y-48407547D01*
X92922228Y-48461716D01*
X93554537Y-47829408D01*
X93571575Y-47892993D01*
G37*
%TD.AperFunction*%
%TA.AperFunction,Conductor*%
G36*
X92838944Y-45813999D02*
G01*
X92877986Y-45859056D01*
X92882451Y-45867820D01*
X93007390Y-46039786D01*
X93157713Y-46190109D01*
X93329679Y-46315048D01*
X93329681Y-46315049D01*
X93329684Y-46315051D01*
X93338993Y-46319794D01*
X93389790Y-46367766D01*
X93406587Y-46435587D01*
X93384052Y-46501722D01*
X93339005Y-46540760D01*
X93329946Y-46545376D01*
X93329940Y-46545380D01*
X93275782Y-46584727D01*
X93275782Y-46584728D01*
X93908091Y-47217037D01*
X93844507Y-47234075D01*
X93730493Y-47299901D01*
X93637401Y-47392993D01*
X93571575Y-47507007D01*
X93554537Y-47570591D01*
X92922228Y-46938282D01*
X92922227Y-46938282D01*
X92882880Y-46992440D01*
X92882876Y-46992446D01*
X92878260Y-47001505D01*
X92830281Y-47052297D01*
X92762459Y-47069087D01*
X92696326Y-47046543D01*
X92657294Y-47001493D01*
X92652551Y-46992184D01*
X92652549Y-46992181D01*
X92652548Y-46992179D01*
X92527609Y-46820213D01*
X92377286Y-46669890D01*
X92205320Y-46544951D01*
X92197100Y-46540763D01*
X92196554Y-46540485D01*
X92145759Y-46492512D01*
X92128963Y-46424692D01*
X92151499Y-46358556D01*
X92196554Y-46319515D01*
X92205316Y-46315051D01*
X92227289Y-46299086D01*
X92377286Y-46190109D01*
X92377288Y-46190106D01*
X92377292Y-46190104D01*
X92527604Y-46039792D01*
X92527606Y-46039788D01*
X92527609Y-46039786D01*
X92652548Y-45867820D01*
X92652547Y-45867820D01*
X92652551Y-45867816D01*
X92657014Y-45859054D01*
X92704988Y-45808259D01*
X92772808Y-45791463D01*
X92838944Y-45813999D01*
G37*
%TD.AperFunction*%
%TA.AperFunction,Conductor*%
G36*
X81921087Y-109278568D02*
G01*
X81955758Y-109315224D01*
X81957680Y-109318340D01*
X81957683Y-109318344D01*
X82081654Y-109442315D01*
X82230875Y-109534356D01*
X82230880Y-109534358D01*
X82375539Y-109582293D01*
X82432984Y-109622065D01*
X82459807Y-109686581D01*
X82447492Y-109755357D01*
X82399949Y-109806557D01*
X82375540Y-109817705D01*
X82230878Y-109865642D01*
X82230875Y-109865643D01*
X82081657Y-109957682D01*
X81957680Y-110081658D01*
X81955755Y-110084780D01*
X81953877Y-110086468D01*
X81953205Y-110087319D01*
X81953059Y-110087204D01*
X81903804Y-110131501D01*
X81834840Y-110142718D01*
X81787101Y-110126409D01*
X81720808Y-110087204D01*
X81655900Y-110048818D01*
X81655898Y-110048817D01*
X81655896Y-110048816D01*
X81655895Y-110048815D01*
X81496256Y-110002435D01*
X81496250Y-110002434D01*
X81458964Y-109999500D01*
X80781940Y-109999500D01*
X80714901Y-109979815D01*
X80669146Y-109927011D01*
X80659202Y-109857853D01*
X80688227Y-109794297D01*
X80694246Y-109787831D01*
X80721789Y-109760289D01*
X80809394Y-109629179D01*
X80817540Y-109609514D01*
X80872068Y-109477869D01*
X80874529Y-109478888D01*
X80906478Y-109430096D01*
X80970279Y-109401615D01*
X80986878Y-109400499D01*
X81458944Y-109400499D01*
X81458956Y-109400499D01*
X81496252Y-109397565D01*
X81599424Y-109367589D01*
X81655895Y-109351184D01*
X81655896Y-109351183D01*
X81655900Y-109351182D01*
X81787101Y-109273590D01*
X81854824Y-109256408D01*
X81921087Y-109278568D01*
G37*
%TD.AperFunction*%
%TA.AperFunction,Conductor*%
G36*
X93253736Y-34750726D02*
G01*
X93543796Y-34768271D01*
X93558659Y-34770076D01*
X93840798Y-34821780D01*
X93855335Y-34825363D01*
X94129172Y-34910695D01*
X94143163Y-34916000D01*
X94404743Y-35033727D01*
X94417989Y-35040680D01*
X94663465Y-35189075D01*
X94675776Y-35197573D01*
X94901573Y-35374473D01*
X94912781Y-35384403D01*
X95115596Y-35587218D01*
X95125526Y-35598426D01*
X95245481Y-35751538D01*
X95302422Y-35824217D01*
X95310928Y-35836540D01*
X95459316Y-36082004D01*
X95466275Y-36095263D01*
X95583997Y-36356831D01*
X95589306Y-36370832D01*
X95674635Y-36644663D01*
X95678219Y-36659201D01*
X95729923Y-36941340D01*
X95731728Y-36956205D01*
X95749274Y-37246263D01*
X95749500Y-37253750D01*
X95749500Y-119246250D01*
X95749274Y-119253737D01*
X95731728Y-119543795D01*
X95729923Y-119558660D01*
X95678219Y-119840798D01*
X95674635Y-119855336D01*
X95589304Y-120129175D01*
X95583994Y-120143177D01*
X95466277Y-120404731D01*
X95459319Y-120417989D01*
X95310928Y-120663459D01*
X95302422Y-120675782D01*
X95125525Y-120901573D01*
X95115595Y-120912781D01*
X94912781Y-121115596D01*
X94901573Y-121125526D01*
X94675782Y-121302422D01*
X94663458Y-121310928D01*
X94417987Y-121459319D01*
X94404730Y-121466277D01*
X94143176Y-121583994D01*
X94129174Y-121589304D01*
X93855335Y-121674635D01*
X93840797Y-121678219D01*
X93558659Y-121729923D01*
X93543794Y-121731728D01*
X93350701Y-121743408D01*
X93253712Y-121749275D01*
X93246240Y-121749501D01*
X69253751Y-121749501D01*
X69246264Y-121749275D01*
X68956205Y-121731729D01*
X68941340Y-121729924D01*
X68659201Y-121678220D01*
X68644663Y-121674636D01*
X68370832Y-121589307D01*
X68356831Y-121583998D01*
X68095263Y-121466276D01*
X68082004Y-121459317D01*
X67836537Y-121310927D01*
X67824217Y-121302423D01*
X67598426Y-121125527D01*
X67587218Y-121115597D01*
X67384403Y-120912782D01*
X67374473Y-120901574D01*
X67374472Y-120901573D01*
X67197572Y-120675777D01*
X67189074Y-120663466D01*
X67040678Y-120417989D01*
X67033726Y-120404744D01*
X66915999Y-120143164D01*
X66910692Y-120129168D01*
X66825363Y-119855336D01*
X66821779Y-119840798D01*
X66800556Y-119724986D01*
X72975001Y-119724986D01*
X72985494Y-119827697D01*
X73040641Y-119994119D01*
X73040643Y-119994124D01*
X73132684Y-120143345D01*
X73256654Y-120267315D01*
X73405875Y-120359356D01*
X73405880Y-120359358D01*
X73572302Y-120414505D01*
X73572309Y-120414506D01*
X73675019Y-120424999D01*
X73949999Y-120424999D01*
X74450000Y-120424999D01*
X74724972Y-120424999D01*
X74724986Y-120424998D01*
X74827697Y-120414505D01*
X74994119Y-120359358D01*
X74994124Y-120359356D01*
X75143345Y-120267315D01*
X75267315Y-120143345D01*
X75359356Y-119994124D01*
X75359358Y-119994119D01*
X75414505Y-119827697D01*
X75414506Y-119827690D01*
X75424999Y-119724986D01*
X75425000Y-119724973D01*
X75425000Y-119587500D01*
X74450000Y-119587500D01*
X74450000Y-120424999D01*
X73949999Y-120424999D01*
X73950000Y-120424998D01*
X73950000Y-119587500D01*
X72975001Y-119587500D01*
X72975001Y-119724986D01*
X66800556Y-119724986D01*
X66770075Y-119558660D01*
X66768264Y-119543642D01*
X66768260Y-119543625D01*
X66750726Y-119253753D01*
X66750500Y-119246266D01*
X66750500Y-70383653D01*
X78112000Y-70383653D01*
X78112000Y-70541346D01*
X78142761Y-70695989D01*
X78142764Y-70696001D01*
X78203102Y-70841672D01*
X78203109Y-70841685D01*
X78290710Y-70972788D01*
X78290713Y-70972792D01*
X78402207Y-71084286D01*
X78402211Y-71084289D01*
X78533314Y-71171890D01*
X78533327Y-71171897D01*
X78635933Y-71214397D01*
X78679003Y-71232237D01*
X78833653Y-71262999D01*
X78833656Y-71263000D01*
X78833658Y-71263000D01*
X78991344Y-71263000D01*
X78991345Y-71262999D01*
X79145997Y-71232237D01*
X79291679Y-71171894D01*
X79422789Y-71084289D01*
X79534289Y-70972789D01*
X79621894Y-70841679D01*
X79682237Y-70695997D01*
X79713000Y-70541342D01*
X79713000Y-70383658D01*
X79713000Y-70383655D01*
X79712999Y-70383653D01*
X79685172Y-70243760D01*
X79682237Y-70229003D01*
X79682235Y-70228998D01*
X79621897Y-70083327D01*
X79621890Y-70083314D01*
X79534289Y-69952211D01*
X79534286Y-69952207D01*
X79422792Y-69840713D01*
X79422788Y-69840710D01*
X79291685Y-69753109D01*
X79291672Y-69753102D01*
X79146001Y-69692764D01*
X79145989Y-69692761D01*
X78991345Y-69662000D01*
X78991342Y-69662000D01*
X78833658Y-69662000D01*
X78833655Y-69662000D01*
X78679010Y-69692761D01*
X78678998Y-69692764D01*
X78533327Y-69753102D01*
X78533314Y-69753109D01*
X78402211Y-69840710D01*
X78402207Y-69840713D01*
X78290713Y-69952207D01*
X78290710Y-69952211D01*
X78203109Y-70083314D01*
X78203102Y-70083327D01*
X78142764Y-70228998D01*
X78142761Y-70229010D01*
X78112000Y-70383653D01*
X66750500Y-70383653D01*
X66750500Y-55003713D01*
X67129500Y-55003713D01*
X67129500Y-55216287D01*
X67162754Y-55426243D01*
X67162768Y-55426287D01*
X67228444Y-55628414D01*
X67324951Y-55817820D01*
X67449890Y-55989786D01*
X67600213Y-56140109D01*
X67772182Y-56265050D01*
X67780946Y-56269516D01*
X67831742Y-56317491D01*
X67848536Y-56385312D01*
X67825998Y-56451447D01*
X67780946Y-56490484D01*
X67772182Y-56494949D01*
X67600213Y-56619890D01*
X67449890Y-56770213D01*
X67324951Y-56942179D01*
X67228444Y-57131585D01*
X67162753Y-57333760D01*
X67129500Y-57543713D01*
X67129500Y-57756286D01*
X67156352Y-57925826D01*
X67162754Y-57966243D01*
X67227986Y-58167007D01*
X67228444Y-58168414D01*
X67324951Y-58357820D01*
X67449890Y-58529786D01*
X67600213Y-58680109D01*
X67772182Y-58805050D01*
X67780946Y-58809516D01*
X67831742Y-58857491D01*
X67848536Y-58925312D01*
X67825998Y-58991447D01*
X67780946Y-59030484D01*
X67772182Y-59034949D01*
X67600213Y-59159890D01*
X67449890Y-59310213D01*
X67324951Y-59482179D01*
X67228444Y-59671585D01*
X67162753Y-59873760D01*
X67141472Y-60008127D01*
X67129500Y-60083713D01*
X67129500Y-60296287D01*
X67162754Y-60506243D01*
X67224175Y-60695277D01*
X67228444Y-60708414D01*
X67324951Y-60897820D01*
X67449890Y-61069786D01*
X67600213Y-61220109D01*
X67772182Y-61345050D01*
X67780946Y-61349516D01*
X67831742Y-61397491D01*
X67848536Y-61465312D01*
X67825998Y-61531447D01*
X67780946Y-61570484D01*
X67772182Y-61574949D01*
X67600213Y-61699890D01*
X67449890Y-61850213D01*
X67324951Y-62022179D01*
X67228444Y-62211585D01*
X67228443Y-62211587D01*
X67228443Y-62211588D01*
X67220549Y-62235882D01*
X67162753Y-62413760D01*
X67129500Y-62623713D01*
X67129500Y-62836286D01*
X67162753Y-63046239D01*
X67162753Y-63046241D01*
X67162754Y-63046243D01*
X67220557Y-63224142D01*
X67228444Y-63248414D01*
X67324951Y-63437820D01*
X67449890Y-63609786D01*
X67600213Y-63760109D01*
X67772179Y-63885048D01*
X67772181Y-63885049D01*
X67772184Y-63885051D01*
X67781493Y-63889794D01*
X67832290Y-63937766D01*
X67849087Y-64005587D01*
X67826552Y-64071722D01*
X67781505Y-64110760D01*
X67772446Y-64115376D01*
X67772440Y-64115380D01*
X67718282Y-64154727D01*
X67718282Y-64154728D01*
X68350591Y-64787037D01*
X68287007Y-64804075D01*
X68172993Y-64869901D01*
X68079901Y-64962993D01*
X68014075Y-65077007D01*
X67997037Y-65140591D01*
X67364728Y-64508282D01*
X67364727Y-64508282D01*
X67325380Y-64562439D01*
X67228904Y-64751782D01*
X67163242Y-64953869D01*
X67163242Y-64953872D01*
X67130000Y-65163753D01*
X67130000Y-65376246D01*
X67163242Y-65586127D01*
X67163242Y-65586130D01*
X67228904Y-65788217D01*
X67325375Y-65977550D01*
X67364728Y-66031716D01*
X67997037Y-65399408D01*
X68014075Y-65462993D01*
X68079901Y-65577007D01*
X68172993Y-65670099D01*
X68287007Y-65735925D01*
X68350590Y-65752962D01*
X67718282Y-66385269D01*
X67718282Y-66385270D01*
X67772452Y-66424626D01*
X67772451Y-66424626D01*
X67781495Y-66429234D01*
X67832292Y-66477208D01*
X67849087Y-66545029D01*
X67826550Y-66611164D01*
X67781499Y-66650202D01*
X67772182Y-66654949D01*
X67600213Y-66779890D01*
X67449890Y-66930213D01*
X67324951Y-67102179D01*
X67228444Y-67291585D01*
X67162753Y-67493760D01*
X67129500Y-67703713D01*
X67129500Y-67916287D01*
X67162754Y-68126243D01*
X67162768Y-68126287D01*
X67228444Y-68328414D01*
X67324951Y-68517820D01*
X67449890Y-68689786D01*
X67600213Y-68840109D01*
X67772179Y-68965048D01*
X67772181Y-68965049D01*
X67772184Y-68965051D01*
X67961588Y-69061557D01*
X68163757Y-69127246D01*
X68373713Y-69160500D01*
X68373714Y-69160500D01*
X68586286Y-69160500D01*
X68586287Y-69160500D01*
X68796243Y-69127246D01*
X68998412Y-69061557D01*
X69187816Y-68965051D01*
X69209789Y-68949086D01*
X69359786Y-68840109D01*
X69359788Y-68840106D01*
X69359792Y-68840104D01*
X69510104Y-68689792D01*
X69517542Y-68679554D01*
X69566903Y-68611615D01*
X69571234Y-68608274D01*
X69573508Y-68603297D01*
X69598610Y-68587164D01*
X69622233Y-68568949D01*
X69628904Y-68567696D01*
X69632286Y-68565523D01*
X69667221Y-68560500D01*
X69832779Y-68560500D01*
X69899818Y-68580185D01*
X69933097Y-68611615D01*
X69989892Y-68689788D01*
X70140213Y-68840109D01*
X70312179Y-68965048D01*
X70312181Y-68965049D01*
X70312184Y-68965051D01*
X70501588Y-69061557D01*
X70703757Y-69127246D01*
X70913713Y-69160500D01*
X70913714Y-69160500D01*
X71126286Y-69160500D01*
X71126287Y-69160500D01*
X71336243Y-69127246D01*
X71538412Y-69061557D01*
X71727816Y-68965051D01*
X71749789Y-68949086D01*
X71899786Y-68840109D01*
X71899788Y-68840106D01*
X71899792Y-68840104D01*
X72050104Y-68689792D01*
X72057542Y-68679554D01*
X72106903Y-68611615D01*
X72162233Y-68568949D01*
X72207221Y-68560500D01*
X72885270Y-68560500D01*
X72952309Y-68580185D01*
X72972951Y-68596819D01*
X73056344Y-68680212D01*
X73205666Y-68772314D01*
X73372203Y-68827499D01*
X73474991Y-68838000D01*
X74525008Y-68837999D01*
X74525016Y-68837998D01*
X74525019Y-68837998D01*
X74581302Y-68832248D01*
X74627797Y-68827499D01*
X74794334Y-68772314D01*
X74943656Y-68680212D01*
X75067712Y-68556156D01*
X75087139Y-68524658D01*
X75126393Y-68484959D01*
X75135384Y-68479271D01*
X75145495Y-68475084D01*
X75205979Y-68434670D01*
X75268416Y-68392952D01*
X76265297Y-67396069D01*
X76305524Y-67369191D01*
X76329179Y-67359394D01*
X76460289Y-67271789D01*
X76571789Y-67160289D01*
X76659394Y-67029179D01*
X76719737Y-66883497D01*
X76750500Y-66728842D01*
X76750500Y-66571158D01*
X76750500Y-66571155D01*
X76750499Y-66571153D01*
X76743190Y-66534409D01*
X76719737Y-66416503D01*
X76719604Y-66416182D01*
X76659397Y-66270827D01*
X76659390Y-66270814D01*
X76571789Y-66139711D01*
X76571786Y-66139707D01*
X76460292Y-66028213D01*
X76460288Y-66028210D01*
X76329185Y-65940609D01*
X76329172Y-65940602D01*
X76183501Y-65880264D01*
X76183489Y-65880261D01*
X76028845Y-65849500D01*
X76028842Y-65849500D01*
X75871158Y-65849500D01*
X75871155Y-65849500D01*
X75716510Y-65880261D01*
X75716498Y-65880264D01*
X75570827Y-65940602D01*
X75570814Y-65940609D01*
X75439711Y-66028210D01*
X75439707Y-66028213D01*
X75436681Y-66031240D01*
X75375358Y-66064725D01*
X75305666Y-66059741D01*
X75249733Y-66017869D01*
X75225316Y-65952405D01*
X75225000Y-65943559D01*
X75225000Y-65925000D01*
X72775001Y-65925000D01*
X72775001Y-66062486D01*
X72785494Y-66165197D01*
X72840641Y-66331619D01*
X72840643Y-66331624D01*
X72932684Y-66480845D01*
X73056655Y-66604816D01*
X73056659Y-66604819D01*
X73059656Y-66606668D01*
X73061279Y-66608472D01*
X73062323Y-66609298D01*
X73062181Y-66609476D01*
X73106381Y-66658616D01*
X73117602Y-66727579D01*
X73089759Y-66791661D01*
X73059661Y-66817741D01*
X73056349Y-66819783D01*
X73056343Y-66819788D01*
X72932289Y-66943842D01*
X72932288Y-66943844D01*
X72903885Y-66989894D01*
X72897283Y-67000597D01*
X72845335Y-67047321D01*
X72791744Y-67059500D01*
X72207221Y-67059500D01*
X72140182Y-67039815D01*
X72106903Y-67008385D01*
X72050107Y-66930211D01*
X71899786Y-66779890D01*
X71727817Y-66654949D01*
X71718504Y-66650204D01*
X71667707Y-66602230D01*
X71650912Y-66534409D01*
X71673449Y-66468274D01*
X71718507Y-66429232D01*
X71727555Y-66424622D01*
X71781716Y-66385270D01*
X71781717Y-66385270D01*
X71149408Y-65752962D01*
X71212993Y-65735925D01*
X71327007Y-65670099D01*
X71420099Y-65577007D01*
X71485925Y-65462993D01*
X71502962Y-65399409D01*
X72135270Y-66031717D01*
X72135270Y-66031716D01*
X72174622Y-65977554D01*
X72271095Y-65788217D01*
X72336757Y-65586130D01*
X72336757Y-65586127D01*
X72370000Y-65376246D01*
X72370000Y-65163753D01*
X72336758Y-64953873D01*
X72299049Y-64837819D01*
X72297054Y-64767978D01*
X72333134Y-64708145D01*
X72395835Y-64677316D01*
X72416980Y-64675500D01*
X72829957Y-64675500D01*
X72896996Y-64695185D01*
X72942751Y-64747989D01*
X72952695Y-64817147D01*
X72935495Y-64864597D01*
X72840646Y-65018369D01*
X72840641Y-65018380D01*
X72785494Y-65184802D01*
X72785493Y-65184809D01*
X72775000Y-65287513D01*
X72775000Y-65425000D01*
X75224999Y-65425000D01*
X75224999Y-65287528D01*
X75224998Y-65287513D01*
X75214505Y-65184802D01*
X75159358Y-65018380D01*
X75159353Y-65018369D01*
X75064505Y-64864597D01*
X75046064Y-64797205D01*
X75066986Y-64730541D01*
X75120628Y-64685771D01*
X75170043Y-64675500D01*
X77954192Y-64675500D01*
X78021231Y-64695185D01*
X78041873Y-64711819D01*
X83288181Y-69958127D01*
X83321666Y-70019450D01*
X83324500Y-70045808D01*
X83324500Y-71643059D01*
X83304815Y-71710098D01*
X83252011Y-71755853D01*
X83182853Y-71765797D01*
X83119297Y-71736772D01*
X83112819Y-71730740D01*
X83110292Y-71728213D01*
X83110288Y-71728210D01*
X82979185Y-71640609D01*
X82979172Y-71640602D01*
X82833501Y-71580264D01*
X82833491Y-71580261D01*
X82725308Y-71558742D01*
X82663397Y-71526357D01*
X82628823Y-71465641D01*
X82625500Y-71437125D01*
X82625500Y-71296155D01*
X82625499Y-71296153D01*
X82612785Y-71232235D01*
X82594737Y-71141503D01*
X82588641Y-71126786D01*
X82534397Y-70995827D01*
X82534390Y-70995814D01*
X82446789Y-70864711D01*
X82446786Y-70864707D01*
X82335292Y-70753213D01*
X82335288Y-70753210D01*
X82204185Y-70665609D01*
X82204172Y-70665602D01*
X82058501Y-70605264D01*
X82058491Y-70605261D01*
X81925308Y-70578769D01*
X81863397Y-70546384D01*
X81828823Y-70485668D01*
X81825500Y-70457152D01*
X81825500Y-70426155D01*
X81825499Y-70426153D01*
X81817046Y-70383658D01*
X81794737Y-70271503D01*
X81777131Y-70228998D01*
X81734397Y-70125827D01*
X81734390Y-70125814D01*
X81646789Y-69994711D01*
X81646786Y-69994707D01*
X81535292Y-69883213D01*
X81535288Y-69883210D01*
X81404185Y-69795609D01*
X81404172Y-69795602D01*
X81258501Y-69735264D01*
X81258489Y-69735261D01*
X81103845Y-69704500D01*
X81103842Y-69704500D01*
X80946158Y-69704500D01*
X80946155Y-69704500D01*
X80791510Y-69735261D01*
X80791498Y-69735264D01*
X80645827Y-69795602D01*
X80645814Y-69795609D01*
X80514711Y-69883210D01*
X80514707Y-69883213D01*
X80403213Y-69994707D01*
X80403210Y-69994711D01*
X80315609Y-70125814D01*
X80315602Y-70125827D01*
X80255264Y-70271498D01*
X80255261Y-70271510D01*
X80224500Y-70426153D01*
X80224500Y-70583846D01*
X80255261Y-70738489D01*
X80255264Y-70738501D01*
X80315602Y-70884172D01*
X80315609Y-70884185D01*
X80403210Y-71015288D01*
X80403213Y-71015292D01*
X80514707Y-71126786D01*
X80514711Y-71126789D01*
X80645814Y-71214390D01*
X80645827Y-71214397D01*
X80791498Y-71274735D01*
X80791503Y-71274737D01*
X80899168Y-71296153D01*
X80924691Y-71301230D01*
X80986602Y-71333615D01*
X81021176Y-71394330D01*
X81024500Y-71422847D01*
X81024500Y-71453846D01*
X81055261Y-71608489D01*
X81055264Y-71608501D01*
X81115602Y-71754172D01*
X81115609Y-71754185D01*
X81203210Y-71885288D01*
X81203213Y-71885292D01*
X81314707Y-71996786D01*
X81314711Y-71996789D01*
X81445814Y-72084390D01*
X81445827Y-72084397D01*
X81591498Y-72144735D01*
X81591503Y-72144737D01*
X81699691Y-72166257D01*
X81761602Y-72198641D01*
X81796176Y-72259357D01*
X81799500Y-72287874D01*
X81799500Y-72428846D01*
X81830261Y-72583489D01*
X81830264Y-72583501D01*
X81890602Y-72729172D01*
X81890609Y-72729185D01*
X81978210Y-72860288D01*
X81978213Y-72860292D01*
X82089707Y-72971786D01*
X82089711Y-72971789D01*
X82220814Y-73059390D01*
X82220827Y-73059397D01*
X82366498Y-73119735D01*
X82366503Y-73119737D01*
X82521153Y-73150499D01*
X82521156Y-73150500D01*
X82521158Y-73150500D01*
X82678844Y-73150500D01*
X82678845Y-73150499D01*
X82833497Y-73119737D01*
X82979179Y-73059394D01*
X83110289Y-72971789D01*
X83110292Y-72971786D01*
X83112819Y-72969260D01*
X83114468Y-72968359D01*
X83114999Y-72967924D01*
X83115081Y-72968024D01*
X83174142Y-72935775D01*
X83243834Y-72940759D01*
X83299767Y-72982631D01*
X83324184Y-73048095D01*
X83324500Y-73056941D01*
X83324500Y-73629191D01*
X83304815Y-73696230D01*
X83288181Y-73716872D01*
X82697068Y-74307984D01*
X82635745Y-74341469D01*
X82633579Y-74341920D01*
X82566508Y-74355261D01*
X82566498Y-74355264D01*
X82420827Y-74415602D01*
X82420814Y-74415609D01*
X82289711Y-74503210D01*
X82289707Y-74503213D01*
X82178213Y-74614707D01*
X82178210Y-74614711D01*
X82090609Y-74745814D01*
X82090602Y-74745827D01*
X82030264Y-74891498D01*
X82030261Y-74891510D01*
X81999500Y-75046153D01*
X81999500Y-75203846D01*
X82030261Y-75358489D01*
X82030264Y-75358501D01*
X82090602Y-75504172D01*
X82090609Y-75504185D01*
X82178210Y-75635288D01*
X82178213Y-75635292D01*
X82289707Y-75746786D01*
X82289711Y-75746789D01*
X82420814Y-75834390D01*
X82420827Y-75834397D01*
X82566498Y-75894735D01*
X82566503Y-75894737D01*
X82721153Y-75925499D01*
X82721156Y-75925500D01*
X82721158Y-75925500D01*
X82878844Y-75925500D01*
X82878845Y-75925499D01*
X83033497Y-75894737D01*
X83179179Y-75834394D01*
X83310289Y-75746789D01*
X83421789Y-75635289D01*
X83509394Y-75504179D01*
X83569737Y-75358497D01*
X83583079Y-75291416D01*
X83591844Y-75274661D01*
X83595864Y-75256183D01*
X83614608Y-75231143D01*
X83615463Y-75229509D01*
X83616903Y-75228041D01*
X83712822Y-75132123D01*
X83774143Y-75098641D01*
X83843834Y-75103625D01*
X83899768Y-75145497D01*
X83924184Y-75210962D01*
X83924500Y-75219807D01*
X83924500Y-78014069D01*
X83939977Y-78091873D01*
X83949499Y-78139744D01*
X83998535Y-78258127D01*
X84033388Y-78310289D01*
X84069726Y-78364673D01*
X86763872Y-81058819D01*
X86797357Y-81120142D01*
X86792373Y-81189834D01*
X86750501Y-81245767D01*
X86685037Y-81270184D01*
X86676191Y-81270500D01*
X79017502Y-81270500D01*
X78950463Y-81250815D01*
X78904708Y-81198011D01*
X78894764Y-81128853D01*
X78902940Y-81099048D01*
X78919737Y-81058497D01*
X78950500Y-80903842D01*
X78950500Y-80746158D01*
X78950500Y-80746155D01*
X78950499Y-80746153D01*
X78924667Y-80616287D01*
X78919737Y-80591503D01*
X78919735Y-80591498D01*
X78859397Y-80445827D01*
X78859390Y-80445814D01*
X78771789Y-80314711D01*
X78771786Y-80314707D01*
X78660292Y-80203213D01*
X78660288Y-80203210D01*
X78529185Y-80115609D01*
X78529172Y-80115602D01*
X78383501Y-80055264D01*
X78383489Y-80055261D01*
X78228845Y-80024500D01*
X78228842Y-80024500D01*
X78071158Y-80024500D01*
X78071155Y-80024500D01*
X77916510Y-80055261D01*
X77916498Y-80055264D01*
X77770827Y-80115602D01*
X77770814Y-80115609D01*
X77639711Y-80203210D01*
X77639707Y-80203213D01*
X77528213Y-80314707D01*
X77528210Y-80314711D01*
X77440609Y-80445814D01*
X77440602Y-80445827D01*
X77380264Y-80591498D01*
X77380261Y-80591510D01*
X77349500Y-80746153D01*
X77349500Y-80903846D01*
X77375836Y-81036243D01*
X77380263Y-81058497D01*
X77397060Y-81099048D01*
X77404528Y-81168518D01*
X77373252Y-81230997D01*
X77313163Y-81266649D01*
X77282498Y-81270500D01*
X74541808Y-81270500D01*
X74474769Y-81250815D01*
X74454127Y-81234181D01*
X72361582Y-79141636D01*
X72328097Y-79080313D01*
X72333080Y-79010626D01*
X72364091Y-78927483D01*
X72370500Y-78867873D01*
X72370499Y-77072128D01*
X72364091Y-77012517D01*
X72362810Y-77009083D01*
X72313797Y-76877671D01*
X72313793Y-76877664D01*
X72227547Y-76762455D01*
X72227544Y-76762452D01*
X72112335Y-76676206D01*
X72112328Y-76676202D01*
X71977482Y-76625908D01*
X71977483Y-76625908D01*
X71917883Y-76619501D01*
X71917881Y-76619500D01*
X71917873Y-76619500D01*
X71917864Y-76619500D01*
X70122129Y-76619500D01*
X70122123Y-76619501D01*
X70062516Y-76625908D01*
X69927671Y-76676202D01*
X69927664Y-76676206D01*
X69812455Y-76762452D01*
X69812452Y-76762455D01*
X69726206Y-76877664D01*
X69726203Y-76877669D01*
X69677189Y-77009083D01*
X69635317Y-77065016D01*
X69569853Y-77089433D01*
X69501580Y-77074581D01*
X69473326Y-77053430D01*
X69359786Y-76939890D01*
X69187820Y-76814951D01*
X68998414Y-76718444D01*
X68998413Y-76718443D01*
X68998412Y-76718443D01*
X68796243Y-76652754D01*
X68796241Y-76652753D01*
X68796240Y-76652753D01*
X68634957Y-76627208D01*
X68586287Y-76619500D01*
X68373713Y-76619500D01*
X68325042Y-76627208D01*
X68163760Y-76652753D01*
X67961585Y-76718444D01*
X67772179Y-76814951D01*
X67600213Y-76939890D01*
X67449890Y-77090213D01*
X67324951Y-77262179D01*
X67228444Y-77451585D01*
X67162753Y-77653760D01*
X67129500Y-77863713D01*
X67129500Y-78076287D01*
X67131969Y-78091873D01*
X67158300Y-78258125D01*
X67162754Y-78286243D01*
X67227986Y-78487007D01*
X67228444Y-78488414D01*
X67324951Y-78677820D01*
X67449890Y-78849786D01*
X67600213Y-79000109D01*
X67772182Y-79125050D01*
X67780946Y-79129516D01*
X67831742Y-79177491D01*
X67848536Y-79245312D01*
X67825998Y-79311447D01*
X67780946Y-79350484D01*
X67772182Y-79354949D01*
X67600213Y-79479890D01*
X67449890Y-79630213D01*
X67324951Y-79802179D01*
X67228444Y-79991585D01*
X67162753Y-80193760D01*
X67129500Y-80403713D01*
X67129500Y-80616287D01*
X67162754Y-80826243D01*
X67187968Y-80903844D01*
X67228444Y-81028414D01*
X67324951Y-81217820D01*
X67449890Y-81389786D01*
X67600213Y-81540109D01*
X67772182Y-81665050D01*
X67780946Y-81669516D01*
X67831742Y-81717491D01*
X67848536Y-81785312D01*
X67825998Y-81851447D01*
X67780946Y-81890484D01*
X67772182Y-81894949D01*
X67600213Y-82019890D01*
X67449890Y-82170213D01*
X67324951Y-82342179D01*
X67228444Y-82531585D01*
X67162753Y-82733760D01*
X67129500Y-82943713D01*
X67129500Y-83156286D01*
X67156352Y-83325826D01*
X67162754Y-83366243D01*
X67227986Y-83567007D01*
X67228444Y-83568414D01*
X67324951Y-83757820D01*
X67449890Y-83929786D01*
X67600213Y-84080109D01*
X67772182Y-84205050D01*
X67780946Y-84209516D01*
X67831742Y-84257491D01*
X67848536Y-84325312D01*
X67825998Y-84391447D01*
X67780946Y-84430484D01*
X67772182Y-84434949D01*
X67600213Y-84559890D01*
X67449890Y-84710213D01*
X67324951Y-84882179D01*
X67228444Y-85071585D01*
X67162753Y-85273760D01*
X67129500Y-85483713D01*
X67129500Y-85696286D01*
X67142575Y-85778842D01*
X67162754Y-85906243D01*
X67225547Y-86099500D01*
X67228444Y-86108414D01*
X67324951Y-86297820D01*
X67449890Y-86469786D01*
X67600213Y-86620109D01*
X67772179Y-86745048D01*
X67772181Y-86745049D01*
X67772184Y-86745051D01*
X67781493Y-86749794D01*
X67832290Y-86797766D01*
X67849087Y-86865587D01*
X67826552Y-86931722D01*
X67781505Y-86970760D01*
X67772446Y-86975376D01*
X67772440Y-86975380D01*
X67718282Y-87014727D01*
X67718282Y-87014728D01*
X68350591Y-87647037D01*
X68287007Y-87664075D01*
X68172993Y-87729901D01*
X68079901Y-87822993D01*
X68014075Y-87937007D01*
X67997037Y-88000591D01*
X67364728Y-87368282D01*
X67364727Y-87368282D01*
X67325380Y-87422439D01*
X67228904Y-87611782D01*
X67163242Y-87813869D01*
X67163242Y-87813872D01*
X67130000Y-88023753D01*
X67130000Y-88236246D01*
X67163242Y-88446127D01*
X67163242Y-88446130D01*
X67228904Y-88648217D01*
X67325375Y-88837550D01*
X67364728Y-88891716D01*
X67997037Y-88259408D01*
X68014075Y-88322993D01*
X68079901Y-88437007D01*
X68172993Y-88530099D01*
X68287007Y-88595925D01*
X68350590Y-88612962D01*
X67718282Y-89245269D01*
X67718282Y-89245270D01*
X67772452Y-89284626D01*
X67772451Y-89284626D01*
X67781495Y-89289234D01*
X67832292Y-89337208D01*
X67849087Y-89405029D01*
X67826550Y-89471164D01*
X67781499Y-89510202D01*
X67772182Y-89514949D01*
X67600213Y-89639890D01*
X67449890Y-89790213D01*
X67324951Y-89962179D01*
X67228444Y-90151585D01*
X67162753Y-90353760D01*
X67129500Y-90563713D01*
X67129500Y-90776286D01*
X67156352Y-90945826D01*
X67162754Y-90986243D01*
X67227986Y-91187007D01*
X67228444Y-91188414D01*
X67324951Y-91377820D01*
X67449890Y-91549786D01*
X67600213Y-91700109D01*
X67772179Y-91825048D01*
X67772181Y-91825049D01*
X67772184Y-91825051D01*
X67961588Y-91921557D01*
X68163757Y-91987246D01*
X68373713Y-92020500D01*
X68373714Y-92020500D01*
X68586286Y-92020500D01*
X68586287Y-92020500D01*
X68796243Y-91987246D01*
X68998412Y-91921557D01*
X69187816Y-91825051D01*
X69277638Y-91759792D01*
X69359786Y-91700109D01*
X69359788Y-91700106D01*
X69359792Y-91700104D01*
X69510104Y-91549792D01*
X69510110Y-91549783D01*
X69513270Y-91546085D01*
X69514540Y-91547170D01*
X69564116Y-91508946D01*
X69609098Y-91500500D01*
X69890902Y-91500500D01*
X69957941Y-91520185D01*
X69986014Y-91546696D01*
X69986730Y-91546085D01*
X69989897Y-91549793D01*
X70140213Y-91700109D01*
X70312179Y-91825048D01*
X70312181Y-91825049D01*
X70312184Y-91825051D01*
X70501588Y-91921557D01*
X70703757Y-91987246D01*
X70913713Y-92020500D01*
X70913714Y-92020500D01*
X71126286Y-92020500D01*
X71126287Y-92020500D01*
X71336243Y-91987246D01*
X71538412Y-91921557D01*
X71727816Y-91825051D01*
X71817638Y-91759792D01*
X71899786Y-91700109D01*
X71899788Y-91700106D01*
X71899792Y-91700104D01*
X72050104Y-91549792D01*
X72050110Y-91549783D01*
X72053270Y-91546085D01*
X72054540Y-91547170D01*
X72104116Y-91508946D01*
X72149098Y-91500500D01*
X72828752Y-91500500D01*
X72895791Y-91520185D01*
X72926531Y-91551497D01*
X72927807Y-91550489D01*
X72932288Y-91556156D01*
X73056344Y-91680212D01*
X73205666Y-91772314D01*
X73372203Y-91827499D01*
X73474991Y-91838000D01*
X74525008Y-91837999D01*
X74525016Y-91837998D01*
X74525019Y-91837998D01*
X74581302Y-91832248D01*
X74627797Y-91827499D01*
X74794334Y-91772314D01*
X74943656Y-91680212D01*
X75067712Y-91556156D01*
X75159814Y-91406834D01*
X75214999Y-91240297D01*
X75225500Y-91137509D01*
X75225499Y-90637228D01*
X75234145Y-90607780D01*
X75240669Y-90577798D01*
X75244420Y-90572786D01*
X75245183Y-90570190D01*
X75261812Y-90549554D01*
X75274553Y-90536813D01*
X75335876Y-90503333D01*
X75362229Y-90500500D01*
X75645396Y-90500500D01*
X75692844Y-90509937D01*
X75716503Y-90519737D01*
X75716508Y-90519738D01*
X75716511Y-90519739D01*
X75871153Y-90550499D01*
X75871156Y-90550500D01*
X75871158Y-90550500D01*
X76028844Y-90550500D01*
X76028845Y-90550499D01*
X76183497Y-90519737D01*
X76329179Y-90459394D01*
X76460289Y-90371789D01*
X76571789Y-90260289D01*
X76659394Y-90129179D01*
X76719737Y-89983497D01*
X76750500Y-89828842D01*
X76750500Y-89671158D01*
X76750500Y-89671155D01*
X76750499Y-89671153D01*
X76747733Y-89657246D01*
X76719737Y-89516503D01*
X76679120Y-89418443D01*
X76659397Y-89370827D01*
X76659390Y-89370814D01*
X76571789Y-89239711D01*
X76571786Y-89239707D01*
X76460292Y-89128213D01*
X76460288Y-89128210D01*
X76329185Y-89040609D01*
X76329172Y-89040602D01*
X76183501Y-88980264D01*
X76183489Y-88980261D01*
X76028845Y-88949500D01*
X76028842Y-88949500D01*
X75871158Y-88949500D01*
X75871155Y-88949500D01*
X75716511Y-88980260D01*
X75716506Y-88980262D01*
X75716504Y-88980262D01*
X75716503Y-88980263D01*
X75692844Y-88990062D01*
X75645396Y-88999500D01*
X75349000Y-88999500D01*
X75281961Y-88979815D01*
X75263791Y-88958846D01*
X75261319Y-88961319D01*
X75225000Y-88925000D01*
X72775001Y-88925000D01*
X72775001Y-89062486D01*
X72785494Y-89165197D01*
X72840641Y-89331619D01*
X72840643Y-89331624D01*
X72932684Y-89480845D01*
X73056655Y-89604816D01*
X73056659Y-89604819D01*
X73059656Y-89606668D01*
X73061279Y-89608472D01*
X73062323Y-89609298D01*
X73062181Y-89609476D01*
X73106381Y-89658616D01*
X73117602Y-89727579D01*
X73089759Y-89791661D01*
X73081568Y-89800554D01*
X73071580Y-89810390D01*
X73056344Y-89819788D01*
X72932288Y-89943844D01*
X72926430Y-89953339D01*
X72915761Y-89963848D01*
X72897631Y-89973568D01*
X72882335Y-89987325D01*
X72864355Y-89991410D01*
X72854184Y-89996864D01*
X72843928Y-89996051D01*
X72828752Y-89999500D01*
X72265344Y-89999500D01*
X72198305Y-89979815D01*
X72165026Y-89948386D01*
X72050104Y-89790208D01*
X71899792Y-89639896D01*
X71899786Y-89639890D01*
X71727817Y-89514949D01*
X71718504Y-89510204D01*
X71667707Y-89462230D01*
X71650912Y-89394409D01*
X71673449Y-89328274D01*
X71718507Y-89289232D01*
X71727555Y-89284622D01*
X71781716Y-89245270D01*
X71781717Y-89245270D01*
X71149408Y-88612962D01*
X71212993Y-88595925D01*
X71327007Y-88530099D01*
X71420099Y-88437007D01*
X71485925Y-88322993D01*
X71502962Y-88259408D01*
X72135270Y-88891717D01*
X72135270Y-88891716D01*
X72174622Y-88837554D01*
X72271095Y-88648217D01*
X72336757Y-88446130D01*
X72336757Y-88446127D01*
X72361880Y-88287513D01*
X72775000Y-88287513D01*
X72775000Y-88425000D01*
X73750000Y-88425000D01*
X74250000Y-88425000D01*
X75224999Y-88425000D01*
X75224999Y-88287528D01*
X75224998Y-88287513D01*
X75214505Y-88184802D01*
X75159358Y-88018380D01*
X75159356Y-88018375D01*
X75067315Y-87869154D01*
X74943345Y-87745184D01*
X74794124Y-87653143D01*
X74794119Y-87653141D01*
X74627697Y-87597994D01*
X74627690Y-87597993D01*
X74524986Y-87587500D01*
X74250000Y-87587500D01*
X74250000Y-88425000D01*
X73750000Y-88425000D01*
X73750000Y-87587500D01*
X73475029Y-87587500D01*
X73475012Y-87587501D01*
X73372302Y-87597994D01*
X73205880Y-87653141D01*
X73205875Y-87653143D01*
X73056654Y-87745184D01*
X72932684Y-87869154D01*
X72840643Y-88018375D01*
X72840641Y-88018380D01*
X72785494Y-88184802D01*
X72785493Y-88184809D01*
X72775000Y-88287513D01*
X72361880Y-88287513D01*
X72365451Y-88264966D01*
X72365451Y-88264965D01*
X72370000Y-88236244D01*
X72370000Y-88023753D01*
X72336757Y-87813872D01*
X72336757Y-87813869D01*
X72271095Y-87611782D01*
X72174624Y-87422449D01*
X72135270Y-87368282D01*
X72135269Y-87368282D01*
X71502962Y-88000590D01*
X71485925Y-87937007D01*
X71420099Y-87822993D01*
X71327007Y-87729901D01*
X71212993Y-87664075D01*
X71149409Y-87647037D01*
X71781716Y-87014728D01*
X71727547Y-86975373D01*
X71727547Y-86975372D01*
X71718500Y-86970763D01*
X71667706Y-86922788D01*
X71650912Y-86854966D01*
X71673451Y-86788832D01*
X71718508Y-86749793D01*
X71727816Y-86745051D01*
X71854974Y-86652666D01*
X71899786Y-86620109D01*
X71899788Y-86620106D01*
X71899792Y-86620104D01*
X72050104Y-86469792D01*
X72050106Y-86469788D01*
X72050109Y-86469786D01*
X72175048Y-86297820D01*
X72175047Y-86297820D01*
X72175051Y-86297816D01*
X72271557Y-86108412D01*
X72337246Y-85906243D01*
X72370500Y-85696287D01*
X72370500Y-85483713D01*
X72337246Y-85273757D01*
X72271557Y-85071588D01*
X72175051Y-84882184D01*
X72175049Y-84882181D01*
X72175048Y-84882179D01*
X72050109Y-84710213D01*
X71899786Y-84559890D01*
X71727820Y-84434951D01*
X71727115Y-84434591D01*
X71719054Y-84430485D01*
X71668259Y-84382512D01*
X71651463Y-84314692D01*
X71673999Y-84248556D01*
X71719054Y-84209515D01*
X71727816Y-84205051D01*
X71830148Y-84130703D01*
X71899786Y-84080109D01*
X71899788Y-84080106D01*
X71899792Y-84080104D01*
X72050104Y-83929792D01*
X72050106Y-83929788D01*
X72050109Y-83929786D01*
X72175048Y-83757820D01*
X72175047Y-83757820D01*
X72175051Y-83757816D01*
X72271557Y-83568412D01*
X72337246Y-83366243D01*
X72370500Y-83156287D01*
X72370500Y-82943713D01*
X72337246Y-82733757D01*
X72289826Y-82587816D01*
X72289023Y-82559698D01*
X72285020Y-82531853D01*
X72288039Y-82525241D01*
X72287832Y-82517977D01*
X72302358Y-82493887D01*
X72314045Y-82468297D01*
X72320158Y-82464367D01*
X72323912Y-82458144D01*
X72349158Y-82445731D01*
X72372823Y-82430523D01*
X72383093Y-82429046D01*
X72386613Y-82427316D01*
X72407758Y-82425500D01*
X72654192Y-82425500D01*
X72721231Y-82445185D01*
X72741873Y-82461819D01*
X74060324Y-83780271D01*
X74060325Y-83780272D01*
X74060328Y-83780274D01*
X74060330Y-83780276D01*
X74163932Y-83849500D01*
X74166873Y-83851465D01*
X74285256Y-83900501D01*
X74285260Y-83900501D01*
X74285261Y-83900502D01*
X74410928Y-83925500D01*
X74410931Y-83925500D01*
X79655191Y-83925500D01*
X79722230Y-83945185D01*
X79767985Y-83997989D01*
X79777929Y-84067147D01*
X79748904Y-84130703D01*
X79742872Y-84137181D01*
X78294722Y-85585331D01*
X78282728Y-85603283D01*
X78270785Y-85621158D01*
X78251858Y-85649482D01*
X78223534Y-85691873D01*
X78174499Y-85810255D01*
X78174497Y-85810261D01*
X78149500Y-85935928D01*
X78149500Y-85935931D01*
X78149500Y-87464069D01*
X78149500Y-87464071D01*
X78149499Y-87464071D01*
X78174497Y-87589738D01*
X78174499Y-87589744D01*
X78223535Y-87708127D01*
X78294723Y-87814669D01*
X78294726Y-87814673D01*
X78294727Y-87814674D01*
X79113181Y-88633127D01*
X79146666Y-88694450D01*
X79149500Y-88720808D01*
X79149500Y-89979192D01*
X79129815Y-90046231D01*
X79113181Y-90066873D01*
X70666873Y-98513181D01*
X70605550Y-98546666D01*
X70579192Y-98549500D01*
X70035929Y-98549500D01*
X69910261Y-98574497D01*
X69910255Y-98574499D01*
X69791874Y-98623534D01*
X69685326Y-98694726D01*
X68902259Y-99477793D01*
X68840936Y-99511278D01*
X68795180Y-99512585D01*
X68627928Y-99486095D01*
X68586287Y-99479500D01*
X68373713Y-99479500D01*
X68325042Y-99487208D01*
X68163760Y-99512753D01*
X67961585Y-99578444D01*
X67772179Y-99674951D01*
X67600213Y-99799890D01*
X67449890Y-99950213D01*
X67324951Y-100122179D01*
X67228444Y-100311585D01*
X67162753Y-100513760D01*
X67129500Y-100723713D01*
X67129500Y-100936286D01*
X67162753Y-101146239D01*
X67228444Y-101348414D01*
X67324951Y-101537820D01*
X67449890Y-101709786D01*
X67600213Y-101860109D01*
X67772182Y-101985050D01*
X67780946Y-101989516D01*
X67831742Y-102037491D01*
X67848536Y-102105312D01*
X67825998Y-102171447D01*
X67780946Y-102210484D01*
X67772182Y-102214949D01*
X67600213Y-102339890D01*
X67449890Y-102490213D01*
X67324951Y-102662179D01*
X67228444Y-102851585D01*
X67162753Y-103053760D01*
X67129500Y-103263713D01*
X67129500Y-103476286D01*
X67162735Y-103686127D01*
X67162754Y-103686243D01*
X67198002Y-103794726D01*
X67228444Y-103888414D01*
X67324951Y-104077820D01*
X67449890Y-104249786D01*
X67600213Y-104400109D01*
X67772182Y-104525050D01*
X67780946Y-104529516D01*
X67831742Y-104577491D01*
X67848536Y-104645312D01*
X67825998Y-104711447D01*
X67780946Y-104750484D01*
X67772182Y-104754949D01*
X67600213Y-104879890D01*
X67449890Y-105030213D01*
X67324951Y-105202179D01*
X67228444Y-105391585D01*
X67162753Y-105593760D01*
X67129500Y-105803713D01*
X67129500Y-106016286D01*
X67162735Y-106226127D01*
X67162754Y-106226243D01*
X67220002Y-106402434D01*
X67228444Y-106428414D01*
X67324951Y-106617820D01*
X67449890Y-106789786D01*
X67600213Y-106940109D01*
X67772182Y-107065050D01*
X67780946Y-107069516D01*
X67831742Y-107117491D01*
X67848536Y-107185312D01*
X67825998Y-107251447D01*
X67780946Y-107290484D01*
X67772182Y-107294949D01*
X67600213Y-107419890D01*
X67449890Y-107570213D01*
X67324951Y-107742179D01*
X67228444Y-107931585D01*
X67228443Y-107931587D01*
X67228443Y-107931588D01*
X67213342Y-107978063D01*
X67162753Y-108133760D01*
X67129500Y-108343713D01*
X67129500Y-108556286D01*
X67158551Y-108739711D01*
X67162754Y-108766243D01*
X67188608Y-108845814D01*
X67228444Y-108968414D01*
X67324951Y-109157820D01*
X67449890Y-109329786D01*
X67600213Y-109480109D01*
X67772179Y-109605048D01*
X67772181Y-109605049D01*
X67772184Y-109605051D01*
X67781493Y-109609794D01*
X67832290Y-109657766D01*
X67849087Y-109725587D01*
X67826552Y-109791722D01*
X67781505Y-109830760D01*
X67772446Y-109835376D01*
X67772440Y-109835380D01*
X67718282Y-109874727D01*
X67718282Y-109874728D01*
X68350591Y-110507037D01*
X68287007Y-110524075D01*
X68172993Y-110589901D01*
X68079901Y-110682993D01*
X68014075Y-110797007D01*
X67997037Y-110860591D01*
X67364728Y-110228282D01*
X67364727Y-110228282D01*
X67325380Y-110282439D01*
X67228904Y-110471782D01*
X67163242Y-110673869D01*
X67163242Y-110673872D01*
X67130000Y-110883753D01*
X67130000Y-111096246D01*
X67163242Y-111306127D01*
X67163242Y-111306130D01*
X67228904Y-111508217D01*
X67325375Y-111697550D01*
X67364728Y-111751716D01*
X67997037Y-111119408D01*
X68014075Y-111182993D01*
X68079901Y-111297007D01*
X68172993Y-111390099D01*
X68287007Y-111455925D01*
X68350590Y-111472962D01*
X67718282Y-112105269D01*
X67718282Y-112105270D01*
X67772452Y-112144626D01*
X67772451Y-112144626D01*
X67781495Y-112149234D01*
X67832292Y-112197208D01*
X67849087Y-112265029D01*
X67826550Y-112331164D01*
X67781499Y-112370202D01*
X67772182Y-112374949D01*
X67600213Y-112499890D01*
X67449890Y-112650213D01*
X67324951Y-112822179D01*
X67228444Y-113011585D01*
X67162753Y-113213760D01*
X67129500Y-113423713D01*
X67129500Y-113636286D01*
X67162735Y-113846127D01*
X67162754Y-113846243D01*
X67210797Y-113994104D01*
X67228444Y-114048414D01*
X67324951Y-114237820D01*
X67449890Y-114409786D01*
X67600213Y-114560109D01*
X67772179Y-114685048D01*
X67772181Y-114685049D01*
X67772184Y-114685051D01*
X67961588Y-114781557D01*
X68163757Y-114847246D01*
X68373713Y-114880500D01*
X68373714Y-114880500D01*
X68586286Y-114880500D01*
X68586287Y-114880500D01*
X68796243Y-114847246D01*
X68998412Y-114781557D01*
X69187816Y-114685051D01*
X69256965Y-114634812D01*
X69359786Y-114560109D01*
X69359788Y-114560106D01*
X69359792Y-114560104D01*
X69510104Y-114409792D01*
X69527945Y-114385236D01*
X69566903Y-114331615D01*
X69571234Y-114328274D01*
X69573508Y-114323297D01*
X69598610Y-114307164D01*
X69622233Y-114288949D01*
X69628904Y-114287696D01*
X69632286Y-114285523D01*
X69667221Y-114280500D01*
X69832779Y-114280500D01*
X69899818Y-114300185D01*
X69933097Y-114331615D01*
X69989892Y-114409788D01*
X70140213Y-114560109D01*
X70312179Y-114685048D01*
X70312181Y-114685049D01*
X70312184Y-114685051D01*
X70501588Y-114781557D01*
X70703757Y-114847246D01*
X70703759Y-114847246D01*
X70704509Y-114847490D01*
X70753872Y-114877740D01*
X72938181Y-117062048D01*
X72971666Y-117123371D01*
X72974500Y-117149729D01*
X72974500Y-117650001D01*
X72974501Y-117650019D01*
X72985000Y-117752796D01*
X72985001Y-117752799D01*
X73040185Y-117919331D01*
X73040186Y-117919334D01*
X73132288Y-118068656D01*
X73256344Y-118192712D01*
X73259628Y-118194737D01*
X73259653Y-118194753D01*
X73261445Y-118196746D01*
X73262011Y-118197193D01*
X73261934Y-118197289D01*
X73306379Y-118246699D01*
X73317603Y-118315661D01*
X73289761Y-118379744D01*
X73259665Y-118405826D01*
X73256660Y-118407679D01*
X73256655Y-118407683D01*
X73132684Y-118531654D01*
X73040643Y-118680875D01*
X73040641Y-118680880D01*
X72985494Y-118847302D01*
X72985493Y-118847309D01*
X72975000Y-118950013D01*
X72975000Y-119087500D01*
X75424999Y-119087500D01*
X75424999Y-118950028D01*
X75424998Y-118950013D01*
X75414505Y-118847302D01*
X75359358Y-118680880D01*
X75359356Y-118680875D01*
X75267315Y-118531654D01*
X75143344Y-118407683D01*
X75143341Y-118407681D01*
X75140339Y-118405829D01*
X75138713Y-118404021D01*
X75137677Y-118403202D01*
X75137817Y-118403024D01*
X75093617Y-118353880D01*
X75082397Y-118284917D01*
X75110243Y-118220836D01*
X75140344Y-118194754D01*
X75143656Y-118192712D01*
X75267712Y-118068656D01*
X75359814Y-117919334D01*
X75414999Y-117752797D01*
X75425500Y-117650009D01*
X75425499Y-116874992D01*
X75414999Y-116772203D01*
X75359814Y-116605666D01*
X75267712Y-116456344D01*
X75143656Y-116332288D01*
X75026850Y-116260241D01*
X74980127Y-116208295D01*
X74968904Y-116139333D01*
X74970331Y-116130512D01*
X75000500Y-115978844D01*
X75000500Y-115821155D01*
X75000499Y-115821153D01*
X74978269Y-115709397D01*
X74969737Y-115666503D01*
X74969735Y-115666498D01*
X74909397Y-115520827D01*
X74909390Y-115520814D01*
X74821789Y-115389711D01*
X74821786Y-115389707D01*
X74710292Y-115278213D01*
X74710288Y-115278210D01*
X74579185Y-115190609D01*
X74579172Y-115190602D01*
X74433501Y-115130264D01*
X74433489Y-115130261D01*
X74278845Y-115099500D01*
X74278842Y-115099500D01*
X74121158Y-115099500D01*
X74121155Y-115099500D01*
X73966510Y-115130261D01*
X73966498Y-115130264D01*
X73820827Y-115190602D01*
X73820814Y-115190609D01*
X73689711Y-115278210D01*
X73689707Y-115278213D01*
X73573903Y-115394018D01*
X73572669Y-115392784D01*
X73521757Y-115427449D01*
X73451913Y-115429307D01*
X73395991Y-115397124D01*
X72847558Y-114848691D01*
X72259558Y-114260690D01*
X72226073Y-114199367D01*
X72231057Y-114129675D01*
X72236755Y-114116714D01*
X72243847Y-114102795D01*
X72271557Y-114048412D01*
X72337246Y-113846243D01*
X72370500Y-113636287D01*
X72370500Y-113423713D01*
X72337246Y-113213757D01*
X72271557Y-113011588D01*
X72175051Y-112822184D01*
X72175049Y-112822181D01*
X72175048Y-112822179D01*
X72050109Y-112650213D01*
X71899786Y-112499890D01*
X71727817Y-112374949D01*
X71718504Y-112370204D01*
X71667707Y-112322230D01*
X71650912Y-112254409D01*
X71673449Y-112188274D01*
X71718507Y-112149232D01*
X71727555Y-112144622D01*
X71781716Y-112105270D01*
X71781717Y-112105270D01*
X71149408Y-111472962D01*
X71212993Y-111455925D01*
X71327007Y-111390099D01*
X71420099Y-111297007D01*
X71485925Y-111182993D01*
X71502962Y-111119408D01*
X72135270Y-111751717D01*
X72135270Y-111751716D01*
X72174622Y-111697554D01*
X72271095Y-111508217D01*
X72336757Y-111306130D01*
X72336757Y-111306127D01*
X72370000Y-111096246D01*
X72370000Y-110883753D01*
X72336757Y-110673872D01*
X72336757Y-110673869D01*
X72271095Y-110471782D01*
X72174624Y-110282449D01*
X72135270Y-110228282D01*
X72135269Y-110228282D01*
X71502962Y-110860590D01*
X71485925Y-110797007D01*
X71420099Y-110682993D01*
X71327007Y-110589901D01*
X71212993Y-110524075D01*
X71149409Y-110507037D01*
X71781716Y-109874728D01*
X71727547Y-109835373D01*
X71727547Y-109835372D01*
X71718500Y-109830763D01*
X71667706Y-109782788D01*
X71650912Y-109714966D01*
X71673451Y-109648832D01*
X71718508Y-109609793D01*
X71727816Y-109605051D01*
X71824490Y-109534814D01*
X71899786Y-109480109D01*
X71899788Y-109480106D01*
X71899792Y-109480104D01*
X72050104Y-109329792D01*
X72050106Y-109329788D01*
X72050109Y-109329786D01*
X72175048Y-109157820D01*
X72175050Y-109157817D01*
X72175051Y-109157816D01*
X72271557Y-108968412D01*
X72337246Y-108766243D01*
X72370500Y-108556287D01*
X72370500Y-108343713D01*
X72338709Y-108142993D01*
X72336484Y-108128945D01*
X72338123Y-108128685D01*
X72341257Y-108066126D01*
X72370655Y-108019289D01*
X75337821Y-105052123D01*
X75399142Y-105018640D01*
X75468834Y-105023624D01*
X75524767Y-105065496D01*
X75549184Y-105130960D01*
X75549500Y-105139804D01*
X75549500Y-105208943D01*
X75549501Y-105208969D01*
X75552435Y-105246252D01*
X75598815Y-105405895D01*
X75598819Y-105405902D01*
X75683440Y-105548991D01*
X75683444Y-105548996D01*
X75683445Y-105548998D01*
X75788182Y-105653735D01*
X75821666Y-105715056D01*
X75824500Y-105741415D01*
X75824500Y-106458584D01*
X75804815Y-106525623D01*
X75788181Y-106546265D01*
X75683449Y-106650996D01*
X75683440Y-106651008D01*
X75598819Y-106794097D01*
X75598815Y-106794104D01*
X75552435Y-106953743D01*
X75552434Y-106953749D01*
X75549500Y-106991035D01*
X75549500Y-108808944D01*
X75549501Y-108808969D01*
X75552435Y-108846252D01*
X75598815Y-109005895D01*
X75598819Y-109005902D01*
X75683440Y-109148991D01*
X75683444Y-109148996D01*
X75683445Y-109148998D01*
X75788182Y-109253735D01*
X75821666Y-109315056D01*
X75824500Y-109341415D01*
X75824500Y-110058584D01*
X75804815Y-110125623D01*
X75788181Y-110146265D01*
X75683449Y-110250996D01*
X75683440Y-110251008D01*
X75598819Y-110394097D01*
X75598815Y-110394104D01*
X75552435Y-110553743D01*
X75552434Y-110553749D01*
X75549500Y-110591035D01*
X75549500Y-112408944D01*
X75549501Y-112408969D01*
X75552435Y-112446252D01*
X75598815Y-112605895D01*
X75598819Y-112605902D01*
X75683440Y-112748991D01*
X75683444Y-112748996D01*
X75683445Y-112748998D01*
X75788182Y-112853735D01*
X75821666Y-112915056D01*
X75824500Y-112941415D01*
X75824500Y-113658584D01*
X75804815Y-113725623D01*
X75788181Y-113746265D01*
X75683449Y-113850996D01*
X75683440Y-113851008D01*
X75598819Y-113994097D01*
X75598815Y-113994104D01*
X75552435Y-114153743D01*
X75552434Y-114153749D01*
X75549500Y-114191035D01*
X75549500Y-116008944D01*
X75549501Y-116008969D01*
X75552435Y-116046252D01*
X75598815Y-116205895D01*
X75598819Y-116205902D01*
X75683440Y-116348991D01*
X75683449Y-116349003D01*
X75800996Y-116466550D01*
X75801000Y-116466553D01*
X75801002Y-116466555D01*
X75801005Y-116466556D01*
X75801008Y-116466559D01*
X75944097Y-116551180D01*
X75944104Y-116551184D01*
X76103743Y-116597564D01*
X76103746Y-116597564D01*
X76103748Y-116597565D01*
X76141043Y-116600500D01*
X77008956Y-116600499D01*
X77046252Y-116597565D01*
X77149424Y-116567589D01*
X77205895Y-116551184D01*
X77205896Y-116551182D01*
X77205900Y-116551182D01*
X77348998Y-116466555D01*
X77466555Y-116348998D01*
X77551182Y-116205900D01*
X77551182Y-116205896D01*
X77551184Y-116205895D01*
X77597564Y-116046256D01*
X77597565Y-116046250D01*
X77600499Y-116008964D01*
X77600500Y-116008957D01*
X77600499Y-114921153D01*
X78599500Y-114921153D01*
X78599500Y-115078846D01*
X78630261Y-115233489D01*
X78630264Y-115233501D01*
X78690602Y-115379172D01*
X78690609Y-115379185D01*
X78778210Y-115510288D01*
X78778213Y-115510292D01*
X78889707Y-115621786D01*
X78889711Y-115621789D01*
X79020814Y-115709390D01*
X79020827Y-115709397D01*
X79096275Y-115740648D01*
X79166503Y-115769737D01*
X79321153Y-115800499D01*
X79321156Y-115800500D01*
X79321158Y-115800500D01*
X79478844Y-115800500D01*
X79478845Y-115800499D01*
X79633497Y-115769737D01*
X79779179Y-115709394D01*
X79806609Y-115691065D01*
X79873285Y-115670187D01*
X79940666Y-115688670D01*
X79987357Y-115740648D01*
X79999501Y-115794167D01*
X79999501Y-116008969D01*
X80002435Y-116046252D01*
X80048815Y-116205895D01*
X80048819Y-116205902D01*
X80133440Y-116348991D01*
X80133449Y-116349003D01*
X80250996Y-116466550D01*
X80251000Y-116466553D01*
X80251002Y-116466555D01*
X80251005Y-116466556D01*
X80251008Y-116466559D01*
X80394097Y-116551180D01*
X80394104Y-116551184D01*
X80553743Y-116597564D01*
X80553746Y-116597564D01*
X80553748Y-116597565D01*
X80591043Y-116600500D01*
X81458956Y-116600499D01*
X81496252Y-116597565D01*
X81599424Y-116567589D01*
X81655895Y-116551184D01*
X81655896Y-116551182D01*
X81655900Y-116551182D01*
X81798998Y-116466555D01*
X81916555Y-116348998D01*
X82001182Y-116205900D01*
X82001182Y-116205896D01*
X82001184Y-116205895D01*
X82047564Y-116046256D01*
X82047565Y-116046250D01*
X82050499Y-116008964D01*
X82050500Y-116008957D01*
X82050499Y-114744884D01*
X82070184Y-114677847D01*
X82122987Y-114632092D01*
X82192146Y-114622148D01*
X82226908Y-114632506D01*
X82230878Y-114634357D01*
X82397302Y-114689505D01*
X82397309Y-114689506D01*
X82500019Y-114699999D01*
X82624999Y-114699999D01*
X82625000Y-114699998D01*
X82625000Y-113750000D01*
X81860914Y-113750000D01*
X81797794Y-113732732D01*
X81655902Y-113648819D01*
X81655895Y-113648815D01*
X81496256Y-113602435D01*
X81496250Y-113602434D01*
X81458957Y-113599500D01*
X80591055Y-113599500D01*
X80591030Y-113599501D01*
X80553747Y-113602435D01*
X80394104Y-113648815D01*
X80394097Y-113648819D01*
X80251008Y-113733440D01*
X80250996Y-113733449D01*
X80133449Y-113850996D01*
X80133440Y-113851008D01*
X80048819Y-113994097D01*
X80048815Y-113994104D01*
X80002435Y-114153743D01*
X80002434Y-114153749D01*
X79999500Y-114191035D01*
X79999500Y-114205831D01*
X79979815Y-114272870D01*
X79927011Y-114318625D01*
X79857853Y-114328569D01*
X79806610Y-114308934D01*
X79779183Y-114290608D01*
X79779172Y-114290602D01*
X79633501Y-114230264D01*
X79633489Y-114230261D01*
X79478845Y-114199500D01*
X79478842Y-114199500D01*
X79321158Y-114199500D01*
X79321155Y-114199500D01*
X79166510Y-114230261D01*
X79166498Y-114230264D01*
X79020827Y-114290602D01*
X79020814Y-114290609D01*
X78889711Y-114378210D01*
X78889707Y-114378213D01*
X78778213Y-114489707D01*
X78778210Y-114489711D01*
X78690609Y-114620814D01*
X78690602Y-114620827D01*
X78630264Y-114766498D01*
X78630261Y-114766510D01*
X78599500Y-114921153D01*
X77600499Y-114921153D01*
X77600499Y-114191044D01*
X77597565Y-114153748D01*
X77566962Y-114048414D01*
X77551184Y-113994104D01*
X77551180Y-113994097D01*
X77466559Y-113851008D01*
X77466550Y-113850996D01*
X77361819Y-113746265D01*
X77328334Y-113684942D01*
X77325500Y-113658584D01*
X77325500Y-112941415D01*
X77345185Y-112874376D01*
X77361814Y-112853738D01*
X77466555Y-112748998D01*
X77551182Y-112605900D01*
X77551182Y-112605896D01*
X77551184Y-112605895D01*
X77597564Y-112446256D01*
X77597565Y-112446250D01*
X77600500Y-112408957D01*
X77600499Y-110591044D01*
X77597565Y-110553748D01*
X77552083Y-110397200D01*
X77551184Y-110394104D01*
X77551180Y-110394097D01*
X77466559Y-110251008D01*
X77466550Y-110250996D01*
X77361819Y-110146265D01*
X77347115Y-110119337D01*
X77330523Y-110093519D01*
X77329631Y-110087318D01*
X77328334Y-110084942D01*
X77325500Y-110058584D01*
X77325500Y-110035872D01*
X77345185Y-109968833D01*
X77397989Y-109923078D01*
X77467147Y-109913134D01*
X77515391Y-109931623D01*
X77515446Y-109931521D01*
X77516258Y-109931955D01*
X77518398Y-109932775D01*
X77519611Y-109933586D01*
X77520819Y-109934393D01*
X77520827Y-109934397D01*
X77666498Y-109994735D01*
X77666503Y-109994737D01*
X77792176Y-110019735D01*
X77821153Y-110025499D01*
X77821156Y-110025500D01*
X77821158Y-110025500D01*
X77978844Y-110025500D01*
X77978845Y-110025499D01*
X78133497Y-109994737D01*
X78279179Y-109934394D01*
X78410289Y-109846789D01*
X78521789Y-109735289D01*
X78609394Y-109604179D01*
X78669737Y-109458497D01*
X78700500Y-109303842D01*
X78700500Y-109146158D01*
X78700500Y-109146155D01*
X78700499Y-109146153D01*
X78672601Y-109005902D01*
X78669737Y-108991503D01*
X78660173Y-108968414D01*
X78609397Y-108845827D01*
X78609390Y-108845814D01*
X78521789Y-108714711D01*
X78521786Y-108714707D01*
X78410292Y-108603213D01*
X78410288Y-108603210D01*
X78279185Y-108515609D01*
X78279175Y-108515604D01*
X78255523Y-108505807D01*
X78215295Y-108478927D01*
X77636818Y-107900450D01*
X77603333Y-107839127D01*
X77601400Y-107821153D01*
X78599500Y-107821153D01*
X78599500Y-107978846D01*
X78630261Y-108133489D01*
X78630264Y-108133501D01*
X78690602Y-108279172D01*
X78690609Y-108279185D01*
X78778210Y-108410288D01*
X78778213Y-108410292D01*
X78889707Y-108521786D01*
X78889711Y-108521789D01*
X79020814Y-108609390D01*
X79020827Y-108609397D01*
X79166498Y-108669735D01*
X79166503Y-108669737D01*
X79286475Y-108693601D01*
X79302306Y-108696750D01*
X79364217Y-108729134D01*
X79398791Y-108789850D01*
X79395052Y-108859620D01*
X79392677Y-108865818D01*
X79330263Y-109016503D01*
X79330261Y-109016510D01*
X79299500Y-109171153D01*
X79299500Y-109328846D01*
X79330261Y-109483489D01*
X79330264Y-109483501D01*
X79390602Y-109629172D01*
X79390609Y-109629185D01*
X79478210Y-109760288D01*
X79478213Y-109760292D01*
X79589707Y-109871786D01*
X79589711Y-109871789D01*
X79720814Y-109959390D01*
X79720827Y-109959397D01*
X79866498Y-110019735D01*
X79866503Y-110019737D01*
X80012687Y-110048815D01*
X80021153Y-110050499D01*
X80021156Y-110050500D01*
X80035854Y-110050500D01*
X80102893Y-110070185D01*
X80148648Y-110122989D01*
X80158592Y-110192147D01*
X80136661Y-110243839D01*
X80137416Y-110244286D01*
X80134074Y-110249935D01*
X80133838Y-110250494D01*
X80133444Y-110251000D01*
X80048819Y-110394097D01*
X80048815Y-110394104D01*
X80002435Y-110553743D01*
X80002434Y-110553749D01*
X79999500Y-110591035D01*
X79999500Y-111338444D01*
X79979815Y-111405483D01*
X79927011Y-111451238D01*
X79857853Y-111461182D01*
X79839575Y-111456202D01*
X79839324Y-111457031D01*
X79833500Y-111455264D01*
X79833497Y-111455263D01*
X79833492Y-111455262D01*
X79833489Y-111455261D01*
X79678845Y-111424500D01*
X79678842Y-111424500D01*
X79521158Y-111424500D01*
X79521155Y-111424500D01*
X79366510Y-111455261D01*
X79366498Y-111455264D01*
X79220827Y-111515602D01*
X79220814Y-111515609D01*
X79089711Y-111603210D01*
X79089707Y-111603213D01*
X78978213Y-111714707D01*
X78978210Y-111714711D01*
X78890609Y-111845814D01*
X78890602Y-111845827D01*
X78830264Y-111991498D01*
X78830261Y-111991510D01*
X78799500Y-112146153D01*
X78799500Y-112303846D01*
X78830261Y-112458489D01*
X78830264Y-112458501D01*
X78890602Y-112604172D01*
X78890609Y-112604185D01*
X78978210Y-112735288D01*
X78978213Y-112735292D01*
X79089707Y-112846786D01*
X79089711Y-112846789D01*
X79220814Y-112934390D01*
X79220827Y-112934397D01*
X79363596Y-112993533D01*
X79366503Y-112994737D01*
X79521153Y-113025499D01*
X79521156Y-113025500D01*
X79521158Y-113025500D01*
X79678844Y-113025500D01*
X79678845Y-113025499D01*
X79833497Y-112994737D01*
X79979179Y-112934394D01*
X80036044Y-112896397D01*
X80054091Y-112890746D01*
X80070000Y-112880523D01*
X80100959Y-112876071D01*
X80102721Y-112875520D01*
X80104935Y-112875500D01*
X80232205Y-112875500D01*
X80295325Y-112892768D01*
X80394097Y-112951180D01*
X80394104Y-112951184D01*
X80553743Y-112997564D01*
X80553746Y-112997564D01*
X80553748Y-112997565D01*
X80591043Y-113000500D01*
X81458956Y-113000499D01*
X81496252Y-112997565D01*
X81641405Y-112955393D01*
X81711274Y-112955592D01*
X81769944Y-112993533D01*
X81798788Y-113057172D01*
X81800000Y-113074469D01*
X81800000Y-113250000D01*
X82625000Y-113250000D01*
X82625000Y-109799999D01*
X82612681Y-109787680D01*
X82579196Y-109726357D01*
X82584180Y-109656665D01*
X82612681Y-109612318D01*
X82625000Y-109599999D01*
X82625000Y-106150000D01*
X81800001Y-106150000D01*
X81800001Y-106325530D01*
X81780316Y-106392569D01*
X81727512Y-106438324D01*
X81658354Y-106448268D01*
X81641406Y-106444606D01*
X81496256Y-106402435D01*
X81496250Y-106402434D01*
X81458957Y-106399500D01*
X80591055Y-106399500D01*
X80591030Y-106399501D01*
X80553747Y-106402435D01*
X80394104Y-106448815D01*
X80394097Y-106448819D01*
X80251008Y-106533440D01*
X80250996Y-106533449D01*
X80133449Y-106650996D01*
X80133440Y-106651008D01*
X80048819Y-106794097D01*
X80048815Y-106794104D01*
X80002435Y-106953743D01*
X80002434Y-106953749D01*
X79999500Y-106991035D01*
X79999500Y-107105831D01*
X79979815Y-107172870D01*
X79927011Y-107218625D01*
X79857853Y-107228569D01*
X79806610Y-107208934D01*
X79779183Y-107190608D01*
X79779172Y-107190602D01*
X79633501Y-107130264D01*
X79633489Y-107130261D01*
X79478845Y-107099500D01*
X79478842Y-107099500D01*
X79321158Y-107099500D01*
X79321155Y-107099500D01*
X79166510Y-107130261D01*
X79166498Y-107130264D01*
X79020827Y-107190602D01*
X79020814Y-107190609D01*
X78889711Y-107278210D01*
X78889707Y-107278213D01*
X78778213Y-107389707D01*
X78778210Y-107389711D01*
X78690609Y-107520814D01*
X78690602Y-107520827D01*
X78630264Y-107666498D01*
X78630261Y-107666510D01*
X78599500Y-107821153D01*
X77601400Y-107821153D01*
X77600499Y-107812769D01*
X77600499Y-106991055D01*
X77600498Y-106991030D01*
X77600207Y-106987335D01*
X77597565Y-106953748D01*
X77558317Y-106818657D01*
X77551184Y-106794104D01*
X77551180Y-106794097D01*
X77529475Y-106757396D01*
X77477398Y-106669336D01*
X77466559Y-106651008D01*
X77466550Y-106650996D01*
X77361819Y-106546265D01*
X77328334Y-106484942D01*
X77325500Y-106458584D01*
X77325500Y-105741415D01*
X77345185Y-105674376D01*
X77361814Y-105653738D01*
X77466555Y-105548998D01*
X77551182Y-105405900D01*
X77552357Y-105401852D01*
X77554144Y-105399054D01*
X77554282Y-105398737D01*
X77554333Y-105398759D01*
X77589958Y-105342965D01*
X77653429Y-105313753D01*
X77722616Y-105323494D01*
X77774538Y-105367548D01*
X77853210Y-105485288D01*
X77853213Y-105485292D01*
X77964707Y-105596786D01*
X77964711Y-105596789D01*
X78095814Y-105684390D01*
X78095827Y-105684397D01*
X78174556Y-105717007D01*
X78241503Y-105744737D01*
X78396153Y-105775499D01*
X78396156Y-105775500D01*
X78396158Y-105775500D01*
X78553844Y-105775500D01*
X78553845Y-105775499D01*
X78708497Y-105744737D01*
X78854179Y-105684394D01*
X78985289Y-105596789D01*
X79096789Y-105485289D01*
X79184394Y-105354179D01*
X79244737Y-105208497D01*
X79258079Y-105141417D01*
X79266843Y-105124662D01*
X79270864Y-105106182D01*
X79289606Y-105081146D01*
X79290463Y-105079509D01*
X79292016Y-105077928D01*
X79383128Y-104986818D01*
X79444451Y-104953333D01*
X79470808Y-104950500D01*
X79875501Y-104950500D01*
X79942540Y-104970185D01*
X79988295Y-105022989D01*
X79999501Y-105074500D01*
X79999501Y-105208969D01*
X80002435Y-105246252D01*
X80048815Y-105405895D01*
X80048819Y-105405902D01*
X80133440Y-105548991D01*
X80133449Y-105549003D01*
X80250996Y-105666550D01*
X80251000Y-105666553D01*
X80251002Y-105666555D01*
X80251005Y-105666556D01*
X80251008Y-105666559D01*
X80394097Y-105751180D01*
X80394104Y-105751184D01*
X80553743Y-105797564D01*
X80553746Y-105797564D01*
X80553748Y-105797565D01*
X80591043Y-105800500D01*
X81458956Y-105800499D01*
X81496252Y-105797565D01*
X81599424Y-105767589D01*
X81655895Y-105751184D01*
X81655896Y-105751182D01*
X81655900Y-105751182D01*
X81720996Y-105712684D01*
X81797794Y-105667268D01*
X81860914Y-105650000D01*
X82625000Y-105650000D01*
X82625000Y-101150000D01*
X81800001Y-101150000D01*
X81800001Y-101399986D01*
X81810494Y-101502697D01*
X81865641Y-101669119D01*
X81865643Y-101669124D01*
X81957684Y-101818345D01*
X82081654Y-101942315D01*
X82230875Y-102034356D01*
X82237421Y-102037408D01*
X82236097Y-102040246D01*
X82282009Y-102071959D01*
X82308903Y-102136445D01*
X82296664Y-102205235D01*
X82249178Y-102256487D01*
X82237146Y-102262002D01*
X82237421Y-102262592D01*
X82230875Y-102265643D01*
X82081654Y-102357684D01*
X81957684Y-102481654D01*
X81865643Y-102630875D01*
X81865641Y-102630880D01*
X81818792Y-102772263D01*
X81779019Y-102829708D01*
X81714504Y-102856531D01*
X81664000Y-102848898D01*
X81663392Y-102850994D01*
X81496256Y-102802435D01*
X81496250Y-102802434D01*
X81458957Y-102799500D01*
X80591055Y-102799500D01*
X80591030Y-102799501D01*
X80553747Y-102802435D01*
X80394104Y-102848815D01*
X80394097Y-102848819D01*
X80251008Y-102933440D01*
X80250996Y-102933449D01*
X80133449Y-103050996D01*
X80133440Y-103051008D01*
X80048819Y-103194097D01*
X80048815Y-103194104D01*
X80002435Y-103353743D01*
X80002434Y-103353749D01*
X79999500Y-103391035D01*
X79999500Y-103525500D01*
X79979815Y-103592539D01*
X79927011Y-103638294D01*
X79875500Y-103649500D01*
X79085929Y-103649500D01*
X78960261Y-103674497D01*
X78960255Y-103674499D01*
X78841875Y-103723533D01*
X78841866Y-103723538D01*
X78735331Y-103794723D01*
X78735327Y-103794726D01*
X78372069Y-104157984D01*
X78310746Y-104191469D01*
X78308580Y-104191920D01*
X78241508Y-104205261D01*
X78241498Y-104205264D01*
X78095827Y-104265602D01*
X78095814Y-104265609D01*
X77964711Y-104353210D01*
X77964707Y-104353213D01*
X77853213Y-104464707D01*
X77853208Y-104464714D01*
X77827600Y-104503038D01*
X77773987Y-104547843D01*
X77704662Y-104556549D01*
X77641635Y-104526393D01*
X77604917Y-104466950D01*
X77600499Y-104434150D01*
X77600499Y-103391044D01*
X77597565Y-103353748D01*
X77573468Y-103270808D01*
X77551184Y-103194104D01*
X77551180Y-103194097D01*
X77544692Y-103183127D01*
X77500715Y-103108764D01*
X77466559Y-103051008D01*
X77466550Y-103050996D01*
X77349003Y-102933449D01*
X77348991Y-102933440D01*
X77205902Y-102848819D01*
X77205895Y-102848815D01*
X77046256Y-102802435D01*
X77046250Y-102802434D01*
X77008964Y-102799500D01*
X77008957Y-102799500D01*
X76374500Y-102799500D01*
X76307461Y-102779815D01*
X76261706Y-102727011D01*
X76250500Y-102675500D01*
X76250500Y-101320807D01*
X76270185Y-101253768D01*
X76286819Y-101233126D01*
X81937819Y-95582126D01*
X81999142Y-95548641D01*
X82068834Y-95553625D01*
X82124767Y-95595497D01*
X82149184Y-95660961D01*
X82149500Y-95669807D01*
X82149500Y-98595064D01*
X82129815Y-98662103D01*
X82128603Y-98663954D01*
X82090608Y-98720817D01*
X82090602Y-98720828D01*
X82030264Y-98866498D01*
X82030261Y-98866510D01*
X81999500Y-99021153D01*
X81999500Y-99178846D01*
X82030261Y-99333489D01*
X82030264Y-99333501D01*
X82090602Y-99479172D01*
X82090609Y-99479185D01*
X82178210Y-99610288D01*
X82178213Y-99610292D01*
X82183497Y-99615576D01*
X82216982Y-99676899D01*
X82211998Y-99746591D01*
X82170126Y-99802524D01*
X82160914Y-99808795D01*
X82081656Y-99857682D01*
X81957684Y-99981654D01*
X81865643Y-100130875D01*
X81865641Y-100130880D01*
X81810494Y-100297302D01*
X81810493Y-100297309D01*
X81800000Y-100400013D01*
X81800000Y-100650000D01*
X82751000Y-100650000D01*
X82818039Y-100669685D01*
X82863794Y-100722489D01*
X82875000Y-100774000D01*
X82875000Y-100900000D01*
X83001000Y-100900000D01*
X83068039Y-100919685D01*
X83113794Y-100972489D01*
X83125000Y-101024000D01*
X83125000Y-109599999D01*
X83137319Y-109612318D01*
X83170804Y-109673641D01*
X83165820Y-109743333D01*
X83137320Y-109787679D01*
X83125000Y-109799999D01*
X83125000Y-114699999D01*
X83249972Y-114699999D01*
X83249986Y-114699998D01*
X83352697Y-114689505D01*
X83519119Y-114634358D01*
X83519124Y-114634356D01*
X83668345Y-114542315D01*
X83792318Y-114418342D01*
X83794165Y-114415348D01*
X83795969Y-114413724D01*
X83796798Y-114412677D01*
X83796976Y-114412818D01*
X83846110Y-114368621D01*
X83915073Y-114357396D01*
X83979156Y-114385236D01*
X84005243Y-114415341D01*
X84007288Y-114418656D01*
X84131344Y-114542712D01*
X84280666Y-114634814D01*
X84447203Y-114689999D01*
X84549991Y-114700500D01*
X85300008Y-114700499D01*
X85300016Y-114700498D01*
X85300019Y-114700498D01*
X85356302Y-114694748D01*
X85402797Y-114689999D01*
X85569334Y-114634814D01*
X85718656Y-114542712D01*
X85718664Y-114542703D01*
X85723085Y-114539209D01*
X85787879Y-114513066D01*
X85856522Y-114526103D01*
X85876915Y-114539209D01*
X85881339Y-114542707D01*
X85881344Y-114542712D01*
X86030666Y-114634814D01*
X86197203Y-114689999D01*
X86299991Y-114700500D01*
X86807215Y-114700499D01*
X86874254Y-114720183D01*
X86920009Y-114772987D01*
X86929953Y-114842146D01*
X86928832Y-114848690D01*
X86899500Y-114996153D01*
X86899500Y-115153846D01*
X86930261Y-115308489D01*
X86930264Y-115308501D01*
X86990602Y-115454172D01*
X86990609Y-115454185D01*
X87078210Y-115585288D01*
X87078213Y-115585292D01*
X87189707Y-115696786D01*
X87189711Y-115696789D01*
X87320814Y-115784390D01*
X87320827Y-115784397D01*
X87466498Y-115844735D01*
X87466503Y-115844737D01*
X87621153Y-115875499D01*
X87621156Y-115875500D01*
X87621158Y-115875500D01*
X87778844Y-115875500D01*
X87778845Y-115875499D01*
X87933497Y-115844737D01*
X88079179Y-115784394D01*
X88210289Y-115696789D01*
X88321789Y-115585289D01*
X88409394Y-115454179D01*
X88469737Y-115308497D01*
X88500500Y-115153842D01*
X88500500Y-114996158D01*
X88500500Y-114996155D01*
X88471167Y-114848691D01*
X88477394Y-114779099D01*
X88520257Y-114723922D01*
X88586147Y-114700677D01*
X88592784Y-114700499D01*
X89100002Y-114700499D01*
X89100008Y-114700499D01*
X89202797Y-114689999D01*
X89369334Y-114634814D01*
X89518656Y-114542712D01*
X89642712Y-114418656D01*
X89734814Y-114269334D01*
X89789999Y-114102797D01*
X89800500Y-114000009D01*
X89800499Y-112999992D01*
X89799962Y-112994738D01*
X89789999Y-112897203D01*
X89789998Y-112897200D01*
X89783155Y-112876548D01*
X89734814Y-112730666D01*
X89642712Y-112581344D01*
X89556101Y-112494733D01*
X89522616Y-112433410D01*
X89527600Y-112363718D01*
X89569472Y-112307785D01*
X89634936Y-112283368D01*
X89703209Y-112298220D01*
X89712674Y-112303950D01*
X89720821Y-112309394D01*
X89720823Y-112309394D01*
X89720827Y-112309397D01*
X89855516Y-112365186D01*
X89866503Y-112369737D01*
X89984992Y-112393306D01*
X90021153Y-112400499D01*
X90021156Y-112400500D01*
X90021158Y-112400500D01*
X90178844Y-112400500D01*
X90178845Y-112400499D01*
X90333497Y-112369737D01*
X90479179Y-112309394D01*
X90479184Y-112309390D01*
X90479187Y-112309389D01*
X90522458Y-112280476D01*
X90589135Y-112259597D01*
X90656515Y-112278081D01*
X90703206Y-112330059D01*
X90714968Y-112393306D01*
X90713282Y-112414728D01*
X91345591Y-113047037D01*
X91282007Y-113064075D01*
X91167993Y-113129901D01*
X91074901Y-113222993D01*
X91009075Y-113337007D01*
X90992037Y-113400591D01*
X90359728Y-112768282D01*
X90359727Y-112768282D01*
X90320380Y-112822439D01*
X90223904Y-113011782D01*
X90158242Y-113213869D01*
X90158242Y-113213872D01*
X90125000Y-113423753D01*
X90125000Y-113636246D01*
X90158242Y-113846127D01*
X90158242Y-113846130D01*
X90223904Y-114048217D01*
X90320375Y-114237550D01*
X90359728Y-114291716D01*
X90992037Y-113659408D01*
X91009075Y-113722993D01*
X91074901Y-113837007D01*
X91167993Y-113930099D01*
X91282007Y-113995925D01*
X91345590Y-114012962D01*
X90713282Y-114645269D01*
X90713282Y-114645270D01*
X90767449Y-114684624D01*
X90956782Y-114781095D01*
X91158870Y-114846757D01*
X91368754Y-114880000D01*
X91581246Y-114880000D01*
X91791127Y-114846757D01*
X91791130Y-114846757D01*
X91993217Y-114781095D01*
X92182554Y-114684622D01*
X92236716Y-114645270D01*
X92236717Y-114645270D01*
X91604408Y-114012962D01*
X91667993Y-113995925D01*
X91782007Y-113930099D01*
X91875099Y-113837007D01*
X91940925Y-113722993D01*
X91957962Y-113659408D01*
X92590270Y-114291717D01*
X92590270Y-114291716D01*
X92629622Y-114237555D01*
X92634232Y-114228507D01*
X92682205Y-114177709D01*
X92750025Y-114160912D01*
X92816161Y-114183447D01*
X92855204Y-114228504D01*
X92859949Y-114237817D01*
X92984890Y-114409786D01*
X93135213Y-114560109D01*
X93307179Y-114685048D01*
X93307181Y-114685049D01*
X93307184Y-114685051D01*
X93496588Y-114781557D01*
X93698757Y-114847246D01*
X93908713Y-114880500D01*
X93908714Y-114880500D01*
X94121286Y-114880500D01*
X94121287Y-114880500D01*
X94331243Y-114847246D01*
X94533412Y-114781557D01*
X94722816Y-114685051D01*
X94791965Y-114634812D01*
X94894786Y-114560109D01*
X94894788Y-114560106D01*
X94894792Y-114560104D01*
X95045104Y-114409792D01*
X95045106Y-114409788D01*
X95045109Y-114409786D01*
X95170048Y-114237820D01*
X95170050Y-114237817D01*
X95170051Y-114237816D01*
X95266557Y-114048412D01*
X95332246Y-113846243D01*
X95365500Y-113636287D01*
X95365500Y-113423713D01*
X95332246Y-113213757D01*
X95266557Y-113011588D01*
X95170051Y-112822184D01*
X95170049Y-112822181D01*
X95170048Y-112822179D01*
X95045109Y-112650213D01*
X94894786Y-112499890D01*
X94722820Y-112374951D01*
X94722115Y-112374591D01*
X94714054Y-112370485D01*
X94663259Y-112322512D01*
X94646463Y-112254692D01*
X94668999Y-112188556D01*
X94714054Y-112149515D01*
X94722816Y-112145051D01*
X94863675Y-112042712D01*
X94894786Y-112020109D01*
X94894788Y-112020106D01*
X94894792Y-112020104D01*
X95045104Y-111869792D01*
X95045106Y-111869788D01*
X95045109Y-111869786D01*
X95170048Y-111697820D01*
X95170050Y-111697817D01*
X95170051Y-111697816D01*
X95266557Y-111508412D01*
X95332246Y-111306243D01*
X95365500Y-111096287D01*
X95365500Y-110883713D01*
X95332246Y-110673757D01*
X95266557Y-110471588D01*
X95170051Y-110282184D01*
X95170049Y-110282181D01*
X95170048Y-110282179D01*
X95045109Y-110110213D01*
X94894786Y-109959890D01*
X94722820Y-109834951D01*
X94714600Y-109830763D01*
X94714054Y-109830485D01*
X94663259Y-109782512D01*
X94646463Y-109714692D01*
X94668999Y-109648556D01*
X94714054Y-109609515D01*
X94722816Y-109605051D01*
X94819490Y-109534814D01*
X94894786Y-109480109D01*
X94894788Y-109480106D01*
X94894792Y-109480104D01*
X95045104Y-109329792D01*
X95045106Y-109329788D01*
X95045109Y-109329786D01*
X95170048Y-109157820D01*
X95170050Y-109157817D01*
X95170051Y-109157816D01*
X95266557Y-108968412D01*
X95332246Y-108766243D01*
X95365500Y-108556287D01*
X95365500Y-108343713D01*
X95332246Y-108133757D01*
X95266557Y-107931588D01*
X95170051Y-107742184D01*
X95170049Y-107742181D01*
X95170048Y-107742179D01*
X95045109Y-107570213D01*
X94894786Y-107419890D01*
X94722820Y-107294951D01*
X94722115Y-107294591D01*
X94714054Y-107290485D01*
X94663259Y-107242512D01*
X94646463Y-107174692D01*
X94668999Y-107108556D01*
X94714054Y-107069515D01*
X94722816Y-107065051D01*
X94821187Y-106993581D01*
X94894786Y-106940109D01*
X94894788Y-106940106D01*
X94894792Y-106940104D01*
X95045104Y-106789792D01*
X95045106Y-106789788D01*
X95045109Y-106789786D01*
X95170048Y-106617820D01*
X95170050Y-106617817D01*
X95170051Y-106617816D01*
X95266557Y-106428412D01*
X95332246Y-106226243D01*
X95365500Y-106016287D01*
X95365500Y-105803713D01*
X95332246Y-105593757D01*
X95266557Y-105391588D01*
X95170051Y-105202184D01*
X95170049Y-105202181D01*
X95170048Y-105202179D01*
X95045109Y-105030213D01*
X94894786Y-104879890D01*
X94722820Y-104754951D01*
X94722115Y-104754591D01*
X94714054Y-104750485D01*
X94663259Y-104702512D01*
X94646463Y-104634692D01*
X94668999Y-104568556D01*
X94714054Y-104529515D01*
X94722816Y-104525051D01*
X94802786Y-104466950D01*
X94894786Y-104400109D01*
X94894788Y-104400106D01*
X94894792Y-104400104D01*
X95045104Y-104249792D01*
X95045106Y-104249788D01*
X95045109Y-104249786D01*
X95170048Y-104077820D01*
X95170050Y-104077817D01*
X95170051Y-104077816D01*
X95266557Y-103888412D01*
X95332246Y-103686243D01*
X95365500Y-103476287D01*
X95365500Y-103263713D01*
X95332246Y-103053757D01*
X95266557Y-102851588D01*
X95170051Y-102662184D01*
X95170049Y-102662181D01*
X95170048Y-102662179D01*
X95045109Y-102490213D01*
X94894786Y-102339890D01*
X94722820Y-102214951D01*
X94722115Y-102214591D01*
X94714054Y-102210485D01*
X94663259Y-102162512D01*
X94646463Y-102094692D01*
X94668999Y-102028556D01*
X94714054Y-101989515D01*
X94722816Y-101985051D01*
X94781091Y-101942712D01*
X94894786Y-101860109D01*
X94894788Y-101860106D01*
X94894792Y-101860104D01*
X95045104Y-101709792D01*
X95045106Y-101709788D01*
X95045109Y-101709786D01*
X95170048Y-101537820D01*
X95170047Y-101537820D01*
X95170051Y-101537816D01*
X95266557Y-101348412D01*
X95332246Y-101146243D01*
X95365500Y-100936287D01*
X95365500Y-100723713D01*
X95332246Y-100513757D01*
X95266557Y-100311588D01*
X95170051Y-100122184D01*
X95170049Y-100122181D01*
X95170048Y-100122179D01*
X95045109Y-99950213D01*
X94894786Y-99799890D01*
X94722820Y-99674951D01*
X94533416Y-99578444D01*
X94349005Y-99518525D01*
X94299643Y-99488275D01*
X93478421Y-98667052D01*
X93478414Y-98667046D01*
X93404729Y-98617812D01*
X93404729Y-98617813D01*
X93355491Y-98584913D01*
X93218917Y-98528343D01*
X93218907Y-98528340D01*
X93073920Y-98499500D01*
X93073918Y-98499500D01*
X91912229Y-98499500D01*
X91845190Y-98479815D01*
X91824548Y-98463181D01*
X90528421Y-97167052D01*
X90528418Y-97167049D01*
X90450024Y-97114669D01*
X90405495Y-97084916D01*
X90405492Y-97084914D01*
X90405491Y-97084914D01*
X90268917Y-97028343D01*
X90268908Y-97028340D01*
X90180785Y-97010811D01*
X90118875Y-96978425D01*
X90084301Y-96917709D01*
X90083361Y-96865004D01*
X90100500Y-96778842D01*
X90100500Y-96621158D01*
X90100500Y-96621155D01*
X90100499Y-96621153D01*
X90097249Y-96604816D01*
X90069737Y-96466503D01*
X90013867Y-96331619D01*
X90009397Y-96320827D01*
X90009390Y-96320814D01*
X89921789Y-96189711D01*
X89921786Y-96189707D01*
X89810292Y-96078213D01*
X89810288Y-96078210D01*
X89679185Y-95990609D01*
X89679172Y-95990602D01*
X89533501Y-95930264D01*
X89533489Y-95930261D01*
X89378845Y-95899500D01*
X89378842Y-95899500D01*
X89221158Y-95899500D01*
X89221156Y-95899500D01*
X89149017Y-95913849D01*
X89104940Y-95922617D01*
X89080751Y-95925000D01*
X84525001Y-95925000D01*
X84525001Y-96062486D01*
X84535494Y-96165197D01*
X84590641Y-96331619D01*
X84590643Y-96331624D01*
X84682684Y-96480845D01*
X84806655Y-96604816D01*
X84806659Y-96604819D01*
X84809656Y-96606668D01*
X84811279Y-96608472D01*
X84812323Y-96609298D01*
X84812181Y-96609476D01*
X84856381Y-96658616D01*
X84867602Y-96727579D01*
X84839759Y-96791661D01*
X84809661Y-96817741D01*
X84806349Y-96819783D01*
X84806343Y-96819788D01*
X84682289Y-96943842D01*
X84590187Y-97093163D01*
X84590185Y-97093168D01*
X84565704Y-97167048D01*
X84535001Y-97259703D01*
X84535001Y-97259704D01*
X84535000Y-97259704D01*
X84524500Y-97362483D01*
X84524500Y-98137501D01*
X84524501Y-98137519D01*
X84535000Y-98240296D01*
X84535001Y-98240299D01*
X84590185Y-98406831D01*
X84590186Y-98406834D01*
X84682288Y-98556156D01*
X84806344Y-98680212D01*
X84836807Y-98699002D01*
X84883533Y-98750948D01*
X84894756Y-98819911D01*
X84886274Y-98851992D01*
X84880262Y-98866506D01*
X84880260Y-98866511D01*
X84849500Y-99021153D01*
X84849500Y-99178846D01*
X84880261Y-99333489D01*
X84880264Y-99333501D01*
X84940602Y-99479172D01*
X84940608Y-99479183D01*
X84958934Y-99506610D01*
X84979811Y-99573288D01*
X84961326Y-99640668D01*
X84909346Y-99687357D01*
X84855831Y-99699500D01*
X84549999Y-99699500D01*
X84549980Y-99699501D01*
X84447203Y-99710000D01*
X84447200Y-99710001D01*
X84280668Y-99765185D01*
X84280663Y-99765187D01*
X84131342Y-99857289D01*
X84007288Y-99981343D01*
X84007283Y-99981349D01*
X84005241Y-99984661D01*
X84003247Y-99986453D01*
X84002807Y-99987011D01*
X84002711Y-99986935D01*
X83953291Y-100031383D01*
X83884328Y-100042602D01*
X83820247Y-100014755D01*
X83794168Y-99984656D01*
X83792319Y-99981659D01*
X83792316Y-99981655D01*
X83668345Y-99857684D01*
X83519124Y-99765643D01*
X83519115Y-99765639D01*
X83509001Y-99762288D01*
X83451557Y-99722515D01*
X83424735Y-99657998D01*
X83437051Y-99589223D01*
X83444901Y-99575698D01*
X83509394Y-99479179D01*
X83569737Y-99333497D01*
X83600500Y-99178842D01*
X83600500Y-99021158D01*
X83600500Y-99021155D01*
X83600499Y-99021153D01*
X83569737Y-98866503D01*
X83509394Y-98720821D01*
X83471396Y-98663953D01*
X83450520Y-98597276D01*
X83450500Y-98595064D01*
X83450500Y-95920808D01*
X83470185Y-95853769D01*
X83486819Y-95833127D01*
X83650139Y-95669807D01*
X83805277Y-95514669D01*
X83805277Y-95514668D01*
X84363948Y-94955996D01*
X84425269Y-94922513D01*
X84494961Y-94927497D01*
X84550894Y-94969369D01*
X84575311Y-95034833D01*
X84569333Y-95082682D01*
X84535495Y-95184798D01*
X84535493Y-95184809D01*
X84525000Y-95287513D01*
X84525000Y-95425000D01*
X89224999Y-95425000D01*
X89224999Y-95287528D01*
X89224998Y-95287513D01*
X89214505Y-95184802D01*
X89159358Y-95018380D01*
X89159356Y-95018375D01*
X89067315Y-94869154D01*
X88943345Y-94745184D01*
X88794124Y-94653143D01*
X88794119Y-94653141D01*
X88627697Y-94597994D01*
X88627690Y-94597993D01*
X88603396Y-94595511D01*
X88538704Y-94569114D01*
X88498554Y-94511932D01*
X88495692Y-94442121D01*
X88512896Y-94403265D01*
X88576465Y-94308127D01*
X88625501Y-94189743D01*
X88643253Y-94100500D01*
X88650500Y-94064071D01*
X88650500Y-93878269D01*
X88670185Y-93811230D01*
X88722989Y-93765475D01*
X88792147Y-93755531D01*
X88855703Y-93784556D01*
X88874292Y-93805626D01*
X88874347Y-93805581D01*
X88875609Y-93807119D01*
X88877603Y-93809379D01*
X88878212Y-93810291D01*
X88989707Y-93921786D01*
X88989711Y-93921789D01*
X89120814Y-94009390D01*
X89120827Y-94009397D01*
X89252819Y-94064069D01*
X89266503Y-94069737D01*
X89421153Y-94100499D01*
X89421156Y-94100500D01*
X89421158Y-94100500D01*
X89578844Y-94100500D01*
X89578845Y-94100499D01*
X89733497Y-94069737D01*
X89879179Y-94009394D01*
X90010289Y-93921789D01*
X90121789Y-93810289D01*
X90209394Y-93679179D01*
X90269737Y-93533497D01*
X90300500Y-93378842D01*
X90300500Y-93221158D01*
X90300500Y-93221155D01*
X90300499Y-93221153D01*
X90269737Y-93066503D01*
X90242398Y-93000500D01*
X90209397Y-92920827D01*
X90209390Y-92920814D01*
X90121789Y-92789711D01*
X90121786Y-92789707D01*
X90010292Y-92678213D01*
X90010288Y-92678210D01*
X89879185Y-92590609D01*
X89879172Y-92590602D01*
X89733501Y-92530264D01*
X89733489Y-92530261D01*
X89578845Y-92499500D01*
X89578842Y-92499500D01*
X89421158Y-92499500D01*
X89421155Y-92499500D01*
X89266510Y-92530261D01*
X89266498Y-92530264D01*
X89120827Y-92590602D01*
X89120814Y-92590609D01*
X88989711Y-92678210D01*
X88989707Y-92678213D01*
X88878213Y-92789707D01*
X88878206Y-92789716D01*
X88877597Y-92790628D01*
X88877155Y-92790997D01*
X88874347Y-92794419D01*
X88873697Y-92793886D01*
X88823982Y-92835429D01*
X88754656Y-92844132D01*
X88691631Y-92813973D01*
X88654916Y-92754527D01*
X88650500Y-92721730D01*
X88650500Y-92158307D01*
X88670185Y-92091268D01*
X88686814Y-92070631D01*
X89935822Y-90821623D01*
X89997142Y-90788140D01*
X90066834Y-90793124D01*
X90122767Y-90834996D01*
X90147184Y-90900460D01*
X90147500Y-90909306D01*
X90147500Y-90986246D01*
X90180742Y-91196127D01*
X90180742Y-91196130D01*
X90246404Y-91398217D01*
X90342875Y-91587550D01*
X90382228Y-91641716D01*
X91014537Y-91009408D01*
X91031575Y-91072993D01*
X91097401Y-91187007D01*
X91190493Y-91280099D01*
X91304507Y-91345925D01*
X91368090Y-91362962D01*
X90735782Y-91995269D01*
X90735782Y-91995270D01*
X90789949Y-92034624D01*
X90979282Y-92131095D01*
X91181370Y-92196757D01*
X91391254Y-92230000D01*
X91603746Y-92230000D01*
X91813627Y-92196757D01*
X91813630Y-92196757D01*
X92015717Y-92131095D01*
X92205054Y-92034622D01*
X92259216Y-91995270D01*
X92259217Y-91995270D01*
X91626908Y-91362962D01*
X91690493Y-91345925D01*
X91804507Y-91280099D01*
X91897599Y-91187007D01*
X91963425Y-91072993D01*
X91980462Y-91009408D01*
X92612770Y-91641717D01*
X92612770Y-91641716D01*
X92652122Y-91587555D01*
X92656732Y-91578507D01*
X92704705Y-91527709D01*
X92772525Y-91510912D01*
X92838661Y-91533447D01*
X92877704Y-91578504D01*
X92882449Y-91587817D01*
X93007390Y-91759786D01*
X93157713Y-91910109D01*
X93329679Y-92035048D01*
X93329681Y-92035049D01*
X93329684Y-92035051D01*
X93519088Y-92131557D01*
X93721257Y-92197246D01*
X93931213Y-92230500D01*
X93931214Y-92230500D01*
X94143786Y-92230500D01*
X94143787Y-92230500D01*
X94353743Y-92197246D01*
X94555912Y-92131557D01*
X94745316Y-92035051D01*
X94800072Y-91995269D01*
X94917286Y-91910109D01*
X94917288Y-91910106D01*
X94917292Y-91910104D01*
X95067604Y-91759792D01*
X95067606Y-91759788D01*
X95067609Y-91759786D01*
X95192548Y-91587820D01*
X95192550Y-91587817D01*
X95192551Y-91587816D01*
X95289057Y-91398412D01*
X95354746Y-91196243D01*
X95388000Y-90986287D01*
X95388000Y-90773713D01*
X95354746Y-90563757D01*
X95289057Y-90361588D01*
X95192551Y-90172184D01*
X95192549Y-90172181D01*
X95192548Y-90172179D01*
X95067609Y-90000213D01*
X94917286Y-89849890D01*
X94745320Y-89724951D01*
X94737100Y-89720763D01*
X94736554Y-89720485D01*
X94685759Y-89672512D01*
X94668963Y-89604692D01*
X94691499Y-89538556D01*
X94736554Y-89499515D01*
X94745316Y-89495051D01*
X94778194Y-89471164D01*
X94917286Y-89370109D01*
X94917288Y-89370106D01*
X94917292Y-89370104D01*
X95067604Y-89219792D01*
X95067606Y-89219788D01*
X95067609Y-89219786D01*
X95192548Y-89047820D01*
X95192547Y-89047820D01*
X95192551Y-89047816D01*
X95289057Y-88858412D01*
X95354746Y-88656243D01*
X95388000Y-88446287D01*
X95388000Y-88233713D01*
X95354746Y-88023757D01*
X95289057Y-87821588D01*
X95192551Y-87632184D01*
X95192549Y-87632181D01*
X95192548Y-87632179D01*
X95067609Y-87460213D01*
X94917286Y-87309890D01*
X94745320Y-87184951D01*
X94744615Y-87184591D01*
X94736554Y-87180485D01*
X94685759Y-87132512D01*
X94668963Y-87064692D01*
X94691499Y-86998556D01*
X94736554Y-86959515D01*
X94745316Y-86955051D01*
X94797864Y-86916873D01*
X94917286Y-86830109D01*
X94917288Y-86830106D01*
X94917292Y-86830104D01*
X95067604Y-86679792D01*
X95067606Y-86679788D01*
X95067609Y-86679786D01*
X95192548Y-86507820D01*
X95192547Y-86507820D01*
X95192551Y-86507816D01*
X95289057Y-86318412D01*
X95354746Y-86116243D01*
X95388000Y-85906287D01*
X95388000Y-85693713D01*
X95354746Y-85483757D01*
X95289057Y-85281588D01*
X95192551Y-85092184D01*
X95192549Y-85092181D01*
X95192548Y-85092179D01*
X95067609Y-84920213D01*
X94917286Y-84769890D01*
X94745317Y-84644949D01*
X94736004Y-84640204D01*
X94685207Y-84592230D01*
X94668412Y-84524409D01*
X94690949Y-84458274D01*
X94736007Y-84419232D01*
X94745055Y-84414622D01*
X94799216Y-84375270D01*
X94799217Y-84375270D01*
X94166909Y-83742962D01*
X94230493Y-83725925D01*
X94344507Y-83660099D01*
X94437599Y-83567007D01*
X94503425Y-83452993D01*
X94520462Y-83389409D01*
X95152770Y-84021717D01*
X95152770Y-84021716D01*
X95192122Y-83967554D01*
X95288595Y-83778217D01*
X95354257Y-83576130D01*
X95354257Y-83576127D01*
X95387500Y-83366246D01*
X95387500Y-83153753D01*
X95354257Y-82943872D01*
X95354257Y-82943869D01*
X95288595Y-82741782D01*
X95192124Y-82552449D01*
X95152770Y-82498282D01*
X95152769Y-82498282D01*
X94520462Y-83130590D01*
X94503425Y-83067007D01*
X94437599Y-82952993D01*
X94344507Y-82859901D01*
X94230493Y-82794075D01*
X94166907Y-82777036D01*
X94799216Y-82144728D01*
X94745047Y-82105373D01*
X94745047Y-82105372D01*
X94736000Y-82100763D01*
X94685206Y-82052788D01*
X94668412Y-81984966D01*
X94690951Y-81918832D01*
X94736008Y-81879793D01*
X94745316Y-81875051D01*
X94868832Y-81785312D01*
X94917286Y-81750109D01*
X94917288Y-81750106D01*
X94917292Y-81750104D01*
X95067604Y-81599792D01*
X95067606Y-81599788D01*
X95067609Y-81599786D01*
X95192548Y-81427820D01*
X95192547Y-81427820D01*
X95192551Y-81427816D01*
X95289057Y-81238412D01*
X95354746Y-81036243D01*
X95388000Y-80826287D01*
X95388000Y-80613713D01*
X95354746Y-80403757D01*
X95289057Y-80201588D01*
X95192551Y-80012184D01*
X95192549Y-80012181D01*
X95192548Y-80012179D01*
X95067609Y-79840213D01*
X94917286Y-79689890D01*
X94745317Y-79564949D01*
X94736004Y-79560204D01*
X94685207Y-79512230D01*
X94668412Y-79444409D01*
X94690949Y-79378274D01*
X94736007Y-79339232D01*
X94745055Y-79334622D01*
X94799216Y-79295270D01*
X94799217Y-79295270D01*
X94166908Y-78662962D01*
X94230493Y-78645925D01*
X94344507Y-78580099D01*
X94437599Y-78487007D01*
X94503425Y-78372993D01*
X94520462Y-78309409D01*
X95152770Y-78941717D01*
X95152770Y-78941716D01*
X95192122Y-78887554D01*
X95288595Y-78698217D01*
X95354257Y-78496130D01*
X95354257Y-78496127D01*
X95387500Y-78286246D01*
X95387500Y-78073753D01*
X95354257Y-77863872D01*
X95354257Y-77863869D01*
X95288595Y-77661782D01*
X95192124Y-77472449D01*
X95152770Y-77418282D01*
X95152769Y-77418282D01*
X94520462Y-78050590D01*
X94503425Y-77987007D01*
X94437599Y-77872993D01*
X94344507Y-77779901D01*
X94230493Y-77714075D01*
X94166909Y-77697037D01*
X94799216Y-77064728D01*
X94745047Y-77025373D01*
X94745047Y-77025372D01*
X94736000Y-77020763D01*
X94685206Y-76972788D01*
X94668412Y-76904966D01*
X94690951Y-76838832D01*
X94736008Y-76799793D01*
X94745316Y-76795051D01*
X94850759Y-76718443D01*
X94917286Y-76670109D01*
X94917288Y-76670106D01*
X94917292Y-76670104D01*
X95067604Y-76519792D01*
X95067606Y-76519788D01*
X95067609Y-76519786D01*
X95192548Y-76347820D01*
X95192547Y-76347820D01*
X95192551Y-76347816D01*
X95289057Y-76158412D01*
X95354746Y-75956243D01*
X95388000Y-75746287D01*
X95388000Y-75533713D01*
X95354746Y-75323757D01*
X95289057Y-75121588D01*
X95192551Y-74932184D01*
X95192549Y-74932181D01*
X95192548Y-74932179D01*
X95067609Y-74760213D01*
X94917286Y-74609890D01*
X94745320Y-74484951D01*
X94744615Y-74484591D01*
X94736554Y-74480485D01*
X94685759Y-74432512D01*
X94668963Y-74364692D01*
X94691499Y-74298556D01*
X94736554Y-74259515D01*
X94745316Y-74255051D01*
X94834837Y-74190011D01*
X94917286Y-74130109D01*
X94917288Y-74130106D01*
X94917292Y-74130104D01*
X95067604Y-73979792D01*
X95067606Y-73979788D01*
X95067609Y-73979786D01*
X95192548Y-73807820D01*
X95192547Y-73807820D01*
X95192551Y-73807816D01*
X95289057Y-73618412D01*
X95354746Y-73416243D01*
X95388000Y-73206287D01*
X95388000Y-72993713D01*
X95354746Y-72783757D01*
X95289057Y-72581588D01*
X95192551Y-72392184D01*
X95192549Y-72392181D01*
X95192548Y-72392179D01*
X95067609Y-72220213D01*
X94917286Y-72069890D01*
X94745320Y-71944951D01*
X94744615Y-71944591D01*
X94736554Y-71940485D01*
X94685759Y-71892512D01*
X94668963Y-71824692D01*
X94691499Y-71758556D01*
X94736554Y-71719515D01*
X94745316Y-71715051D01*
X94767289Y-71699086D01*
X94917286Y-71590109D01*
X94917288Y-71590106D01*
X94917292Y-71590104D01*
X95067604Y-71439792D01*
X95067606Y-71439788D01*
X95067609Y-71439786D01*
X95192548Y-71267820D01*
X95192547Y-71267820D01*
X95192551Y-71267816D01*
X95289057Y-71078412D01*
X95354746Y-70876243D01*
X95388000Y-70666287D01*
X95388000Y-70453713D01*
X95354746Y-70243757D01*
X95289057Y-70041588D01*
X95192551Y-69852184D01*
X95192549Y-69852181D01*
X95192548Y-69852179D01*
X95067609Y-69680213D01*
X94917286Y-69529890D01*
X94745320Y-69404951D01*
X94744615Y-69404591D01*
X94736554Y-69400485D01*
X94685759Y-69352512D01*
X94668963Y-69284692D01*
X94691499Y-69218556D01*
X94736554Y-69179515D01*
X94745316Y-69175051D01*
X94767289Y-69159086D01*
X94917286Y-69050109D01*
X94917288Y-69050106D01*
X94917292Y-69050104D01*
X95067604Y-68899792D01*
X95067606Y-68899788D01*
X95067609Y-68899786D01*
X95192548Y-68727820D01*
X95192547Y-68727820D01*
X95192551Y-68727816D01*
X95289057Y-68538412D01*
X95354746Y-68336243D01*
X95388000Y-68126287D01*
X95388000Y-67913713D01*
X95354746Y-67703757D01*
X95289057Y-67501588D01*
X95192551Y-67312184D01*
X95192549Y-67312181D01*
X95192548Y-67312179D01*
X95067609Y-67140213D01*
X94917286Y-66989890D01*
X94745317Y-66864949D01*
X94736004Y-66860204D01*
X94685207Y-66812230D01*
X94668412Y-66744409D01*
X94690949Y-66678274D01*
X94736007Y-66639232D01*
X94745055Y-66634622D01*
X94799216Y-66595270D01*
X94799217Y-66595270D01*
X94166908Y-65962962D01*
X94230493Y-65945925D01*
X94344507Y-65880099D01*
X94437599Y-65787007D01*
X94503425Y-65672993D01*
X94520462Y-65609409D01*
X95152770Y-66241717D01*
X95152770Y-66241716D01*
X95192122Y-66187554D01*
X95288595Y-65998217D01*
X95354257Y-65796130D01*
X95354257Y-65796127D01*
X95387500Y-65586246D01*
X95387500Y-65373753D01*
X95354257Y-65163872D01*
X95354257Y-65163869D01*
X95288595Y-64961782D01*
X95192124Y-64772449D01*
X95152770Y-64718282D01*
X95152769Y-64718282D01*
X94520462Y-65350590D01*
X94503425Y-65287007D01*
X94437599Y-65172993D01*
X94344507Y-65079901D01*
X94230493Y-65014075D01*
X94166909Y-64997037D01*
X94799216Y-64364728D01*
X94745047Y-64325373D01*
X94745047Y-64325372D01*
X94736000Y-64320763D01*
X94685206Y-64272788D01*
X94668412Y-64204966D01*
X94690951Y-64138832D01*
X94736008Y-64099793D01*
X94745316Y-64095051D01*
X94838476Y-64027367D01*
X94917286Y-63970109D01*
X94917288Y-63970106D01*
X94917292Y-63970104D01*
X95067604Y-63819792D01*
X95067606Y-63819788D01*
X95067609Y-63819786D01*
X95192548Y-63647820D01*
X95192547Y-63647820D01*
X95192551Y-63647816D01*
X95289057Y-63458412D01*
X95354746Y-63256243D01*
X95388000Y-63046287D01*
X95388000Y-62833713D01*
X95354746Y-62623757D01*
X95289057Y-62421588D01*
X95192551Y-62232184D01*
X95192549Y-62232181D01*
X95192548Y-62232179D01*
X95067609Y-62060213D01*
X94917286Y-61909890D01*
X94745320Y-61784951D01*
X94741740Y-61783127D01*
X94736554Y-61780485D01*
X94685759Y-61732512D01*
X94668963Y-61664692D01*
X94691499Y-61598556D01*
X94736554Y-61559515D01*
X94745316Y-61555051D01*
X94850759Y-61478443D01*
X94917286Y-61430109D01*
X94917288Y-61430106D01*
X94917292Y-61430104D01*
X95067604Y-61279792D01*
X95067606Y-61279788D01*
X95067609Y-61279786D01*
X95192548Y-61107820D01*
X95192547Y-61107820D01*
X95192551Y-61107816D01*
X95289057Y-60918412D01*
X95354746Y-60716243D01*
X95388000Y-60506287D01*
X95388000Y-60293713D01*
X95354746Y-60083757D01*
X95289057Y-59881588D01*
X95192551Y-59692184D01*
X95192549Y-59692181D01*
X95192548Y-59692179D01*
X95067609Y-59520213D01*
X94917286Y-59369890D01*
X94745317Y-59244949D01*
X94736004Y-59240204D01*
X94685207Y-59192230D01*
X94668412Y-59124409D01*
X94690949Y-59058274D01*
X94736007Y-59019232D01*
X94745055Y-59014622D01*
X94799216Y-58975270D01*
X94799217Y-58975270D01*
X94166908Y-58342962D01*
X94230493Y-58325925D01*
X94344507Y-58260099D01*
X94437599Y-58167007D01*
X94503425Y-58052993D01*
X94520462Y-57989409D01*
X95152770Y-58621717D01*
X95152770Y-58621716D01*
X95192122Y-58567554D01*
X95288595Y-58378217D01*
X95354257Y-58176130D01*
X95354257Y-58176127D01*
X95387500Y-57966246D01*
X95387500Y-57753753D01*
X95354257Y-57543872D01*
X95354257Y-57543869D01*
X95288595Y-57341782D01*
X95192124Y-57152449D01*
X95152770Y-57098282D01*
X95152769Y-57098282D01*
X94520462Y-57730590D01*
X94503425Y-57667007D01*
X94437599Y-57552993D01*
X94344507Y-57459901D01*
X94230493Y-57394075D01*
X94166908Y-57377037D01*
X94799216Y-56744728D01*
X94745047Y-56705373D01*
X94745047Y-56705372D01*
X94736000Y-56700763D01*
X94685206Y-56652788D01*
X94668412Y-56584966D01*
X94690951Y-56518832D01*
X94736008Y-56479793D01*
X94745316Y-56475051D01*
X94824507Y-56417515D01*
X94917286Y-56350109D01*
X94917288Y-56350106D01*
X94917292Y-56350104D01*
X95067604Y-56199792D01*
X95067606Y-56199788D01*
X95067609Y-56199786D01*
X95192548Y-56027820D01*
X95192547Y-56027820D01*
X95192551Y-56027816D01*
X95289057Y-55838412D01*
X95354746Y-55636243D01*
X95388000Y-55426287D01*
X95388000Y-55213713D01*
X95354746Y-55003757D01*
X95289057Y-54801588D01*
X95192551Y-54612184D01*
X95192549Y-54612181D01*
X95192548Y-54612179D01*
X95067609Y-54440213D01*
X94917286Y-54289890D01*
X94745320Y-54164951D01*
X94744615Y-54164591D01*
X94736554Y-54160485D01*
X94685759Y-54112512D01*
X94668963Y-54044692D01*
X94691499Y-53978556D01*
X94736554Y-53939515D01*
X94745316Y-53935051D01*
X94790185Y-53902452D01*
X94917286Y-53810109D01*
X94917288Y-53810106D01*
X94917292Y-53810104D01*
X95067604Y-53659792D01*
X95067606Y-53659788D01*
X95067609Y-53659786D01*
X95192548Y-53487820D01*
X95192547Y-53487820D01*
X95192551Y-53487816D01*
X95289057Y-53298412D01*
X95354746Y-53096243D01*
X95388000Y-52886287D01*
X95388000Y-52673713D01*
X95354746Y-52463757D01*
X95289057Y-52261588D01*
X95192551Y-52072184D01*
X95192549Y-52072181D01*
X95192548Y-52072179D01*
X95067609Y-51900213D01*
X94917286Y-51749890D01*
X94745320Y-51624951D01*
X94744615Y-51624591D01*
X94736554Y-51620485D01*
X94685759Y-51572512D01*
X94668963Y-51504692D01*
X94691499Y-51438556D01*
X94736554Y-51399515D01*
X94745316Y-51395051D01*
X94767289Y-51379086D01*
X94917286Y-51270109D01*
X94917288Y-51270106D01*
X94917292Y-51270104D01*
X95067604Y-51119792D01*
X95067606Y-51119788D01*
X95067609Y-51119786D01*
X95192548Y-50947820D01*
X95192547Y-50947820D01*
X95192551Y-50947816D01*
X95289057Y-50758412D01*
X95354746Y-50556243D01*
X95388000Y-50346287D01*
X95388000Y-50133713D01*
X95354746Y-49923757D01*
X95289057Y-49721588D01*
X95192551Y-49532184D01*
X95192549Y-49532181D01*
X95192548Y-49532179D01*
X95067609Y-49360213D01*
X94917286Y-49209890D01*
X94745317Y-49084949D01*
X94736004Y-49080204D01*
X94685207Y-49032230D01*
X94668412Y-48964409D01*
X94690949Y-48898274D01*
X94736007Y-48859232D01*
X94745055Y-48854622D01*
X94799216Y-48815270D01*
X94799217Y-48815270D01*
X94166908Y-48182962D01*
X94230493Y-48165925D01*
X94344507Y-48100099D01*
X94437599Y-48007007D01*
X94503425Y-47892993D01*
X94520462Y-47829409D01*
X95152770Y-48461717D01*
X95152770Y-48461716D01*
X95192122Y-48407554D01*
X95288595Y-48218217D01*
X95354257Y-48016130D01*
X95354257Y-48016127D01*
X95387500Y-47806246D01*
X95387500Y-47593753D01*
X95354257Y-47383872D01*
X95354257Y-47383869D01*
X95288595Y-47181782D01*
X95192124Y-46992449D01*
X95152770Y-46938282D01*
X95152769Y-46938282D01*
X94520462Y-47570590D01*
X94503425Y-47507007D01*
X94437599Y-47392993D01*
X94344507Y-47299901D01*
X94230493Y-47234075D01*
X94166909Y-47217037D01*
X94799216Y-46584728D01*
X94745047Y-46545373D01*
X94745047Y-46545372D01*
X94736000Y-46540763D01*
X94685206Y-46492788D01*
X94668412Y-46424966D01*
X94690951Y-46358832D01*
X94736008Y-46319793D01*
X94745316Y-46315051D01*
X94824507Y-46257515D01*
X94917286Y-46190109D01*
X94917288Y-46190106D01*
X94917292Y-46190104D01*
X95067604Y-46039792D01*
X95067606Y-46039788D01*
X95067609Y-46039786D01*
X95192548Y-45867820D01*
X95192547Y-45867820D01*
X95192551Y-45867816D01*
X95289057Y-45678412D01*
X95354746Y-45476243D01*
X95388000Y-45266287D01*
X95388000Y-45053713D01*
X95354746Y-44843757D01*
X95289057Y-44641588D01*
X95192551Y-44452184D01*
X95192549Y-44452181D01*
X95192548Y-44452179D01*
X95067609Y-44280213D01*
X94917286Y-44129890D01*
X94745320Y-44004951D01*
X94744615Y-44004591D01*
X94736554Y-44000485D01*
X94685759Y-43952512D01*
X94668963Y-43884692D01*
X94691499Y-43818556D01*
X94736554Y-43779515D01*
X94745316Y-43775051D01*
X94831638Y-43712335D01*
X94917286Y-43650109D01*
X94917288Y-43650106D01*
X94917292Y-43650104D01*
X95067604Y-43499792D01*
X95067606Y-43499788D01*
X95067609Y-43499786D01*
X95192548Y-43327820D01*
X95192547Y-43327820D01*
X95192551Y-43327816D01*
X95289057Y-43138412D01*
X95354746Y-42936243D01*
X95388000Y-42726287D01*
X95388000Y-42513713D01*
X95354746Y-42303757D01*
X95289057Y-42101588D01*
X95192551Y-41912184D01*
X95192549Y-41912181D01*
X95192548Y-41912179D01*
X95067609Y-41740213D01*
X94917286Y-41589890D01*
X94745320Y-41464951D01*
X94555914Y-41368444D01*
X94555913Y-41368443D01*
X94555912Y-41368443D01*
X94353743Y-41302754D01*
X94353741Y-41302753D01*
X94353740Y-41302753D01*
X94192457Y-41277208D01*
X94143787Y-41269500D01*
X93931213Y-41269500D01*
X93882542Y-41277208D01*
X93721260Y-41302753D01*
X93519085Y-41368444D01*
X93329679Y-41464951D01*
X93157715Y-41589889D01*
X93044173Y-41703431D01*
X92982850Y-41736915D01*
X92913158Y-41731931D01*
X92857225Y-41690059D01*
X92840310Y-41659082D01*
X92791297Y-41527671D01*
X92791293Y-41527664D01*
X92705047Y-41412455D01*
X92705044Y-41412452D01*
X92589835Y-41326206D01*
X92589828Y-41326202D01*
X92454982Y-41275908D01*
X92454983Y-41275908D01*
X92395383Y-41269501D01*
X92395381Y-41269500D01*
X92395373Y-41269500D01*
X92395364Y-41269500D01*
X90599629Y-41269500D01*
X90599623Y-41269501D01*
X90540016Y-41275908D01*
X90405171Y-41326202D01*
X90405164Y-41326206D01*
X90289955Y-41412452D01*
X90289952Y-41412455D01*
X90203706Y-41527664D01*
X90203702Y-41527671D01*
X90153408Y-41662517D01*
X90147001Y-41722116D01*
X90147000Y-41722135D01*
X90147000Y-43517870D01*
X90147001Y-43517876D01*
X90153408Y-43577483D01*
X90203702Y-43712328D01*
X90203706Y-43712335D01*
X90289952Y-43827544D01*
X90289955Y-43827547D01*
X90405164Y-43913793D01*
X90405171Y-43913797D01*
X90536582Y-43962810D01*
X90592516Y-44004681D01*
X90616933Y-44070145D01*
X90602082Y-44138418D01*
X90580931Y-44166673D01*
X90467389Y-44280215D01*
X90342451Y-44452179D01*
X90245944Y-44641585D01*
X90180253Y-44843760D01*
X90147000Y-45053713D01*
X90147000Y-45266286D01*
X90181016Y-45481055D01*
X90179377Y-45481314D01*
X90176238Y-45543883D01*
X90146842Y-45590710D01*
X76234373Y-59503181D01*
X76173050Y-59536666D01*
X76146692Y-59539500D01*
X72279618Y-59539500D01*
X72212579Y-59519815D01*
X72178900Y-59485408D01*
X72177915Y-59486125D01*
X72050109Y-59310213D01*
X71899786Y-59159890D01*
X71727820Y-59034951D01*
X71727115Y-59034591D01*
X71719054Y-59030485D01*
X71668259Y-58982512D01*
X71651463Y-58914692D01*
X71673999Y-58848556D01*
X71719054Y-58809515D01*
X71727816Y-58805051D01*
X71817638Y-58739792D01*
X71899786Y-58680109D01*
X71899788Y-58680106D01*
X71899792Y-58680104D01*
X72050104Y-58529792D01*
X72050106Y-58529788D01*
X72050109Y-58529786D01*
X72175048Y-58357820D01*
X72175047Y-58357820D01*
X72175051Y-58357816D01*
X72271557Y-58168412D01*
X72337246Y-57966243D01*
X72370500Y-57756287D01*
X72370500Y-57543713D01*
X72337246Y-57333757D01*
X72271557Y-57131588D01*
X72175051Y-56942184D01*
X72175049Y-56942181D01*
X72175048Y-56942179D01*
X72050109Y-56770213D01*
X71936569Y-56656673D01*
X71903084Y-56595350D01*
X71908068Y-56525658D01*
X71949940Y-56469725D01*
X71980915Y-56452810D01*
X72112331Y-56403796D01*
X72227546Y-56317546D01*
X72313796Y-56202331D01*
X72364091Y-56067483D01*
X72370500Y-56007873D01*
X72370499Y-54212128D01*
X72364091Y-54152517D01*
X72362810Y-54149083D01*
X72313797Y-54017671D01*
X72313793Y-54017664D01*
X72227547Y-53902455D01*
X72227544Y-53902452D01*
X72112335Y-53816206D01*
X72112328Y-53816202D01*
X71977482Y-53765908D01*
X71977483Y-53765908D01*
X71917883Y-53759501D01*
X71917881Y-53759500D01*
X71917873Y-53759500D01*
X71917864Y-53759500D01*
X70122129Y-53759500D01*
X70122123Y-53759501D01*
X70062516Y-53765908D01*
X69927671Y-53816202D01*
X69927664Y-53816206D01*
X69812455Y-53902452D01*
X69812452Y-53902455D01*
X69726206Y-54017664D01*
X69726203Y-54017669D01*
X69677189Y-54149083D01*
X69635317Y-54205016D01*
X69569853Y-54229433D01*
X69501580Y-54214581D01*
X69473326Y-54193430D01*
X69359786Y-54079890D01*
X69187820Y-53954951D01*
X68998414Y-53858444D01*
X68998413Y-53858443D01*
X68998412Y-53858443D01*
X68796243Y-53792754D01*
X68796241Y-53792753D01*
X68796240Y-53792753D01*
X68634957Y-53767208D01*
X68586287Y-53759500D01*
X68373713Y-53759500D01*
X68325042Y-53767208D01*
X68163760Y-53792753D01*
X67961585Y-53858444D01*
X67772179Y-53954951D01*
X67600213Y-54079890D01*
X67449890Y-54230213D01*
X67324951Y-54402179D01*
X67228444Y-54591585D01*
X67162753Y-54793760D01*
X67129500Y-55003713D01*
X66750500Y-55003713D01*
X66750500Y-37253750D01*
X66750726Y-37246263D01*
X66768271Y-36956205D01*
X66770076Y-36941340D01*
X66821780Y-36659201D01*
X66825364Y-36644663D01*
X66902096Y-36398422D01*
X66910696Y-36370822D01*
X66915998Y-36356841D01*
X67033731Y-36095249D01*
X67040676Y-36082016D01*
X67189080Y-35836526D01*
X67197567Y-35824230D01*
X67374480Y-35598417D01*
X67384395Y-35587226D01*
X67587226Y-35384395D01*
X67598417Y-35374480D01*
X67824230Y-35197567D01*
X67836526Y-35189080D01*
X68082016Y-35040676D01*
X68095249Y-35033731D01*
X68356841Y-34915998D01*
X68370822Y-34910696D01*
X68644668Y-34825362D01*
X68659197Y-34821780D01*
X68941344Y-34770075D01*
X68956201Y-34768271D01*
X69246264Y-34750726D01*
X69253751Y-34750500D01*
X69315892Y-34750500D01*
X93184108Y-34750500D01*
X93246249Y-34750500D01*
X93253736Y-34750726D01*
G37*
%TD.AperFunction*%
%TD*%
M02*
